<?xml version="1.0" encoding="utf-8"?>
<!-- Generator: Adobe Illustrator 19.0.0, SVG Export Plug-In . SVG Version: 6.00 Build 0)  -->
<svg version="1.1" id="Auron" xmlns="http://www.w3.org/2000/svg" xmlns:xlink="http://www.w3.org/1999/xlink" x="0px" y="0px"
	 viewBox="0 0 378 257.5" style="enable-background:new 0 0 378 257.5;" xml:space="preserve">
<style type="text/css">
	.st0{fill:#77461C;}
	.st1{fill:#844E25;}
	.st2{fill:#263C83;}
	.st3{fill:#324C93;}
	.st4{fill:#8D8D8D;}
	.st5{fill:#797A7A;}
	.st6{fill:#9B9B9B;}
</style>
<g id="Braço_Direito">
	<g id="Braco">
		<path class="st0" d="M141.1,152c7.7,4.4,13.1,10.5,15.1,19.1c1.5,2.4,6.6-0.4,5.3-3.6c-2.1-6.9-6.5-13-14.3-17.8L141.1,152z"/>
		<path class="st1" d="M161.5,169.6c0.3-0.7,0.3-1.4,0-2.2c-2.1-6.9-6.5-13-14.3-17.8l-1.1,0.4C153.6,155.6,158.7,162.1,161.5,169.6
			z"/>
		<path class="st2" d="M159.1,161.7c-2.5-4.6-6.3-8.6-11.9-12.1l-6.1,2.4c6,3.5,10.6,7.9,13.3,13.8
			C156.1,165,157.7,163.9,159.1,161.7z"/>
		<ellipse class="st0" cx="160.4" cy="175.2" rx="7.2" ry="7.7"/>
		<path class="st3" d="M158.2,163c0.3-0.4,0.6-0.8,0.9-1.3c-2.5-4.6-6.3-8.6-11.9-12.1l-1.1,0.4C151,154,155.5,158.1,158.2,163z"/>
		<path class="st1" d="M166.3,179.5c0.8-1.2,1.2-2.7,1.2-4.3c0-4.2-3.2-7.7-7.2-7.7C164.8,170,167.6,173.5,166.3,179.5z"/>
	</g>
	<g id="Ombreira">
		<path class="st4" d="M136.8,146.7c0.9,5.5,5.1,8.4,15.1,6.9c2.1-0.4,1.7-2.1,0.3-2.4c-1.4-5.8-7.6-7.7-14.1-6.6
			c-0.5-0.4-1.1-0.4-1.6,0C136.2,145.3,136.4,145.9,136.8,146.7z"/>
		<path class="st5" d="M138.1,145.3c1.5,4.8,6.9,8.7,12.8,6.1C146.4,151.9,142,151,138.1,145.3z"/>
		<path class="st6" d="M141.9,144.9c-1.3,0.1-2,0.7-0.9,1c3.3,0.5,6.2,1.6,8.1,4c0.4,0.7,1.6,0.1,0.8-1.4
			C148,146.4,145.4,145.1,141.9,144.9"/>
	</g>
</g>
</svg>
