<?xml version="1.0" encoding="utf-8"?>
<!-- Generator: Adobe Illustrator 19.0.0, SVG Export Plug-In . SVG Version: 6.00 Build 0)  -->
<svg version="1.1" id="Auron" xmlns="http://www.w3.org/2000/svg" xmlns:xlink="http://www.w3.org/1999/xlink" x="0px" y="0px"
	 viewBox="0 0 378 257.5" style="enable-background:new 0 0 378 257.5;" xml:space="preserve">
<style type="text/css">
	.st0{fill:#77461C;}
	.st1{fill:#844E25;}
	.st2{fill:#263C83;}
	.st3{fill:#324C93;}
	.st4{fill:#8D8D8D;}
	.st5{fill:#797A7A;}
	.st6{fill:#9B9B9B;}
</style>
<g id="Braço_Esquerdo">
	<g id="Braço">
		<path class="st0" d="M110.5,153.5c-8.5,2.6-15.1,7.3-18.9,15.3c-2,2-6.3-1.8-4.4-4.7c3.6-6.3,9.2-11.2,17.9-14.2L110.5,153.5z"/>
		<path class="st1" d="M86.8,166.2c-0.1-0.7,0-1.4,0.4-2.1c3.6-6.3,9.2-11.2,17.9-14.2l1,0.7C97.6,154.2,91.2,159.4,86.8,166.2z"/>
		<path class="st2" d="M90.9,159c3.5-3.9,8.1-7,14.3-9.1l5.4,3.7c-6.6,2-12.1,5.4-16,10.5C93.1,162.9,91.7,161.5,90.9,159z"/>
		<ellipse transform="matrix(0.9752 0.2211 -0.2211 0.9752 40.137 -14.9009)" class="st0" cx="86.6" cy="171.8" rx="7.2" ry="7.7"/>
		<path class="st3" d="M91.5,160.4c-0.2-0.4-0.4-0.9-0.6-1.5c3.5-3.9,8.1-7,14.3-9.1l1,0.7C100.5,153.2,95.2,156.2,91.5,160.4z"/>
		<path class="st1" d="M79.9,174.7c-0.5-1.4-0.6-2.9-0.2-4.5c0.9-4.1,4.8-6.8,8.7-5.9C83.5,165.8,80,168.6,79.9,174.7z"/>
	</g>
	<g id="Ombreira_1_">
		<path class="st4" d="M113.1,147.2c-0.9,5.5-5.1,8.4-15.1,6.9c-2.1-0.4-1.7-2.1-0.3-2.4c1.4-5.8,7.6-7.7,14.1-6.6
			c0.5-0.4,1.1-0.4,1.6,0C113.6,145.7,113.4,146.4,113.1,147.2z"/>
		<path class="st5" d="M111.7,145.8c-1.5,4.8-6.9,8.7-12.8,6.1C103.5,152.4,107.9,151.5,111.7,145.8z"/>
		<path class="st6" d="M108,145.4c1.3,0.1,2,0.7,0.9,1c-3.3,0.5-6.2,1.6-8.1,4c-0.4,0.7-1.6,0.1-0.8-1.4
			C101.8,146.9,104.4,145.6,108,145.4"/>
	</g>
</g>
</svg>
