<?xml version="1.0" encoding="utf-8"?>
<!-- Generator: Adobe Illustrator 19.0.0, SVG Export Plug-In . SVG Version: 6.00 Build 0)  -->
<svg version="1.1" xmlns="http://www.w3.org/2000/svg" xmlns:xlink="http://www.w3.org/1999/xlink" x="0px" y="0px"
	 viewBox="0 0 24 24" style="enable-background:new 0 0 24 24;" xml:space="preserve">
<style type="text/css">
	.st0{fill:url(#XMLID_6_);}
	.st1{opacity:0.4;fill:#99D0E1;}
	.st2{fill:#CFCECE;}
</style>
<g id="Camada_1">
	<linearGradient id="XMLID_6_" gradientUnits="userSpaceOnUse" x1="12" y1="-3.865352e-010" x2="12" y2="24">
		<stop  offset="0" style="stop-color:#65CBE4"/>
		<stop  offset="0.9796" style="stop-color:#1A1751"/>
	</linearGradient>
	<path id="XMLID_1_" class="st0" d="M22.5,24h-21C0.7,24,0,23.3,0,22.5l0-21C0,0.7,0.7,0,1.5,0l21,0C23.3,0,24,0.7,24,1.5v21
		C24,23.3,23.3,24,22.5,24z"/>
	<path id="XMLID_2_" class="st1" d="M17.3,3.5c-1.9,0-1.8-3.2,0-3.2C20,0.4,23-0.3,23.2,6.8c0,1.5-2.8,1.4-3,0
		C20,5,19.4,3.5,17.3,3.5z"/>
</g>
<g id="seta">
	<path id="XMLID_3_" class="st2" d="M10.4,1.7L2.5,9.9l7.9,9.3V14c4.2,0,8.1,1.5,10.5,8.7c0-11.3-2.7-16.5-10.6-16.3L10.4,1.7z"/>
	<path id="XMLID_4_" class="st2" d="M25.7,6.2"/>
</g>
</svg>
