<?xml version="1.0" encoding="utf-8"?>
<!-- Generator: Adobe Illustrator 19.0.0, SVG Export Plug-In . SVG Version: 6.00 Build 0)  -->
<svg version="1.1" id="Auron" xmlns="http://www.w3.org/2000/svg" xmlns:xlink="http://www.w3.org/1999/xlink" x="0px" y="0px"
	 viewBox="0 0 378 257.5" style="enable-background:new 0 0 378 257.5;" xml:space="preserve">
<style type="text/css">
	.st0{fill:#D09818;}
	.st1{fill:#BF8716;}
	.st2{fill:#E0A632;}
	.st3{fill:#F9C19D;}
	.st4{fill:#1D1D1D;}
	.st5{fill:#B37B0E;}
</style>
<g id="Cabeça_2">
	<g id="Cabeça_1_">
		<g id="CabeloTras_1_">
			<path class="st0" d="M113.5,91.1c-8.3-1.1-19,3.7-17.9,23.5c1.2,8.2,1.1,15.9-1.5,22.5c1.8-0.1,3.2-0.7,4.3-1.9
				c0.9,3.6,2.9,6.3,6.2,8c-1.3-1.3-0.7-3.1,0-4.9l35.6,2.9c0.4,1.3,0.8,2.6,0,3.8c3.5-0.5,6.2-3.4,8.4-7.8c1.3,1.7,2.7,3.5,4.1,5.3
				c-1-5.4-1.5-10.9,0-16.8c4.1-16,0.1-30.5-14.6-36.3C128.6,85.5,120.1,84.9,113.5,91.1z"/>
			<path class="st1" d="M152.8,125c-0.1,0.2-0.1,0.5-0.2,0.7c-1.5,5.9-1,11.4,0,16.8c-1.4-1.8-2.8-3.6-4.1-5.3
				c-2.2,4.4-4.9,7.2-8.4,7.8c0.8-1.3,0.4-2.5,0-3.8l-35.6-2.9c-0.7,1.8-1.3,3.6,0,4.9c-3.3-1.7-5.2-4.4-6.2-8
				c-1,1.2-2.4,1.9-4.3,1.9c1.4-3.6,2.1-7.5,2.2-11.6c0.9,1.7,1.6,3.4,1,4.9c1.5-0.7,2.9-1.4,3-2.8l1.9,3.3l44.9-0.6l2-3.4l0.6,0.7
				C150.8,126.2,151.7,125,152.8,125z"/>
			<path class="st2" d="M129,91.2c9.3,1,14.8,5.4,17.6,12.1l-0.5-2.5l1.3,2l-0.5-2l2,1.5c-3.8-9.2-10.1-12-17.9-13l0.8,0.7h-2.6
				l1.4,0.6L129,91.2z"/>
			<path class="st2" d="M109.3,93.7c-6,3.8-8.6,9.2-9.5,15.4l-0.3-0.9l0.3,9.5l-0.3-0.2c0.3,2.4,0.2,4.6-0.7,6.4
				c0.1-1.4-0.4-2.3-1.3-3v1.4c-1.2-12.6-1.8-24.8,11.3-29.8l-0.5,0.7l2.4-0.7l-0.9,0.7l0.9-0.3L109.3,93.7z"/>
			<path class="st2" d="M148.1,106.6c1.5,5.2,2.7,10.4,2.1,15l0.9-1.9l0.3,1.6c1.4-5.5,1.9-10.9-1.6-15.7l-0.4,1.2l-1.2-0.8v0.6
				H148.1z"/>
		</g>
		<path id="Rosto_1_" class="st3" d="M143.1,109.2c2.2,10.4,1.8,20.4,0,30.3c-1.5,8.3-37.7,8.4-38.9,0c-0.9-8.5-1.1-17.8-0.8-27.8
			l4.9-8.4l28-3.3L143.1,109.2z"/>
		<g id="BocaCirculo">
		</g>
		<g id="Olhos_em_X">
			<polygon class="st4" points="128.4,118.3 133.2,123.9 139.2,118.5 141.2,121.3 135,126.4 140.2,132.1 137.8,134.1 132.6,128.5 
				127.6,133.2 126.1,131.2 130.7,126.4 126,120.5 			"/>
			<polygon class="st4" points="110.1,117.1 115,122.7 120.9,117.3 122.9,120.1 116.7,125.2 122,130.8 119.6,132.9 114.4,127.2 
				109.3,132 107.8,130 112.4,125.2 107.7,119.3 			"/>
		</g>
		<g id="Sombrancelhas_1_">
			<path class="st0" d="M126.4,116.7c5-0.9,10-1.7,13.7,0.4c-0.9-2.3-2.1-4.1-4.4-4.2C129.7,112.7,127.4,114.4,126.4,116.7z"/>
			<path class="st0" d="M111,115c2.8-0.3,5.8-0.1,9.3,1c-2-3.6-4.5-5-7.6-4.2L111,115z"/>
		</g>
		<g id="Cabelo_Frente_1_">
			<path class="st0" d="M141.4,142.5c1.8-8,2.9-15.6,2.2-22.2l-0.7,1.3c-1.1-4.3-2.4-8.3-4.5-10.9c-2,3.9-3.5,7.9-4.4,12
				c-4.2-4.8-7.2-10.2-9-16.1c-1.4,3.3-2.2,7-2.3,11.2c-2.3-3-3.8-6.5-3.8-11c-3.5,5.7-7.7,10.7-12.9,14.8c-0.8,7.7-1.1,14.8-0.3,21
				c-2.7-2.2-5.6-11.4-4-29.3l4.8-13.2l28.1-1.8l10.7,7.8l4,12.1v4.4C148.9,132,145.8,138.1,141.4,142.5z"/>
			<path class="st5" d="M149.3,122.6c-0.4,9.4-3.5,15.5-7.9,20c1.8-8,2.9-15.6,2.2-22.2l-0.7,1.3c-1.1-4.3-2.4-8.3-4.5-10.9
				c-2,3.9-3.5,7.9-4.4,12c-4.2-4.8-7.2-10.2-9-16.1c-1.4,3.3-2.2,7-2.3,11.2c-2.3-3-3.8-6.5-3.8-11c-3.5,5.7-7.7,10.7-12.9,14.8
				c-0.8,7.7-1.1,14.8-0.3,21c-2.4-1.9-4.8-9.1-4.4-22.6c0.3,3.2,0.6,6.2,1.5,8c0.1-3.4,0.3-6.6,1.1-9c3.2-3.3,5.7-6.7,7.1-10.3v2.2
				c3.1-3.3,5.9-6.4,7.9-8.4l2-1.6c-0.5,3.3-0.4,6,0.7,8c0.6-2.7,1.6-5,3.7-6.4c2.4,4.3,4.9,8.6,7,10.8l3.2-4.8l0.4,0.8l1.7-2.4
				c2.4,3.2,4.8,6.3,6,9.7l0.3-1.8c1.1,5,2.3,9.9,1.3,17.2C146.8,129.1,148.3,126.2,149.3,122.6z"/>
			<path class="st5" d="M119,92.5c-5.7-1.3-10.4,1.4-14.2,7.3C109.5,96.3,114.3,92.5,119,92.5z"/>
			<path class="st5" d="M124.5,92.2c10.3-0.4,18.1,2.9,20.7,13.8C141.6,98.9,136.6,92.9,124.5,92.2z"/>
			<path class="st5" d="M103.2,105.3c-1.8,2.4-2.1,5.7-1.9,9.3C101.7,111.1,102.2,107.8,103.2,105.3z"/>
			<path class="st2" d="M119.7,93.9c-3.6,0-7.7,1.8-12.4,6.1h1.2c-3.9,2.7-5.1,7.7-5.4,13.4l0.9-2.2l-0.9,5.5l0.5-0.8
				c3.2-3.4,6.1-7,7.6-11l0.2,2.3c2.6-2.2,4.7-4.5,5.8-6.8l-0.1,1.2c1.9-1.8,3.7-3.5,5.8-2.9c-1,1.4-1.4,2.7-1.2,4
				c1.2-1.3,2.4-2.4,4-1.9l4.9,7.2l1.6-1.6l0.4,0.7l2.3-2.1l0.1,0.6l1.6-1.8c2.8,2.7,5.5,5.3,6.4,7.7l0.4-1.1
				c1.7,4.9,3.2,9.7,3,13.4c0.7-8.1,1.5-16.3-8.4-25.4l1,0.1c-4.5-3.1-9-6-15.5-4.7l1.1-0.7l-2.5,0.8l-2.2-0.7L119.7,93.9z"/>
		</g>
	</g>
</g>
</svg>
