<?xml version="1.0" encoding="utf-8"?>
<!-- Generator: Adobe Illustrator 19.0.0, SVG Export Plug-In . SVG Version: 6.00 Build 0)  -->
<svg version="1.1" xmlns="http://www.w3.org/2000/svg" xmlns:xlink="http://www.w3.org/1999/xlink" x="0px" y="0px"
	 viewBox="0 0 295 340" style="enable-background:new 0 0 295 340;" xml:space="preserve">
<style type="text/css">
	.st0{fill:#F9C19D;}
	.st1{fill:#E5A683;}
	.st2{fill:#F9CCB4;}
	.st3{fill:#D39271;}
	.st4{fill:#F2B999;}
	.st5{fill:#070707;}
	.st6{fill:#070707;stroke:#070707;stroke-miterlimit:10;}
	.st7{fill:none;stroke:#000000;stroke-miterlimit:10;}
	.st8{stroke:#000000;stroke-miterlimit:10;}
	.st9{fill:none;stroke:#070707;stroke-miterlimit:10;}
	.st10{fill:#F9C29E;}
	.st11{fill:#E6A784;}
	.st12{fill:#F9CCB5;}
	.st13{font-family:'MyriadPro-Regular';}
	.st14{font-size:16px;}
</style>
<g id="Letra_A">
	<path class="st0" d="M35.9,49.4c1,4.2,3.5,6.7,9.6,5.4c3.6-1,7.4-4.5,11.3-11.7c2.4-5.5-2.6-8.3-4.4-3.4L35.9,49.4z"/>
	<path class="st1" d="M54.9,37.3c-0.9,0.1-1.9,0.9-2.5,2.5l-16.6,9.6c0.2,0.9,0.5,1.7,0.8,2.4C44.8,53.3,51.9,46.7,54.9,37.3z"/>
	<path class="st0" d="M36.8,50.6c-7.4-3.2-12.3-9.2-13.4-19.4c0-3.9,2.3-6.4,5.4-6.5c0.7-1.6,1.6-3,4.5-3.1c0.6-1.4,2.6-4.1,5.3-3.3
		c1.6-1.8,3.5-2.2,5.9-1c0.7-0.4,1.1-0.8,3.6-0.7c7.4,1.8,10.3,12,7.1,18.9C51.7,45.2,43.8,53.3,36.8,50.6z"/>
	<path class="st1" d="M27.4,32.5c1.8,6.6,6.9,8.8,8.8,5c1.6-4.5-1.2-8.7-7.4-12.8c-3.5-0.3-5.8,2.6-5.4,6.5c2.1-3.6,4.1-7.1,7.1-4
		c5.3,4.5,6.8,9.3,3.1,10c-2.2-0.2-4.3-1.6-6-6.1l-1.9,2.3L27.4,32.5z"/>
	<path class="st1" d="M33.3,21.6c-1.9-0.1-3.4,0.8-4.5,3.1l5.1,5.2c1.4,2.1,2.2,4.2,2.3,6.5c-0.3-2.8-0.3-5.8-2.3-7.4l-4.4-4
		c2.1-3.2,4.7-3.7,8,0.6c3.7,4.5,3,9.1-1,9.8l0,0.4c3.7-0.5,6-4.6,1.3-10.6C36.9,24.2,36.4,23.3,33.3,21.6z"/>
	<path class="st1" d="M39.6,33.6c4.3-0.5,7-3.7,3.2-10.1c-1-1.8-2.6-3.3-4.9-4.6c-1.5,0-3,1.2-4.5,3.1l-0.1-0.4
		c1.3-2.5,3-3.8,5.3-3.3C48.4,24.7,46.8,34.5,39.6,33.6z"/>
	<path class="st1" d="M38.5,18.9c4.5-6.2,14.6,6.7,6,12c3.8-1.7,5.4-4.6,2.8-10c-2.6-4.8-6-5.6-8.8-2.5L38.5,18.9z"/>
	<path class="st2" d="M44.4,17.4c3-2.3,9.6-0.1,11.6,8.6C53,20.4,49.3,17.2,44.4,17.4z"/>
	<path class="st1" d="M32.2,39c0.3,0.8,1.1,1.2,1.8,1.3c1.1,0.1,2.2-0.5,2.7-1.5c0.2-0.4,0.4-0.9,0.9-1.1c0.3-0.1,0.7,0,1,0
		c0.9,0.1,1.8-0.2,2.5-0.8c1.4-1,2.5-2.7,2.8-4.5c0-0.1,0-0.1,0-0.2c0-0.2-0.2-0.3-0.3-0.2c-0.1,0-0.3,0.1-0.4,0.2
		c-1,0.7-2.2,1.1-3.5,1.3c-0.1,0-0.2,0-0.3,0.1c-0.1,0-0.1,0.1-0.1,0.2c-0.3,0.6-0.8,1.1-1.4,1.4c-0.4,0.2-0.7,0.3-1.1,0.4
		c-1.4,0.6-2.3,1.9-3.4,2.9c-0.3,0.3-0.7,0.5-1.1,0.4"/>
	<path class="st3" d="M42.1,40.8c0.4-4.8,2.3-9.5,8.2-13.6C45.1,29.2,42.2,33.6,42.1,40.8z"/>
	<path class="st2" d="M48.6,30.4c-2,1.7-3.1,3.5-3.1,5.7c0,0.5,1.2,0.7,1.2-0.6c0.3-1.3,0.6-2.7,1.9-3.5
		C49.7,31.6,49.6,29.6,48.6,30.4z"/>
	<path class="st2" d="M45.7,51.7c2.6-2,5.3-3.9,7-7.1c0.5-0.9,2.3-0.4,1.4,1.6c-1.7,3-4,5.5-7.1,7.3C45.7,54.3,44.8,53,45.7,51.7z"
		/>
</g>
<g id="Letra_B">
	<path class="st0" d="M82.1,49.3c-2,2-1.9,3.9,1,5.6c4.5,2.5,10.6,2.5,15.7-0.7c2.6-2,2.7-4.3,0.6-5.1L82.1,49.3z"/>
	<path class="st1" d="M100.7,50.4c-0.2-0.5-0.7-0.9-1.4-1.2l-17.3,0.2c-0.4,0.3-0.6,0.7-0.9,1C86.4,55.2,92.8,55.8,100.7,50.4z"/>
	<path class="st0" d="M87.9,53.4c-5.1-0.6-9.6-5.8-8.9-11c0.6-4.1,0.8-8.1,0.6-12.1c-0.7-6.8,2.4-12.7,5.6-9.4c1.2-8,6.9-8,6.9-2.4
		c0.8-2.6,5.8-3.8,5.5,3.1c1.4-3,5.7-2.6,4.9,4.8c-0.3,4.4-1.4,9.2-1.2,14.6c0.6,5.7-1.6,8.1-5.6,10.8C94,53.4,91.3,53.9,87.9,53.4z
		"/>
	<path class="st1" d="M92.1,44.4l-2.9-5.3c-1.6,1.9-1.4,4.4,0.9,4.8L92.1,44.4z"/>
	<path class="st0" d="M103.8,44.7c1.4-3.2-0.8-7.4-7.4-7.4c-5.3-0.2-7.6,0.3-7.7,3.5c0.1,1.1,0.8,2,2.6,2.5c-1.5,1-2.7,2.4-3.4,4.4
		c-0.5,2.6,0.4,5.2,5.2,5.6C97.1,52,101.7,50.4,103.8,44.7z"/>
	<path class="st1" d="M90.3,42.9c0.3,0.1,0.6,0.2,0.9,0.4c-1.5,1-2.7,2.4-3.4,4.4c1.1-1.3,2.2-2.9,3.7-2.4c2.1,0.3,4.1,0.5,5.8-1.1
		l0.9-0.3L90.3,42.9z"/>
	<path class="st1" d="M98.8,20.3c-1.6,2.4-2.2,7.4-2.5,13.3l0.6-12.3l0.2-3.1c0.4,1,0.6,2.1,0.5,3.5C98,21,98.4,20.6,98.8,20.3z"/>
	<path class="st1" d="M91.2,32.1c0.4-5.9,0.7-12.3,1.8-14.9c-0.3,0.2-0.6,0.6-0.9,1.3c0-0.8-0.1-1.6-0.4-2.2
		C92,19.4,91.6,25.8,91.2,32.1z"/>
	<path class="st1" d="M85.3,20.9l0.7-2.8c-1.1,3.2-0.8,9.5-0.9,15.7c0-5.3,0.4-11.6-0.6-13.6L85.3,20.9z"/>
	<path class="st2" d="M103.9,41.2c-0.8-2.1-3.3-3.9-7.6-3.9c-5.3-0.2-7.6,0.3-7.7,3.5c0,0.8,0.4,1.4,1.3,2c-1.5-1.7-1-3.9,2.2-4.3
		C96.8,38,100.9,38.7,103.9,41.2z"/>
	<path class="st2" d="M91.6,15.8c-1.4-2.2-3.7-1.4-5.1,1.2C88,15.3,89.6,14.7,91.6,15.8z"/>
	<path class="st2" d="M93.1,17.3c1.6-1.3,3.3-1,4.1,0.9C96.2,17.2,95,16.7,93.1,17.3z"/>
	<path class="st2" d="M98.8,20.3c3.1-1.6,4.7,1.8,3.7,8.2C102.6,23.1,101.9,19.2,98.8,20.3z"/>
	<path class="st2" d="M84.5,20.3c-2.5-1.2-4.3,1.5-4.8,6.6C80.8,22.7,82.2,19.6,84.5,20.3z"/>
	<path class="st1" d="M83.9,34.9c3.9-1.2,8.5-1.3,13.3-0.8L83.9,34.9z"/>
	<path class="st2" d="M85.6,54.8c2.8,0.6,5.5,1.2,9.1,0.2c0.3,0,0.7,0.2,0,0.7c-2.5,0.6-5.2,1-9.1,0C85.2,55.4,85,54.8,85.6,54.8z"
		/>
</g>
<g id="Letra_C">
	<path class="st0" d="M136,48.4c-2.6,1.4-3,3.6,1.2,5.1c4.9,1.5,13.9,2,17.3-1.9c2.3-2.7,1-7.4-1.6-7.4L136,48.4z"/>
	<path class="st1" d="M152.9,44.2L136,48.4c-0.5,0.3-0.9,0.6-1.2,0.9c5.8,3.7,15.9,5.7,20.3-3.6C154.4,44.6,153.7,44.2,152.9,44.2z"
		/>
	<path class="st4" d="M131.2,30.2c-0.1,2.1-0.4,4-1.1,5.5c-1.7,3.1-0.9,5,0,6.8l16.5,5l2.5-6l-0.4-9.8l-4.8-5.6l-8.2-0.5l-4.5,3.2
		L131.2,30.2z"/>
	<path class="st1" d="M148.9,37.8l-0.3-6.1l-4.8-5.6l-8.2-0.5l-4.5,3.2l0,1.3c0,0.9-0.1,1.8-0.3,2.6c1.7,0.4,3.4,0.8,5.9-0.7
		c0.3-0.4,0.7-0.6,1.5,0.2c1.2,1.1,2.5,2,5,1.5C145.2,32.9,147.1,32.7,148.9,37.8z"/>
	<path class="st3" d="M134,27.8c0.5,1.2,1,2.5,1,3.8c0.2-1.4,0.3-2.7,0-3.9L134,27.8z"/>
	<path class="st3" d="M138.6,26.5c1,2.3,1.7,4.4,1.8,6.3c0.2-2.3,0.5-4.7-0.9-6.6L138.6,26.5z"/>
	<path class="st0" d="M125.4,29.1c-1.8-0.7-3.7-1.9-2.4-4.9c1.2-2.8,3.3-5.8,8.5-6.1c3.2-0.3,6.8-0.2,10.5,0L125.4,29.1z"/>
	<path class="st0" d="M144.4,18.2c-7.8,0-15.8-0.3-19.2,8.1c-0.9,3.1,0.5,4.8,4,5.1l12.1-7.3l6.2-3L144.4,18.2z"/>
	<path class="st2" d="M138.6,18.2c-5.7,0.3-10.9,1.7-13.4,8.1c-0.5,1.7-0.3,3,0.6,3.9C125.9,29.1,124.2,21.3,138.6,18.2z"/>
	<path class="st0" d="M137.8,50.3c5.9,2.6,17.7,2,17.7-10c-0.3-11.1-2.8-20.5-10.8-22.2c-4.6-0.5-9.4,1-15.1,7.7
		c-3.9,4.2-0.3,8.5,3,5.3c5.7-6.3,12-6.2,13.4,2.4c1.3,7.9-2.4,11.3-7.8,7.8c-4.8-3.7-9.1-4.4-9.4-0.2
		C128.6,43.6,130.6,46.4,137.8,50.3z"/>
	<path class="st1" d="M146,33.6c1.3,7.9-2.4,11.3-7.8,7.8C143.1,47.6,149.9,42.7,146,33.6z"/>
	<path class="st2" d="M146.2,18.6c-0.5-0.2-1-0.3-1.5-0.4c-4.6-0.5-9.4,1-15.1,7.7c-3.4,3.7-1.1,7.4,1.8,6.2c-2.1-1-2.8-2.9,0.1-6.2
		C137.2,20.6,142.2,17.9,146.2,18.6z"/>
	<path class="st2" d="M137.8,41c-4.6-3.3-8.6-3.9-8.9,0.2c0,0.3,0,0.5,0,0.8C130.3,39.2,133.5,39.3,137.8,41z"/>
	<path class="st2" d="M136.2,17.9c-1.6,0-3.2,0-4.7,0.2c-5.1,0.3-7.3,3.3-8.5,6.1c-0.7,1.6-0.4,2.7,0.2,3.5
		C122.6,22.8,128.7,17.8,136.2,17.9z"/>
	<path class="st2" d="M151.4,52.2c-2.3,1.2-5.4,1.1-8.4,1c-0.4,0-0.2,0.5,0,0.6c2.3,0.3,6.3,0.3,8.5-1
		C151.8,52.5,151.6,52.1,151.4,52.2z"/>
</g>
<g id="Letra_D">
	<path class="st0" d="M191.5,48.5c-1.3,2-3,4,1.3,6.6c3.3,1.4,9.7,2.5,17-3.3c3.9-3.3,1.6-4.7,0.8-5.8L191.5,48.5z"/>
	<path class="st1" d="M211.4,46.9c-0.3-0.3-0.6-0.6-0.8-0.9l-19.1,2.5c-0.4,0.6-0.9,1.3-1.2,1.9C194.8,56.6,209.4,53.6,211.4,46.9z"
		/>
	<path class="st4" d="M202,24.8c-2.6-2.8-6.4-2.8-11.2-0.7c-2.9,1.2-5.1,3.3-6.8,5.9c-2,3.4-0.1,3.9,1.6,3.8l14.9-6.1l1.4-1.2
		L202,24.8z"/>
	<path class="st0" d="M189.3,36.2l3.3-3.1c3.7-2.6,7.1-2.2,10.4-0.5l-0.7-6c-2.7-1.3-5.5-1.7-8.6-0.9c-4.3,1-6.5,3.3-8.3,5.9
		C183.1,34,185.5,39.4,189.3,36.2z"/>
	<path class="st1" d="M201.5,31.9c0.5,0.2,1,0.4,1.5,0.7l-0.7-6c-0.5-0.2-1-0.4-1.4-0.6C200.7,27.7,201,29.7,201.5,31.9z"/>
	<path class="st1" d="M184.9,32.1c1.8,1.4,3.6,2.8,3.7,4.6c-3,1.8-5-1.9-3.8-4.4"/>
	<path class="st0" d="M191.4,50.4c-3.6-3-6.2-6.5-8.3-10.3c-6.1-8.6,1.4-9.9,4.7-3.8l2.8,4.3c1.7,3,10.3,3.3,11.4-3.8
		c0.2-3.1,0.1-6-0.5-8.4c-0.4-4.5-0.2-8.8,2.3-13c1.7-3.6,7.3-3.5,6.6,2.1c-0.8,5.8-0.9,11.2,0,16.2c2.3,6.8,3.1,13-3.1,16.8
		C202.4,53.3,196,55,191.4,50.4z"/>
	<path class="st1" d="M201.9,36.8c-1.2,7.1-9.7,6.7-11.4,3.8C193.1,45.9,202.8,46.6,201.9,36.8z"/>
	<path class="st2" d="M210.3,17.5c0.7-5.6-4.9-5.7-6.6-2.1c-1.3,2.2-2,4.4-2.3,6.7c1.8-3.1,3.5-6.9,5.8-6.9
		C208.6,15.6,209.7,16.3,210.3,17.5z"/>
	<path class="st2" d="M189.3,38.8l-1.6-2.4c-3-5.5-9.4-4.9-6,1.7c-0.2-2-0.1-3.7,0.8-4.2C184.3,33.3,186.7,35.6,189.3,38.8z"/>
	<path class="st2" d="M200.5,25.8c-2.2-0.7-4.4-0.8-6.8-0.2c-4.2,0.9-6.4,3.1-8.1,5.6C190.2,27,195.1,25.2,200.5,25.8z"/>
	<path class="st2" d="M200.5,23.6c-2.5-1.5-5.8-1.2-9.7,0.5c-2.9,1.2-5.1,3.3-6.8,5.9c-0.5,0.9-0.8,1.5-0.8,2
		C186.8,27.8,189.7,22.7,200.5,23.6z"/>
	<path class="st2" d="M196.6,54.4c1.1,0.3,2.6,0.2,4.3,0c0.7,0,0.8,0.8,0,1.1c-1.8,0.3-3.3,0.3-4.3,0
		C195.8,55.3,195.8,54.4,196.6,54.4z"/>
</g>
<g id="Letra_E">
	<ellipse class="st0" cx="250.2" cy="53.6" rx="11.8" ry="6"/>
	<path class="st1" d="M262,53.1c-0.6-3-5.6-5.4-11.8-5.4c-5.6,0-10.3,2-11.5,4.6C247.7,58.5,255.4,58.3,262,53.1z"/>
	<path class="st0" d="M243.5,53.8c-8.2-3.5-10.4-13.1-7.9-27.2c0.8-3.6,4.3-6.5,7.9-4.5c2-2.5,6-3.7,9.4-1.3
		c1.6-1.4,4.5-2.3,7.2,0.2c3.2-2,6.9,1.1,6.3,6.3c-0.3,3.3-0.9,5.9-2.7,6.7c0.1,9.6,1.1,17.1-5.6,20.3
		C253.2,56.4,248.3,56.3,243.5,53.8z"/>
	<path class="st1" d="M251.2,39.1c-1.2,1.6-0.6,2.7,0.7,3.6c0.6,0.3-0.1,1.3-0.4,2.4l2.8-1.9l-0.8-3.3L251.2,39.1z"/>
	<path class="st0" d="M264.3,49c4.2-8.1,2.8-13.7-4.2-13.7c-6.7,0.5-10.1,2.6-8.8,5.6c0.4,0.6,1.2,1.6,2.3,2c-1.6,0.8-2.3,2-2.3,3.8
		l-0.5,9.1C255.9,55.3,260.9,54.6,264.3,49z"/>
	<path class="st2" d="M266.6,39.9c-0.5-2.9-2.6-4.6-6.4-4.6c-5.1,0.3-8.2,1.6-9,3.5C254.6,36.6,262.9,33.8,266.6,39.9z"/>
	<path class="st1" d="M251.2,48.9l0.1-2.2c-0.1-1.7,0.6-3,2.3-3.8c-0.7-0.3-1.3-0.8-1.7-1.3c2.7,0.6,5.6,1,10.2,0.3
		C256,43.7,251.2,42.6,251.2,48.9z"/>
	<path class="st2" d="M252.4,49.3c-0.3-0.2-0.5-0.8,0-1.6c0.7-1.4,1.6-2.1,3.1-2.6c1.1-0.2,1.7,0.3,0,2.2
		C254.5,48.4,253.3,49.7,252.4,49.3z"/>
	<path class="st1" d="M240.1,33c0.2,0.3,0.4,0.6,0.7,0.8c0.7,0.6,1.8,0.8,3.3,0.5c3.6-1.2,4.3-8.4,0.4-12.2l-0.6-0.6l-0.5,0.6
		c2.8,1.4,4.6,8.6,0.8,11.4c-2.8,1.5-5.1-1.9-4.1-5.7l-0.2-0.8l-1.5,1c0,0,1,0,1,0c-0.1,1.3-0.2,2.8,0.3,4.1c0.4,1.1,1.4,2.3,2,3.2
		c0.1,0.2,0.3,0.3,0.4,0.4c0.2,0.1,0.4,0.1,0.5,0.1c1.5,0.1,3.2,0.1,4.1-1c0.1-0.1,0.2-0.2,0.3-0.3c0.2-0.1,0.3,0,0.5,0.1
		c1,0.5,2,0.9,3.1,1.1c1.1,0.2,2.3,0,3.1-0.7c0.3-0.2,0.6-0.5,0.9-0.6c0.3-0.1,0.6,0,0.8,0.1c0.8,0.2,1.7,0.2,2.5,0.2
		c0.7,0,1.4-0.2,2,0.1c0.3,0.1,0.5,0.3,0.8,0.4c0.3,0.1,0.7,0.1,1.1,0c0.7-0.1,1.5-0.4,1.6-1.1c0-0.1,0-0.2,0.1-0.3
		c0.1,0,0.1,0.2,0,0.1c-0.2-0.3-0.5-0.3-0.8-0.4c-1.2-0.2-2.4-0.7-3.4-1.4c-0.2-0.1-0.4-0.3-0.6-0.3c-0.2,0-0.4,0-0.6,0.1
		c-1,0.2-2.1,0.3-3.1,0.1c-0.5-0.1-1.1-0.2-1.5,0.1c-0.2,0.1-0.3,0.3-0.4,0.4c-0.2,0.2-0.6,0.3-0.9,0.3c-2.2,0.3-4.6-0.5-5.7-2.4
		c-0.3,0.6-0.6,1.2-0.8,1.8c-0.2,0.4-0.4,0.9-0.7,1.2c-0.5,0.5-1.3,0.7-2.1,0.6s-1.4-0.4-2.1-0.7c-0.2-0.1-0.5-0.3-0.5-0.5"/>
	<path class="st1" d="M252.9,20.8c3.1,4.1,3,12.3-1.7,12.1c-2.2-0.5-3.5-1.1-4.1-2.6l-0.4,0.1v0.4c1.1,1.2,1.8,2.6,4.5,2.8
		c5.2,0,6.6-8.1,3.1-12.1l-0.9-1.1L252.9,20.8z"/>
	<path class="st1" d="M260.1,21c1.8,4.8,2.2,10-1.8,10.9c-1.3,0.4-2.4,0.5-3.4-0.1l-0.8,0.5c4,1.1,8.1,0.2,8.1-5.2
		c-0.1-1.6-0.3-2.9-1.4-6.4L260.1,21z"/>
	<path class="st1" d="M266.2,24.3c0,8.9-2.5,10.8-6.6,7.8l-0.8,0.3c1.4,1.2,2.9,2.1,4.9,1.6C266,33.2,267.1,30.4,266.2,24.3z"/>
	<path class="st2" d="M240.3,23.8c0.4,0.2,0.6,0.5,0.8,0.9c0.3,0.5,0.6,1,1,1.2c0.5,0.3,1.1,0.3,1.5-0.1c0.1-0.2,0.2-0.4,0.3-0.6
		c0.1-0.2,0.1-0.4,0.1-0.7c0-0.4-0.4-0.8-0.7-1c-0.8-0.7-1.9-1-3-0.9c-0.2,0-0.5,0.1-0.6,0.4c0,0.2,0.1,0.4,0.2,0.5
		S240.2,23.7,240.3,23.8"/>
	<path class="st2" d="M248.8,21.7c0.3,0.3,0.6,0.6,0.9,0.9c0.1,0.1,0.2,0.2,0.3,0.3c0.1,0.2,0.1,0.4,0.2,0.5c0.1,0.4,0.3,0.8,0.7,1
		c0.2,0.1,0.4,0.1,0.5,0.1c0.4,0,0.7-0.1,1-0.3c0.3-0.3,0.4-0.8,0.3-1.2s-0.3-0.8-0.6-1.1c-0.4-0.5-0.8-1-1.4-1.1
		c-0.6-0.2-1.2,0-1.8,0.2c-0.1,0-0.1,0-0.2,0.1c-0.1,0.1-0.1,0.3-0.1,0.4C248.6,21.6,248.7,21.7,248.8,21.7"/>
	<path class="st2" d="M256,21.6c0.2,0.1,0.4,0.3,0.5,0.4c0.2,0.2,0.5,0.4,0.6,0.6c0.2,0.4,0.2,0.8,0.4,1.2c0.3,0.5,1,0.7,1.5,0.5
		c0.2-0.1,0.4-0.2,0.5-0.4c0.1-0.2,0.1-0.4,0.1-0.7c0-0.5-0.3-1-0.6-1.4c-0.3-0.4-0.7-0.7-1.1-1c-0.3-0.2-0.6-0.4-0.9-0.4
		c-0.2,0-0.4,0-0.6,0.1c-0.1,0-0.3,0.1-0.4,0.2C255.8,20.9,255.8,21.4,256,21.6"/>
	<path class="st2" d="M261.9,21.9c0.4,0.5,0.7,1.1,0.8,1.8c0.1,0.6,0.1,1.3,0.5,1.7c0.4,0.3,0.9,0.3,1.4,0.3c0.1,0,0.1,0,0.2,0
		c0.1,0,0.1-0.1,0.1-0.2c0.2-0.5,0.1-1.1-0.1-1.7c-0.2-0.5-0.5-1-0.8-1.5c-0.1-0.1-0.1-0.2-0.2-0.2c-0.1-0.1-0.2-0.1-0.4-0.2
		c-0.2-0.1-0.5-0.2-0.7-0.2c-0.1,0-0.3-0.1-0.4,0c-0.1,0-0.2,0.2-0.1,0.3"/>
	<path class="st2" d="M252.3,57.7c-1.5,0-3-0.2-4.5-0.5c-0.2,0-0.5-0.1-0.7,0c-0.2,0.1-0.5,0.3-0.4,0.5c0,0.1,0.1,0.2,0.1,0.3
		c0.5,0.7,1.4,0.9,2.2,1c0.5,0.1,1.1,0.1,1.6,0.2c0.6,0,1.2,0.1,1.8-0.1s1.2-0.5,1.5-1c0-0.1,0.1-0.1,0.1-0.2c0-0.1-0.2-0.2-0.3-0.2
		C253.1,57.6,252.7,57.6,252.3,57.7"/>
</g>
<g id="Letra_F_1_">
	<path class="st0" d="M32.3,107.4c-1,1.3-1.1,3.3,0,4.3c3.5,2.3,11.3,2.7,18.3,0c1.9-1.2,1.2-3.5,0-4.3c-6.9,1.2-13.4,2-17.8,0"/>
	<path class="st1" d="M32.9,107.4c4.3,2,10.9,1.2,17.8,0c0.3,0.2,0.6,0.5,0.8,0.9c-5.4,4.3-15.1,5.6-19.5-0.3L32.9,107.4z"/>
	<path class="st1" d="M32.3,107.4c-0.3,0.4-0.5,0.8-0.6,1.3"/>
	<path class="st0" d="M37.3,110.9c-4.7-1.7-8.5-4.8-8.1-10.2c0-4.8,1.1-10.4,0.4-15c-0.3-4.2-0.4-9.9,2.4-10.5
		c0.9-0.3,1.9-0.8,2.9,1.1c0.3-4,1-6.1,3.8-5.8c1.9,0,3.3,1.6,3.3,5.1c0.7-1.7,0.9-3.6,3.1-3.6c2.3,0,4,1.6,4,7.9l0,12.2
		c2.9,5.9,4.4,11.3,1.6,14.5C46.7,111.3,40.7,112.1,37.3,110.9z"/>
	<path class="st1" d="M36.9,90.4c-1.3,3.1,0,5,2.2,6.6l4.6,2c-0.5,1.5-0.4,2.6-0.4,3.7l1.8-3.4l2.2-2.2l-0.1-3.6L36.9,90.4z"/>
	<path class="st0" d="M39.9,88.6c3.6,0.2,7.4,0,11.4-0.5c4-0.2,7.3,3.3,4.1,7.7c-5.7,1.6-11.2,2.2-16.5-0.3
		C35.9,93.6,35.7,88.7,39.9,88.6z"/>
	<path class="st1" d="M53.2,88.2C52.6,88.1,52,88,51.4,88c-1.9,0.2-3.8,0.4-5.6,0.5c-0.9,3.2-0.5,5.9,0.4,8.6
		c3.1,0.1,6.2-0.5,9.3-1.4c0.2-0.3,0.4-0.6,0.6-0.9C54.6,92.9,53.4,90.8,53.2,88.2z"/>
	<path class="st0" d="M43.4,102.8c0.8-2.4,1.8-4.7,4-5.6c-0.7-4.1-2.6-8.1,2.7-12.4c1.7-0.9,2.7,0.2,2.7,4.6c0.2,2,0.9,3.7,2.2,5.2
		c2.7,4.6-2.2,13.6-8.1,15.1C44.2,107.8,42.3,105.7,43.4,102.8z"/>
	<path class="st1" d="M47.4,97.2c-2.2,0.9-3.2,3.2-4,5.6c-0.2,0.6-0.3,1.1-0.3,1.7C44.2,101.9,45.3,99.2,47.4,97.2"/>
	<path class="st2" d="M50.1,84.7c-5.4,4.3-3.4,8.3-2.7,12.4C47.1,92.5,47.2,88.1,50.1,84.7z"/>
	<path class="st1" d="M34.6,75.8c0.4,4.5,0.5,8.8,0,12.9h0.7L35,74.2l-0.2,2.1L34.6,75.8z"/>
	<polygon class="st1" points="41.9,74.2 41.9,87.8 42.3,88.3 42.3,86.4 42.5,74.2 42.2,75.3 	"/>
	<path class="st1" d="M33.7,89c2.8-1.2,6-1.2,9.4-0.7C39.6,88.3,36.3,88.3,33.7,89z"/>
	<path class="st2" d="M45.4,88.6c-1.9,0.1-3.7,0.1-5.5,0c-2.8,0.1-3.7,2.3-3,4.3c0.7-1.3,1.2-2.6,3.8-3.4L45.4,88.6z"/>
	<path class="st2" d="M41,73.6c-0.1-0.9-0.8-1.5-1.5-2.1c-0.1-0.1-0.2-0.1-0.2-0.2c-0.1,0-0.2,0-0.3,0c-0.7,0-1.4,0.1-2.1,0.2
		c-0.1,0-0.1,0-0.2,0.1c0,0-0.1,0.1-0.1,0.2c-0.1,0.2-0.1,0.5,0,0.7c0.2,0.3,0.5,0.3,0.8,0.3c0.3-0.1,0.6-0.2,0.9-0.2
		c0.5,0.1,0.8,0.5,1.1,0.9c0.3,0.4,0.6,0.8,1,0.9c0.1,0,0.2,0,0.2,0c0.1,0,0.1-0.1,0.1-0.2C40.8,74,40.9,73.7,41,73.6"/>
	<path class="st2" d="M46.9,74.1c0-0.2-0.1-0.4-0.2-0.6c-0.2-0.1-0.4-0.2-0.6-0.2c-0.7-0.1-1.4,0-1.9,0.4c-0.2,0.1-0.3,0.4-0.2,0.5
		c0.1,0.1,0.2,0.1,0.3,0.2c0.9,0.3,1.8,0.7,2.3,1.6c0.1,0.2,0.2,0.5,0.4,0.7s0.5,0.2,0.6-0.1c0-0.1,0-0.2,0-0.2c0-0.3,0-0.6,0-0.9
		c0-0.2,0-0.4,0-0.7c-0.1-0.3-0.3-0.6-0.5-0.8"/>
	<path class="st2" d="M33.9,75.8c-0.1,0.1-0.2,0-0.3-0.1c-0.1-0.1-0.2-0.2-0.3-0.3c-0.2-0.1-0.4-0.1-0.7,0c-0.4,0.1-0.7,0.4-1,0.6
		c-0.1,0.1-0.1,0.1-0.1,0.2c0,0.1,0.1,0.3,0.3,0.3s0.3,0,0.4,0c0.3,0,0.6,0.2,0.8,0.5c0.1,0.2,0.1,0.4,0.2,0.6
		c0.1,0.2,0.3,0.4,0.5,0.3c0.2,0,0.3-0.3,0.4-0.5c0.1-0.3,0.1-0.6,0.1-0.8c0-0.3-0.1-0.6-0.4-0.7"/>
	<path class="st2" d="M47.5,99.5c-0.2,0-0.4,0.2-0.6,0.4c-0.2,0.2-0.4,0.5-0.5,0.8c-0.2,0.4-0.3,0.9-0.4,1.4c0,0.3,0,0.7,0.3,0.8
		c0.2,0.1,0.5-0.1,0.6-0.4c0.1-0.2,0.1-0.5,0.2-0.7c0.2-0.4,0.5-0.6,0.7-1c0.2-0.4,0.3-0.8,0.3-1.3c-0.2-0.1-0.5-0.2-0.7-0.1"/>
	<path class="st2" d="M54.9,90.3c0.1,0.3,0.3,0.6,0.4,0.9c0,0.1,0.1,0.2,0.2,0.3c0.1,0.1,0.2,0.1,0.3,0c0.1-0.2,0-0.5-0.1-0.7
		c-0.1-0.3-0.3-0.5-0.6-0.6C55,90.1,54.8,90.1,54.9,90.3"/>
	<path class="st2" d="M37.5,112.3c2.2,0.3,4.6,0.3,7.7-0.2c0.6,0,0.5,0.4,0,0.6c-2.7,0.3-5.3,0.5-7.7,0
		C36.8,112.4,37.1,112.3,37.5,112.3z"/>
</g>
<g id="Letra_G">
	<path class="st0" d="M78.6,106.3c-1.7,2.2-1.6,4.1,2.1,5.5c5.2,1.8,11.9,0.1,15.1-3.6c1.9-2.3,0.6-3.8-1.1-3.1L78.6,106.3z"/>
	<path class="st1" d="M96.2,105.3c-0.4-0.3-1-0.3-1.6-0.1l-16.1,1.1c-0.5,0.7-0.9,1.3-1,2C87.2,113.3,92.3,108.8,96.2,105.3z"/>
	<path class="st0" d="M79,108c-6-7.1-8.7-17.9,0-23.3c0.8-0.7,1.6-0.4,2.2-0.3c1.7-1.9,3.6-2.9,6.3-0.9c1-1.6,2.9-2.4,5.2-0.9
		c0-2.4,0-4.7,0-6.7c-0.1-3.6,0.8-5,2.3-5.3c1.5,0,3.1,0.3,3.3,5.6c0.1,8.4-0.5,15.9-2.1,22C91.8,109.2,82.9,111,79,108z"/>
	<path class="st1" d="M80.3,94c0.3,0.2,0.6,0.4,0.9,0.5c0.7,0.2,2,0.5,2.6-1.8c1.3-4,0.3-6.7-2.6-8.3c-1.2-0.2-2-0.1-2.2,0.3
		c2.2-0.1,6.1,2.3,4.2,7.2c-0.6,2-1.6,2.3-2.6,1.7c-1-1.3-1.7-2.9-1.8-4.9c0.1,1.3,0.2,2.6,0.7,3.8c0.2,0.5,0.4,0.9,0.8,1.3
		c0.5,0.4,0.7,0.9,1.2,1.4c0.4,0.4,0.9,0.7,1.5,0.6c0.2,0,0.4-0.1,0.6-0.1c0.3,0,0.6,0.1,0.9,0.2c0.8,0.2,1.6,0.2,2.3-0.1
		c0.2-0.1,0.5-0.3,0.7-0.4c0.8-0.3,1.7,0.1,2.6,0c0.8-0.1,1.5-0.6,2.2-0.9c0.2-0.1,0.4-0.2,0.6-0.3c0.2-0.2,0.3-0.4,0.5-0.6
		c0.7-1.1,1.1-2.5,1-3.8c0-0.2-0.1-0.5-0.3-0.4c-0.2,1.1-0.4,2.3-1,3.2c-0.7,0.9-1.8,1.6-2.9,1.6c-0.8,0.1-1.6-0.1-2.4,0
		c-0.3,0.1-0.6,0.2-1,0.3c-0.8,0.2-1.6,0-2.4-0.2c-0.2,0-0.4-0.1-0.6-0.2c-0.2-0.1-0.4-0.3-0.6-0.3c-0.1,0-0.2,0.1-0.3,0.1
		c-0.7,0.3-1.4,0.3-2.1,0.1"/>
	<path class="st1" d="M87.5,83.6c3.3,5.9,2,11.2-2,10.8c-1.2-0.1-1.9-0.4-2.3-0.9L83,94c5.3,2.3,9.6-0.3,5-10.9L87.5,83.6z"/>
	<path class="st1" d="M92.7,82.7c2.9,8.4-0.1,12-4.3,11.4l-0.5,0.1c2.1,0.6,4.2,0.8,5.9-3.1c0.8-3.1,0.2-6.2-1.1-8.9V82.7z"/>
	<path class="st0" d="M79.4,108.3c2,2,8.9,1.8,12.2,0H79.4z"/>
	<path class="st2" d="M81.6,86.7c-0.1-0.1-0.3-0.2-0.4-0.3c-0.1-0.1-0.3-0.2-0.4-0.2c-0.2,0-0.3,0-0.5,0.1c-0.1,0.1-0.1,0.4,0,0.5
		c0.1,0.2,0.3,0.3,0.4,0.5c0.2,0.3,0.2,0.7,0.2,1c0.1,0.3,0.2,0.7,0.6,0.8c0.2,0,0.3,0,0.5-0.1c0.1,0,0.2-0.1,0.2-0.2
		c0.2-0.2,0.2-0.6,0.2-0.9c0-0.2-0.1-0.5-0.2-0.7C82.1,86.9,81.8,86.7,81.6,86.7"/>
	<path class="st2" d="M83.7,84.8c0.7,0.1,1.3,0.7,1.6,1.3c0.2,0.6,0.2,1.3,0.5,1.9c0.1,0.1,0.1,0.2,0.2,0.3c0.3,0.2,0.7,0.1,0.9-0.1
		c0.4-0.4,0.4-1.1,0.3-1.7c0-0.2,0-0.4-0.1-0.6c0-0.4-0.1-0.7-0.3-1C86.6,84.1,85.7,84,85,84c-0.4,0-0.8,0-1.1,0.3
		c-0.2,0.1-0.3,0.4-0.1,0.6"/>
	<path class="st2" d="M89.3,84c0.5,0.3,0.8,0.9,1,1.4c0.2,0.6,0.3,1.2,0.4,1.7c0.1,0.3,0.2,0.6,0.5,0.8c0.2,0.1,0.6,0,0.8-0.1
		c0.2-0.2,0.4-0.4,0.5-0.7c0.5-1.2,0.2-2.7-0.8-3.6c-0.2-0.1-0.4-0.3-0.6-0.4c-0.5-0.2-1-0.1-1.4,0.2c-0.2,0.1-0.5,0.4-0.3,0.6"/>
	<path class="st2" d="M96.1,71.6c-0.2,0.1-0.4,0.1-0.6,0.2c-0.3,0.1-0.7,0.2-0.7,0.5c0,0.1,0,0.3-0.1,0.4c0.4,0.2,0.7,0.4,1.1,0.6
		c0.1,0.1,0.3,0.2,0.4,0.3c0.3,0.4,0.3,0.9,0.3,1.4c0,0.2,0.1,0.5,0.3,0.6c0.2,0.2,0.4,0.3,0.6,0.2c0.2-0.1,0.3-0.3,0.3-0.5
		c0-0.2,0-0.4,0-0.6c-0.1-0.5-0.2-1-0.3-1.6c0-0.3-0.1-0.6-0.3-0.8c-0.1-0.1-0.2-0.2-0.3-0.3c-0.3-0.2-0.5-0.4-0.8-0.6"/>
	<path class="st0" d="M88.8,103.8c0.5-4.8,1.8-9,6-11.3c0.4-3.8,0.8-8.6,3.3-8.6c2,0.1,2.3,2.5,1.3,7.9c-0.8,8.2-3,14.3-7.8,16.4
		C87,109.6,85.4,108.6,88.8,103.8z"/>
	<path class="st2" d="M94.9,92.1c0.4-3.7,0.8-8.1,3.2-8.1c1.1,0.1,1.7,0.8,1.8,2.3C98.6,83,95.7,84.8,94.9,92.1c0,0.1,0,0.3,0,0.4"
		/>
	<path class="st1" d="M94.8,92.5c-4.1,2.2-5.4,6.4-6,11C90.2,99.3,91.9,95.3,94.8,92.5z"/>
	<path class="st2" d="M93.9,95.2c-0.2,0-0.4,0.2-0.5,0.4c-0.8,1.1-1.5,2.3-1.9,3.6c-0.1,0.2-0.1,0.5,0.1,0.6c0,0,0.1,0.1,0.1,0
		c0.1,0,0.1,0,0.1-0.1c0.3-0.4,0.6-0.8,0.9-1.3c0.1-0.2,0.3-0.3,0.5-0.4c0.2-0.7,0.5-1.4,0.9-2.1c0.2-0.2,0.3-0.5,0.2-0.8
		c-0.2-0.1-0.5-0.1-0.7,0.1"/>
</g>
<g id="Letra_H">
	<path class="st0" d="M128.2,106.6c-2.2,0-2.3,3.5,0,4.9c5.2,3.5,9.7,2.8,14,1.1c2.1-0.9,1.1-3.6,0-3.8L128.2,106.6z"/>
	<path class="st1" d="M143.4,110.3c-0.2-0.7-0.7-1.4-1.2-1.4l-14-2.3c-0.7,0-1.1,0.3-1.4,0.8C132,112.7,137.5,114.3,143.4,110.3z"/>
	<path class="st0" d="M132.6,110.9c-4.5-1.9-6.7-5.4-6.5-10.4l0-20.8c-0.2-6.1,0.3-9.5,2.4-9.4c1.4,0.2,2.7,1.1,3.1,7.9l0.3,6.1
		l6.3-10.7c1.9-3,3.9-5.1,6.4-3.3c1.8,1.6,1.5,3.3-0.8,7l-3.6,5.8l-1.1,2l-0.7,1.3c1.4-1.6,4.4-1.4,5.3,2.4c4.1,0,9.4,4.9,2.5,13
		C145.9,109.7,139.2,114.2,132.6,110.9z"/>
	<path class="st1" d="M138.7,92.5c1.9-2,3.9-3.8,4.8-4.5l0.2,0.8C143.1,89.3,141,90.8,138.7,92.5z"/>
	<path class="st1" d="M146.2,101.8c0.1-1.4,0.1-2.8-0.4-3.8c0.8,0.1,1.7,0.1,1.9,1.7L146.2,101.8z"/>
	<path class="st2" d="M138.4,86.4l-1.2,1.4c2.5-1.9,4.5-1.9,6-0.2C142.4,85.4,139.9,84.7,138.4,86.4z"/>
	<path class="st2" d="M144,88.8c2.8,0.2,5.4,2,5.5,5.6C148.4,92.2,147.1,90,144,88.8z"/>
	<polygon class="st2" points="131.9,84.3 131.3,85.6 131.6,79.1 	"/>
	<path class="st2" d="M143.7,71.3c-0.2-0.1-0.4-0.2-0.6-0.3c-0.2-0.1-0.3-0.2-0.5-0.2c-0.1,0-0.2,0-0.3,0c-0.1,0-0.2,0.1-0.3,0.1
		c-0.3,0.2-0.6,0.4-0.9,0.6c-0.1,0-0.1,0.1-0.1,0.1c0,0.1,0.2,0.2,0.3,0.2c0.4,0,0.8,0,1.1,0.1s0.7,0.3,0.9,0.6
		c0.1,0.1,0.1,0.3,0.2,0.3c0.1,0,0.1,0,0.2,0.1c0,0,0.1,0.1,0.1,0.1c0.2,0.1,0.4,0.1,0.6-0.1c0.1-0.2,0.2-0.4,0.1-0.6
		c-0.1-0.2-0.2-0.4-0.3-0.5C144.1,71.6,143.9,71.4,143.7,71.3"/>
	<path class="st2" d="M129.4,72.6c0.1-0.3-0.1-0.7-0.3-0.8c-0.3-0.2-0.7-0.1-1,0.1c-0.3,0.1-0.5,0.3-0.7,0.5
		c-0.1,0.1-0.1,0.1-0.2,0.2c-0.1,0.1-0.1,0.2-0.2,0.4c-0.1,0.2-0.2,0.5-0.1,0.7c0.1,0.2,0.4,0.2,0.6,0.2c0.1,0,0.1,0,0.2,0
		c0.1,0,0.1-0.1,0.2-0.1c0.4-0.3,1-0.3,1.4,0.1c0.1,0.1,0.2,0.2,0.3,0.1c0.1,0,0.2-0.2,0.2-0.3C129.6,73.3,129.5,73,129.4,72.6"/>
	<path class="st2" d="M133.3,112.6c-0.2,0.1-0.4-0.1-0.5-0.2c-0.1-0.1-0.2-0.1-0.3-0.2c-0.6-0.3-1.3-0.7-1.9-1
		c-0.1-0.1-0.3-0.1-0.4-0.1c-0.2,0-0.3,0.1-0.3,0.3c0,0.2,0.1,0.3,0.2,0.4c0.4,0.3,0.8,0.6,1.2,0.9c0.7,0.4,1.4,0.6,2.2,0.7
		c0.2,0,0.4,0,0.6-0.1c0.1-0.1,0.1-0.2,0.1-0.2c0-0.1-0.1-0.1-0.2-0.1c-0.3-0.1-0.5-0.2-0.8-0.2"/>
	<g>
		<path class="st5" d="M116.8,71.7c0,0,0,0.1,0,0.4c0,0.2,0.1,0.6,0.2,1c0.2,0.8,0.6,1.8,1.3,2.7c0.2,0.2,0.3,0.4,0.5,0.6
			c0.2,0.2,0.4,0.4,0.6,0.5c0.4,0.4,0.7,0.7,1,1c0.6,0.6,0.9,1.1,0.9,1.1l-0.1,0.1c0,0-0.1,0-0.4-0.1c-0.3-0.1-0.6-0.2-1-0.4
			c-0.4-0.2-0.8-0.5-1.2-0.9c-0.4-0.4-0.7-0.9-1-1.4c-0.6-1-0.9-2.2-1-3.1c0-0.4,0-0.8,0-1C116.7,71.9,116.7,71.7,116.8,71.7
			L116.8,71.7z"/>
	</g>
	<g>
		<path class="st5" d="M143.5,81c0,0,0.3,0.3,0.8,0.6c0.5,0.3,1.2,0.8,1.9,0.9c0.2,0,0.3,0.1,0.5,0.1c0.2,0,0.3,0,0.5,0
			c0.3,0,0.6,0,0.9-0.1c0.3,0,0.5-0.1,0.7-0.1c0.2,0,0.3,0,0.3,0l0.1,0.1c0,0,0,0.1-0.2,0.3c-0.1,0.1-0.1,0.2-0.2,0.3
			c-0.1,0.1-0.2,0.2-0.4,0.3c-0.3,0.2-0.7,0.3-1.1,0.4c-0.5,0-0.9-0.2-1.3-0.3c-0.8-0.4-1.4-1-1.8-1.4C143.6,81.4,143.4,81,143.5,81
			L143.5,81z"/>
	</g>
	<polygon class="st6" points="122.9,77.2 119.7,81 123.7,81 	"/>
	<polygon class="st6" points="147.7,80.1 150.6,84.3 152,80.1 	"/>
</g>
<g id="Letra_I">
	<path class="st0" d="M185.9,107.2c-1.1,1.6-1,3.6,1.1,4.6c3.3,1.5,12,2.4,15.2-0.9c0.9-1.5,0.9-2.8,0.1-3.8L185.9,107.2z"/>
	<path class="st1" d="M202.8,108.1c-0.1-0.4-0.3-0.8-0.5-1.1l-16.4,0.2c-0.2,0.4-0.4,0.8-0.5,1.1
		C192.5,113.8,197.9,111.9,202.8,108.1z"/>
	<path class="st0" d="M194.9,111.1c-8.6-0.1-14.9-6-15-17.9l-0.6-11c-0.4-2.7,0.1-4.9,3.7-5.6c2.1-0.3,4,0.7,4.6,8
		c1.4-2.8,3.6-2.5,6-0.8c2.2-1.4,4.3-3.2,7.5,1.2c4.3-1.3,6.2,0.6,6.5,4.9c0.1,2.6-0.8,4.6-2.1,6.3
		C203.9,103,200.5,108.2,194.9,111.1z"/>
	<path class="st1" d="M193.6,96.7c-4.2,0-6-6.4-5.9-12.2l0.5-0.7c-0.8,4.7,1.6,12.7,5.3,12.3c3.5-0.1,3.5-5.7,0.3-12.3l0.6-0.4
		C196.8,89.9,198.3,95.6,193.6,96.7z"/>
	<path class="st1" d="M201.2,85c1.6,7.9-0.1,11.4-6.1,11.1l-0.3,0.2c6.3,0.6,8.7-2.9,6.8-11.4L201.2,85z"/>
	<path class="st1" d="M190,94.2c0.7,1.3,2.2,2,3.7,2.3c0.2,0.1,0.5,0.1,0.6,0.4c0,0.1,0,0.2,0,0.4c0,0.3,0.3,0.6,0.4,0.9
		c0.1,0.3,0,0.7-0.2,1c-0.2,0.3-0.5,0.5-0.7,0.8c-0.2,0.1-0.4,0.3-0.6,0.3c-0.3,0-0.5-0.2-0.7-0.4c-0.4-0.5-0.9-1-1.3-1.5
		c-0.3-0.4-0.7-0.7-0.9-1.2c-0.7-1.2-0.8-2.6-1-3.9C189.5,93.6,189.7,94,190,94.2"/>
	<path class="st1" d="M207.5,88.2c-0.3,6.6-1.9,10.6-7.6,7.2l-0.2,0.1c1.8,1.2,4.2,2.2,6,0.6C207.3,93.7,208.3,91.1,207.5,88.2z"/>
	<path class="st0" d="M192.7,98.5c0.6-3,1.5-5.7,7.8-5.3c5.8,0.7,9.6,3.7,5.2,10.7c-2.5,4.3-6.8,6.7-10.8,7.2
		c-0.6-3.5-0.6-6.7,2.4-8.6C194.5,102.6,192.3,100.9,192.7,98.5z"/>
	<path class="st2" d="M207,96.3c-1.1-1.8-3.5-2.8-6.6-3.1c-5.6-0.4-6.9,1.8-7.6,4.4C194.8,93.3,204,92.7,207,96.3z"/>
	<path class="st1" d="M194.8,109.8c-0.1-0.9-0.1-1.7-0.1-2.5c0.1-2,0.9-3.6,2.7-4.8c-2.7,0.1-4.8-1.3-4.7-3.5
		c0.9,2.6,3.5,4,10.3,2.2C197.4,102.3,194.7,105.3,194.8,109.8z"/>
	<path class="st1" d="M195.7,104.6l1.5-1.4l1-0.9l-2.9-0.4l-1.6-1.1l-0.9-1.5c0.1,1.4,0.2,2.8,1.2,3.6c-0.2,1.8-0.2,3.6,0.7,5.1
		l0.3,0.1l-0.1-1.5L195.7,104.6z"/>
	<path class="st2" d="M192.7,84.8c-0.2-0.4-0.7-0.6-1.1-0.7c-0.2-0.1-0.4-0.1-0.6-0.2c-0.2,0-0.4,0-0.6,0c-0.2,0-0.3,0.1-0.5,0.2
		c-0.4,0.2-0.6,0.6-0.7,1c0,0.1,0,0.2,0,0.2c0,0.1,0.1,0.1,0.2,0.1c0.6,0.2,1.3-0.2,1.9-0.1c0.2,0,0.3,0.1,0.5,0.1
		c0.1,0,0.3,0.1,0.4,0.1c0.2,0,0.5,0,0.6-0.2c0.1-0.2,0-0.5-0.2-0.5"/>
	<path class="st2" d="M199.9,84.6c-0.4-0.1-0.4-0.6-0.6-0.9c-0.1-0.2-0.3-0.3-0.5-0.4c-0.7-0.3-1.6-0.3-2.3,0
		c-0.3,0.1-0.5,0.3-0.7,0.5c-0.2,0.2-0.2,0.5-0.3,0.7c0,0.1,0,0.2,0,0.2c0,0.1,0.1,0.1,0.1,0.1c0.3,0.3,0.8,0.5,1.2,0.3
		c0.1,0,0.2-0.1,0.3-0.1c0.4-0.2,0.8-0.2,1.3,0c0.4,0.1,0.8,0.3,1.2,0.4c0.1,0,0.2,0.1,0.3,0.1c0.2,0,0.4-0.3,0.3-0.5
		c0-0.2-0.2-0.4-0.4-0.5"/>
	<path class="st2" d="M205.7,86.2c-0.2-0.1-0.3-0.3-0.5-0.4c-0.1-0.1-0.3-0.2-0.5-0.3c-0.4-0.2-1-0.1-1.4,0.1
		c-0.1,0.1-0.3,0.2-0.3,0.3c0,0.1,0,0.2,0.1,0.3c0.3,0.3,0.7,0.3,1.1,0.4c0.5,0.1,0.9,0.4,1.2,0.7c0.1,0.1,0.3,0.3,0.5,0.4
		c0.2,0.1,0.5,0.1,0.5-0.1c0.1-0.2,0-0.3-0.1-0.5C206.2,86.8,206,86.5,205.7,86.2"/>
	<path class="st2" d="M200.4,102.9c-0.3,0-0.6,0.3-0.8,0.5c-0.6,0.6-1.3,1.1-1.9,1.7c-0.2,0.2-0.4,0.4-0.2,0.7
		c0.1,0.1,0.2,0.1,0.3,0.2c0.4,0.1,0.9-0.1,1.2-0.4c0.3-0.3,0.5-0.7,0.7-1.1c0.1-0.1,0.1-0.2,0.2-0.3c0.2-0.3,0.5-0.4,0.8-0.6
		c0.1,0,0.2-0.1,0.2-0.2c0-0.1,0-0.2-0.1-0.3C200.6,103,200.5,103,200.4,102.9"/>
	<path class="st2" d="M180.4,80.3c0.1-0.4,0-0.9,0.2-1.3c0.2-0.6,0.8-1,1.3-1.2c0.9-0.3,1.8-0.3,2.7,0.1c0.4,0.2,0.8,0.4,0.9,0.9
		c0.1,0.4-0.1,0.7,0.1,1.1c-0.4,0.1-0.8,0.1-1.2,0c-0.4-0.1-0.8-0.2-1.2-0.2c-0.4,0-0.9,0.2-1,0.6c-0.1,0.2-0.1,0.4-0.2,0.5
		c-0.1,0.3-0.5,0.5-0.9,0.4C180.7,81,180.4,80.7,180.4,80.3"/>
	<path class="st2" d="M194.9,112.1c-0.1-0.1-0.3-0.1-0.5,0s-0.3,0.2-0.5,0.2c-0.1,0-0.2,0-0.3,0c-0.6-0.1-1.3,0-1.9,0.2
		c0.3,0.1,0.6,0.3,0.9,0.3c0.2,0,0.3-0.1,0.5-0.1c0.3-0.1,0.5-0.1,0.8,0c0.2,0,0.4,0.1,0.5,0.1c0.3,0,0.7,0,1-0.1
		c0.1,0,0.3-0.1,0.4-0.1c0.1-0.1,0.2-0.2,0.2-0.3c0-0.1-0.2-0.3-0.3-0.3c-0.1,0-0.3,0-0.4,0.1C195,112,194.9,112,194.9,112.1"/>
</g>
<g id="Letra_J">
	<path class="st0" d="M240.1,108.3c-0.5,1.9,0.2,3.7,2.5,4c3.6,0.4,12.1-1.5,14.1-5.6c0.4-1.7,0-3-1.1-3.7L240.1,108.3z"/>
	<path class="st1" d="M256.4,103.9c-0.2-0.3-0.5-0.6-0.9-0.9l-15.5,5.3c-0.1,0.4-0.2,0.8-0.2,1.3C248.4,112.5,252.9,109,256.4,103.9
		z"/>
	<path class="st0" d="M249.9,109.1c-8.2,2.6-16-1-19.9-12.3l-4-10.3c-1.2-2.4-1.5-4.7,1.8-6.5c2-0.9,4-0.6,6.9,6.1
		c0.5-3.1,2.6-3.5,5.5-2.6c1.6-2,3.1-4.4,7.5-1.3c3.6-2.6,6.1-1.4,7.8,2.6c0.9,2.4,0.7,4.6,0,6.6
		C255.9,98.7,254.2,104.6,249.9,109.1z"/>
	<path class="st1" d="M244.1,95.9c-4,1.4-7.7-4.2-9.4-9.7l0.2-0.8c0.7,4.7,5.5,11.6,8.9,10c3.3-1.2,1.6-6.5-3.6-11.8l0.5-0.6
		C245,88.4,248.2,93.4,244.1,95.9z"/>
	<path class="st1" d="M247.6,82.4c4,7,3.4,10.9-2.3,12.5l-0.3,0.3c6.2-1.4,7.3-5.4,2.9-13L247.6,82.4z"/>
	<path class="st1" d="M239.9,94.7c1.1,1,2.7,1.2,4.2,1.1c0.2,0,0.5,0,0.6,0.2c0.1,0.1,0.1,0.2,0.1,0.3c0.1,0.3,0.5,0.5,0.7,0.7
		c0.2,0.3,0.2,0.7,0.1,1c-0.1,0.3-0.3,0.7-0.5,1c-0.1,0.2-0.3,0.4-0.5,0.5c-0.3,0.1-0.5-0.1-0.8-0.2c-0.6-0.3-1.1-0.7-1.7-1
		c-0.4-0.3-0.9-0.5-1.2-0.8c-1-0.9-1.6-2.2-2.1-3.4C239.2,94.3,239.5,94.6,239.9,94.7"/>
	<path class="st1" d="M254.6,83.4c1.8,6.4,1.5,10.7-5,9.2l-0.2,0.2c2.1,0.6,4.6,0.8,5.9-1.3C256.2,88.8,256.3,86,254.6,83.4z"/>
	<path class="st0" d="M243.8,97.9c-0.4-3-0.4-5.9,5.7-7.5c5.8-1.2,10.3,0.5,8.3,8.5c-1.1,4.8-4.3,8.5-8,10.2
		c-1.7-3.1-2.7-6.2-0.4-8.9C246.8,101.2,244.2,100.3,243.8,97.9z"/>
	<path class="st2" d="M256.7,91.3c-1.6-1.4-4.2-1.5-7.2-0.9c-5.4,1.4-6,3.9-5.8,6.6C244.2,92.3,252.7,88.8,256.7,91.3z"/>
	<path class="st1" d="M249.3,108c-0.4-0.8-0.7-1.6-0.9-2.3c-0.5-1.9-0.3-3.7,1.1-5.4c-2.5,0.9-4.9,0.2-5.6-1.8
		c1.7,2.2,4.5,2.7,10.5-1.2C249.5,100,247.8,103.7,249.3,108z"/>
	<path class="st1" d="M248.5,102.8l1-1.8l0.7-1.1l-2.9,0.5l-1.9-0.5l-1.3-1.1c0.5,1.3,1.1,2.6,2.3,3.1c0.4,1.8,1,3.5,2.3,4.7h0.3
		l-0.6-1.4L248.5,102.8z"/>
	<path class="st2" d="M239.5,84.9c-0.3-0.3-0.8-0.3-1.3-0.3c-0.2,0-0.4,0-0.6,0c-0.2,0-0.4,0.1-0.6,0.2c-0.1,0.1-0.3,0.2-0.4,0.3
		c-0.3,0.3-0.4,0.8-0.3,1.2c0,0.1,0,0.2,0.1,0.2c0.1,0.1,0.1,0.1,0.2,0.1c0.6,0,1.1-0.6,1.8-0.7c0.2,0,0.3,0,0.5,0
		c0.1,0,0.3,0,0.4,0c0.2,0,0.5-0.1,0.6-0.4c0.1-0.2-0.2-0.4-0.4-0.4"/>
	<path class="st2" d="M246.3,82.5c-0.4,0-0.6-0.5-0.9-0.7c-0.2-0.1-0.4-0.2-0.6-0.2c-0.8-0.1-1.6,0.2-2.2,0.8
		c-0.2,0.2-0.4,0.4-0.5,0.7c-0.1,0.2-0.1,0.5,0,0.8c0,0.1,0,0.2,0.1,0.2c0,0,0.1,0.1,0.2,0.1c0.4,0.1,0.9,0.2,1.3-0.1
		c0.1-0.1,0.1-0.1,0.2-0.2c0.3-0.3,0.8-0.4,1.2-0.4c0.4,0,0.9,0,1.3,0c0.1,0,0.2,0,0.3,0c0.2-0.1,0.3-0.4,0.2-0.6
		c-0.1-0.2-0.3-0.3-0.5-0.4"/>
	<path class="st2" d="M252.3,82.1c-0.2-0.1-0.4-0.1-0.6-0.2c-0.2-0.1-0.4-0.1-0.6-0.2c-0.5-0.1-1,0.2-1.3,0.5
		c-0.1,0.1-0.2,0.2-0.2,0.4c0,0.1,0.1,0.2,0.2,0.3c0.4,0.2,0.8,0.1,1.2,0c0.5,0,1,0.1,1.4,0.3c0.2,0.1,0.4,0.2,0.6,0.2
		c0.2,0,0.4-0.1,0.5-0.3c0-0.2-0.1-0.3-0.3-0.4C253,82.6,252.7,82.4,252.3,82.1"/>
	<path class="st2" d="M252.5,99.7c-0.3,0.1-0.5,0.5-0.6,0.8c-0.4,0.8-0.9,1.5-1.3,2.2c-0.1,0.2-0.2,0.5,0,0.7
		c0.1,0.1,0.2,0.1,0.3,0.1c0.4,0,0.8-0.4,1-0.8c0.2-0.4,0.3-0.9,0.3-1.3c0-0.1,0-0.3,0.1-0.4c0.1-0.3,0.4-0.6,0.6-0.9
		c0.1-0.1,0.1-0.2,0.1-0.2c0-0.1-0.1-0.2-0.2-0.2C252.7,99.7,252.6,99.7,252.5,99.7"/>
	<path class="st2" d="M226.3,84.5c0-0.5-0.3-0.9-0.3-1.3c0-0.6,0.4-1.1,0.9-1.5c0.7-0.6,1.7-0.8,2.6-0.8c0.4,0,0.9,0.2,1.1,0.5
		c0.2,0.3,0.2,0.7,0.4,1c-0.3,0.3-0.8,0.3-1.2,0.3c-0.4,0-0.8,0-1.2,0.1c-0.4,0.1-0.8,0.5-0.8,0.9c0,0.2,0,0.4,0,0.6
		c0,0.4-0.3,0.7-0.7,0.7C226.9,85.1,226.5,84.9,226.3,84.5"/>
	<path class="st2" d="M250.1,110.1c-0.2-0.1-0.4,0-0.5,0.1c-0.1,0.1-0.3,0.3-0.4,0.3c-0.1,0-0.2,0.1-0.3,0.1
		c-0.6,0.1-1.2,0.4-1.8,0.8c0.3,0,0.7,0.1,1,0c0.2,0,0.3-0.2,0.4-0.2c0.2-0.1,0.5-0.2,0.8-0.3c0.2,0,0.4,0,0.5-0.1
		c0.3-0.1,0.6-0.2,0.9-0.4c0.1-0.1,0.2-0.1,0.3-0.2c0.1-0.1,0.1-0.2,0.1-0.4c-0.1-0.1-0.2-0.2-0.4-0.2s-0.3,0.1-0.4,0.2
		C250.2,109.9,250.2,110,250.1,110.1"/>
	<path class="st7" d="M222.1,83.9c-5.3,10.4-5.6,21.2,8,26.7"/>
	<polygon class="st8" points="231.6,107.7 228.6,113.1 233.6,112.7 	"/>
</g>
<g id="Letra_K">
	<path class="st0" d="M26.8,162.1c-2.2,0-2.3,3.5,0,4.9c5.2,3.5,9.7,2.8,14,1.1c2.1-0.9,1.1-3.6,0-3.8L26.8,162.1z"/>
	<path class="st1" d="M42,165.8c-0.2-0.7-0.7-1.4-1.2-1.4l-14-2.3c-0.7,0-1.1,0.3-1.4,0.8C30.6,168.2,36.1,169.8,42,165.8z"/>
	<path class="st0" d="M31.2,166.4c-4.5-1.9-6.7-5.4-6.5-10.4l0-20.8c-0.2-6.1,0.3-9.5,2.4-9.4c1.4,0.2,2.7,1.1,3.1,7.9l0.3,6.1
		l6.2-10.7c1.9-3,3.9-5.1,6.4-3.3c1.8,1.6,1.5,3.3-0.8,7l-3.6,5.8l-1.1,2l-0.7,1.2c1.4-1.6,4.4-1.4,5.3,2.4c4.1,0,9.4,4.9,2.5,13
		C44.5,165.2,37.8,169.7,31.2,166.4z"/>
	<path class="st1" d="M37.3,148c1.9-2,3.9-3.8,4.8-4.5l0.2,0.8C41.7,144.8,39.6,146.3,37.3,148z"/>
	<path class="st1" d="M44.8,157.3c0.1-1.4,0.1-2.8-0.4-3.8c0.8,0.1,1.7,0.1,1.9,1.7L44.8,157.3z"/>
	<path class="st2" d="M37,141.9l-1.2,1.4c2.5-1.9,4.5-1.9,6-0.2C41,140.9,38.5,140.2,37,141.9z"/>
	<path class="st2" d="M42.6,144.3c2.8,0.2,5.4,2,5.5,5.6C47,147.7,45.7,145.5,42.6,144.3z"/>
	<polygon class="st2" points="30.5,139.8 29.9,141.1 30.2,134.6 	"/>
	<path class="st2" d="M42.3,126.8c-0.2-0.1-0.4-0.2-0.6-0.3c-0.2-0.1-0.3-0.2-0.5-0.2c-0.1,0-0.2,0-0.3,0c-0.1,0-0.2,0.1-0.3,0.1
		c-0.3,0.2-0.6,0.4-0.9,0.6c-0.1,0-0.1,0.1-0.1,0.1c0,0.1,0.2,0.2,0.3,0.2c0.4,0,0.8,0,1.1,0.1c0.4,0.1,0.7,0.3,0.9,0.6
		c0.1,0.1,0.1,0.3,0.2,0.3c0.1,0,0.1,0,0.2,0.1c0,0,0.1,0.1,0.1,0.1c0.2,0.1,0.4,0.1,0.6-0.1c0.1-0.2,0.2-0.4,0.1-0.6
		c-0.1-0.2-0.2-0.4-0.3-0.5C42.7,127.1,42.5,126.9,42.3,126.8"/>
	<path class="st2" d="M28,128.1c0.1-0.3-0.1-0.7-0.3-0.8c-0.3-0.2-0.7-0.1-1,0.1c-0.3,0.1-0.5,0.3-0.7,0.5c-0.1,0.1-0.1,0.1-0.2,0.2
		c-0.1,0.1-0.1,0.2-0.2,0.4c-0.1,0.2-0.2,0.5-0.1,0.7c0.1,0.2,0.4,0.2,0.6,0.2c0.1,0,0.1,0,0.2,0c0.1,0,0.1-0.1,0.2-0.1
		c0.4-0.3,1-0.3,1.4,0.1c0.1,0.1,0.2,0.2,0.3,0.1c0.1,0,0.2-0.2,0.2-0.3C28.2,128.8,28.1,128.5,28,128.1"/>
	<path class="st2" d="M31.9,168.1c-0.2,0.1-0.4-0.1-0.5-0.2c-0.1-0.1-0.2-0.1-0.3-0.2c-0.6-0.3-1.3-0.7-1.9-1
		c-0.1-0.1-0.3-0.1-0.4-0.1c-0.2,0-0.3,0.1-0.3,0.3c0,0.2,0.1,0.3,0.2,0.4c0.4,0.3,0.8,0.6,1.2,0.9c0.7,0.4,1.4,0.6,2.2,0.7
		c0.2,0,0.4,0,0.6-0.1c0.1-0.1,0.1-0.2,0.1-0.2c0-0.1-0.1-0.1-0.2-0.1c-0.3-0.1-0.5-0.2-0.8-0.2"/>
	<line class="st9" x1="57.5" y1="141" x2="57.5" y2="162.1"/>
	<polygon class="st6" points="54.3,141 61.3,141 57.8,134.6 	"/>
</g>
<g id="Letra_L">
	<ellipse class="st0" cx="90.6" cy="164.2" rx="9.7" ry="3.8"/>
	<path class="st1" d="M100.2,163.6c-0.8-1.8-4.8-3.2-9.6-3.2c-4.7,0-8.6,1.3-9.5,3C87.8,166.6,94.1,166.6,100.2,163.6z"/>
	<path class="st0" d="M82.2,162.8c-5.5-3-11.3-18.5-0.8-23.2c1.9-0.7,2.9,0,4.3,0.4c1.6-2.3,4.7-1.7,5.6-0.1
		c0.9-1.1,2.6-1.4,3.6-0.3l0.5-10.3c0-4.3,7-6.3,6.6,0c-0.9,7.4-1.1,14.1-0.9,20.5c2.9-1.1,5.7-1.7,8.7,0.6c1.6,1.7,1.3,3-1.3,4
		c-2.3,1-3.8,2.4-4.8,4.2c-2.3,3.5-5.1,6.6-12.3,6.6C87,165.1,83.9,164.3,82.2,162.8z"/>
	<path class="st1" d="M83.3,150.2c0.9,1.1,2.3,0.8,4-0.9c1.5-1.8,1.2-4.7-1.6-9.3l0.6-0.7c2.7,4.2,4.1,9.9,0.1,11.5
		c-2.3,1.2-4.7,0.7-4.4-4.1c0.2,1.2,0.7,4.2,2.3,4.2c0.5,0,1-0.2,1.5-0.2c1-0.2,2.1,0,3.1-0.1c1.4-0.2,3-0.8,4.1,0
		c0-0.2,0-0.3-0.1-0.5c0.7,0.1,1.3-0.1,1.9-0.6c0.2-0.2,0.4-0.4,0.6-0.6c0.6-0.7,1.2-1.5,1.3-2.5c0.1-1.3-0.7-2.6-0.1-3.7
		c0.3,0.6,0.7,1.3,1,1.9c0.1,0.2,0.2,0.5,0.3,0.7c0.1,0.5,0,1-0.1,1.5c-0.2,1.2-0.6,2.4-1.4,3.4c-1,1.1-2.6,1.6-4.1,1.6
		c-0.3,0-0.5,0-0.8,0.1c-0.3,0.1-0.4,0.3-0.7,0.4c-0.4,0.2-0.8,0.2-1.3,0.2c-2.1,0-4.3-0.5-6.2-1.4c-0.2-0.1-0.4-0.2-0.6-0.4
		c-0.1-0.2-0.1-0.5,0.1-0.6"/>
	<path class="st1" d="M91.7,139.6c2.5,10-0.4,12.4-5.7,11.3l0.7-0.4c4.7,0.7,6.7-2.2,4.6-10.5L91.7,139.6z"/>
	<path class="st1" d="M94.9,139.6c3.1,8.1,1,10.9-4,10.4l-0.4,0.3c8.2-0.2,9.1-2,4.4-12L94.9,139.6z"/>
	<path class="st1" d="M101,149.9c-2.5,1.5-4.9,3.4-6.7,6.4c1.3-2.4,2.6-5.5,6.7-7.6V149.9z"/>
	<path class="st2" d="M100.4,127.4c-0.1-0.4-0.5-0.7-1-0.8s-0.9,0-1.4,0.1c-0.5,0.1-1,0.2-1.3,0.6c-0.3,0.4-0.4,1.1,0.1,1.3
		c0.5,0.3,1-0.2,1.6-0.3c0.8-0.1,1.5,0.5,2.2,0.4c0.2-0.4,0.2-0.9-0.1-1.3"/>
	<path class="st2" d="M99.5,153c-0.4-0.1-0.9,0.1-1.2,0.3c-0.4,0.2-0.6,0.6-0.9,0.9c-0.2,0.3-0.5,0.6-0.7,0.9
		c-0.4,0.5-0.9,1.1-0.9,1.8c0,0.1,0,0.2,0.1,0.3c0.1,0.2,0.4,0.2,0.6,0.3c0.3,0.1,0.5,0.1,0.8,0.1c0.5-0.1,0.9-0.4,1.2-0.8
		s0.6-0.8,1-1.1c0.2-0.1,0.4-0.2,0.6-0.4c0.3-0.2,0.5-0.5,0.6-0.9c0.1-0.4-0.1-0.8-0.4-1c-0.3-0.2-0.8-0.2-1-0.6"/>
	<path class="st2" d="M104.5,150.2c0.6,0,1.2,0.3,1.7,0.6c0.2,0.1,0.3,0.2,0.5,0.3s0.4,0,0.5-0.2c0.1-0.2,0-0.4-0.1-0.6
		c-0.1-0.2-0.3-0.2-0.5-0.3c-0.5-0.2-1.1-0.5-1.7-0.3c-0.1,0-0.2,0.1-0.3,0.2c-0.1,0.1,0,0.2,0.1,0.3"/>
	<path class="st2" d="M92.5,141.2c0.4,0,0.9-0.1,1.3-0.1c0.1,0,0.2,0,0.2-0.1c0.1-0.1,0.1-0.3,0-0.5c-0.4-0.6-1.4-0.5-1.7,0.1
		c0,0.1-0.1,0.2-0.1,0.3c0,0.2,0.3,0.3,0.5,0.4"/>
	<path class="st2" d="M88,140.4c0.5-0.1,1,0,1.4,0.3c0.1,0.1,0.3,0.2,0.4,0.2c0.1,0,0.3-0.1,0.3-0.2c0.2-0.3,0-0.8-0.4-1
		c-0.3-0.2-0.7-0.2-1.1-0.2c-0.3,0-0.6,0.1-0.8,0.3C87.6,140,87.7,140.4,88,140.4"/>
	<path class="st2" d="M82.2,142.4c0.3-0.4,0.8-0.6,1.4-0.6c0.3,0,0.7,0.1,0.9-0.2c0.1-0.2,0-0.4-0.1-0.6c-0.1-0.1-0.4-0.2-0.5-0.3
		c-0.3-0.1-0.7-0.1-1-0.1c-0.5,0-1,0.1-1.4,0.4c-0.4,0.3-0.6,0.9-0.3,1.3C81.3,142.8,82.1,142.8,82.2,142.4"/>
	<path class="st2" d="M88,166c1.6,0.5,3.3,0.3,4.9,0.4c0,0,0.1,0,0.1,0c0.1,0,0.1,0.1,0.1,0.2c0,0.3-0.2,0.5-0.4,0.6
		c-0.2,0.1-0.5,0.1-0.8,0.1c-1.2,0-2.5,0.1-3.7-0.3c-0.2,0-0.4-0.1-0.5-0.2c-0.1-0.1-0.2-0.3-0.2-0.5c0-0.2,0.3-0.3,0.4-0.2"/>
	<polygon class="st1" points="92.2,151.1 94.3,150.7 93.3,150.2 91.9,150.1 91.9,150.6 	"/>
</g>
<g id="Letra_M">
	<ellipse class="st0" cx="140.8" cy="137.8" rx="12" ry="6.6"/>
	<path class="st1" d="M152.8,138.1c-0.4,3.5-5.6,6.2-12,6.2c-6.5,0-11.8-2.8-12-6.4C138.1,132,145.7,133.9,152.8,138.1z"/>
	<path class="st0" d="M129.2,139.3c-5.8,3.8-5.9,18.6-0.8,23.1c-1,6.6,3.6,9.3,5.8,6.8c0.8,3.3,5.5,5.2,7.9,2.3
		c1.9,2.2,6.1,0.8,6.1-4.9l0.3-4.9c6-0.5,10.3-17.8,3.5-22.3C144.8,133.8,136.9,133.6,129.2,139.3z"/>
	<path class="st1" d="M127.8,153.7c0.5,2.6,0.8,5.5,0.6,8.8c-0.9-1-1.8-2-2.4-3.6C126,157,125.9,155,127.8,153.7z"/>
	<path class="st1" d="M134.2,169.2v-13.4c0.2,6.6,0.4,13.6,1.7,16C135.1,171,134.4,170.3,134.2,169.2z"/>
	<path class="st1" d="M148.5,161.6v-8.3l1,6.3c1.3-0.2,2.7-0.9,3.9-2.6C152.6,158.7,151.9,160.5,148.5,161.6z"/>
	<path class="st1" d="M142.1,171.4c-0.8-5.6-1-11.1,0-16.8c-0.1,7.2,0,14,1.3,17.6C143,172.2,142.5,171.9,142.1,171.4z"/>
	<path class="st2" d="M132.6,167.5c-0.7-0.1-1.3-0.5-1.7-1c-0.1-0.1-0.3-0.3-0.4-0.4c-0.2-0.1-0.4-0.2-0.5-0.1
		c-0.2,0.1-0.3,0.2-0.4,0.4c-0.1,0.2,0,0.4,0,0.5c0.1,0.3,0.2,0.6,0.4,0.9c0.3,0.4,0.6,0.8,1.1,1c0.3,0.1,0.7,0.1,1,0.1
		c0.3,0,0.6-0.1,0.7-0.4c0.1-0.2,0.1-0.4,0-0.6c-0.1-0.2-0.2-0.4-0.4-0.5"/>
	<path class="st2" d="M137,169.2c0.2,0.2,0.5,0.2,0.8,0.2c0.3,0,0.6,0,1,0c0.4,0,0.7,0,1,0.2c0.3,0.3,0.4,0.8,0.2,1.2
		c-0.1,0.2-0.3,0.3-0.4,0.3c-0.7,0.3-1.6,0.1-2.4-0.2c-0.3-0.1-0.5-0.2-0.8-0.3c-0.1,0-0.3-0.1-0.4-0.2c-0.1-0.1-0.1-0.2-0.1-0.3
		c0-0.3,0.1-0.6,0.3-0.8C136.3,169.2,136.7,169.2,137,169.2"/>
	<path class="st2" d="M146.2,169.1c-0.2,0.3-0.5,0.5-0.8,0.6c-0.2,0.1-0.5,0.2-0.7,0.3c-0.2,0.1-0.5,0.3-0.5,0.5
		c-0.1,0.2,0,0.6,0.3,0.7c0.2-0.1,0.4-0.1,0.5-0.1c0.5,0,1-0.2,1.3-0.7c0.1-0.2,0.2-0.4,0.3-0.7c0-0.1,0.1-0.2,0-0.3
		s-0.2-0.2-0.3-0.1"/>
	<path class="st2" d="M150.5,156.7C150.6,156.7,150.6,156.7,150.5,156.7c0.4-0.1,0.5-0.5,0.5-0.8c0.1-0.5,0.3-1,0.5-1.5
		c0.1-0.2,0.3-0.5,0.5-0.5c0.1,0,0.2,0.1,0.3,0.2c0.5,0.5,0.5,1.3,0.4,2c0,0.1,0,0.2-0.1,0.3c-0.1,0.1-0.1,0.1-0.2,0.2
		c-0.3,0.1-0.5,0.3-0.8,0.4c-0.2,0.1-0.4,0.2-0.6,0.2s-0.4-0.2-0.3-0.4"/>
	<path class="st2" d="M127.9,141.9c0.1,0,0.2-0.1,0.2-0.2c0.1-0.3,0.3-0.5,0.4-0.8c0-0.1,0.1-0.2,0.1-0.2c0.1-0.1,0.2-0.1,0.3-0.2
		c0.3-0.2,0.6-0.4,0.9-0.5c0.1-0.1,0.2-0.1,0.3-0.2c0.1,0,0.2-0.1,0.3,0c0.2,0.1,0.2,0.3,0.1,0.5c-0.1,0.1-0.3,0.2-0.4,0.3
		c-0.3,0.2-0.4,0.5-0.6,0.7c-0.2,0.3-0.4,0.6-0.6,0.9c-0.1,0.2-0.2,0.3-0.4,0.5c-0.2,0.1-0.4,0.2-0.6,0.1c0-0.3,0.1-0.7,0.2-1"/>
	<path class="st1" d="M133.3,154.6c0.4,0.1,0.8,0.2,1.2,0.2c0.1,0.1,0,0.2,0,0.3c-0.1,0.1-0.2,0.1-0.3,0.1
		C133.8,155.2,133.3,155,133.3,154.6C133.3,154.6,133.3,154.6,133.3,154.6"/>
	<path class="st1" d="M141.4,154.4c0.4,0,0.8-0.1,1.2-0.1c-0.1,0.2-0.3,0.3-0.5,0.4c-0.1,0.1-0.2,0.1-0.3,0.1
		c-0.2,0-0.5-0.1-0.7-0.2c0,0-0.1,0-0.1-0.1c0-0.1,0-0.1,0.1-0.2c0.1,0,0.1,0,0.2,0"/>
	<path class="st2" d="M137.4,132.1c2.3-0.5,4.3-0.5,6.1,0c0.8,0.6,0.5,1.3,0,1.4c-2.1-0.5-4.2-0.6-6.1,0
		C136.6,133.7,136.2,132.6,137.4,132.1z"/>
</g>
<g id="Letra_N">
	<ellipse class="st0" cx="193.7" cy="140" rx="11.4" ry="7.7"/>
	<path class="st1" d="M205.1,140c0,4.3-5.1,7.7-11.4,7.7c-6.3,0-11.4-3.5-11.4-7.7C190.7,134.6,198.2,135.2,205.1,140z"/>
	<path class="st0" d="M207.6,151.2c0.1,4.9-1.8,8-5.7,9.3v6.3c0.1,7.1-5.9,7.1-6.4,4.6c-1.3,2.2-5.8,1.8-5.8-0.9v-6.7
		c-2.3,0-4-1.1-5.1-3.3c-4.6-0.4-5.9-4.4-5.5-10.3c1-7.2,4.6-12.2,13.8-12.5c7.6-0.5,14.7,3.3,14.7,13.5"/>
	<path class="st1" d="M203.1,152.8c-1,2.1-1.5,4.6-1.1,7.6c0.6-0.1,1.5-0.5,2.8-1.4C204.7,156.7,204.1,154.6,203.1,152.8z"/>
	<path class="st1" d="M196.3,159c-0.4,3-0.5,7.5-0.7,12.3c-0.5,0.5-0.8,0.7-1.2,1.1L196.3,159z"/>
	<path class="st1" d="M189.8,163.6l0.4-7.9c-1.4,2.3-2.6,4.6-3,7.3C187.6,163.3,188.4,163.5,189.8,163.6z"/>
	<path class="st1" d="M184.6,160.3c-0.3-1.8-0.5-3.5-0.4-5.2c-1.1,1.7-1.8,3.4-1.4,4.8C183.4,160.3,184,160.4,184.6,160.3z"/>
	<path class="st2" d="M187.6,139.4c0.7-1.3,10-1.7,11.4,0c0.8,0.8,0.8,1.7,0,1.3c-4.2-0.4-8.1-0.6-11.2,0
		C187.1,141.1,186.9,140.2,187.6,139.4z"/>
	<path class="st2" d="M193.4,170.3c-0.5,0.3-1.1,0.4-1.6,0.2c-0.3-0.1-0.6-0.3-0.9-0.1c-0.2,0.1-0.3,0.5-0.1,0.8
		c0.2,0.2,0.5,0.3,0.7,0.4c0.6,0.1,1.2,0,1.7-0.2c0.2-0.1,0.3-0.2,0.5-0.3c0.1-0.1,0.2-0.4,0.1-0.5c-0.1-0.2-0.3-0.3-0.5-0.1"/>
	<path class="st2" d="M200,168.9c-0.2,0.1-0.3,0.4-0.5,0.6c-0.3,0.4-0.8,0.4-1.3,0.5c-0.6,0.1-1.3,0.1-1.9,0.2
		c-0.1,0.4,0.1,0.9,0.5,1.1c0.1,0.1,0.2,0.1,0.4,0.1c0.7,0.2,1.4,0.1,2.1-0.2c0.4-0.2,0.7-0.5,0.9-0.8s0.1-0.9-0.1-1.2"/>
	<path class="st2" d="M203.9,151.7c0.1,0.3,0.3,0.6,0.5,0.9c0.3-0.1,0.7,0.3,0.9,0.1c0,0,0.1-0.1,0.1-0.2c0.1-0.3-0.1-0.7-0.3-0.9
		c-0.3-0.2-0.6-0.3-0.9-0.3c-0.1,0-0.2,0.1-0.2,0.2"/>
	<path class="st2" d="M186.6,157.8c0.2-0.4,0.3-0.9,0.4-1.3c-0.3-0.3-0.8-0.1-1,0.2s-0.2,0.7-0.2,1.1c0,0.1,0,0.2,0,0.2
		c0.1,0.2,0.3,0.2,0.4,0.1C186.5,158.1,186.6,158,186.6,157.8"/>
	<path class="st2" d="M181.9,157.9c0.1-0.6,0.1-1.1,0-1.7c0-0.3-0.1-0.6-0.4-0.6c-0.2-0.1-0.5,0.2-0.6,0.4c-0.2,0.3-0.3,0.6-0.2,1
		c0.1,0.5,0.7,0.7,1.2,0.8"/>
	<path class="st1" d="M192,157.2c0.3-0.2,0.7-0.2,1-0.1c0.3,0.1,0.6,0.2,0.8,0.1c0.3-0.1,0.4-0.6,0.2-0.9c-0.2-0.3-0.5-0.4-0.9-0.4
		c-0.4,0-0.9,0.2-1.2,0.4c-0.1,0.1-0.2,0.2-0.2,0.4c0,0.2,0.2,0.3,0.4,0.4"/>
	<path class="st1" d="M200.5,156.3c-0.2,0-0.4-0.2-0.6-0.2c-0.6-0.2-1.3-0.1-1.8,0.3c-0.1,0.1-0.1,0.1-0.2,0.2
		c-0.1,0.2,0.1,0.5,0.4,0.6c0.2,0.1,0.5,0,0.8,0c0.2-0.1,0.5-0.1,0.8-0.1c0.2,0,0.3,0.1,0.5,0.1c0.2,0,0.4-0.2,0.5-0.4
		C200.8,156.6,200.7,156.4,200.5,156.3"/>
	<path class="st2" d="M195,133c-1.5-0.2-3,0-4.5,0.5c-0.7,0.2-1.5,0.6-1.9,1.2c-0.2,0.3-0.3,0.7,0,0.9c0.1,0.1,0.3,0.1,0.5,0.1
		c0.6-0.1,1.2-0.3,1.9-0.5c1.8-0.5,3.8-0.6,5.7-0.1c0.3,0.1,0.5,0.1,0.8,0c0.4-0.2,0.4-0.8,0.1-1.1c-0.3-0.3-0.7-0.5-1.1-0.6
		C195.9,133.3,195.4,133.1,195,133"/>
</g>
<g id="Letra_O">
	<path class="st0" d="M241.1,166c-1.4,1.4-2.4,3.3,0.4,4.4c4.3,1.7,12.1,1.3,17.1-2.2c2.1-1.5,1.1-4.5-1.4-4.2L241.1,166z"/>
	<path class="st1" d="M259,164.4c-0.4-0.3-1.1-0.5-1.8-0.4l-16,2c-0.5,0.5-1,1.1-1.2,1.7C245.9,170.5,252.2,170.4,259,164.4z"/>
	<polygon class="st4" points="234.3,147.8 237.4,155.3 250.3,161.8 255.1,154.8 252.6,139.9 241.2,138.1 	"/>
	<path class="st1" d="M235.4,151.4c0.8-0.7,2.1-0.4,3.1-0.1c1,0.3,2.3,0.6,3.2-0.1c0.5-0.4,0.8-1.1,1.4-1.3c0.9-0.3,1.7,0.8,2.6,0.9
		c0.6,0.1,1.2-0.2,1.7-0.6c0.5-0.4,0.8-0.9,1.1-1.4c0.3-0.5,0.7-1,1.2-1.2c0.3-0.1,0.6-0.1,0.9-0.3c0.4-0.2,0.6-0.6,0.7-1
		c0.2-0.7,0.4-1.5,0.5-2.2c0.1-0.4,0.1-0.7,0-1.1c-0.1-0.5-0.4-0.9-0.8-1.3c-0.6-0.8-1.3-1.5-2.1-2.1c-1.3-0.9-3-1.3-4.6-1.3
		c-1.5,0-3.1,0.2-4.5,1c-1.2,0.7-2.2,1.7-2.9,2.9c-0.5,1-0.7,2.1-0.9,3.2c-0.1,1-0.2,2-0.2,3c0,1.1,0.1,2.3-0.6,3.1"/>
	<path class="st3" d="M241.5,141.6c1.6,1.4,3,3.1,3.7,5.2c-0.8-2.3-1.7-4.5-3.1-6.1L241.5,141.6z"/>
	<path class="st3" d="M239.4,144.5c1.1,0.8,1.6,2.6,2.1,4.5c-0.4-1.7-0.4-3.7-1.6-5L239.4,144.5z"/>
	<path class="st0" d="M231.9,135.4c-2.3-0.9-5.2,0.3-6.2,5.1c-1.7,8.1-0.4,12.5,3.8,13.5c0.8,0.2,1.5,0.1,2.2-0.6l1.9-9.2
		L231.9,135.4z"/>
	<path class="st1" d="M229.4,153.9c0.8,0.2,1.5,0.1,2.2-0.6l1.9-9.2l-1.7-8.8c-0.4-0.2-0.8-0.3-1.3-0.3c-4,5.1-4.1,15.8-1.6,16.9
		l0.6,0.2C229.4,152.7,229.3,153.3,229.4,153.9z"/>
	<path class="st0" d="M228.8,139.4c2-6.3,6.6-8.1,11.1-6.1l-6,17c-2,1.3-5.2,2.1-5.8-0.7C227.9,145.9,227.9,142.3,228.8,139.4z"/>
	<path class="st1" d="M237.9,132.7c0.7,0.1,1.3,0.3,2,0.6l-6,17c-1.2,0.8-2.7,1.4-3.9,1.2c0.2-0.6,0.5-1.1,1-1.3
		C230.3,143.8,232.6,136.6,237.9,132.7z"/>
	<path class="st0" d="M260.9,150.3c1.6,13.1-4.3,16.8-11.8,18.4c-5.1,0.8-8.6-0.9-10.4-4.6c-0.9-3-3.6-4.9-6.9-7.3
		c-3.8-3.4,0.2-9.2,5.8-5.3l5,3.9c3,2.5,7,4.1,8.3-3.8c1.4-9.1-6.2-14.1-8.8-9.2c-0.5,1.1-0.9,2.2-1.6,3.8c-0.9,2.9-2.5,4.5-5.1,4.7
		c-4.7,0.1-4.6-3.7-2.9-8.7c1.6-6.1,4.7-10.7,12.3-11.1C253.9,130.9,259.1,137.6,260.9,150.3z"/>
	<path class="st1" d="M232.4,149.4c2-0.3,3.8-0.1,5.5,0.9c-0.2,0.2-0.7,0.4-1.4,0.6c-1-0.6-2.1-0.9-3.7-0.4c-0.3-0.2-0.6-0.4-0.9-1
		L232.4,149.4z"/>
	<path class="st1" d="M250.7,153.2c-1.5,6-5,4.7-7.8,2.5C245.3,158.8,250,160.9,250.7,153.2z"/>
	<path class="st2" d="M246.5,132.4c-2.4,0.2-4.7,0.9-6.8,2.1c-0.7,0.4-1.4,0.9-1.6,1.7c-0.1,0.4,0,0.9,0.4,1c0.1,0,0.3,0,0.4,0
		c0.9-0.2,1.6-0.9,2.3-1.4c1.1-0.7,2.4-0.9,3.7-0.9s2.6,0.2,3.8,0.4c0.2,0,0.3,0,0.5,0c0.4-0.1,0.5-0.6,0.5-1
		c-0.1-0.7-0.6-1.3-1.3-1.6c-0.6-0.3-1.3-0.4-2-0.5"/>
	<path class="st2" d="M234.6,134c-0.4-0.1-0.8,0.3-1.1,0.5c-0.2,0.1-0.5,0.2-0.8,0.3c-0.4,0.2-0.7,0.7-1,1.1
		c-0.3,0.5-0.7,1.1-0.9,1.7c-0.1,0.3-0.2,0.7,0.1,0.9c0.2,0.1,0.4,0.1,0.6,0s0.3-0.3,0.4-0.4c0.2-0.2,0.4-0.5,0.5-0.8
		c0.3-0.6,0.5-1.2,1-1.6c0.2-0.1,0.3-0.2,0.5-0.3c0.2-0.1,0.3-0.3,0.5-0.4c0.2-0.2,0.5-0.5,0.4-0.8
		C234.7,134.1,234.7,134.1,234.6,134"/>
	<path class="st2" d="M228.4,136.9c-1,0.8-1.7,2-1.8,3.2c0.2,0,0.4,0.1,0.7,0.2c0.3-0.3,0.3-0.6,0.4-1c0.2-0.8,0.7-1.5,1.1-2.2
		c0-0.1-0.1-0.1-0.2-0.1"/>
	<path class="st2" d="M236.3,152.6c-0.5-0.8-1.5-1.1-2.5-1.1c-0.3,0-0.6,0-0.9,0.1c-0.6,0.2-1,0.7-1.2,1.2s-0.3,1.1-0.4,1.7
		c0,0.1,0,0.3,0,0.4c0.1,0.2,0.3,0.2,0.5,0.2s0.3-0.1,0.5-0.3c0.3-0.3,0.5-0.6,0.7-0.9c0.4-0.5,1.1-0.7,1.7-0.7
		c0.6,0.1,1.1,0.3,1.7,0.2c0.1,0,0.2,0,0.2-0.1c0,0,0-0.1,0-0.1c0-0.2,0-0.4,0-0.5s-0.2-0.3-0.4-0.3"/>
	<path class="st2" d="M247.1,170.1c0.9-0.1,1.8-0.2,2.8-0.3c0.3,0,0.6-0.1,0.9-0.1c0.4-0.1,0.8-0.2,1.2-0.4c0.2-0.1,0.5-0.2,0.7-0.3
		c0.3-0.1,0.5,0,0.7,0.1c0.1,0.1,0.2,0.2,0.1,0.3c0,0.1-0.1,0.1-0.2,0.2c-0.4,0.3-0.9,0.5-1.4,0.6c-0.1,0-0.2,0.1-0.3,0.1
		c-0.1,0-0.3,0.1-0.4,0.1c-1.3,0.4-2.6,0.6-3.9,0.5c-0.2,0-0.4,0-0.5-0.1c-0.2-0.1-0.3-0.2-0.3-0.4
		C246.7,170.2,246.9,170.1,247.1,170.1"/>
</g>
<g id="Letra_P">
	<ellipse class="st0" cx="59.5" cy="198.6" rx="5.6" ry="10.2"/>
	<path class="st1" d="M57.5,208.1c-2.1-1.5-3.5-5.2-3.5-9.5c0-5.1,2.1-9.3,4.7-10C62.9,194,64.3,201.7,57.5,208.1z"/>
	<path class="st0" d="M59.5,191.9c-3.2-4.8-9.3-6.7-17.5-5.1c-4.5,0.6-9.3,0.8-14.7,0.3c-6-0.8-11.6-0.6-11.1,2
		c0.6,2.7,4.3,4.7,17.3,4.9c0.9,0.3,1.5,0.7,0.1,1.4l-12.1,5.1c-4.8,2.4-1.4,6.6,2.6,4.6l9.4-3.6c-0.4,1.6,0,3.1,1.5,4.6
		c0.1,2.8,0.9,5.1,4.4,5.8c5,0.4,8.2-0.2,7.7-2.8c3.9,0.1,8.6,0,12.3-5.9C61.4,199.8,61.8,196.2,59.5,191.9z"/>
	<path class="st1" d="M34.7,200.9c1.6,1.1,3.4,2.2,8.6,2.5c3.1,0,5.4,3.3,0.5,4.7c-3.7,0.1-6.8-0.4-8.7-2c2.9,0.7,5.7,1.7,8.4,1.3
		c2.8-0.6,2.7-2.8-0.1-2.8c-3.4-0.6-6.8-1-9.8-3l-1.6,0.6L34.7,200.9z"/>
	<path class="st1" d="M44.5,211.8c2.9-0.5,3.1-3.4-0.7-3.7l0.7-1.1c1.3,0.7,2.3,1.4,2.7,2C47.3,210.7,46.4,211.6,44.5,211.8z"/>
	<path class="st1" d="M33.6,194c5.3,0.5,5.3,0.9,0.1,1.4C34.4,194.7,34.3,194.2,33.6,194z"/>
	<path class="st0" d="M51.9,197.1c-2.7-2.8-7-3.6-13.3-1.8c-2.7,0.4-3.7-0.1-5.1-0.1c-4.4-0.9-4.7,3.6,0,4.9c5,2.2,9.1,3.2,12.8,3.6
		C52.6,204.5,55.2,202.8,51.9,197.1z"/>
	<path class="st1" d="M51.9,197.1c-2.7-2.8-7-3.6-13.3-1.8c-2.7,0.4-3.7-0.1-5.1-0.1c-4.4-0.9-4.7,3.6,0,4.9c5,2.2,9.1,3.2,12.8,3.6
		c-5.7-1.7-11.2-3.3-13.6-5c-2.2-1.1-3.6-3.6,0.9-2.5c2.6,0.3,5.2,0.7,7.4-0.5C45.1,194.6,48.6,195.5,51.9,197.1z"/>
	<path class="st2" d="M35.7,203.9c-0.1-0.2-0.3-0.5-0.5-0.6s-0.6,0-0.7,0.2c0,0.1,0,0.2,0,0.2c0.1,1,0.9,2,2,2.2
		c0.4,0.1,0.9,0,0.9-0.4c0-0.3-0.2-0.5-0.4-0.7c-0.4-0.4-0.9-0.7-1.4-1"/>
	<path class="st2" d="M38.4,209.3c-0.4,0-0.8-0.1-1.1-0.4c-0.4-0.5-0.6-1.3-1.3-1.4c-0.2,0.4-0.1,0.8,0,1.1c0.2,0.4,0.4,0.7,0.7,1
		c0.3,0.4,0.7,0.7,1.1,1c0.2,0.1,0.4,0.2,0.6,0.1c0.1-0.1,0.1-0.1,0.2-0.2c0.1-0.2,0.2-0.4,0.2-0.6
		C38.8,209.6,38.6,209.4,38.4,209.3"/>
	<path class="st2" d="M50.2,198.5c-0.5-0.2-0.9-0.7-1.1-1.3c-1.7-0.8-3.5-1.1-5.3-1c-0.4,0-0.7,0.1-1.1,0.3
		c-0.3,0.2-0.6,0.7-0.5,1.1c0,0.3,0.1,0.5,0.3,0.7c0.5,0.7,1.3,1,2.1,1.1c0.8,0.1,1.5,0.1,2.2,0.5c0.5,0.3,1,0.7,1.5,1
		s1.1,0.5,1.6,0.1c0.7-0.4,0.8-1.8,0.2-2.4c-0.1-0.1-0.3-0.4-0.2-0.5"/>
	<path class="st2" d="M19.7,187.4c-0.6,0-1.3,0.2-1.8,0.4c-0.3,0.1-0.6,0.4-0.5,0.7c0.1,0.2,0.3,0.3,0.4,0.3
		c1.3,0.4,2.7-0.2,4.1-0.4c2.1-0.2,4.1,0.7,6.2,0.8c0.1,0,0.3,0,0.4-0.1c0.3-0.2,0.2-0.8-0.1-1c-0.3-0.3-0.8-0.4-1.2-0.5
		c-1.5-0.3-3-0.3-4.5-0.4c-1,0-2.1-0.1-3.1-0.1"/>
	<path class="st2" d="M27.4,198.6c-0.9,0.5-1.7,1-2.6,1.6c-0.5,0.3-1,0.6-1.6,0.8c-0.3,0.1-0.7,0.2-1,0.3c-0.7,0.3-1.2,0.8-1.5,1.5
		c0.3,0.2,0.7,0.3,1,0.3c0.3,0,0.6-0.2,0.9-0.4c1.5-0.9,3-1.8,4.5-2.7c0.4-0.2,0.7-0.4,1.1-0.7c0.1-0.1,0.3-0.2,0.3-0.4
		c0-0.2-0.1-0.3-0.3-0.4s-0.4,0-0.5,0"/>
	<path class="st2" d="M54.3,189c-1.2-1.2-3-1.9-4.8-1.8c-0.2,0.4,0.1,0.8,0.4,1c0.3,0.2,0.8,0.3,1.2,0.4c0.8,0.2,1.5,0.6,2,1.2
		c0.2,0.2,0.5,0.5,0.8,0.6c0.4,0,0.7-0.3,0.7-0.7c0-0.4-0.2-0.7-0.5-1"/>
	<path class="st2" d="M64,195.5c-0.1-0.2-0.5-0.2-0.6,0c-0.2,0.2-0.2,0.5-0.2,0.7c0,1.8-0.1,3.5-0.4,5.2c0,0.2-0.1,0.4,0.1,0.6
		c0.1,0.2,0.4,0.2,0.7,0.1c0.2-0.1,0.4-0.3,0.5-0.5c0.2-0.3,0.5-0.7,0.6-1c0.1-0.2,0.1-0.5,0.1-0.7c0.1-1.5,0.1-3-0.7-4.2"/>
</g>
<g id="Letra_Q">
	<ellipse class="st0" cx="93.8" cy="185.6" rx="11.4" ry="6.7"/>
	<path class="st1" d="M105.3,185.6c0,3.7-5.1,6.7-11.4,6.7s-11.4-3-11.4-6.7c0-0.2,0-0.4,0-0.5C88.6,182.2,96.4,181.1,105.3,185.6z"
		/>
	<path class="st0" d="M82.7,185.9c-3.7,2.2-6.8,8.1-3.3,12.2c0.2,4.6,1.5,6.6,3.8,6.3c1,2.2,2.3,3.9,4.6,3.5c1.4,1.7,3,3.1,5.5,1.5
		l-0.5,5.1c-0.1,4.6,6.9,5.3,7.4,0l0.5-6.6c5.2-0.7,7.5-5.2,7.5-12.5c-0.4-4.5-1.1-8.9-6.1-10.5C96.4,182.9,90.1,181.7,82.7,185.9z"
		/>
	<polygon class="st1" points="94.1,201.6 93.3,209.5 92.2,210 	"/>
	<path class="st1" d="M87.4,203.8c-0.1,2.1,0,3.4,0.4,4.2c-0.6,0.1-1.2,0.1-1.8-0.2C85.9,206.4,86.3,205.1,87.4,203.8z"/>
	<path class="st1" d="M83.5,200.3c-0.4,2-0.4,3.3-0.3,4.2c-0.9,0.1-1.7-0.1-2.4-1.1C81,202.3,81.7,201.3,83.5,200.3z"/>
	<path class="st1" d="M79.4,198.1c-0.2-1.7,0-3.4,0.6-4.9c-0.4-0.1-0.9,0.1-2,2C78.2,196.3,78.5,197.3,79.4,198.1z"/>
	<path class="st1" d="M100.6,208V201c1.4,2.4,2.7,4.6,2.8,6C102.5,207.5,101.6,207.8,100.6,208z"/>
	<path class="st1" d="M98.4,199.2c-0.5-0.2-1.2-0.3-1.6,0.1c-0.1,0.1-0.2,0.3-0.2,0.4c0,0.3,0.4,0.4,0.7,0.3s0.6-0.2,0.8,0
		c0.1,0,0.1,0.1,0.2,0.1c0.2,0,0.3-0.1,0.4-0.3s0-0.4-0.1-0.5"/>
	<path class="st1" d="M91.6,200.8c-0.3-0.1-0.6-0.2-0.8-0.2s-0.6,0.2-0.6,0.5c0.3,0.2,0.7,0.3,1,0.4c0.2,0,0.4,0,0.6-0.2
		C91.8,201.1,91.7,200.8,91.6,200.8"/>
	<path class="st1" d="M86.5,200.2c-0.1-0.2-0.3-0.4-0.6-0.5c-0.3,0-0.5,0.2-0.5,0.4c0,0.1,0.1,0.1,0.1,0.2c0.1,0.1,0.3,0.3,0.5,0.3
		c0.2,0,0.4,0,0.5-0.2c0.1-0.2,0-0.4-0.2-0.5"/>
	<path class="st1" d="M82.2,198.2c-0.3,0.2-0.7-0.4-1-0.2c-0.2,0.2,0,0.5,0.2,0.6c0.2,0.1,0.4,0.2,0.6,0.2c0.2,0,0.4-0.3,0.3-0.5"/>
	<path class="st2" d="M94,215.3c0,0.2,0.2,0.4,0.4,0.5c0.2,0.1,0.4,0.2,0.6,0.3c0.5,0.2,1,0.5,1.6,0.5c1.1,0,2.1-0.9,2.2-2
		c0-0.2,0-0.4-0.1-0.5c-0.2-0.3-0.5-0.3-0.8-0.3c-1.1-0.1-2.1-0.1-3.2-0.2c-0.1,0-0.3,0-0.4,0c-0.1,0-0.2,0.1-0.3,0.2
		c-0.2,0.2-0.4,0.5-0.4,0.8c-0.1,0.3,0.1,0.7,0.3,0.8"/>
	<path class="st2" d="M91.5,207.6c-0.6-0.3-1.3-0.7-1.9-1c-0.2-0.1-0.5-0.2-0.7-0.1c-0.2,0.1-0.3,0.4-0.3,0.6c0,0.3,0.2,0.5,0.4,0.7
		c0.2,0.3,0.4,0.6,0.7,0.7c0.3,0.2,0.7,0.2,1,0.1c0.3-0.2,0.5-0.5,0.6-0.9"/>
	<path class="st2" d="M85.4,205c-0.1-0.2-0.2-0.4-0.4-0.6c-0.1-0.1-0.2-0.3-0.3-0.4c-0.1-0.1-0.3-0.1-0.5,0
		c-0.1,0.1-0.1,0.3-0.1,0.4c0,0.4,0.1,0.7,0.2,1s0.5,0.5,0.8,0.6c0.3-0.4,0.4-0.9,0.4-1.4"/>
	<path class="st2" d="M81.2,200.3c0.2-0.2,0.1-0.6-0.2-0.7c-0.2-0.1-0.5,0-0.7,0.2s-0.1,0.5,0,0.8c0.2,0.1,0.4,0.2,0.6,0.1
		c0.2,0,0.3-0.3,0.2-0.5"/>
	<path class="st2" d="M95.5,207.7c0.4,0,0.8,0.1,1.1,0.1c0.2,0,0.4,0,0.5-0.2c0-0.1-0.1-0.3-0.3-0.3c-0.4-0.2-0.9-0.2-1.3,0.1
		c0,0.2,0,0.4,0.1,0.5"/>
	<path class="st2" d="M104.1,200.8c0.2,0.5,0.4,1,0.5,1.5c0.1,0.3,0.3,0.7,0.5,1c0.4-0.1,0.7-0.5,0.9-0.9c0.2-0.4,0.3-0.9,0.3-1.3
		c0.1-0.5,0.1-1-0.1-1.4c-0.2-0.3-0.5-0.5-0.8-0.6c-0.2-0.1-0.3-0.2-0.5-0.2c-0.4,0-0.8,0.3-0.9,0.7c-0.1,0.4-0.1,0.8,0,1.2"/>
	<path class="st2" d="M88.5,187.4c0.7-0.2,1.3-0.4,2-0.6c0.4-0.1,0.8-0.2,1.3-0.3c0.5,0,0.9,0.1,1.3,0.2c1.1,0.2,2.1,0.5,3.2,0.7
		c0.3,0.1,0.7,0.1,1,0.1s0.6-0.3,0.7-0.6c0.1-0.5-0.4-0.8-0.8-1.1c-1-0.5-1.9-1.1-3-1.2c-0.4-0.1-0.8,0-1.2,0
		c-1.5,0.1-3,0.6-4.3,1.3c-0.3,0.2-0.6,0.3-0.7,0.6c-0.1,0.3,0.1,0.7,0.4,0.7"/>
	<path class="st2" d="M95,179.5c-2,0-4,0.1-5.7,1.1c-0.4,0.2-0.8,0.6-0.7,1.1c0.1,0.3,0.3,0.4,0.6,0.5c0.3,0.1,0.5,0,0.8,0
		c2.3-0.3,4.7-0.6,7,0.1c0.3,0.1,0.5,0.2,0.8,0.1c0.4-0.1,0.5-0.5,0.5-0.9c0-0.4-0.3-0.8-0.7-1c-0.4-0.2-0.8-0.3-1.2-0.5
		c-0.5-0.2-1.1-0.3-1.6-0.5"/>
</g>
<g id="Letra_R">
	<ellipse class="st0" cx="138.3" cy="215.7" rx="8.3" ry="3.5"/>
	<path class="st1" d="M146.2,214.7c-1.1-1.4-4.2-2.5-7.9-2.5c-3.9,0-7.1,1.1-8.1,2.7C135.7,217.7,141,218.1,146.2,214.7z"/>
	<path class="st0" d="M141.1,180.5c0.3-3.2,5.8-4.2,5.8,2.3l-0.4,15.8l-5.3-10.6V180.5z"/>
	<polygon class="st1" points="146.5,195.6 146.4,198.6 141.1,188 141.1,182.1 	"/>
	<path class="st0" d="M131.6,214.2c-6.3-4.2-8.3-9.8-6.3-16.6c1-3.4,2.6-6,6.3-5.6c1.3-1.7,3-2.4,5.6-1.2l1.4,0.7l-3.6-7.8
		c-2.6-4.8,2.5-8.1,5.4-2.7l7.7,20.6l-8.3,9.1C138.2,212.4,135.3,213.5,131.6,214.2z"/>
	<path class="st1" d="M129.5,200.7c1.4,3.1,4.9,3.3,4.7-1.3c-0.1-2.4-1-4.9-2.6-7.4l0.5-0.6c2,4.6,4.4,10.1,0.7,12.2
		C131.2,204,129.8,203.6,129.5,200.7z"/>
	<path class="st1" d="M138.6,191.5c3.4,8.2,2,13-4.5,10.8l-0.4,0.5c3.1,0.7,6.1,1,7.2-2.6c-0.1-3.5-0.7-6.8-2.6-9.4L138.6,191.5z"/>
	<path class="st0" d="M131.6,214.2c4.7,3.5,13.6,3.3,17.7-5.1c2.2-4.8,1-8-2.6-10c-6.4-1.8-8.8,1.1-8.6,4.6c0.2,1.2,0.9,2.2,2.4,2.9
		c-1.5,1-2.2,3-2.8,5.3L131.6,214.2z"/>
	<path class="st1" d="M147.8,199.7c-0.3-0.2-0.6-0.4-1-0.6c-6.4-1.8-8.8,1.1-8.6,4.6c0.2,1.2,0.9,2.2,2.4,2.9c-1.5,1-2.2,3-2.8,5.3
		c1-2,1.9-4,3.8-4.9c1,0.3,2,0.6,3.4,0.5c-3.3-1.1-6.1-2.3-6-4.2C139.7,198.6,143.4,198.7,147.8,199.7z"/>
	<path class="st1" d="M130.6,202.6c0.1,0.2,0.3,0.2,0.5,0.2s0.4,0,0.6,0c0.5,0.1,1,0.4,1.4,0.2c0.2-0.1,0.4-0.3,0.6-0.4
		c0.3-0.2,0.7-0.1,1,0c0.7,0.1,1.4,0.3,2.1,0.4c0.3,0,0.6,0.1,0.8,0c0.1,0,0.3-0.1,0.4-0.1c0.3,0.1,0.3,0.4,0.4,0.7
		c0.1,0.4,0.3,0.8,0.5,1.2c0.2,0.3,0.3,0.5,0.5,0.8c0.1,0,0.3,0,0.3,0.1c0,0.1,0,0.1-0.1,0.2c-0.5,0.4-1.3,0.4-2,0.4
		c-0.4,0-0.8,0-1.2-0.1c-0.7-0.1-1.4-0.4-2-0.9c-0.1,0-0.1-0.1-0.2-0.1c-0.1,0-0.1,0.1-0.1,0.1c-0.2,0.3-0.5,0.4-0.8,0.4
		c-0.3,0-0.6,0-0.9-0.1c-0.3-0.1-0.6-0.2-0.9-0.3c-1-0.5-1.6-1.5-2-2.5c-0.1-0.2-0.1-0.3-0.1-0.5c0-0.4,0.2-0.8,0.1-1.2
		c0,0.2,0.1,0.3,0.3,0.5C130.1,202,130.4,202.3,130.6,202.6"/>
	<path class="st2" d="M130.2,193.2c-0.7-0.1-1.4,0.2-1.9,0.7c-0.1,0.1-0.2,0.2-0.3,0.3c-0.1,0.1-0.2,0.2-0.3,0.4
		c-0.1,0.2-0.3,0.3-0.3,0.6s0,0.4,0.1,0.6c0.2,0.3,0.7,0.1,1-0.1c0.2-0.1,0.4-0.3,0.6-0.4c0.2-0.1,0.3-0.3,0.5-0.4
		c0.3-0.2,0.7-0.2,1.1-0.3c0.2,0,0.4-0.1,0.5-0.2c0-0.1,0-0.1,0-0.2c-0.1-0.4-0.4-0.7-0.7-0.8C130.4,193.3,130.2,193.3,130.2,193.2"
		/>
	<path class="st2" d="M137.6,192.4c-0.6-0.5-1.4-0.7-2.2-0.9c-0.5-0.1-1-0.2-1.4,0.1c-0.2,0.2-0.3,0.5-0.4,0.7
		c-0.1,0.2-0.1,0.5,0,0.7c0.2,0.2,0.6,0.1,0.9,0c0.9-0.3,1.9,0.2,2.7,0.6c0.2,0.1,0.5,0.2,0.7,0.1c0.1,0,0.1-0.1,0.1-0.1
		c0.2-0.2,0.1-0.6,0-0.8c-0.2-0.2-0.4-0.4-0.7-0.5"/>
	<path class="st2" d="M138.5,179.8c-0.4-0.4-0.9-0.8-1.4-0.7c-0.2,0-0.3,0.1-0.5,0.2c-0.4,0.2-0.9,0.5-1.1,0.9
		c-0.2,0.3-0.2,0.7-0.3,1c0,0.2,0,0.4,0.1,0.6c0.1,0.1,0.2,0.2,0.3,0.2c0.2,0,0.5,0,0.6-0.2c0.1-0.1,0.2-0.3,0.3-0.4
		c0.2-0.3,0.6-0.3,0.9-0.3c0.3,0,0.7,0.2,1,0.3c0.1,0,0.2,0,0.2,0c0.1,0,0.1-0.1,0.2-0.2c0.1-0.2,0.3-0.4,0.3-0.7
		c0-0.2-0.2-0.5-0.4-0.5C138.6,179.9,138.5,179.9,138.5,179.8"/>
	<path class="st2" d="M146.3,200.2c-0.7,0-1.3-0.4-2-0.5c-0.7-0.1-1.3,0.1-2,0.3c-0.3,0.1-0.7,0.3-0.7,0.7c0,0.3,0.4,0.6,0.7,0.6
		c0.3,0,0.7-0.1,1-0.2c0.2,0,0.5,0,0.7,0c0.6,0.1,1.3,0.2,1.8,0.6c0.2,0.1,0.3,0.3,0.5,0.4c0.2,0.1,0.4,0.1,0.6,0
		c0.1-0.1,0.1-0.1,0.2-0.2c0.2-0.3,0.1-0.7,0-1C147,200.5,146.7,200.3,146.3,200.2"/>
	<path class="st2" d="M141.1,208.8c-0.2,0-0.3,0.1-0.4,0.2c-0.2,0.2-0.4,0.3-0.6,0.5c-0.1,0.1-0.3,0.2-0.3,0.4
		c-0.1,0.1-0.1,0.2-0.1,0.4c0,0.2-0.1,0.3-0.1,0.5c0,0.1-0.1,0.3,0,0.4c0.1,0.2,0.3,0.2,0.5,0.1c0.1,0,0.1,0,0.2-0.1
		c0,0,0.1-0.1,0.1-0.1c0.1-0.2,0.3-0.4,0.4-0.5c0.1-0.1,0.3-0.2,0.4-0.3c0.2-0.2,0.4-0.4,0.4-0.7c0-0.3-0.1-0.6-0.2-0.8
		c0,0-0.1-0.1-0.2-0.1C141.1,208.7,141.1,208.7,141.1,208.8"/>
	<path class="st2" d="M144.8,179.2c-0.5-0.3-1.1-0.6-1.6-0.5c-0.2,0.1-0.4,0.2-0.6,0.4c-0.3,0.2-0.6,0.5-0.6,0.9
		c0,0.1,0,0.2,0.1,0.3c0.1,0,0.1,0,0.2,0c0.4,0,0.9-0.1,1.3-0.1c0.1,0,0.3,0,0.4,0c0.2,0,0.3,0.1,0.4,0.2c0.2,0.2,0.4,0.4,0.6,0.7
		c0,0.1,0.1,0.2,0.2,0.2c0.2,0.1,0.3-0.1,0.4-0.2c0.1-0.3,0.1-0.7-0.1-1S145,179.5,144.8,179.2"/>
	<path class="st2" d="M136.1,217.6c0.4-0.1,0.8,0,1.2,0c0.4,0.1,0.9,0.1,1.4,0.1c0.4-0.1,0.8-0.2,1.3-0.3c0.2,0,0.4-0.1,0.5,0
		c0.2,0,0.4,0.1,0.4,0.3c0.1,0.2,0,0.4-0.2,0.6c-0.2,0.1-0.4,0.2-0.6,0.3c-0.6,0.2-1.2,0.2-1.9,0.2c-0.5,0-1,0-1.5,0
		c-0.2,0-0.5,0-0.7-0.1s-0.5-0.2-0.6-0.4c-0.1-0.2-0.1-0.5,0-0.7c0.2-0.2,0.5-0.2,0.6,0"/>
</g>
<g id="Letra_S">
	<ellipse class="st0" cx="183.8" cy="215.4" rx="8.8" ry="3.9"/>
	<path class="st1" d="M192.6,215c-0.5-1.9-4.2-3.4-8.8-3.4c-4.9,0-8.8,1.7-8.8,3.9C182.2,218,188.3,218.4,192.6,215z"/>
	<path class="st0" d="M179.9,216c-11,0.7-15.2-27.6-2.9-24.4c1.3-1.8,2.9-3.2,6.4-1.6c1.3-1.5,3-2.1,5.5-0.3
		c2.1-1.4,4.6-1.1,5.3,2.8C195.3,208.2,189,215,179.9,216z"/>
	<path class="st1" d="M175.1,200c1.3,4.2,6,3.5,4.8-1.8c-0.2-2.1-1.3-4.3-2.9-6.6l0.6-0.8c2.7,5.3,5,10.3,1.3,12.3
		C176.8,203.3,175.4,202.3,175.1,200z"/>
	<path class="st1" d="M183.4,190c3.1,5.4,3.6,9.6-1.9,10.9l1.3,0.4c4.5-0.9,4.9-4.9,1.3-12L183.4,190z"/>
	<path class="st1" d="M189.6,189.3c2.1,4.5,2.9,8.4,0.1,10.7l-1.1-0.5c3.4-1.7,2.5-5.4,0.3-9.8"/>
	<path class="st0" d="M184,199.9"/>
	<path class="st1" d="M180.5,202.8c-0.3-1.6-0.4-3.2,2.2-4c4.3-1.2,7.3-0.4,9.6,1.2L180.5,202.8z"/>
	<path class="st1" d="M180.8,201.3l4,4.4l-1,2.5l-2.7,2.7c-0.5-1.2-1.3-2.2-0.3-3.9C180.1,205.5,180.3,203.5,180.8,201.3z"/>
	<path class="st0" d="M184.1,206.5c-4.8-1.5-5.4-7.7,1.3-7.7c7-0.5,10.3,2.2,9.9,8c-2.1,10.7-8.6,10.4-15.3,9.2
		C180.6,212.3,181.3,208.6,184.1,206.5z"/>
	<path class="st1" d="M181.5,209.8c0.6-1.3,1.4-2.4,2.5-3.3c-1.1-0.3-1.9-0.9-2.5-1.6c2.3,0.8,5,1.3,8.8,1.2c-0.9,0.4-1.3,1-5.5,0.7
		L181.5,209.8z"/>
	<path class="st2" d="M195.3,205.8c-0.1-5-3.4-7.3-9.9-6.9c-4.7,0-5.7,3-4.3,5.3c0.1-1.9,0.3-4.2,4.1-4
		C189.9,200.4,193.8,201.6,195.3,205.8z"/>
	<path class="st2" d="M186,208.8c-0.4,0-0.8,0.4-1,0.7c-0.5,0.6-1,1.3-1.2,2.1c0,0.1,0,0.1,0,0.2c0,0.1,0.1,0.1,0.2,0.1
		c0.3,0.2,0.8,0.3,1.1,0.1c0.4-0.2,0.4-0.8,0.7-1.2c0.3-0.5,0.9-0.7,1.3-1c0.1-0.1,0.2-0.3,0.2-0.5c0-0.2-0.2-0.5-0.4-0.5
		s-0.5-0.1-0.7-0.1"/>
	<path class="st2" d="M176,192.6c-0.7-0.3-1.6-0.4-2.3-0.2s-1.5,0.8-1.7,1.6c0,0.1,0,0.1,0,0.2c0,0.1,0.2,0.2,0.3,0.3
		c0.5,0.1,0.9-0.2,1.4-0.3c0.8-0.3,1.7-0.2,2.6,0c0.4-0.4,0.1-1.2-0.4-1.3"/>
	<path class="st2" d="M182.7,190.8c-0.8-0.8-2.2-0.9-3.2-0.3c-0.2,0.1-0.4,0.3-0.5,0.5c-0.1,0.3,0,0.7,0.2,0.9
		c0.3,0.2,0.7,0.3,1,0.1c0.2-0.1,0.3-0.2,0.4-0.3c0.2-0.1,0.5-0.1,0.7-0.1c0.3,0,0.6,0.2,0.9,0.3c0.2,0.1,0.4,0.3,0.6,0.3
		c0.3-0.1,0.4-0.5,0.3-0.8C183.1,191.3,182.9,191,182.7,190.8"/>
	<path class="st2" d="M188.1,190.3c-0.3-0.2-0.7-0.5-1.1-0.6c-0.4-0.1-0.9-0.1-1.2,0.1c-0.3,0.2-0.5,0.8-0.1,1c0.2,0.1,0.5,0,0.7,0
		c0.4,0,0.8,0.1,1.1,0.3c0.1,0.1,0.2,0.2,0.4,0.3c0.2,0,0.5-0.2,0.5-0.4c0.1-0.2,0-0.5,0-0.7"/>
	<path class="st2" d="M192.5,190.6c-0.2-0.4-0.7-0.7-1.1-0.7c-0.2,0-0.4,0.1-0.5,0.2c-0.1,0.1-0.2,0.4-0.1,0.5
		c0.2,0.2,0.6,0.2,0.8,0.3c0.2,0.1,0.3,0.4,0.4,0.6c0.1,0.2,0.5,0.4,0.6,0.2c0.2-0.2-0.1-0.5-0.1-0.8"/>
	<path class="st2" d="M185.2,218.1c-1.3,0.1-2.5-0.3-3.8-0.4c-0.1,0-0.2,0-0.3,0s-0.1,0.2-0.1,0.2c1.2,0.5,2.5,0.7,3.9,0.6
		c0.1,0,0.2,0,0.2-0.1c0.1-0.1,0-0.2-0.1-0.2"/>
</g>
<g id="Letra_T">
	<path class="st0" d="M232.6,219.3c-1,1.3-1.2,3.3,0,4.4c3.6,2.4,11.6,2.8,18.7,0c2-1.2,1.2-3.6,0-4.4c-7.1,1.3-13.7,2-18.2,0"/>
	<path class="st1" d="M233.1,219.3c4.4,2,11.1,1.3,18.2,0c0.3,0.2,0.6,0.6,0.8,1c-5.5,4.4-15.4,5.7-19.9-0.3L233.1,219.3z"/>
	<path class="st1" d="M232.6,219.3c-0.3,0.4-0.5,0.8-0.7,1.3"/>
	<path class="st0" d="M237.7,222.8c-4.8-1.8-8.7-5-8.2-10.4c0-5,1.2-10.6,0.4-15.3c-0.3-4.3-0.4-10.1,2.4-10.8
		c1-0.3,1.9-0.8,2.9,1.2c0.3-4.1,1-6.2,3.9-6c2,0,3.3,1.6,3.3,5.3c0.7-1.8,0.9-3.7,3.2-3.6c2.4,0,4.1,1.6,4.1,8.1l0,12.5
		c3,6.1,4.5,11.5,1.7,14.8C247.2,223.3,241.1,224.1,237.7,222.8z"/>
	<path class="st1" d="M237.3,201.9c-1.4,3.1,0,5.2,2.2,6.8l4.7,2c-0.5,1.5-0.4,2.6-0.4,3.8l1.9-3.5l2.2-2.2l-0.1-3.6L237.3,201.9z"
		/>
	<path class="st0" d="M243.9,214.5c0.8-2.5,1.9-4.8,4.1-5.7c-0.7-4.2-2.7-8.3,2.8-12.7c1.7-1,2.8,0.3,2.8,4.7c0.2,2,0.9,3.8,2.2,5.3
		c2.8,4.7-2.2,13.9-8.3,15.5C244.7,219.7,242.8,217.6,243.9,214.5z"/>
	<path class="st1" d="M247.9,208.8c-2.2,0.9-3.2,3.2-4.1,5.7c-0.2,0.6-0.3,1.2-0.3,1.7C244.7,213.6,245.8,210.9,247.9,208.8"/>
	<path class="st1" d="M247.3,209.1c0.2-0.1,0.4-0.2,0.6-0.3c-0.7-4.1-2.6-8.1,2.4-12.3c-0.7,1-1.4,2-1.2,2.6c1.2-0.3,2.7-0.2,4.3,0
		c0,0.5,0.1,1.1,0.1,1.8c0.2,2,0.9,3.8,2.2,5.3c0.6,1.1,0.9,2.4,0.8,3.8C256.2,208.9,252.5,208.8,247.3,209.1z"/>
	<path class="st0" d="M240.3,200.1c3.7,0.2,7.6,0,11.7-0.5c4.1-0.2,7.4,3.3,4.2,7.9c-5.8,1.6-11.5,2.2-16.9-0.3
		C236.2,205.2,236,200.2,240.3,200.1z"/>
	<path class="st1" d="M234.9,187c0.5,4.6,0.5,9,0,13.2h0.7l-0.2-14.8l-0.2,2.1L234.9,187z"/>
	<polygon class="st1" points="242.3,185.4 242.3,199.2 242.7,199.8 242.7,197.8 242.9,185.4 242.6,186.5 	"/>
	<path class="st1" d="M234,200.5c2.9-1.2,6.1-1.3,9.6-0.7C240,199.8,236.6,199.8,234,200.5z"/>
	<path class="st2" d="M245.9,200c-1.9,0.1-3.8,0.1-5.6,0c-2.9,0.1-3.7,2.3-3.1,4.3c0.7-1.3,1.2-2.7,3.9-3.4L245.9,200z"/>
	<path class="st2" d="M241.4,184.7c-0.1-0.9-0.9-1.6-1.5-2.1c-0.1-0.1-0.2-0.1-0.3-0.2c-0.1,0-0.2,0-0.3,0c-0.7,0-1.4,0.1-2.1,0.2
		c-0.1,0-0.2,0-0.2,0.1c0,0-0.1,0.1-0.1,0.2c-0.1,0.2-0.1,0.5,0,0.8c0.2,0.3,0.5,0.3,0.8,0.3c0.3-0.1,0.6-0.2,0.9-0.2
		c0.5,0.1,0.8,0.5,1.1,0.9c0.3,0.4,0.6,0.8,1.1,1c0.1,0,0.2,0,0.3,0c0.1,0,0.1-0.1,0.1-0.2C241.3,185.1,241.3,184.9,241.4,184.7"/>
	<path class="st2" d="M247.5,185.3c0-0.2-0.1-0.4-0.3-0.6c-0.2-0.1-0.4-0.2-0.6-0.2c-0.7-0.1-1.4,0-1.9,0.4
		c-0.2,0.1-0.3,0.4-0.2,0.5c0.1,0.1,0.2,0.1,0.3,0.2c0.9,0.3,1.9,0.7,2.3,1.6c0.1,0.2,0.2,0.5,0.4,0.7c0.2,0.2,0.6,0.2,0.7-0.1
		c0-0.1,0-0.2,0-0.2c0-0.3,0-0.6,0-0.9c0-0.2,0-0.5-0.1-0.7c-0.1-0.3-0.3-0.6-0.5-0.8"/>
	<path class="st2" d="M234.2,187c-0.1,0.1-0.2,0-0.3-0.1s-0.2-0.2-0.3-0.3c-0.2-0.1-0.5-0.1-0.7,0c-0.4,0.1-0.7,0.4-1,0.6
		c-0.1,0.1-0.1,0.1-0.1,0.2c0,0.2,0.1,0.3,0.3,0.3c0.1,0,0.3,0,0.4,0c0.3,0,0.6,0.2,0.8,0.5c0.1,0.2,0.1,0.4,0.2,0.6
		c0.1,0.2,0.3,0.4,0.5,0.4c0.2,0,0.3-0.3,0.4-0.5c0.1-0.3,0.1-0.6,0.1-0.9s-0.1-0.6-0.4-0.7"/>
	<path class="st2" d="M248.1,211.2c-0.2,0-0.4,0.2-0.6,0.4c-0.2,0.3-0.4,0.5-0.5,0.8c-0.2,0.5-0.3,1-0.4,1.5c0,0.3,0,0.8,0.3,0.9
		c0.2,0.1,0.5-0.1,0.6-0.4c0.1-0.2,0.1-0.5,0.2-0.7c0.2-0.4,0.5-0.6,0.7-1c0.2-0.4,0.3-0.8,0.3-1.3c-0.2-0.1-0.5-0.2-0.7-0.1"/>
	<path class="st2" d="M255.6,201.8c0.2,0.3,0.3,0.6,0.5,0.9c0.1,0.1,0.1,0.2,0.2,0.3c0.1,0.1,0.2,0.1,0.3,0c0.1-0.2,0-0.5-0.1-0.7
		c-0.1-0.3-0.3-0.5-0.6-0.6C255.8,201.6,255.5,201.6,255.6,201.8"/>
	<path class="st2" d="M237.9,224.3c2.2,0.3,4.7,0.3,7.9-0.2c0.6,0,0.6,0.4,0,0.7c-2.7,0.3-5.4,0.6-7.9,0
		C237.1,224.4,237.4,224.3,237.9,224.3z"/>
	<path class="st2" d="M252,196.7c-0.2,0-0.3,0-0.4,0s-0.2,0.3-0.1,0.4c0,0,0.1,0.1,0.1,0.1c0.1,0,0.3,0,0.4-0.1
		S252.1,196.8,252,196.7"/>
</g>
<g id="Letra_U">
	<ellipse class="st0" cx="34.1" cy="261" rx="10.8" ry="6"/>
	<path class="st1" d="M44.9,260.6c-0.4-3.2-5-5.7-10.8-5.7c-5.8,0-10.5,2.5-10.8,5.7C30.8,265.8,38,266.2,44.9,260.6z"/>
	<path class="st0" d="M24.8,260.3c-5.1-4.8-9.5-12.3-1-22.8c2.4-2.6,4.3-3.2,5.7-1.9c1.1-1.3,2.1-2.5,4.8-1.4l-0.6-8.5
		c-0.8-4.1,3.7-6.3,5-2.4c0.5-2.4,3.9-4.2,5.1-0.8l3,26.9L24.8,260.3z"/>
	<path class="st1" d="M24.2,245.1c1.6,4.6,6.1,3.8,6.3-0.9c0.3-2.6-0.1-5.5-1-8.5L30,235c1.8,7.1,2.4,13.1-2.6,13.8
		C25.3,248.8,24.4,247,24.2,245.1z"/>
	<path class="st1" d="M34.3,234.3c3.9,8.8,1.3,14.6-4.6,13.7c3.1,1.2,6.8,0,7.2-6c-0.7-6-1.8-6.7-2.7-8.7L34.3,234.3z"/>
	<polygon class="st1" points="38.7,223.4 39.7,240.8 40.3,240.6 38.9,222.5 	"/>
	<path class="st0" d="M24.8,260.3c1.9,1.9,4.6,3.4,9.5,3.4l3.5-3.7l-0.9-5.9l-8.2,0.2l-5.3,4.6L24.8,260.3z"/>
	<path class="st1" d="M25,247.1c0.1,0.4,0.5,0.7,0.8,0.8c0.4,0.2,0.8,0.2,1.2,0.3c0.2,0,0.5,0.1,0.7,0c0.5-0.1,0.9-0.3,1.4-0.4
		c0.5,0,1,0.2,1.5,0.3c0.3,0,0.6,0,0.9,0c0.2-0.1,0.5-0.1,0.7-0.2c0.2,0,0.4,0,0.6-0.1c0.4-0.1,0.8-0.3,1.1-0.5
		c0.3-0.2,0.5-0.4,0.8-0.5c0.2-0.1,0.5-0.1,0.7,0.1c0.2,0.2,0.2,0.4,0.3,0.7c0.1,0.7,0,1.5,0.1,2.3c0.1,0.7-0.1,1.7,0.6,2
		c1.1,0.5,0.8,1.3,0,2.1c-0.2,0.2-0.3,0.6-0.4,0.9c-0.2,0.4-0.2,1-0.5,1.2c-0.2,0.1-0.5,0.2-0.7,0.2c-0.3,0-0.6,0-0.9,0
		c-0.4,0-0.8,0-1-0.4c0-0.1-0.1-0.2-0.1-0.3c-0.2-0.7-0.8-1.3-1.2-2c-0.3-0.5-0.5-1.1-0.5-1.7c0-0.4,0-0.8-0.3-1
		c-0.1-0.1-0.3-0.1-0.4-0.1c-1-0.2-1.9-0.3-2.9-0.5c-0.2,0-0.4-0.1-0.6-0.2c-0.2-0.1-0.3-0.2-0.4-0.3c-0.6-0.5-1.2-1.1-1.8-1.6
		c-0.1-0.1-0.3-0.3-0.3-0.4c-0.1-0.3-0.1-0.6-0.1-0.9c0-0.1,0-0.2,0.1-0.3c0.1-0.2,0.4-0.1,0.6,0C24.8,246.8,24.9,247,25,247.1"/>
	<path class="st0" d="M46.3,245.4c-2.8-0.7-5.6-1.1-8.5-0.8c-6.5,1.3-7.3,6-1,8.1c-0.8,1-1.4,2.4-1.8,3.8l-0.7,7.2
		c6.4,0.1,13-5,13.7-11.5C48.6,249,47.8,245.8,46.3,245.4z"/>
	<path class="st1" d="M35,257.2l0.1-0.7c0.4-1.5,1-2.8,1.8-3.8c-6.3-2.1-5.5-6.8,1-8.1c2.9-0.3,5.7,0.1,8.5,0.8
		c-6.6-0.8-11.6-0.4-12.9,2.8c-0.2,3.1,3.5,4.5,9.9,4.6c-2,0.1-4,0.4-5.8,0C36.6,253.7,35.8,255.2,35,257.2z"/>
	<path class="st2" d="M33.9,235.1c-0.2-0.4-0.6-0.6-1.1-0.6c-0.4,0-0.8,0.2-1.2,0.4c-0.3,0.2-0.7,0.4-0.8,0.7
		c-0.1,0.2-0.1,0.4-0.1,0.6c0,0.2,0,0.5,0.2,0.6c0.1,0.1,0.3,0.1,0.5,0.1c0.2,0,0.3-0.1,0.4-0.2c0.5-0.2,1-0.3,1.5-0.3
		c0.2,0,0.4,0.1,0.5-0.1c0.1-0.1,0.1-0.2,0.1-0.3C33.8,235.8,33.8,235.5,33.9,235.1"/>
	<path class="st2" d="M28,236.1c-0.4-0.1-0.9,0-1.3,0.2c-0.1,0.1-0.3,0.2-0.4,0.3c-0.2,0.2-0.4,0.4-0.6,0.7c-0.1,0.2-0.1,0.5,0,0.7
		c0.1,0.2,0.5,0.3,0.7,0.2c0.3-0.1,0.5-0.3,0.7-0.5c0.1-0.1,0.1-0.1,0.2-0.2c0.1,0,0.2,0,0.3,0c0.2,0,0.4-0.1,0.6-0.2
		c0,0,0.1-0.1,0.1-0.1c0,0,0-0.1,0-0.2c0-0.1,0-0.3,0-0.4c0-0.1,0-0.2-0.1-0.3c-0.1,0-0.1,0-0.2-0.1c-0.1,0-0.2-0.1-0.2-0.2"/>
	<path class="st2" d="M42.8,246.1c-2.1-0.5-4.4-0.3-6.4,0.5c-0.2,0.1-0.4,0.1-0.5,0.3s-0.2,0.3-0.2,0.5c0.1,0.3,0.4,0.3,0.7,0.3
		c0.7,0,1.3-0.2,2-0.3c1.3-0.3,2.7-0.3,4-0.1c0.2,0,0.5,0.1,0.7,0c0.2-0.1,0.4-0.2,0.4-0.4C43.5,246.5,43.1,246.3,42.8,246.1"/>
	<path class="st2" d="M38.2,254.1c-0.5,0.3-0.9,0.8-1.3,1.3c-0.3,0.4-0.6,0.9-0.7,1.4c0,0.2,0,0.5-0.1,0.7c0,0.2-0.1,0.4,0,0.6
		c0.1,0.3,0.5,0.3,0.8,0.1c0.2-0.1,0.4-0.4,0.5-0.7c0.1-0.2,0.2-0.5,0.4-0.7c0.1-0.1,0.2-0.3,0.3-0.4c0.1-0.1,0.2-0.1,0.3-0.2
		c0.3-0.3,0.5-0.6,0.7-1c0.1-0.2,0.3-0.5,0.1-0.7c-0.1-0.2-0.3-0.3-0.5-0.3s-0.4,0-0.6-0.1"/>
	<path class="st2" d="M34.9,224.5c0.3-0.1,0.5-0.2,0.8-0.4c0.1-0.1,0.2-0.1,0.4-0.1c0.3-0.1,0.7,0,1,0.1c0.1,0,0.2,0.1,0.3,0.1
		c0.2,0,0.3-0.2,0.3-0.4s-0.1-0.4-0.3-0.5c-0.3-0.3-0.8-0.5-1.2-0.5c-0.4,0-0.9,0.1-1.3,0.3c-0.1,0-0.2,0.1-0.2,0.2
		c-0.2,0.2-0.2,0.5-0.1,0.8c0,0,0,0,0,0.1c0,0,0,0,0.1,0c0.1,0,0.1,0.1,0.1,0.1c0,0.1,0,0.1,0,0.2S34.9,224.5,34.9,224.5"/>
	<path class="st2" d="M42.8,222.5c-0.1-0.2-0.2-0.4-0.3-0.5c0,0-0.1-0.1-0.1-0.1c-0.1,0-0.2,0-0.3,0c-0.4,0-0.9,0-1.3,0.1
		s-0.8,0.4-1,0.8c-0.1,0.1-0.1,0.3-0.1,0.5c0,0.1,0,0.2,0.1,0.3c0.1,0.2,0.4,0.2,0.6,0.1c0.2-0.1,0.4-0.2,0.6-0.3
		c0.2,0,0.4,0,0.6,0.1c0.2,0.1,0.5,0.1,0.7,0.2c0.2,0,0.4,0.1,0.5-0.1c0-0.1,0.1-0.1,0.1-0.2C42.9,223.1,42.9,222.8,42.8,222.5"/>
	<path class="st1" d="M37.6,241.2c1.6-0.6,3.4-1,5.4-0.4C41.3,240.7,39.5,240.9,37.6,241.2z"/>
	<path class="st2" d="M29.9,264.7c2.8,0.6,5.7,0.7,8.7,0.2c0.7,0,0.7,0.6,0,1.1c-2.7,0.5-5.6,0.7-8.7-0.2
		C29.4,265.6,29.4,264.7,29.9,264.7z"/>
</g>
<g id="Letra_V">
	<ellipse class="st0" cx="87.9" cy="260.3" rx="9.3" ry="4.7"/>
	<path class="st1" d="M97.2,260.3c0-2.6-4.2-4.7-9.3-4.7s-9.3,2.1-9.3,4.7C84.5,263.4,90.6,263.8,97.2,260.3z"/>
	<path class="st0" d="M80.3,260c-8.2-3.7-12.2-20.6-1.5-23.9c0.8-0.3,1.5-0.3,2.3,0c0.7-1.3,1.6-2.2,3.1-1.7l-4.1-6.7
		c-2.5-4.1,2.2-7.3,4.9-2.9l6.5,10.5l2-9c0.9-5.2,7.8-5.5,6.3,1.7l-3.2,14.2l-6.1,16.5L80.3,260z"/>
	<path class="st1" d="M79.5,244.2c0.8,2.1,1.5,3,2.8,2.4c3-1.7,3.5-4.8-1.3-10.5l0.2-0.4c3.8,4.1,5.9,9.2,1.1,11.5
		C80.8,247.8,79.4,246.5,79.5,244.2z"/>
	<path class="st1" d="M84.2,234.4c4.8,5.5,5.7,11.6-0.7,12.2l-0.4,0.3c1.2-0.1,2.2,0.3,4.4-1.5c2-1.7,0.9-7.6-3.7-11.5"/>
	<path class="st0" d="M99.9,245.8c-2-3.4-8.5-4.5-12.6,1.4c-0.8,1.5,0,2.7,2.4,3.8c-1.4,0.6-2.4,1.9-2.7,4.2c3,2.1-0.9,3.6-6.7,4.9
		c3.6,2.2,7.9,2.8,12.8,1.3C98.6,259,102.8,252.9,99.9,245.8z"/>
	<path class="st1" d="M87,255.1c0-0.1,0-0.1,0-0.2c0.4-2.2,1.3-3.4,2.7-4c-1.6-0.7-2.5-1.4-2.7-2.3c1.7,2.1,4.7,2.6,9.2,1.3
		c-1.6,0.6-2.7,1.4-5.7,1.2C88.9,251.8,87.7,253.2,87,255.1z"/>
	<path class="st1" d="M89.6,250.5c-0.5,0-1-0.3-1.3-0.7c-0.3-0.3-0.6-0.6-1-0.9c-0.1-0.1-0.1-0.1-0.2-0.1c-0.1,0-0.2,0.1-0.3,0.2
		c0,0.1,0,0.2,0,0.4c0.1,0.3,0.2,0.7,0.2,1c0,0.1,0.1,0.2,0,0.4c0,0.1-0.1,0.2-0.2,0.2c-0.5,0.5-1,1.1-1.2,1.8
		c-0.2,0.7-0.1,1.5,0.3,2.1c0,0.1,0.1,0.1,0.2,0.2c0.2,0.1,0.4,0,0.6-0.1s0.2-0.4,0.3-0.6c0.3-0.8,0.6-1.6,1.2-2.2
		c0.4-0.4,0.8-0.7,1.2-1c0.2-0.1,0.4-0.3,0.5-0.4C90,250.6,89.8,250.5,89.6,250.5"/>
	<path class="st1" d="M80.6,246.8c0.6,0.3,1.4,0.3,2,0c0.1-0.1,0.2-0.1,0.3-0.1c0.2,0,0.3,0,0.5,0c1.6,0.1,3.3-0.7,4.3-1.9
		c0.2-0.2,0.3-0.4,0.4-0.7c0.1-0.2,0.1-0.5,0.1-0.7c0-1-0.1-2-0.3-3c1.1,1.4,1.2,3.4,0.3,4.9c-0.2,0.3-0.5,0.6-0.7,0.9
		c-0.8,0.8-1.7,1.6-2.9,1.7c-0.4,0.1-0.7,0.1-1.1,0c-0.4,0-0.9,0-1.3,0c-0.4,0-0.9,0-1.3-0.2c-0.5-0.3-0.8-0.7-1-1.2
		c-0.1-0.1-0.2-0.3-0.1-0.5c0.3,0.3,0.6,0.5,0.9,0.8"/>
	<path class="st2" d="M99.9,245.8c-2-3.4-8.5-4.5-12.6,1.4c-0.1,0.3-0.2,0.5-0.3,0.8C91.8,242.5,96,242.7,99.9,245.8z"/>
	<path class="st2" d="M91.6,252.2c-0.1,0-0.2,0.1-0.3,0.1c-0.5,0.2-1.1,0.4-1.6,0.7c-0.5,0.3-0.9,0.8-0.9,1.4c0,0.3,0,0.5,0.2,0.7
		c0.2,0.2,0.5,0.2,0.7,0.1c0.1-0.1,0.2-0.3,0.3-0.5c0.2-0.3,0.5-0.5,0.8-0.6c0.4-0.1,0.7-0.3,1.1-0.3c0.2,0,0.5-0.1,0.6-0.3
		c0.2-0.2,0.1-0.6-0.1-0.9S91.9,252.3,91.6,252.2"/>
	<path class="st2" d="M82.4,236.3c0.7,0.5,0.9,1.5,1.7,2c0.1,0,0.1,0.1,0.2,0c0,0,0.1,0,0.1-0.1c0.1-0.2,0.2-0.3,0.3-0.5
		c0.1-0.2,0.1-0.5,0.1-0.7c-0.1-0.2-0.2-0.4-0.3-0.6c-0.1-0.1-0.2-0.2-0.3-0.3c-0.2-0.2-0.4-0.4-0.7-0.4c-0.3,0-0.6,0.2-0.8,0.4
		c0,0-0.1,0.1-0.1,0.1"/>
	<path class="st2" d="M77.6,239c0.5,0.2,1,0.5,1.4,0.8c0.3,0.2,0.7,0.5,1.1,0.7c0.4,0.2,0.9,0.2,1.2-0.1c0.4-0.3,0.5-0.9,0.5-1.4
		c0-0.4,0-0.8-0.2-1.1c-0.2-0.4-0.7-0.6-1.1-0.7c-0.6-0.2-1.3-0.3-1.9-0.2s-1.3,0.4-1.7,0.9c-0.1,0.2-0.3,0.4-0.2,0.6
		c0.4,0.2,0.8,0.4,1.2,0.6"/>
	<path class="st2" d="M83.2,224.3c-0.2-0.4-0.7-0.6-1-0.7c-0.2-0.1-0.5-0.2-0.7-0.2c-0.5,0-0.8,0.4-1,0.9c-0.3,0.5-0.5,1-0.5,1.6
		c0,0.1,0,0.2,0,0.3c0.1,0.4,0.5,0.6,1,0.6c0.1,0,0.1,0,0.2,0c0.2-0.1,0.2-0.3,0.2-0.5c0.1-0.4,0.5-0.6,0.9-0.7c0.4-0.1,0.8,0,1.2,0
		c0.1,0,0.2,0,0.2-0.1c0,0,0-0.1,0-0.1C83.4,225,83.3,224.6,83.2,224.3"/>
	<path class="st2" d="M98.3,224.1c-0.4-0.5-1-0.8-1.6-0.7c-0.4,0.1-0.8,0.3-1.2,0.5c-0.4,0.3-0.8,0.6-0.8,1.1c0,0.4,0.3,0.8,0.8,0.9
		c0.4,0,0.7-0.1,1.1-0.1c0.3,0,0.6,0.2,0.9,0.4s0.6,0.3,1,0.2c0.2-0.5,0.3-1,0.2-1.5C98.6,224.7,98.4,224.3,98.3,224.1"/>
</g>
<g id="Letra_W">
	<ellipse class="st0" cx="137" cy="259.8" rx="9.2" ry="3.6"/>
	<path class="st1" d="M146.1,259.4c-0.5-1.8-4.4-3.2-9.1-3.2c-4.6,0-8.4,1.3-9.1,3c4.4,3.3,9.3,4.5,15.5,1.4L146.1,259.4z"/>
	<path class="st0" d="M129.7,260c7-1.2,22,5.4,18.3-15.6l3.7-13.2c1.3-6.9-4.3-6.3-5.5-1.8l-2.4,8.8c0,0.7-0.2,0.8-0.6,0.1l-0.6-9.4
		c0-7.6-5.6-6.8-5.2,0.3l0.4,10.5c0,0,0,1-0.5,0.1s-3.1-9.8-3.1-9.8c-1.1-5.2-6.1-3.3-4.8,2l0.9,4.8l0.7,2.8
		C121.1,238.4,120.3,252.6,129.7,260z"/>
	<path class="st1" d="M131,239.8c2.2,0.9,4.1,2.1,4.7,4c0.8,2-1.1,4.2-3.8,3.3c-2-0.3-3.4-0.9-4.1-2.1c1.6,0.9,3.1,1.8,4.4,1.1
		c0.3-1,1-2.4,2-2.9c1.2-0.5-2.8-2.9-5.1-3.5C129.5,239.6,130.1,239.6,131,239.8z"/>
	<path class="st1" d="M133.5,247.3c0.6,0.9,1.8,1.3,2.5,2c0.2,0.2,0.4,0.5,0.6,0.8c0.4,0.4,0.8,0.7,1.3,0.9c0.1,0,0.2,0.1,0.3,0.2
		c0.1,0.1,0.1,0.4,0.1,0.6c-0.2,0.8-1,1.4-1.5,2.1c-0.3,0.4-0.5,1-0.7,1.5c-0.1,0.4-0.3,0.8-0.4,1.2c-0.3-0.3-0.3-0.8-0.3-1.2
		c-0.1-0.9-0.8-1.7-0.5-2.5c0.1-0.2,0.1-0.4,0.1-0.6c0-0.3-0.3-0.5-0.5-0.7c-1.1-0.9-1.7-2.3-1.6-3.7c0-0.2,0-0.3,0.1-0.5
		C133.2,247.3,133.4,247.2,133.5,247.3"/>
	<path class="st0" d="M143.4,260c2-0.6,3.7-1.5,4.9-2.9c0.9-1.1,1.5-2.6,1.6-4.5c-0.4-3.8-1.7-6.1-4.6-6.4c-2.9-0.2-5.7-0.9-8.3-2.1
		c-3.4-1.5-5.5,2.7-2,5.5l3.2,2.4c-1.5,1.3-2.1,3.1-2.5,5l-6,3C134.2,262.9,138.8,262.9,143.4,260z"/>
	<path class="st1" d="M135.7,257c0.4-1.9,1-3.8,2.5-5l-1.1-0.8c2.1,0.9,4.3,1.6,7,1.8c-1.4,0-2.7,0-5.6-0.7
		C137.4,253.2,136.4,254.8,135.7,257z"/>
	<path class="st2" d="M148.6,248c-0.7-1.1-1.8-1.7-3.3-1.9c-2.9-0.2-5.7-0.9-8.3-2.1c-3.1-1.4-5.2,2.1-2.6,4.9
		c-0.8-1.8-0.9-3.3,0.3-4.1c0.9-0.5,1.7-0.4,2.4,0c2.8,0.8,5.7,1.6,8.1,2C146.4,246.9,147.6,247.3,148.6,248z"/>
	<path class="st2" d="M131.5,244.9c0-0.4,0.1-0.8,0.4-1c0.2-0.2,0.5-0.3,0.7-0.4c0.3-0.2,0.4-0.6,0.3-0.9c0-0.1-0.1-0.2-0.1-0.2
		c-0.1-0.1-0.3-0.1-0.4-0.1c-0.4,0-0.8-0.1-1.3,0c-0.1,0-0.2,0.1-0.3,0.1c-0.2,0.1-0.3,0.3-0.4,0.5c-0.1,0.4-0.2,0.7-0.2,1.1
		c0,0.3,0,0.5,0.1,0.8c0.1,0.3,0.4,0.6,0.7,0.8c0.1,0,0.1,0.1,0.2,0.1c0.1,0,0.3-0.1,0.3-0.3C131.5,245.2,131.5,245.1,131.5,244.9"
		/>
	<path class="st2" d="M132.8,228.6c-0.2-0.2-0.5-0.4-0.8-0.4c-0.3,0-0.6,0-0.9,0.1c-0.2,0-0.4,0.1-0.6,0.1c-0.5,0.2-0.8,0.9-0.9,1.4
		c-0.1,0.5,0,1.1,0.4,1.4c0.1,0,0.2,0.1,0.3,0.1c0.1,0,0.2-0.1,0.3-0.2c0.1-0.2,0.3-0.4,0.5-0.6c0.2-0.2,0.4-0.3,0.7-0.3
		c0.2,0,0.4,0.1,0.5,0.1c0.2,0,0.4,0.1,0.5,0c0.1-0.1,0.2-0.2,0.2-0.4c0.1-0.5,0-0.9-0.3-1.3"/>
	<path class="st2" d="M141.6,226c-0.1-0.6-0.3-1.2-0.8-1.5c-0.3-0.2-0.8-0.2-1.1-0.1c-0.4,0.1-0.7,0.3-1,0.5
		c-0.2,0.1-0.3,0.2-0.5,0.4c-0.1,0.1-0.1,0.3-0.2,0.4c-0.1,0.2-0.1,0.5-0.1,0.7c0,0.2,0,0.6,0.2,0.6c0.1,0,0.3,0,0.4-0.1
		c0.3-0.2,0.7-0.4,1.1-0.5c0.4-0.1,0.8-0.2,1.1,0c0.1,0.1,0.2,0.1,0.3,0.2c0.2,0,0.4,0,0.5-0.1C141.6,226.4,141.7,226.2,141.6,226"
		/>
	<path class="st2" d="M150.2,227.1c-0.9-0.1-1.8,0.3-2.3,1c-0.1,0.1-0.1,0.2-0.1,0.3c0,0.1,0.1,0.2,0.1,0.3c0.1,0.1,0.2,0.3,0.3,0.4
		c0.1,0,0.3,0,0.4,0c0.4,0,0.7,0,1,0.2c0.2,0.1,0.5,0.3,0.8,0.4c0.1,0,0.2,0,0.3,0c0.2-0.1,0.3-0.2,0.3-0.4c0-0.2,0-0.3,0-0.5
		c0-0.3,0-0.6-0.2-0.9C150.7,227.5,150.5,227.3,150.2,227.1"/>
	<path class="st1" d="M137.7,238l0.1,1.8c0,0,0,1-0.5,0.1c-0.1-0.2-0.3-0.8-0.6-1.6C137,242.7,139.3,242.1,137.7,238z"/>
	<path class="st1" d="M144,237.2l-0.3,1.1c0,0.7-0.2,0.8-0.6,0.1l-0.1-1.2C142.1,240.6,144.2,241.6,144,237.2z"/>
	<polygon class="st1" points="129.7,247.5 129.9,246.4 129.2,246.4 	"/>
	<path class="st2" d="M139.6,253.8c-0.2-0.1-0.4,0-0.6,0.1c-0.2,0.1-0.5,0.3-0.7,0.5c-0.5,0.4-0.8,0.9-0.8,1.5
		c0.3,0.1,0.6,0.2,0.9,0c0.2-0.1,0.4-0.3,0.5-0.4c0.5-0.4,1.1-0.8,1.7-1c0.1-0.1,0.3-0.1,0.4-0.2s0.2-0.3,0.1-0.4
		c-0.1-0.1-0.2-0.2-0.4-0.2c-0.2,0-0.4-0.1-0.6-0.1c-0.2,0-0.4,0.1-0.6,0.2"/>
	<path class="st2" d="M135.1,262.5c0,0.1,0.1,0.1,0.1,0.1c0.5,0,1,0,1.5,0.1c0.3,0,0.5,0,0.8,0c0.1,0,0.3-0.1,0.4,0s0.2,0.3,0.1,0.3
		c0,0,0,0-0.1,0c-0.9,0.1-1.8,0.1-2.8,0c-0.2,0-0.5-0.1-0.7-0.3c0,0,0-0.1,0-0.1c0,0,0,0,0.1-0.1
		C134.7,262.5,134.9,262.5,135.1,262.5"/>
</g>
<g id="Letra_X">
	<ellipse class="st0" cx="199.9" cy="251.3" rx="4" ry="8.5"/>
	<path class="st1" d="M199.9,259.8c-2.2,0-4-3.8-4-8.5c0-4.7,1.8-8.5,4-8.5c0.1,0,0.3,0,0.4,0C203.3,248.9,203.5,254.6,199.9,259.8z
		"/>
	<path class="st0" d="M189.1,242.6c-5.5,1.3-10.6,2-15.3,2.2c-5.3,1-7.9,3.4-6.3,8.1c1.4,4.8,3.6,6.5,6.9,5.9
		c0.7-0.3,1.4-0.6,1.9-0.8c0.3,1.4,0.7,2.5,1.7,2.8c0.2,1.3,0.9,2.4,2.2,3.1c0.3,2.4,2.4,4.9,6.8,2.2c4-0.3,8-1.1,11.3-5.7
		c5.4-6.6,4.4-14.1-1.8-19.6C195.5,240.1,193.4,240.4,189.1,242.6z"/>
	<path class="st1" d="M184.5,253.5c0.8,0.4,1.3,1.1,1.4,2.4c0.5,2.9-2.6,4.3-7.9,4.8c-0.8-0.2-1-0.5-1-0.8c4.2-0.2,8.4-0.4,8.1-4
		c-0.2-2-1.9-2.9-7.1-1.4c1.4-0.5,2.9-1.1,4.5-1.2c0.6-0.1,1.2,0,1.8,0.2c0.5,0.1,1.2,0,1.6,0.5c0.2,0.3,0.2,0.7,0.2,1.1
		c0,0.7-0.1,1.5,0.3,2.2c0.3,0.6,0.8,1,1.3,1.4c0.1,0.1,0.2,0.2,0.3,0.3c0,0.1,0,0.3,0.1,0.4c0,0.5,0.4,0.8,0.4,1.3
		c0,0.1,0,0.2,0,0.4c0,0.2,0.1,0.4,0.1,0.6c0.2,0.6,0.4,1.1,0.4,1.7c0,0.6-0.1,1.2-0.4,1.7c-0.4,0.5-1,0.8-1.5,1.1
		c0.1-0.9,0.9-1.7,0.8-2.6c0-0.6-0.5-1.2-0.9-1.7c-0.1-0.1-0.3-0.2-0.3-0.4c-0.1-0.2-0.1-0.3-0.1-0.5c0-0.8-0.2-1.6-0.6-2.3
		c-0.2-0.4-0.5-0.8-0.6-1.3c-0.1-0.5-0.1-1-0.1-1.5c-0.1-0.8-0.4-1.5-0.9-2.1"/>
	<path class="st1" d="M179.7,263.4c5.3-0.4,8.7-2.7,5.4-5.5l0.7-0.5c3.2,3.3,0.6,6-5.5,6.3L179.7,263.4z"/>
	<path class="st1" d="M187.1,265.9c1-0.7,1.9-3.5-0.2-4.7l-0.3,0.4c2,1.2,1.1,3.5-1.6,5.3C185.3,266.8,185.6,266.8,187.1,265.9z"/>
	<path class="st1" d="M174.9,250.6c3.4,3,1.9,7.1-2,8.2l1.6-0.1l1.9-0.8C178.1,255.2,178.2,252.7,174.9,250.6z"/>
	<polygon class="st1" points="179.7,252.6 177.2,253 177.2,253.8 	"/>
	<path class="st0" d="M199.6,242.9c-2.6-4.3-6.3-5.1-10.9-3.5c-4.6,2.3-4.3,5.5-3.8,8.8c0.7,1.9,0.9,4.7,1,7.8
		c-0.7,3.1,4.8,4.7,6.7-0.6c0.5-0.7,0.5-2.1,0.8-3.3c1,1.3,2.1,2.5,3.6,2.7l4.2,0.6C202.5,251.7,201.9,247.5,199.6,242.9z"/>
	<path class="st1" d="M197,254.7c-1.5-0.2-2.5-1.4-3.6-2.7c-0.3,1.1-0.3,2.6-0.8,3.3c-1.9,5.3-7.4,3.6-6.7,0.6c-0.1-3-0.3-5.9-1-7.8
		c-0.3-1.6-0.4-3.3,0-4.8c0.1,1.8,0.3,3.5,0.7,4.9c0.6,2.6,1.1,5.1,0.9,7.8c0,2.7,3.7,3.6,5.4-0.9c0.7-2.9,1.3-5.5,1.3-7.8
		c0.1,1.5,0.3,2.9,0.3,4C194.6,252.6,195.7,253.7,197,254.7z"/>
	<polygon class="st1" points="190.6,261.2 190.1,258 190.3,257.5 	"/>
	<polygon class="st1" points="192.9,253.8 193.3,258.1 193.1,252.6 	"/>
	<path class="st2" d="M193.8,240.2c-0.8-0.3-1.7-0.7-2.5-0.7c-1,0-2,0.4-2.8,1.1c-0.8,0.7-1.3,1.6-1.7,2.6c-0.1,0.3-0.2,0.6,0,0.8
		c0.1,0.1,0.2,0.2,0.3,0.3c0.7,0.4,1.5,0.1,2.1-0.3c0.6-0.4,1.1-1,1.8-1.3c1.3-0.7,2.8-0.3,4.2-0.1c0.4,0.1,1,0.1,1.2-0.3
		c0.2-0.4-0.1-0.8-0.4-1c-0.6-0.6-1.4-1.1-2.3-1.3"/>
	<path class="st2" d="M195,248.9c-0.2,0.9,0,1.8,0.4,2.6c0.4,0.8,1.2,1.3,2.1,1.4c0.2,0,0.5,0,0.7-0.2c0.1-0.1,0.1-0.2,0.2-0.3
		c0.1-0.4,0.1-0.8-0.2-1.1c-0.2-0.2-0.5-0.4-0.7-0.6c-0.7-0.6-0.9-1.7-1.7-2.1c-0.3-0.1-0.8-0.1-0.9,0.3"/>
	<path class="st2" d="M181.2,245.3c-1.8,0.1-3.6,0.1-5.4,0c-0.9,0-1.9-0.1-2.6,0.5c-0.2,0.1-0.2,0.5,0,0.7c0.1,0.1,0.2,0.1,0.4,0.2
		c0.7,0.2,1.3,0.4,2,0.5c0.7,0.1,1.3,0.1,2,0.1c1,0,1.9-0.1,2.9-0.1c0.5,0,0.9,0,1.3-0.3c0.3-0.2,0.6-0.5,0.5-0.9
		c-0.1-0.4-0.6-0.6-0.8-0.3"/>
	<path class="st2" d="M169.2,253.1c-0.3,1.4,0.4,3,1.7,3.8c0.3,0.1,0.5,0.2,0.8,0.2c0.3,0,0.6-0.1,0.7-0.4c0.2-0.3,0.1-0.6,0-0.9
		c-0.1-0.3-0.3-0.5-0.6-0.7c-0.4-0.4-0.8-0.8-1-1.2c-0.1-0.2-0.2-0.5-0.4-0.7c-0.2-0.2-0.4-0.4-0.7-0.4c-0.3,0-0.6,0.2-0.6,0.4"/>
	<path class="st2" d="M177.9,256.3c-0.3,0.7-0.6,1.6-0.1,2.2c0.2,0.3,0.7,0.5,1,0.4c0.4-0.1,0.7-0.4,0.6-0.8
		c-0.1-0.2-0.3-0.3-0.4-0.4c-0.2-0.2-0.2-0.6-0.2-0.9c0-0.3-0.1-0.7-0.3-0.8c-0.3-0.2-0.7,0-0.6,0.3"/>
	<path class="st2" d="M179.3,261.2c-0.1,0.6,0.3,1.1,0.8,1.4c0.2,0.1,0.4,0.1,0.6,0s0.3-0.3,0.3-0.5c-0.1-0.2-0.3-0.4-0.5-0.5
		c-0.1-0.1-0.2-0.3-0.3-0.5s-0.3-0.3-0.5-0.4c-0.2,0-0.4,0.2-0.4,0.4"/>
	<path class="st2" d="M181.9,264.7c-0.1,0.5,0.1,0.9,0.5,1.3c0.2,0.3,0.5,0.5,0.9,0.7c0.3,0.1,0.8,0,1-0.3c-0.6-0.5-1.2-1-1.7-1.6
		c-0.1-0.1-0.2-0.2-0.3-0.2s-0.3,0.1-0.2,0.2"/>
	<path class="st2" d="M203.4,247.8c-0.1-0.1-0.1-0.1-0.2-0.2c-0.2,0-0.3,0.2-0.3,0.4c-0.2,1.6,0.2,3.2-0.2,4.8
		c0,0.2-0.1,0.4-0.1,0.6c0,0.4,0.2,0.7,0.1,1.1c0.1,0.1,0.2,0.1,0.3,0s0.1-0.2,0.1-0.3c0.1-0.6,0.2-1.2,0.3-1.8
		C203.6,250.9,203.9,249.3,203.4,247.8"/>
	<path class="st1" d="M178.2,254.4c-0.3,0.1-0.5,0.2-0.8,0.2c-0.1,0-0.1,0-0.2,0c-0.1,0,0-0.1,0-0.2c0-0.3-0.3-0.6-0.2-0.9
		c0.1-0.2,0.3-0.3,0.5-0.4c1-0.4,2-0.6,3.1-0.7c0-0.1,0-0.2,0.1-0.3c0.6,0.2,1.1,0.6,1.5,1.2c-0.4,0.2-0.9,0.2-1.3,0.4
		c-0.1,0-0.3,0.1-0.4,0.1c-0.3,0.1-0.7,0.2-1,0.2c-0.2,0-0.3,0-0.5,0.1C178.7,254.2,178.5,254.3,178.2,254.4"/>
</g>
<g id="Letra_Y">
	
		<ellipse transform="matrix(0.9826 -0.1859 0.1859 0.9826 -44.8656 50.6561)" class="st0" cx="247.7" cy="264.6" rx="9.7" ry="4.6"/>
	<path class="st1" d="M257.2,262.8c-0.5-2.5-5.1-3.7-10.4-2.7c-5.3,1-9.1,3.8-8.7,6.3C246.6,268.1,253,266.9,257.2,262.8z"/>
	<path class="st0" d="M240.1,265.7c-4.7-1.5-7.7-5.5-9.1-11.9c-0.8-4.5-2-8.5-3.9-11.8c-1.6-4.1,1.1-9.6,5.5-2.5l3,5.8
		c-0.6-3.3,3-5.8,5.9-3.3c-0.2-2.2,2.4-3.6,5.1-2.5c0.6-1.9,3.2-3.4,5.2-0.9c2,2.3,3.2,5,1.9,9c2.3-1.8,4.5-3.1,6.1-2.3
		c2.5,0.9,4.4,2.3,1.1,6c-2,2-3.2,4.1-3.3,6.2c-0.7,4.5-3.3,7.8-10.5,8.4C244.7,266.1,242.4,266,240.1,265.7z"/>
	<path class="st1" d="M240.4,241.3c4.3,4.7,4.5,11.4,0.8,11.4c-1.3,0.1-2.9-1.4-5.5-7.4l-0.2-0.5c1.7,4.4,3.4,9.1,6.4,8.5
		c4.2-1.6,3.5-5.7-0.3-11.3L240.4,241.3z"/>
	<path class="st1" d="M245.8,239.2c6.3,8.6,3.5,14.3-1.8,11.8l-0.5,0.6c6.5,1.8,9.3-1.9,3-12.1L245.8,239.2z"/>
	<path class="st1" d="M250.9,237.8c4,5.7,4.1,10.1-1.3,12.7l-0.4,0.5c1.3-0.6,2.2,0,4.4-3.4C254.7,243.7,254,240.3,250.9,237.8z"/>
	<path class="st1" d="M249.2,257.9c0.6-3.7,1.9-7.2,4.4-10.2l-2.2,2.6l-2.2,0.8l-1.5,0.9l-3.5-0.4l-1.7,1.3h-2.2l-1-0.2
		c1.3,1.2,2.3,2.7,5.2,0.8c0.8,0.6,1.8,0.7,3.2,0C247.6,254.9,248.2,256.4,249.2,257.9z"/>
	<path class="st2" d="M230,237.5c-0.5-0.2-1-0.3-1.5-0.1c-0.5,0.2-0.9,0.6-1,1.1c-0.1,0.4-0.1,0.7-0.1,1.1c0,0.1,0,0.3,0.1,0.4
		c0.1,0.2,0.3,0.3,0.5,0.3c0.2,0,0.4-0.2,0.4-0.4c0-0.1,0-0.2,0-0.4c0-0.1,0.1-0.2,0.2-0.3c0.2-0.2,0.4-0.5,0.7-0.6
		c0.2-0.1,0.5,0,0.7-0.1c0.2-0.1,0.4-0.4,0.3-0.6c0-0.2-0.2-0.5-0.5-0.5"/>
	<path class="st2" d="M239.6,242.1c-0.4-0.1-0.8,0-1.2,0.1c-0.3,0.1-0.6,0.3-0.9,0.4c-0.2,0.1-0.3,0.2-0.5,0.3
		c-0.3,0.3-0.5,0.7-0.5,1.1c0,0.3,0,0.6,0.2,0.8c0.3,0.2,0.7,0,0.9-0.3c0.2-0.3,0.3-0.6,0.6-0.8c0.5-0.3,1.3,0,1.8-0.4
		c0.2-0.2,0.3-0.6,0.2-0.8c-0.1-0.3-0.4-0.5-0.8-0.4"/>
	<path class="st2" d="M245.7,240.3c-0.9-0.3-2.1-0.1-2.8,0.7c-0.2,0.2-0.4,0.5-0.4,0.8c0,0.3,0.2,0.6,0.4,0.7
		c0.5,0.1,0.8-0.4,1.2-0.6c0.4-0.2,1,0,1.4-0.2c0.5-0.2,0.6-1,0.2-1.3"/>
	<path class="st2" d="M247.7,240.6c0-0.3,0-0.6,0-0.9c0-0.1,0-0.3,0-0.4c0.1-0.1,0.2-0.2,0.3-0.3c0.3-0.2,0.6-0.4,0.9-0.5
		c0.3-0.1,0.7,0,1,0.2c0.2,0.3,0.3,0.7,0,0.9c-0.2,0.2-0.6,0.1-0.9,0.2c-0.2,0.1-0.4,0.4-0.6,0.5c-0.2,0.2-0.6,0.2-0.7,0"/>
	<path class="st2" d="M258.4,246.2c-1-0.2-2.1,0.1-2.9,0.8c-0.1,0.1-0.2,0.2-0.1,0.3c0.2,0.2,0.6,0.2,0.9,0.1s0.6-0.3,0.9-0.4
		c0.4-0.1,0.9,0,1.4,0c0.6,0.1,1.2,0.2,1.8,0.3c0.1,0,0.3,0,0.4-0.1c0.1-0.2,0-0.4-0.2-0.6C260,246.3,259.2,246.1,258.4,246.2"/>
	<path class="st2" d="M251.4,254.4c-0.1,0-0.2,0.2-0.3,0.3c-0.2,0.5-0.5,1.1-0.7,1.6c-0.1,0.3-0.2,0.5-0.2,0.8c0,0.3,0,0.6,0.3,0.8
		c0.3,0.3,0.7,0.2,1.1,0c0.3-0.2,0.5-0.6,0.6-1s0.2-0.7,0.3-1.1c0.1-0.3,0.2-0.5,0.3-0.8c0-0.3,0-0.6-0.2-0.7
		C252.2,254.1,251.7,254.3,251.4,254.4"/>
	<path class="st2" d="M236.7,262c0.4,0.5,1,0.9,1.7,1.1c0.1,0,0.3,0.1,0.4,0s0.3-0.2,0.3-0.3c0-0.2-0.3-0.3-0.5-0.4
		c-0.3-0.1-0.7-0.3-0.9-0.5c-0.2-0.2-0.4-0.3-0.6-0.3C236.8,261.5,236.5,261.8,236.7,262"/>
	<path class="st2" d="M249.2,267.3c-1.3,0.6-2.7,0.4-4.1,0.5c-0.2,0-0.4,0-0.6,0.2c-0.2,0.1-0.3,0.3-0.2,0.5
		c0.5,0.3,1.1,0.4,1.7,0.4c0.2,0,0.4,0,0.6-0.1c0.2,0,0.5-0.1,0.7-0.1c0.6-0.1,1.3-0.2,1.9-0.4c0.2-0.1,0.4-0.2,0.5-0.4
		c0.1-0.2-0.1-0.5-0.3-0.4"/>
</g>
<g id="Camada_64">
	<g id="Letra_C_1_">
		<path id="XMLID_43_" class="st10" d="M167,316.3c-2.2,1.2-2.5,3,1,4.4c4.1,1.3,11.9,1.7,14.7-1.6c2-2.3,0.8-6.3-1.3-6.3L167,316.3
			z"/>
		<path id="XMLID_42_" class="st11" d="M181.4,312.8l-14.4,3.6c-0.4,0.2-0.8,0.5-1,0.7c4.9,3.2,13.6,4.8,17.3-3.1
			C182.6,313.1,182,312.8,181.4,312.8z"/>
		<path id="XMLID_41_" class="st4" d="M162.9,300.8c-0.1,1.8-0.3,3.4-1,4.7c-1.4,2.6-0.8,4.3,0,5.8l14,4.2l2.2-5.1l-0.3-8.4
			l-4.1-4.7l-6.9-0.4l-3.8,2.7L162.9,300.8z"/>
		<path id="XMLID_40_" class="st11" d="M178,307.4l-0.2-5.2l-4.1-4.7l-6.9-0.4l-3.8,2.7l0,1.1c0,0.8-0.1,1.5-0.2,2.2
			c1.4,0.3,2.9,0.7,5-0.6c0.3-0.3,0.6-0.5,1.2,0.2c1,0.9,2.1,1.7,4.3,1.3C174.8,303.1,176.4,303,178,307.4z"/>
		<path id="XMLID_39_" class="st3" d="M165.3,298.8c0.5,1.1,0.8,2.1,0.8,3.2c0.2-1.2,0.2-2.3,0-3.3L165.3,298.8z"/>
		<path id="XMLID_38_" class="st3" d="M169.2,297.7c0.8,1.9,1.4,3.8,1.5,5.3c0.2-2,0.5-4-0.7-5.6L169.2,297.7z"/>
		<path id="XMLID_37_" class="st10" d="M158,299.9c-1.5-0.6-3.1-1.6-2-4.1c1-2.4,2.8-5,7.2-5.2c2.8-0.3,5.8-0.2,8.9,0L158,299.9z"/>
		<path id="XMLID_36_" class="st10" d="M174.1,290.6c-6.6,0-13.5-0.3-16.3,6.9c-0.8,2.7,0.4,4.1,3.4,4.4l10.3-6.2l5.2-2.6
			L174.1,290.6z"/>
		<path id="XMLID_35_" class="st12" d="M169.2,290.7c-4.9,0.3-9.3,1.4-11.4,6.9c-0.4,1.5-0.2,2.6,0.5,3.3
			C158.4,299.9,156.9,293.3,169.2,290.7z"/>
		<path id="XMLID_34_" class="st10" d="M168.6,318c5,2.2,15,1.7,15-8.5c-0.2-9.5-2.3-17.4-9.2-18.9c-3.9-0.4-8,0.8-12.8,6.6
			c-3.4,3.6-0.3,7.2,2.6,4.5c4.8-5.4,10.2-5.2,11.4,2c1.1,6.7-2.1,9.6-6.6,6.6c-4.1-3.1-7.8-3.7-8-0.1
			C160.7,312.3,162.4,314.7,168.6,318z"/>
		<path id="XMLID_33_" class="st11" d="M175.5,303.7c1.1,6.7-2.1,9.6-6.6,6.6C173,315.7,178.8,311.5,175.5,303.7z"/>
		<path id="XMLID_32_" class="st12" d="M175.7,291c-0.4-0.2-0.8-0.3-1.3-0.4c-3.9-0.4-8,0.8-12.8,6.6c-2.9,3.1-1,6.3,1.5,5.2
			c-1.8-0.9-2.4-2.5,0.1-5.2C168,292.7,172.2,290.4,175.7,291z"/>
		<path id="XMLID_31_" class="st12" d="M168.5,310c-3.9-2.8-7.3-3.3-7.6,0.2c0,0.2,0,0.4,0,0.7C162.1,308.6,164.9,308.6,168.5,310z"
			/>
		<path id="XMLID_30_" class="st12" d="M167.2,290.4c-1.4,0-2.7,0-4,0.2c-4.4,0.3-6.2,2.8-7.2,5.2c-0.6,1.4-0.4,2.3,0.2,3
			C155.6,294.6,160.8,290.4,167.2,290.4z"/>
		<path id="XMLID_29_" class="st12" d="M180.1,319.6c-2,1-4.6,0.9-7.2,0.8c-0.3,0-0.2,0.4,0,0.5c2,0.2,5.4,0.3,7.3-0.9
			C180.4,319.9,180.3,319.5,180.1,319.6z"/>
	</g>
	<g id="Setas">
		<path class="st7" d="M159.5,287.1c3.2-1.9,6.6-2.2,9.6-1.7"/>
		<polygon class="st8" points="169.2,283.5 169.2,287.1 171.9,285.3 		"/>
		<polygon class="st8" points="159,285.3 160.3,288.8 156.8,288.8 		"/>
		<path class="st7" d="M184.1,296.2c2.2,3,2.9,6.3,2.7,9.4"/>
		<polygon class="st8" points="188.7,305.5 185.1,305.8 187.2,308.3 		"/>
		<polygon class="st8" points="185.8,295.5 182.5,297.1 182.1,293.7 		"/>
		<path class="st7" d="M154.7,314.9c-2.1-3.1-2.6-6.5-2.4-9.5"/>
		<polygon class="st8" points="150.5,305.5 154.1,305.3 152.1,302.7 		"/>
		<polygon class="st8" points="152.9,315.6 156.3,314.1 156.6,317.5 		"/>
	</g>
</g>
<g id="Letra_Z">
	<path class="st0" d="M112,319c-0.2,2.7,0.9,4.3,4.7,3.5c5.3-1.3,10.1-6.4,10.7-11.2c0.3-3-1.6-3.5-2.6-2L112,319z"/>
	<path class="st1" d="M126.2,308.4c-0.5,0-1,0.3-1.4,0.8L112,319c-0.1,0.9,0,1.6,0.2,2.2C123,320.1,124.9,313.5,126.2,308.4z"/>
	<path class="st0" d="M113.3,320.2c-8.9-2.7-17.1-10.3-12.7-19.5c0.3-1,1.1-1.2,1.7-1.5c0.4-2.5,1.4-4.4,4.8-4.1
		c0-1.9,1.1-3.6,3.9-3.6c-1.3-2-2.6-3.9-3.6-5.6c-2-3-2-4.7-1-5.7c1.3-0.8,2.7-1.5,5.8,2.9c4.7,7,8.3,13.6,10.3,19.6
		C124.6,314.1,118.2,320.5,113.3,320.2z"/>
	<path class="st1" d="M106.7,307.7c0.3,0,0.7,0,1-0.1c0.7-0.2,2-0.7,1.3-2.9c-1.1-4.1-3.4-5.8-6.8-5.5c-1.1,0.5-1.7,1-1.7,1.5
		c1.8-1.3,6.4-1.4,7.5,3.7c0.6,2-0.1,2.8-1.3,2.9c-1.6-0.5-3-1.5-4.2-3.1c0.8,1,1.6,2.1,2.6,2.8c0.4,0.3,0.9,0.5,1.4,0.6
		c0.6,0.1,1.1,0.4,1.7,0.5c0.6,0.1,1.2,0.1,1.6-0.3c0.1-0.1,0.3-0.3,0.4-0.4c0.2-0.2,0.5-0.2,0.8-0.3c0.8-0.2,1.5-0.7,1.9-1.4
		c0.1-0.2,0.2-0.5,0.4-0.7c0.5-0.7,1.5-0.9,2.1-1.4c0.6-0.5,0.9-1.3,1.3-2c0.1-0.2,0.3-0.4,0.3-0.6c0.1-0.2,0.1-0.5,0.1-0.7
		c0-1.3-0.4-2.7-1.2-3.8c-0.1-0.2-0.4-0.3-0.5-0.2c0.5,1,0.9,2.1,0.9,3.2c0,1.2-0.6,2.3-1.5,3c-0.6,0.5-1.4,0.8-2,1.3
		c-0.2,0.2-0.4,0.5-0.7,0.7c-0.6,0.6-1.4,0.9-2.2,1.2c-0.2,0.1-0.4,0.1-0.6,0.2c-0.2,0-0.5-0.1-0.7,0.1c-0.1,0.1-0.2,0.2-0.2,0.3
		c-0.4,0.6-1,1-1.7,1.2"/>
	<path class="st1" d="M107.1,295c6,3.1,7.8,8.3,4.2,10.2c-1.1,0.6-1.8,0.7-2.4,0.5l0,0.5c5.7-0.9,7.9-5.5-1.8-11.9L107.1,295z"/>
	<path class="st1" d="M111,291.5c7,5.4,6.4,10.1,2.6,11.9l-0.4,0.3c2.1-0.7,4-1.7,3.2-5.9c-1-3.1-3.2-5.3-5.8-6.8L111,291.5z"/>
	<path class="st0" d="M125.8,305.2c-1.9-6.3-6.6-9.5-12.3-2.3c-3,3.7-3.3,5.6-0.8,6.6c0.7,0.2,1.3,0.6,3.2-0.1
		c-0.2,3.6,0.2,6.8,2,9.2C123.5,315.8,126.2,311.5,125.8,305.2z"/>
	<path class="st0" d="M113.8,320.2c2.8,0.6,8.5-3.4,10.3-6.7L113.8,320.2z"/>
	<path class="st2" d="M111.1,307c0.2-1,1-2.4,2.4-4.1c3.8-4.8,7.2-5,9.5-2.6C119,298.1,115,301.4,111.1,307c0,0.2-0.1,0.4-0.1,0.5"
		/>
	<path class="st1" d="M111,307.5c0,0.9,0.6,1.5,1.7,1.9c0.7,0.2,1.3,0.6,3.2-0.1c0,3.1,0.2,5.8,1.3,8.1c-1.2-2-2.7-4.2-2.7-5.9
		C110.9,310.7,111.1,309.1,111,307.5z"/>
	<path class="st2" d="M103.8,300.9c-0.2,0-0.3,0-0.5,0c-0.2,0-0.3,0-0.5,0c-0.2,0-0.3,0.2-0.4,0.3c0,0.2,0.1,0.4,0.3,0.5
		c0.2,0.1,0.4,0.1,0.6,0.2c0.3,0.1,0.5,0.4,0.7,0.7c0.2,0.3,0.6,0.5,0.9,0.3c0.1-0.1,0.2-0.2,0.3-0.3c0.1-0.1,0.1-0.2,0.1-0.3
		c0.1-0.3-0.1-0.6-0.3-0.8c-0.2-0.2-0.3-0.4-0.5-0.5C104.3,300.8,104,300.8,103.8,300.9"/>
	<path class="st2" d="M104.5,298.1c0.7-0.3,1.5-0.2,2.1,0.3c0.5,0.4,0.9,1,1.5,1.3c0.1,0,0.2,0.1,0.3,0.1c0.3,0,0.6-0.3,0.7-0.6
		c0.1-0.6-0.3-1.2-0.6-1.6c-0.1-0.2-0.3-0.3-0.4-0.5c-0.2-0.3-0.5-0.6-0.8-0.7c-0.7-0.3-1.4,0.1-2,0.4c-0.3,0.2-0.7,0.5-0.8,0.8
		c-0.1,0.2,0,0.5,0.2,0.6"/>
	<path class="st2" d="M108.8,294.4c0.6,0,1.2,0.3,1.6,0.6s0.9,0.8,1.3,1.2c0.2,0.2,0.5,0.4,0.8,0.4c0.3,0,0.5-0.3,0.6-0.5
		c0.1-0.3,0.1-0.5,0-0.8c-0.3-1.3-1.3-2.4-2.6-2.6c-0.2,0-0.5,0-0.7,0c-0.5,0.1-0.8,0.5-1.1,0.9
		C108.7,293.9,108.7,294.3,108.8,294.4"/>
	<path class="st2" d="M117.6,309.6c-0.2,0.3-0.4,0.7-0.6,1c-0.1,0.1-0.2,0.3-0.2,0.4c-0.3,0.7,0,1.4,0.2,2.1c0.1,0.4,0.4,1,0.8,1.1
		c0.4,0.1,0.7-0.2,0.9-0.5c0.2-0.3,0.1-0.7,0.1-1.1c-0.1-0.4-0.1-0.7-0.1-1.1c0-0.3,0.1-0.5,0.1-0.8c0-0.4,0-0.9-0.2-1.3
		c0-0.1-0.1-0.1-0.1-0.1c0,0-0.1,0-0.1,0c-0.2,0.1-0.4,0.2-0.6,0.4"/>
	<path class="st1" d="M119.7,306.6l-3.8,2.8l-0.5,1.1l0.5,0.3C117.5,309.4,119.2,308,119.7,306.6z"/>
	<path class="st2" d="M107.7,280.3c-0.1,0.2-0.3,0.3-0.4,0.5c-0.2,0.2-0.4,0.5-0.3,0.8c0.1,0.1,0.2,0.3,0.1,0.4c0.4,0,0.8,0,1.2-0.1
		c0.1,0,0.3,0,0.4,0c0.5,0.1,0.7,0.6,1.1,1c0.2,0.2,0.3,0.3,0.6,0.4s0.5,0,0.6-0.2c0.1-0.2,0.1-0.4,0-0.6s-0.2-0.3-0.3-0.5
		c-0.4-0.4-0.7-0.8-1.1-1.2c-0.2-0.2-0.4-0.4-0.7-0.5c-0.1,0-0.3-0.1-0.4-0.1c-0.3,0-0.6,0-1,0"/>
	<polyline class="st9" points="87.4,270.1 102.6,270.1 87.4,282.1 102.6,282.1 	"/>
	<polygon class="st6" points="102.6,280.1 102.6,284 104.4,282.1 	"/>
</g>
<g id="Cenario">
	<g id="Camada_58">
		<text transform="matrix(1 0 0 1 51.9167 59.1382)" class="st13 st14">A</text>
		<text transform="matrix(1 0 0 1 99.0352 114.0412)" class="st13 st14">G</text>
		<text transform="matrix(1 0 0 1 53.9164 118.6382)" class="st13 st14">F</text>
		<text transform="matrix(1 0 0 1 261.8583 65.6382)" class="st13 st14">E</text>
		<text transform="matrix(1 0 0 1 213.8731 59.5829)" class="st13 st14">D</text>
		<text transform="matrix(1 0 0 1 161.7311 59.5829)" class="st13 st14">C</text>
		<text transform="matrix(1 0 0 1 105.9164 59.1378)" class="st13 st14">B</text>
		<text transform="matrix(1 0 0 1 262.6199 267.0995)" class="st13 st14">Y</text>
		<text transform="matrix(1 0 0 1 206.5792 266.0016)" class="st13 st14">X</text>
		<text transform="matrix(1 0 0 1 151.8087 266.0016)" class="st13 st14">W</text>
		<text transform="matrix(1 0 0 1 105.2517 264.5624)" class="st13 st14">V</text>
		<text transform="matrix(1 0 0 1 49.8104 262.1477)" class="st13 st14">U</text>
		<text transform="matrix(1 0 0 1 258.2955 220.5797)" class="st13 st14">T</text>
		<text transform="matrix(1 0 0 1 199.9168 219.2499)" class="st13 st14">S</text>
		<text transform="matrix(1 0 0 1 151.8086 218.5939)" class="st13 st14">R</text>
		<text transform="matrix(1 0 0 1 106.5891 218.1278)" class="st13 st14">Q</text>
		<text transform="matrix(1 0 0 1 65.3407 217.6617)" class="st13 st14">P</text>
		<text transform="matrix(1 0 0 1 207.6324 170.3084)" class="st13 st14">N</text>
		<text transform="matrix(1 0 0 1 155.0461 172.2835)" class="st13 st14">M</text>
		<text transform="matrix(1 0 0 1 108.9572 171.3948)" class="st13 st14">L</text>
		<text transform="matrix(1 0 0 1 51.9168 172.811)" class="st13 st14">K</text>
		<text transform="matrix(1 0 0 1 259.6982 113.6019)" class="st13 st14">J</text>
		<text transform="matrix(1 0 0 1 208.6811 114.0415)" class="st13 st14">I</text>
		<text transform="matrix(1 0 0 1 150.476 113.1286)" class="st13 st14">H</text>
		<text transform="matrix(1 0 0 1 128.4346 322.6852)" class="st13 st14">Z</text>
		<text transform="matrix(1 0 0 1 188.7013 324.6248)" class="st13 st14"></text>
		<text transform="matrix(1 0 0 1 261.1763 172.8728)" class="st13 st14">O</text>
	</g>
	<g id="Nuvens">
		<g id="Nuvem_1">
		</g>
		<g id="Nuvem_2">
		</g>
		<g id="Nuvem_3">
		</g>
		<g id="Nuvem_4">
		</g>
	</g>
	<g id="Montanha">
	</g>
	<g id="Grama">
	</g>
	<g id="Corda">
	</g>
	<g id="Forca">
	</g>
</g>
</svg>
