<?xml version="1.0" encoding="utf-8"?>
<!-- Generator: Adobe Illustrator 19.0.0, SVG Export Plug-In . SVG Version: 6.00 Build 0)  -->
<svg version="1.1" id="Letra_P" xmlns="http://www.w3.org/2000/svg" xmlns:xlink="http://www.w3.org/1999/xlink" x="0px" y="0px"
	 viewBox="0 0 600 600" style="enable-background:new 0 0 600 600;" xml:space="preserve">
<style type="text/css">
	.st0{fill:#F9C29E;}
	.st1{fill:#E6A784;}
	.st2{fill:#F9CCB5;}
</style>
<ellipse id="XMLID_275_" transform="matrix(1 5.448422e-003 -5.448422e-003 1 2.0113 -2.7413)" class="st0" cx="504.1" cy="367.8" rx="60.6" ry="110.3"/>
<path id="XMLID_274_" class="st1" d="M481.4,470.4c-22.4-16.2-38.1-56.2-37.9-102.9c0.3-55.2,22.8-100.8,52-108.8
	C541.5,317.6,555.8,401.6,481.4,470.4z"/>
<path id="XMLID_273_" class="st0" d="M504.6,294.8c-34.1-51.8-100.4-73.6-189.3-56.3c-49.1,6.2-101.6,8.2-159.8,2.8
	c-65.1-9.6-126.3-7.6-120.5,20.5c6.8,29,46.5,51.6,187.9,54.1c9.3,3.5,16.7,7.4,1.1,15.4L92.2,385.8c-52.6,26-15.8,71.4,27.8,49.9
	l102.4-38.4c-4,17.5,0.1,34.2,16.1,49.9c0.4,30.4,9.8,55.2,47.6,62.7c54.3,4.9,88.8-1.3,83.5-30.3c42.7,1.1,93.2,0.5,134.3-63.5
	C524.7,380.9,529.5,341.6,504.6,294.8z"/>
<path id="XMLID_272_" class="st1" d="M234.3,391.1c17.7,12.1,37.2,23.8,93.1,27.7c33.8,0.2,58.6,36.5,5.2,50.7
	c-39.7,0.4-73.3-4.9-94-22.2c30.9,8,62.2,18.7,91.4,14.1c30-6.8,29.1-30.6-0.7-30.8c-36.5-6.4-73.4-11.1-106.7-33.2l-17.6,6.6
	L234.3,391.1z"/>
<path id="XMLID_271_" class="st1" d="M340.1,509.8c31.2-5.7,34.1-36.8-7.6-40.3l8-11.9c14.3,7.8,24.6,15.2,29,22.1
	C370.9,498.2,360.6,508,340.1,509.8z"/>
<path id="XMLID_270_" class="st1" d="M222.8,315.9c57.9,5.5,57.8,10.6,1.1,15.4C231.4,323.1,230.9,318,222.8,315.9z"/>
<path id="XMLID_269_" class="st0" d="M421.9,350.7c-29.5-30.8-76.1-39.5-144-20.5c-28.8,4.5-39.8-1.1-55.1-1.5
	c-48.1-9.7-50.8,38.3-0.3,53.3c53.8,23.7,99,35.7,138.6,40.1C428.7,430.6,457.1,412.2,421.9,350.7z"/>
<path id="XMLID_268_" class="st1" d="M421.9,350.7c-29.5-30.8-76.1-39.5-144-20.5c-28.8,4.5-39.8-1.1-55.1-1.5
	c-48.1-9.7-50.8,38.3-0.3,53.3c53.8,23.7,99,35.7,138.6,40.1C299,403.9,239.6,385.5,214,367.4c-23.8-12.1-39.1-38.8,9.9-27
	c28.3,3.6,56.8,8,79.9-5.4C347.7,323.4,385.9,332.7,421.9,350.7z"/>
<path id="XMLID_267_" class="st2" d="M245.1,423.8c-1.5-2.5-3-5.2-5.7-6.5c-2.6-1.3-6.5-0.5-7.4,2.2c-0.3,0.8-0.2,1.7-0.1,2.6
	c1,11.4,10.2,21.5,21.4,23.8c4.2,0.8,9.8-0.4,10.3-4.6c0.4-3-2.1-5.4-4.4-7.3c-4.8-4-9.8-7.8-14.9-11.4"/>
<path id="XMLID_266_" class="st2" d="M274.4,482.6c-4.4,0.4-9-1.3-12-4.5c-4.8-5.1-6.6-14.2-13.5-15.4c-1.8,3.9-1.3,8.5,0.4,12.5
	c1.7,3.9,4.5,7.3,7.3,10.5c3.6,4,7.4,7.9,11.9,11c1.9,1.3,4.4,2.4,6.3,1.1c0.9-0.6,1.4-1.5,1.8-2.4c1.1-2.2,2.3-4.4,2.1-6.9
	s-2-4.9-4.5-4.8"/>
<path id="XMLID_265_" class="st2" d="M402.9,365.4c-5.2-2.5-9.7-7.4-12.3-13.7c-18.4-8.4-38.2-12.2-57.8-10.9
	c-4,0.3-8.1,0.8-11.6,3.2c-3.5,2.4-6.4,7.2-6,12.3c0.2,3.1,1.5,5.8,3,8.1c5.4,8,14.1,11,22.3,12.4c8.2,1.4,16.7,1.7,24.3,5.8
	c5.6,3,10.4,7.9,15.8,11.2c5.4,3.4,12,5.1,17.4,1.5c7.2-4.8,8.7-19.2,2.8-26.2c-1.3-1.6-3-4.1-1.7-5.7"/>
<path id="XMLID_264_" class="st2" d="M72.1,243.1c-6.9,0.2-13.7,1.9-19.9,4.7c-3.2,1.5-6.7,4.5-5.6,7.8c0.7,1.9,2.7,3,4.7,3.7
	c14.4,4.9,29.7-2.4,44.8-3.9c22.5-2.3,44.5,8.4,67.1,8.5c1.4,0,2.9,0,4.1-0.7c3.8-2.1,2.5-8.1-0.7-11.1c-3.6-3.3-8.5-4.6-13.3-5.6
	c-16-3.3-32.4-3.8-48.7-4.3c-11.1-0.3-22.3-0.7-33.4-1"/>
<path id="XMLID_263_" class="st2" d="M155.9,366c-9.5,5.6-19,11.1-28.5,16.7c-5.6,3.3-11.3,6.6-17.4,8.8c-3.6,1.3-7.3,2.2-10.7,3.7
	c-7.2,3.1-13.1,8.9-16.5,15.9c3.5,1.8,7.2,3.6,11.1,3.4c3.7-0.2,7-2.1,10.2-4c16.2-9.8,32.4-19.6,48.6-29.3c3.9-2.3,7.7-4.7,11.5-7
	c1.5-0.9,3.1-2.1,3.3-3.8c0.3-1.9-1.4-3.7-3.3-4.2s-3.9,0-5.8,0.4"/>
<path id="XMLID_262_" class="st2" d="M448.3,263.1c-13.3-13.6-32.8-20.9-51.8-19.5c-2,3.9,0.7,8.9,4.4,11.2
	c3.8,2.3,8.3,2.8,12.6,3.9c8.3,2.1,16,6.5,22,12.7c2.6,2.7,5.4,6,9.1,6.3c4,0.3,7.7-3.3,8.2-7.3c0.5-4-1.8-8-5-10.5"/>
<path id="XMLID_261_" class="st2" d="M552.7,334.2c-1-2.6-5.1-2.3-6.9-0.2c-1.8,2.2-1.8,5.2-1.9,8c-0.1,19-1.8,38-4.8,56.8
	c-0.4,2.2-0.7,4.6,0.6,6.4c1.5,2.2,4.8,2.4,7.1,1.3c2.4-1.1,4.1-3.3,5.7-5.4c2.7-3.5,5.4-7,6.6-11.3c0.7-2.5,0.8-5.1,1-7.7
	c0.8-15.9,1.3-32.9-7.4-46.2"/>
</svg>
