<?xml version="1.0" encoding="utf-8"?>
<!-- Generator: Adobe Illustrator 19.0.0, SVG Export Plug-In . SVG Version: 6.00 Build 0)  -->
<svg version="1.1" id="Letra_C" xmlns="http://www.w3.org/2000/svg" xmlns:xlink="http://www.w3.org/1999/xlink" x="0px" y="0px"
	 viewBox="0 0 600 600" style="enable-background:new 0 0 600 600;" xml:space="preserve">
<style type="text/css">
	.st0{fill:#F9C29E;}
	.st1{fill:#E6A784;}
	.st2{fill:#F2B999;}
	.st3{fill:#D39271;}
	.st4{fill:#F9CCB5;}
</style>
<path id="XMLID_43_" class="st0" d="M226.4,517.5c-28.1,15-32.1,38.3,13.2,55c52.3,16.1,149.6,21.1,185.3-20.5
	c25.1-29.2,10.7-79.8-16.8-79.8L226.4,517.5z"/>
<path id="XMLID_42_" class="st1" d="M408.1,472.3l-181.7,45.2c-5.3,2.8-9.8,6-13.2,9.3c62.1,40.1,171.2,60.9,217.9-39
	C423.9,476.8,416.2,472.6,408.1,472.3z"/>
<path id="XMLID_41_" class="st2" d="M174.5,321.9c-1.1,22.2-4,42.9-12.1,59c-17.7,33.2-10.2,54,0,73.5l176.9,53.4l27.2-64.1
	l-4.4-105.4l-51.3-59.7l-87.6-5l-48.3,34.2L174.5,321.9z"/>
<path id="XMLID_40_" class="st1" d="M364.9,404.3l-2.7-66l-51.3-59.7l-87.6-5l-48.3,34.2l-0.3,14.2c-0.5,9.6-1.3,19-2.7,27.8
	c18.3,3.9,36.2,8.6,63.2-7.6c3.7-4.1,8-6,15.7,2.4c12.5,11.7,26.9,21.3,54.1,16.4C325.3,350.9,345.6,348.7,364.9,404.3z"/>
<path id="XMLID_39_" class="st3" d="M205.4,296.7c5.7,13.4,10.7,26.8,10.4,40.6c2.5-14.9,2.9-29.1,0-42.1L205.4,296.7z"/>
<path id="XMLID_38_" class="st3" d="M254.7,282.6c10.5,24.6,17.9,47.6,18.8,67.1c2.4-25,5.8-50.2-9.4-71.1L254.7,282.6z"/>
<path id="XMLID_37_" class="st0" d="M113.1,310.1c-19.3-7.4-39.3-20.1-25.8-52.2c12.6-30.5,35.9-62.6,90.9-65.9
	c34.8-3.4,73.1-2.1,112.4,0.5L113.1,310.1z"/>
<path id="XMLID_36_" class="st0" d="M316.5,193.1c-83.9,0.2-169.9-3.7-205.8,87.3c-9.6,33.8,5.6,51.6,43.4,55l130.4-78.3l66.1-32.2
	L316.5,193.1z"/>
<path id="XMLID_35_" class="st4" d="M254.7,193.9c-61.6,3.2-117,17.9-144.1,86.5c-5.3,18.6-3.1,32.4,6.3,41.6
	C117.8,310.4,99.5,226.2,254.7,193.9z"/>
<path id="XMLID_34_" class="st0" d="M246.2,538.6C309.8,566.6,436,560,436,431.2c-2.9-119.5-29.5-219.8-116.3-238.1
	c-49.1-5.6-101.3,10.5-162,82.7c-42.3,44.9-3.6,91,32.2,57c60.9-68,128.9-66.2,144.1,25.7c14.4,85.1-26,121-83.2,83.5
	c-51.9-39.4-97.9-47.2-101.1-1.8C146.6,465.9,168.9,496.7,246.2,538.6z"/>
<path id="XMLID_33_" class="st1" d="M333.9,358.5c14.4,85.1-26,121-83.2,83.5C302.6,509.5,376,456.7,333.9,358.5z"/>
<path id="XMLID_32_" class="st4" d="M335.8,197.6c-5.1-1.9-10.5-3.4-16.2-4.6c-49.1-5.6-101.3,10.5-162,82.7
	c-37,39.3-12,79.5,18.8,66.1c-22.6-11.1-30.4-31,0.9-66.1C239.1,219.4,292.7,190.7,335.8,197.6z"/>
<path id="XMLID_31_" class="st4" d="M245.4,438c-49.7-35.9-92.7-41.7-95.8,2.1c-0.3,2.7-0.3,5.5-0.1,8.3
	C165.1,419.3,199.8,420.3,245.4,438z"/>
<path id="XMLID_30_" class="st4" d="M229.2,190c-17.6-0.1-34.7,0.4-51,2c-55,3.3-78.3,35.4-90.9,65.9c-7.3,17.3-4.8,29,2.1,37.3
	C82.2,242.6,148,189.7,229.2,190z"/>
<path id="XMLID_29_" class="st4" d="M391.7,558.8c-25,12.7-57.8,11.8-90.7,10.7c-4.4,0-2.7,5.6,0,6.7c24.7,2.9,67.8,3.7,91.6-11.2
	C396.2,562.2,394.2,557.5,391.7,558.8z"/>
</svg>
