<?xml version="1.0" encoding="utf-8"?>
<!-- Generator: Adobe Illustrator 19.0.0, SVG Export Plug-In . SVG Version: 6.00 Build 0)  -->
<svg version="1.1" xmlns="http://www.w3.org/2000/svg" xmlns:xlink="http://www.w3.org/1999/xlink" x="0px" y="0px"
	 viewBox="0 0 600 600" style="enable-background:new 0 0 600 600;" xml:space="preserve">
<style type="text/css">
	.st0{fill:#F9C29E;}
	.st1{fill:#E6A784;}
	.st2{fill:#F9CCB5;}
	.st3{fill:#090909;}
	.st4{fill:#090909;stroke:#090909;stroke-miterlimit:10;}
</style>
<g id="Letra_H">
	<path id="XMLID_123_" class="st0" d="M214,489.7c-26.9,0-28.3,43,0,60.2c63.9,43,118.7,33.9,171.6,14c25.9-10.7,13.3-44.6,0-46.2
		L214,489.7z"/>
	<path id="XMLID_122_" class="st1" d="M399.9,535.1c-2.1-9.1-8.1-16.7-14.3-17.5L214,489.7c-8.1,0-13.9,3.9-17.2,9.8
		C260.6,564.3,328.3,583.7,399.9,535.1z"/>
	<path id="XMLID_121_" class="st0" d="M267.9,542.3c-55.3-23.7-81.9-66.3-79.6-127.5l-0.1-254.1c-2.3-74.5,3.2-116,29.7-115.3
		c17.3,2.1,33.2,13,37.8,96.9l4.1,74.6l76.5-131c23.4-36.8,48.1-62.8,78.6-40.5c22.4,19.4,18.4,40.5-10.2,85.7l-43.9,71.5L347.5,227
		l-8.2,15.3c17.3-19.2,53.8-17.3,64.3,29.6c50.1,0.1,115.3,60.2,30.6,159.2C431.1,527.8,348.5,582.1,267.9,542.3z"/>
	<path id="XMLID_120_" class="st1" d="M342.3,317.3c23.8-24.5,47.4-46.3,58.4-55.2l2.8,9.7C396.6,277.1,370.9,296.1,342.3,317.3z"/>
	<path id="XMLID_119_" class="st1" d="M434.2,431c1.4-17.5,1.2-33.8-4.6-45.9c10.4,1,21,1.5,23.9,20.3L434.2,431z"/>
	<path id="XMLID_118_" class="st2" d="M339.3,242.3L325,259.6c30.3-22.7,54.7-22.7,73.8-2.7C387.8,229.5,357.7,221.6,339.3,242.3z"
		/>
	<path id="XMLID_117_" class="st2" d="M407.7,272c34.2,2.9,66.2,24.2,67.4,68.4C461.9,312.6,445.2,286.6,407.7,272z"/>
	<polygon id="XMLID_116_" class="st2" points="259.7,216.9 251.5,232.6 255.6,152.2 	"/>
	<path id="XMLID_115_" class="st2" d="M403.5,57.3c-2.6-1.3-5.3-2.6-7.9-3.8c-1.9-0.9-3.9-1.9-6-2.4c-1-0.2-2.1-0.4-3.2-0.1
		c-1.1,0.2-2.2,0.9-3.1,1.5c-3.6,2.3-7.1,4.6-10.7,6.9c-0.7,0.5-1.5,1-1.6,1.8c-0.3,1.8,2.1,2.6,3.9,2.6c4.6,0,9.3-0.2,13.8,0.7
		c4.5,1,8.9,3.3,11.2,7.3c0.8,1.5,1.4,3.2,2.9,4c0.6,0.3,1.4,0.4,2,0.8c0.6,0.3,1,0.9,1.5,1.3c2,1.6,5.1,1,6.8-0.9
		c1.6-1.9,1.9-4.7,1.3-7.2s-2.1-4.6-3.7-6.5c-1.9-2.4-4.1-4.8-6.6-6.5"/>
	<path id="XMLID_114_" class="st2" d="M228.4,73.4c1.2-3.8-0.6-8.3-4.1-10.1c-3.9-2-8.7-0.7-12.5,1.4c-3.1,1.8-6,4-8.5,6.6
		c-0.8,0.8-1.6,1.6-2.2,2.5c-1,1.4-1.8,3.1-2.5,4.7c-1.2,2.7-2.4,6-0.7,8.3c1.4,2,4.3,2.3,6.8,2.3c0.6,0,1.3,0,1.9-0.2
		c0.8-0.3,1.5-0.9,2.3-1.4c4.9-3.5,12.1-3.1,16.6,0.8c1,0.8,2,1.9,3.3,1.7c1.7-0.2,2.3-2.5,2.3-4.2c0-4.1-0.8-8.2-2.3-12"/>
	<path id="XMLID_113_" class="st2" d="M277,563.1c-2.3,1-4.6-1.2-6.6-2.7c-1.3-1-2.8-1.8-4.2-2.6c-7.7-4.1-15.3-8.2-23-12.3
		c-1.7-0.9-3.5-1.8-5.4-1.8s-4,1.3-4.2,3.2c-0.2,1.9,1.5,3.4,2.9,4.6c4.8,3.9,9.6,7.8,14.9,10.9c8.3,4.9,17.7,7.7,27.2,8.3
		c2.5,0.2,5.2,0.1,7.2-1.4c0.9-0.7,1.7-1.9,1.2-2.9c-0.4-0.8-1.3-1.1-2.2-1.4c-3.2-0.9-6.4-1.9-9.6-2.8"/>
</g>
<g id="Seta_Letra_H">
	<g id="XMLID_112_">
		<path id="XMLID_133_" class="st3" d="M71.7,67.3c0,0,0,1.7,0,4.8c-0.1,1.5,0.1,3.4,0.2,5.5c0.1,2.1,0.5,4.5,0.8,7
			c0.1,1.3,0.5,2.6,0.7,4c0.1,0.7,0.3,1.4,0.4,2.1c0.1,0.4,0.2,0.7,0.2,1.1c0.1,0.4,0.2,0.7,0.3,1.1c0.4,1.4,0.8,2.9,1.3,4.4
			c0.5,1.5,1.1,3,1.6,4.5c0.5,1.5,1.2,3,1.9,4.5c0.7,1.5,1.4,3.1,2.2,4.5c0.8,1.5,1.6,3,2.5,4.5c0.9,1.4,1.9,2.9,2.8,4.3
			c0.4,0.7,1,1.4,1.5,2.1l1.6,2.1c0.5,0.7,1,1.4,1.5,2.1c0.6,0.6,1.1,1.3,1.7,1.9c1.1,1.3,2.2,2.6,3.3,3.8c1.2,1.2,2.3,2.4,3.4,3.6
			c1.1,1.2,2.3,2.3,3.4,3.3c1.1,1.1,2.3,2.1,3.3,3.1c2.3,1.9,4.4,3.7,6.4,5.4c2.1,1.6,3.9,3,5.6,4.3c0.8,0.7,1.6,1.2,2.4,1.8
			c0.7,0.5,1.4,1,2,1.5c2.5,1.8,3.9,2.8,3.9,2.8l-0.1,0.1c0,0-1.5-0.9-4-2.6c-1.3-0.8-2.9-1.8-4.6-3c-1.7-1.2-3.6-2.6-5.8-4.2
			c-2-1.7-4.2-3.4-6.5-5.3c-1.1-1-2.2-2.1-3.4-3.1c-1.2-1.1-2.3-2.1-3.4-3.3c-1.1-1.2-2.3-2.4-3.4-3.6c-1.1-1.2-2.2-2.6-3.3-3.9
			c-0.5-0.7-1.1-1.3-1.7-2c-0.5-0.7-1-1.4-1.5-2.1l-1.5-2.1c-0.5-0.7-1-1.4-1.5-2.1c-0.9-1.5-1.9-2.9-2.8-4.4
			c-0.9-1.5-1.7-3-2.5-4.5c-0.9-1.5-1.5-3.1-2.2-4.6c-0.7-1.5-1.4-3-1.9-4.6c-0.5-1.5-1.1-3-1.6-4.5c-0.4-1.5-0.8-3-1.2-4.4
			c-0.1-0.4-0.2-0.7-0.3-1.1c-0.1-0.4-0.1-0.7-0.2-1.1c-0.1-0.7-0.3-1.4-0.4-2.1c-0.2-1.4-0.6-2.7-0.7-4c-0.3-2.6-0.7-5-0.7-7.1
			c-0.1-2.1-0.2-4-0.2-5.5C71.5,69,71.6,67.3,71.7,67.3L71.7,67.3z"/>
	</g>
	<g id="XMLID_111_">
		<path id="XMLID_131_" class="st3" d="M398.3,180.9c0,0,0.9,0.8,2.5,2.3c0.8,0.7,1.7,1.6,2.9,2.6c1.1,1,2.4,2.1,3.8,3.3
			c1.4,1.2,3,2.4,4.6,3.7c1.7,1.3,3.5,2.6,5.4,3.8c1.9,1.3,3.9,2.5,6.1,3.6c2.1,1.1,4.3,2.1,6.6,3c2.3,0.8,4.6,1.5,7,1.8
			c2.4,0.4,4.7,0.5,7,0.4c2.3,0,4.4-0.4,6.5-0.8c1-0.3,2-0.5,2.9-0.8c0.5-0.1,0.9-0.3,1.4-0.4c0.4-0.2,0.9-0.3,1.3-0.5
			c0.9-0.3,1.7-0.7,2.4-1c0.8-0.3,1.5-0.7,2.1-1c1.3-0.7,2.4-1.3,3.4-1.9c0.9-0.5,1.6-1,2.1-1.3c0.5-0.3,0.7-0.5,0.7-0.5l0.1,0.1
			c0,0-0.2,0.2-0.7,0.5c-0.5,0.3-1.1,0.9-2,1.5c-0.9,0.6-2,1.3-3.3,2.1c-0.6,0.4-1.3,0.8-2.1,1.1c-0.8,0.4-1.5,0.8-2.4,1.1
			c-0.4,0.2-0.9,0.4-1.3,0.5c-0.5,0.2-0.9,0.3-1.4,0.5c-0.9,0.4-2,0.6-3,0.9c-2.1,0.5-4.3,0.8-6.6,0.9c-2.3,0-4.7-0.1-7.2-0.6
			c-2.4-0.4-4.8-1.1-7.1-2c-2.3-0.9-4.6-1.9-6.7-3.1c-2.1-1.2-4.2-2.4-6-3.7c-3.8-2.6-7.1-5.4-9.9-7.8c-1.4-1.2-2.6-2.4-3.7-3.4
			c-1.1-1-2-1.9-2.8-2.7C399.1,181.9,398.2,181,398.3,180.9L398.3,180.9z"/>
	</g>
	<polygon id="XMLID_110_" class="st4" points="147.1,134 107.3,181 156.3,181 	"/>
	<polygon id="XMLID_109_" class="st4" points="451.1,169.7 485.9,221.9 503.2,169.7 	"/>
</g>
</svg>
