<?xml version="1.0" encoding="utf-8"?>
<!-- Generator: Adobe Illustrator 19.0.0, SVG Export Plug-In . SVG Version: 6.00 Build 0)  -->
<svg version="1.1" id="Letra_O" xmlns="http://www.w3.org/2000/svg" xmlns:xlink="http://www.w3.org/1999/xlink" x="0px" y="0px"
	 viewBox="0 0 600 600" style="enable-background:new 0 0 600 600;" xml:space="preserve">
<style type="text/css">
	.st0{fill:#F9C29E;}
	.st1{fill:#E6A784;}
	.st2{fill:#F2B999;}
	.st3{fill:#D39271;}
	.st4{fill:#F9CCB5;}
</style>
<path id="XMLID_260_" class="st0" d="M236.8,527.7c-14.1,13.7-23.7,32.7,3.5,43.8c42.6,16.4,119.2,13,169.2-21.9
	c21-15.1,11.1-44.8-14.2-41.7L236.8,527.7z"/>
<path id="XMLID_259_" class="st1" d="M412.9,512.3c-4.4-3.4-10.4-5.3-17.7-4.4l-158.5,19.8c-5.2,5-9.8,10.8-12.1,16.7
	C283.5,571.8,346.4,571.1,412.9,512.3z"/>
<polygon id="XMLID_258_" class="st2" points="169.2,347.4 199.5,421.5 327.3,486.3 374.2,416.8 349.5,269.6 237.2,252.3 "/>
<path id="XMLID_257_" class="st1" d="M179.8,383.5c8.3-6.9,20.8-4.1,31.1-0.9s22.7,6.2,31.2-0.5c5.1-4.1,8-11.3,14.3-13.2
	c9-2.7,16.7,7.5,25.9,9.1c5.8,1,11.9-1.6,16.3-5.5c4.5-3.9,7.7-9,10.9-14c3.1-4.8,6.6-10,12-11.9c3-1.1,6.4-1,9.2-2.6
	c3.7-2,5.6-6.3,6.9-10.4c2.4-7.2,4.2-14.5,5.3-22c0.5-3.6,0.9-7.3,0.1-10.8c-1.2-4.8-4.4-8.8-7.6-12.6c-6.4-7.6-12.9-15.2-20.9-20.9
	c-13.1-9.2-29.4-12.7-45.4-13c-15.3-0.3-30.9,2.2-44.3,9.5c-12.1,6.5-22,16.8-28.2,29.1c-4.9,9.8-7.4,20.7-9,31.6
	c-1.5,9.7-2.3,19.4-2.3,29.2c0.1,10.7,0.8,22.5-5.9,30.7"/>
<path id="XMLID_256_" class="st3" d="M240.2,286.3c16.3,14,29.3,30.5,36.4,51.2c-8.3-22.4-16.7-44.8-30.3-59.9L240.2,286.3z"/>
<path id="XMLID_255_" class="st3" d="M219.9,315.7c11.3,8.3,16.2,25.9,20.4,44.7c-3.7-17.3-3.6-36.4-16.1-49.4L219.9,315.7z"/>
<path id="XMLID_254_" class="st0" d="M145.1,224.9c-23-9.2-51.4,2.8-61.1,50.4c-17.2,79.7-4.2,123.2,37.1,133
	c7.6,1.8,14.9,1.4,21.4-5.7l18.9-90.6L145.1,224.9z"/>
<path id="XMLID_253_" class="st1" d="M121.1,408.3c7.6,1.8,14.9,1.4,21.4-5.7l18.9-90.6l-16.3-87c-4.1-1.6-8.4-2.6-12.7-2.8
	c-39.9,50-40.7,155.9-15.7,167.2l5.6,1.6C120.5,396.6,120.2,402.4,121.1,408.3z"/>
<path id="XMLID_252_" class="st0" d="M114.3,264.6c19.8-61.7,65-79.9,109.9-59.9l-59.3,167.9c-19.6,13.1-51.2,21-56.8-6.8
	C106.3,329.5,105.9,294,114.3,264.6z"/>
<path id="XMLID_251_" class="st1" d="M204.7,198.5c6.4,1.3,12.9,3.4,19.5,6.3l-59.3,167.9c-11.4,7.7-26.9,13.5-39,11.6
	c1.5-5.8,4.5-10.6,10-13.3C129.9,307.9,152.4,237.4,204.7,198.5z"/>
<path id="XMLID_250_" class="st0" d="M432.1,372.7c15.6,129.5-42,166.4-116.3,182.1c-50.4,8.2-84.6-9.1-102.7-45.3
	c-9.1-29.6-35.6-48.2-68.3-71.6c-37.9-33.6,2.5-90.6,57.6-52.7l49.4,38.7c29.7,24.5,69.2,40.9,82.1-37c13.4-89.7-61.1-139.1-87-90.6
	c-4.5,11-9.1,21.9-15.7,37.9c-8.6,28.3-24.3,44.2-50.2,46.1c-46.4,1.1-45.1-36.2-28.8-85.6C167.8,234.8,198.6,189,274,185.2
	C363.1,181.2,414,246.9,432.1,372.7z"/>
<path id="XMLID_249_" class="st1" d="M150.1,363.9c19.4-3,37.7-0.8,54.6,9.1c-2.1,1.8-7.3,3.8-13.6,5.7c-9.5-6.1-20.6-9.3-36.3-4.2
	c-2.7-1.5-5.5-4.3-8.7-9.6L150.1,363.9z"/>
<path id="XMLID_248_" class="st1" d="M330.8,401.2c-14.8,59.2-49.3,46.2-76.6,24.5C277.7,456.9,323.8,477,330.8,401.2z"/>
<path id="XMLID_247_" class="st4" d="M289.2,195.9c-23.6,2.2-46.8,9.4-67.6,20.8c-7,3.8-14.2,8.9-16.2,16.6c-0.9,3.7,0,8.4,3.6,9.7
	c1.3,0.5,2.8,0.4,4.2,0.1c8.8-1.6,15.4-8.8,23-13.6c10.7-6.9,23.8-9.2,36.5-9.2c12.7,0.1,25.3,2.4,37.9,4.3c1.6,0.2,3.3,0.5,4.9,0
	c3.8-1.1,5.4-5.7,5-9.6c-0.8-6.9-6.1-12.6-12.4-15.6c-6.2-3-13.3-3.9-20.1-4.7"/>
<path id="XMLID_246_" class="st4" d="M172.4,211.5c-4.1-1-7.6,2.6-11.4,4.5c-2.5,1.3-5.3,1.8-7.7,3.1c-4.2,2.3-7,6.4-9.7,10.5
	c-3.4,5.2-6.9,10.5-9,16.4c-1.1,2.9-1.6,6.8,0.9,8.6c1.6,1.1,3.9,0.9,5.6-0.2c1.7-1,2.9-2.7,4.1-4.3c1.8-2.5,3.7-4.9,5.1-7.6
	c3-5.5,4.6-12.2,9.8-15.7c1.5-1,3.2-1.7,4.8-2.7c1.8-1.1,3.4-2.6,4.9-4c2.3-2.1,4.8-4.9,4.1-8c-0.6,0-1.2,0-1.7,0"/>
<path id="XMLID_245_" class="st4" d="M110.4,240.3c-9.7,7.7-16.3,19.3-18,31.6c2.2,0.3,4.4,0.9,6.5,1.9c2.5-2.5,3.1-6.3,4-9.7
	c2.1-8,6.5-15.2,10.9-22.2c-0.3-0.7-1.2-1-1.9-0.7"/>
<path id="XMLID_244_" class="st4" d="M189.1,395.5c-5.2-7.6-15.2-10.5-24.4-10.9c-2.9-0.1-5.8-0.1-8.5,0.8
	c-5.5,1.7-9.5,6.5-11.7,11.8s-2.9,11.1-3.5,16.8c-0.2,1.4-0.3,3,0.4,4.2c0.9,1.6,2.9,2.3,4.7,2c1.8-0.3,3.4-1.4,4.7-2.7
	c2.7-2.7,4.5-6.2,7.1-9c4.3-4.6,10.7-7.1,16.9-6.5c5.7,0.5,11.2,3.4,16.8,2.2c0.8-0.2,1.6-0.5,2-1.2c0.3-0.4,0.3-1,0.3-1.5
	c0.1-1.8,0.2-3.6-0.4-5.2s-2.2-3.1-3.9-3"/>
<path id="XMLID_243_" class="st4" d="M295.9,568c9.1-0.9,18.2-1.9,27.3-2.8c3.1-0.3,6.3-0.6,9.4-1.3c4.1-0.8,8-2.2,11.8-4
	c2.3-1.1,4.6-2.5,7.1-3.1c2.5-0.6,5.4-0.5,7.4,1.2c0.9,0.7,1.6,1.9,1.3,3c-0.2,0.8-0.9,1.4-1.6,1.9c-4.1,3-9,4.5-13.9,6.1
	c-0.9,0.3-1.8,0.6-2.6,0.8c-1.4,0.4-2.8,0.9-4.2,1.3c-12.6,3.8-25.8,5.5-38.9,5c-1.7-0.1-3.5-0.2-5.1-1c-1.5-0.8-2.8-2.4-2.6-4.2
	c0.2-1.7,2.3-3.1,3.8-2.2"/>
</svg>
