<?xml version="1.0" encoding="utf-8"?>
<!-- Generator: Adobe Illustrator 19.0.0, SVG Export Plug-In . SVG Version: 6.00 Build 0)  -->
<svg version="1.1" id="Letra_Y" xmlns="http://www.w3.org/2000/svg" xmlns:xlink="http://www.w3.org/1999/xlink" x="0px" y="0px"
	 viewBox="0 0 600 600" style="enable-background:new 0 0 600 600;" xml:space="preserve">
<style type="text/css">
	.st0{fill:#F9C29E;}
	.st1{fill:#E6A784;}
	.st2{fill:#F9CCB5;}
</style>
<ellipse id="XMLID_416_" transform="matrix(0.9826 -0.1859 0.1859 0.9826 -89.9223 74.4106)" class="st0" cx="351.8" cy="516.7" rx="128.6" ry="61.4"/>
<path id="XMLID_415_" class="st1" d="M478.2,492.8c-6.3-33.3-68-49.6-137.8-36.4s-121.3,50.9-114.9,84.3
	C337.7,563.2,421.9,547.1,478.2,492.8z"/>
<path id="XMLID_414_" class="st0" d="M251.5,531.3c-62.7-20-102.5-73.5-121.2-158.2c-10.1-60.2-26.9-112.8-51.5-156.4
	c-21.6-54.4,14.9-127.5,72.5-32.9l40.4,77.1c-8.3-44.2,39.8-77.1,77.9-44.2c-3.3-29.4,31.6-48.4,67.6-32.9c8.3-25.6,42-45.7,68.7-12
	c25.9,30.7,43,66,24.8,120.1c31.1-24,60-40.5,81.3-30.9c33.8,11.6,58.1,30.9,14.9,80c-26.5,26.6-43.1,53.9-44.5,82.3
	c-9.2,59.4-44.1,103.7-139.6,112.1C312.5,536.6,282,535.3,251.5,531.3z"/>
<path id="XMLID_413_" class="st1" d="M254.9,207.3c56.5,62.1,59.7,151.7,10.2,151.7c-17.2,1.2-38.9-18.8-73.3-98.1l-3.3-6.2
	c23,58.2,44.9,120.6,85.3,112.6c55.1-21.5,46.2-75.5-4.1-150.6L254.9,207.3z"/>
<path id="XMLID_412_" class="st1" d="M326.9,180.3C410.8,294.2,373.6,369.8,303,337l-6,7.7c85.9,23.8,123.9-25.6,40.3-160.9
	L326.9,180.3z"/>
<path id="XMLID_411_" class="st1" d="M394.9,161c53.3,76.2,53.8,134.6-17.2,169.1l-5.1,6.9c17.1-7.9,29.2,0.3,58.2-45.1
	C445.7,239.3,435.9,194.9,394.9,161z"/>
<path id="XMLID_410_" class="st1" d="M372.6,427.9c8.1-49.1,25.2-95.2,58.2-136l-29.1,33.9L372.6,337l-20.4,11.4l-45.9-6l-22.4,17.5
	h-29.1l-13.1-2.5c16.8,15.5,31,35.9,69.7,10.6c10.5,8.1,23.9,10,43,0C350.9,388.3,358.5,408.2,372.6,427.9z"/>
<path id="XMLID_409_" class="st2" d="M117.4,156.7c-6.2-3.3-13.8-3.7-20.3-1.1s-11.6,8.3-13.7,15c-1.5,4.8-1.4,9.9-1.3,14.9
	c0,2,0.1,4,1,5.8c1.2,2.4,4.1,3.9,6.8,3.5s5-2.7,5.5-5.3c0.3-1.6,0-3.2,0.3-4.8c0.4-1.6,1.4-3,2.4-4.3c2.5-3.2,5.2-6.5,9-7.7
	c2.9-0.9,6.1-0.5,8.9-1.8c3-1.4,4.9-4.8,4.5-8c-0.3-3.3-2.9-6.2-6.1-6.9"/>
<path id="XMLID_408_" class="st2" d="M244.8,218c-5.5-0.9-11.1-0.4-16.4,1.4c-4.1,1.4-7.9,3.5-11.6,5.6c-2.2,1.2-4.4,2.5-6.3,4.2
	c-4.2,3.8-6.1,9.6-6.9,15.2c-0.5,3.7-0.3,8.1,2.8,10.2c3.8,2.5,8.9-0.4,11.6-4.1c2.7-3.6,4.5-8.2,8.4-10.6
	c7.1-4.4,17.7,0.6,24.1-4.7c3.2-2.6,4.3-7.3,2.6-11s-6-6-10-5.4"/>
<path id="XMLID_407_" class="st2" d="M325.2,194.5c-12.5-4.6-27.6-0.8-36.6,9.1c-2.6,2.9-4.7,6.4-4.9,10.2c-0.2,3.9,2.2,8,6,8.8
	c6.2,1.4,10.7-5.9,16.5-8.4c5.7-2.4,12.7,0.1,18.2-2.7c6.2-3.1,7.4-12.9,2.1-17.4"/>
<path id="XMLID_406_" class="st2" d="M352.1,198.2c-0.1-3.9-0.2-7.9-0.2-11.8c0-1.6-0.1-3.3,0.6-4.8c0.7-1.6,2.1-2.7,3.4-3.8
	c3.7-2.9,7.6-5.8,12.1-7c4.5-1.2,9.9-0.5,13.1,2.8c3.3,3.4,3.4,9.7-0.5,12.4c-3.2,2.3-7.8,1.4-11.3,3.1c-3.1,1.5-5,4.8-7.6,7
	c-2.7,2.2-7.4,3-9.1-0.1"/>
<path id="XMLID_405_" class="st2" d="M494.6,273.2c-13.4-3-28.3,1.2-38.1,10.9c-1.1,1.1-2.1,2.7-1.3,3.9c3.2,2.8,8.1,2.5,12,0.9
	c3.9-1.6,7.5-4.1,11.5-5.4c5.9-1.8,12.3-0.7,18.4,0.5c8,1.5,16,3.1,24,4.6c1.9,0.4,4.2,0.6,5.5-0.8c2-2.1-0.2-5.5-2.4-7.4
	c-8.4-6.7-19.7-9.6-30.3-7.6"/>
<path id="XMLID_404_" class="st2" d="M401,381.9c-1.7,0.2-2.7,2.1-3.4,3.7c-3.1,7.2-6.1,14.3-9.2,21.5c-1.5,3.4-2.9,6.9-3.3,10.6
	c-0.3,3.7,0.6,7.7,3.4,10.1c3.8,3.4,9.9,2.8,14-0.2c4.1-3,6.5-7.8,7.9-12.6c1.5-4.8,2.3-9.9,4.1-14.6c1.3-3.3,3-6.5,3.7-10
	c0.6-3.5-0.2-7.6-3.1-9.6c-4-2.7-9.4-0.4-13.6,1.9"/>
<path id="XMLID_403_" class="st2" d="M205.8,482.7c5.7,7,13.6,12.2,22.3,14.7c1.9,0.5,3.9,0.9,5.9,0.4s3.7-2.2,3.6-4.2
	c0-3-3.6-4.5-6.4-5.5c-4.5-1.7-8.8-4-12.5-7.1c-2.5-2-5.1-4.4-8.3-4.6c-3.2-0.2-6.6,3.6-4.7,6.2"/>
<path id="XMLID_402_" class="st2" d="M372.4,552.6c-17,7.4-36.5,4.9-54.9,6.6c-2.6,0.2-5.2,0.6-7.4,2c-2.1,1.4-3.6,4.2-2.7,6.6
	c6.9,3.8,14.9,5.6,22.7,5c2.6-0.2,5.2-0.6,7.7-1c3.1-0.5,6.2-1,9.4-1.5c8.4-1.4,16.8-2.7,24.9-5.4c2.7-0.9,5.6-2.1,6.6-4.7
	c1.1-2.6-1.6-6.3-4.1-5.1"/>
</svg>
