<?xml version="1.0" encoding="utf-8"?>
<!-- Generator: Adobe Illustrator 19.0.0, SVG Export Plug-In . SVG Version: 6.00 Build 0)  -->
<svg version="1.1" id="Letra_A" xmlns="http://www.w3.org/2000/svg" xmlns:xlink="http://www.w3.org/1999/xlink" x="0px" y="0px"
	 viewBox="0 0 600 600" style="enable-background:new 0 0 600 600;" xml:space="preserve">
<style type="text/css">
	.st0{fill:#F9C29E;}
	.st1{fill:#E6A784;}
	.st2{fill:#F9CCB5;}
	.st3{fill:#D39271;}
</style>
<path id="XMLID_28_" class="st0" d="M234.8,525.6c9.5,42.1,34.9,67.4,96.2,54.5c36.5-9.9,74.4-45.3,113.8-117.2
	c24.4-55.4-26.3-82.7-43.9-33.8L234.8,525.6z"/>
<path id="XMLID_27_" class="st1" d="M425.9,403.8c-9.4,0.9-19.1,8.7-25,25.3l-166.1,96.5c2,8.7,4.6,16.7,8.2,23.8
	C324.4,564.5,395.5,498.1,425.9,403.8z"/>
<path id="XMLID_26_" class="st0" d="M243.6,537.5c-74.1-32.4-123.1-92.5-134.1-194.3c0-38.9,22.6-63.9,53.9-65.2
	c6.9-15.9,16.4-30.1,45.1-31.3c6.3-13.7,26.3-41.4,52.7-32.6c15.8-17.6,35.2-22,58.9-10c7.3-3.6,11.2-8.2,36.4-6.7
	c74,18,102.8,120.8,71.5,189.8C393.9,483.2,313.8,563.9,243.6,537.5z"/>
<path id="XMLID_25_" class="st1" d="M149.5,355.8c17.6,66.3,68.9,87.8,87.8,50.1c15.8-44.8-12.2-87.2-74-127.9
	c-35.1-2.5-58.5,26.3-53.9,65.2c20.7-36,41.5-71.1,71.5-40.1c53,45.6,67.7,92.8,31.3,100.3c-22.5-1.8-43.4-15.8-60.2-61.4
	l-18.8,22.6L149.5,355.8z"/>
<path id="XMLID_24_" class="st1" d="M208.5,246.7c-19.2-1.1-34.6,8.5-45.1,31.3l51.4,52.2c14.1,20.6,21.8,42.2,23.4,64.8
	c-2.8-28.1-3.1-57.8-23.3-74.2l-44.4-40.3c21.5-31.7,47.3-36.7,80.6,5.9c36.8,44.7,30.1,91.7-9.5,98.2l-0.3,4.2
	c37-5.1,60-46.4,13.2-106.6C245.1,272.2,239.6,263.3,208.5,246.7z"/>
<path id="XMLID_23_" class="st1" d="M272,367.1c43-5.4,70.4-37.3,31.8-101.5c-10.3-17.6-25.9-33.1-48.9-46
	c-15.5-0.2-30.4,12.1-45.1,30.9l-1.3-3.8c13.1-24.9,29.9-38.1,52.7-32.6C360.6,277.9,344.3,376.2,272,367.1z"/>
<path id="XMLID_22_" class="st1" d="M261.5,219.5c44.7-62.3,146.7,67.3,59.8,120.3c38-16.8,54.5-46,27.6-100.3
	c-25.9-48.5-59.8-56-87.8-25.5L261.5,219.5z"/>
<path id="XMLID_21_" class="st2" d="M320,204.1c30.5-23.2,95.9-1.3,116.4,86.2C406.8,234.2,369.5,202.7,320,204.1z"/>
<path id="XMLID_20_" class="st1" d="M198.2,421.1c3,7.7,10.9,12.1,18.5,12.6c10.8,0.7,21.7-5.4,27.4-15.4c2.4-4.2,4.4-9.4,8.6-11.1
	c3.1-1.2,6.5-0.1,9.8,0.4c8.9,1.3,17.8-2.3,25.3-7.6c14.3-10.1,24.6-26.6,27.9-44.8c0.1-0.5,0.2-1.1,0.1-1.6
	c-0.2-1.6-1.9-2.5-3.4-2.4c-1.5,0.1-2.8,1-4,1.9c-10.5,6.9-22.4,11.4-34.6,12.8c-1,0.1-2.1,0.3-2.9,1c-0.5,0.5-0.8,1.1-1.2,1.7
	c-3.2,6-8.1,10.9-13.9,13.7c-3.5,1.7-7.3,2.7-10.9,4.2c-13.6,5.8-23,19-34.4,29c-3.2,2.8-7.3,5.5-11.1,4.1"/>
<path id="XMLID_19_" class="st3" d="M297,438.5c3.7-48.4,22.7-94.9,81.9-136.2C326.9,322.8,297.8,366.4,297,438.5z"/>
<path id="XMLID_18_" class="st2" d="M362.1,335.1c-19.6,16.6-31.4,35.4-31.2,57.3c0.2,5,12.1,6.6,12.1-6c2.9-13.5,5.6-27,19.1-35.4
	C373.2,346.4,372.4,326.3,362.1,335.1z"/>
<path id="XMLID_17_" class="st2" d="M333,548.4c26.1-20,52.8-39,70.2-70.7c5-8.7,23.4-3.8,13.8,15.9c-17.5,30.1-39.9,55.6-71,72.8
	C333.3,574.2,323.9,561.8,333,548.4z"/>
</svg>
