<?xml version="1.0" encoding="utf-8"?>
<!-- Generator: Adobe Illustrator 19.0.0, SVG Export Plug-In . SVG Version: 6.00 Build 0)  -->
<svg version="1.1" xmlns="http://www.w3.org/2000/svg" xmlns:xlink="http://www.w3.org/1999/xlink" x="0px" y="0px"
	 viewBox="0 0 600 600" style="enable-background:new 0 0 600 600;" xml:space="preserve">
<style type="text/css">
	.st0{fill:#F9C29E;}
	.st1{fill:#E6A784;}
	.st2{fill:#F9CCB5;}
	.st3{fill:none;stroke:#090909;stroke-miterlimit:10;}
	.st4{fill:#090909;stroke:#090909;stroke-miterlimit:10;}
</style>
<g id="Letra_K">
	<path id="XMLID_176_" class="st0" d="M213.2,488.6c-26.9,0-28.4,43.1,0,60.4c64.1,43.2,119.1,34,172.1,14
		c25.9-10.8,13.4-44.7,0-46.4L213.2,488.6z"/>
	<path id="XMLID_175_" class="st1" d="M399.6,534.2c-2.1-9.1-8.1-16.8-14.3-17.5l-172.1-28c-8.1,0-13.9,3.9-17.3,9.8
		C259.9,563.5,327.8,582.9,399.6,534.2z"/>
	<path id="XMLID_174_" class="st0" d="M267.2,541.4c-55.5-23.8-82.1-66.6-79.8-128l-0.1-254.9c-2.3-74.7,3.2-116.4,29.8-115.7
		c17.3,2.1,33.3,13,37.9,97.3l4.1,74.8l76.8-131.4c23.5-37,48.2-63,78.8-40.7c22.5,19.5,18.4,40.7-10.2,86l-44,71.7L347,225
		l-8.2,15.4c17.3-19.3,54-17.3,64.5,29.7c50.2,0.1,115.7,60.4,30.7,159.7C431,526.8,348.1,581.3,267.2,541.4z"/>
	<path id="XMLID_173_" class="st1" d="M341.9,315.6c23.9-24.5,47.6-46.5,58.6-55.3l2.8,9.8C396.3,275.3,370.6,294.4,341.9,315.6z"/>
	<path id="XMLID_172_" class="st1" d="M434,429.8c1.4-17.6,1.2-33.9-4.6-46.1c10.4,1,21,1.5,23.9,20.3L434,429.8z"/>
	<path id="XMLID_171_" class="st2" d="M338.8,240.4l-14.3,17.4c30.4-22.8,54.8-22.8,74-2.7C387.5,227.6,357.3,219.7,338.8,240.4z"/>
	<path id="XMLID_170_" class="st2" d="M407.5,270.2c34.3,2.9,66.4,24.3,67.6,68.7C461.8,310.9,445.1,284.8,407.5,270.2z"/>
	<polygon id="XMLID_169_" class="st2" points="259,214.9 250.8,230.7 254.9,150.1 	"/>
	<path id="XMLID_168_" class="st2" d="M403.3,54.8c-2.7-1.3-5.3-2.6-8-3.9c-1.9-0.9-3.9-1.9-6-2.4c-1-0.2-2.1-0.4-3.2-0.1
		c-1.1,0.2-2.2,0.9-3.2,1.5c-3.6,2.3-7.2,4.6-10.7,6.9c-0.7,0.5-1.5,1-1.6,1.8c-0.4,1.8,2.1,2.6,3.9,2.6c4.6,0,9.3-0.2,13.8,0.7
		c4.5,1,9,3.3,11.2,7.4c0.8,1.5,1.4,3.2,2.9,4c0.6,0.3,1.4,0.4,2,0.8c0.6,0.3,1,0.9,1.5,1.3c2,1.6,5.1,1,6.8-1
		c1.6-1.9,1.9-4.7,1.3-7.2s-2.1-4.6-3.7-6.6c-1.9-2.5-4.1-4.8-6.7-6.5"/>
	<path id="XMLID_167_" class="st2" d="M227.6,70.9c1.2-3.8-0.6-8.3-4.2-10.2c-3.9-2-8.7-0.7-12.5,1.5c-3.1,1.8-6,4-8.5,6.6
		c-0.8,0.8-1.6,1.6-2.3,2.5c-1,1.4-1.8,3.1-2.5,4.7c-1.2,2.7-2.4,6-0.7,8.4c1.5,2,4.3,2.4,6.8,2.3c0.6,0,1.3,0,1.9-0.2
		c0.8-0.3,1.5-0.9,2.3-1.4c4.9-3.5,12.1-3.1,16.7,0.8c1,0.8,2,1.9,3.3,1.7c1.7-0.2,2.3-2.5,2.3-4.2c0-4.1-0.8-8.2-2.3-12.1"/>
	<path id="XMLID_166_" class="st2" d="M276.4,562.3c-2.3,1-4.6-1.2-6.6-2.8c-1.3-1-2.8-1.8-4.2-2.6c-7.7-4.1-15.4-8.2-23.1-12.3
		c-1.7-0.9-3.5-1.8-5.4-1.8c-1.9,0-4,1.3-4.2,3.2c-0.2,1.9,1.5,3.5,2.9,4.7c4.8,3.9,9.6,7.8,15,11c8.3,4.9,17.7,7.7,27.3,8.3
		c2.5,0.2,5.2,0.1,7.3-1.4c0.9-0.7,1.7-1.9,1.2-2.9c-0.4-0.8-1.3-1.1-2.2-1.4c-3.2-0.9-6.4-1.9-9.6-2.8"/>
</g>
<g id="Seta_Letra_K">
	<line id="XMLID_146_" class="st3" x1="106.1" y1="218.5" x2="106.1" y2="470.1"/>
	<polygon id="XMLID_145_" class="st4" points="68.7,218.5 151.1,218.5 109.9,142.4 	"/>
</g>
</svg>
