<?xml version="1.0" encoding="utf-8"?>
<!-- Generator: Adobe Illustrator 19.0.0, SVG Export Plug-In . SVG Version: 6.00 Build 0)  -->
<svg version="1.1" id="Letra_M" xmlns="http://www.w3.org/2000/svg" xmlns:xlink="http://www.w3.org/1999/xlink" x="0px" y="0px"
	 viewBox="0 0 600 600" style="enable-background:new 0 0 600 600;" xml:space="preserve">
<style type="text/css">
	.st0{fill:#F9C29E;}
	.st1{fill:#E6A784;}
	.st2{fill:#F9CCB5;}
</style>
<ellipse id="XMLID_206_" class="st0" cx="314.5" cy="143.4" rx="149.6" ry="82.4"/>
<path id="XMLID_205_" class="st1" d="M463.9,148.2c-4.5,43.3-69.6,77.6-149.4,77.6c-80.7,0-146.5-35.2-149.5-79.3
	C281.5,72.4,375.5,95.5,463.9,148.2z"/>
<path id="XMLID_204_" class="st0" d="M170.1,163.1c-71.5,47.7-73.6,231.2-9.3,287.1c-12.4,81.9,44.4,116.1,71.6,84
	c9.8,41.5,68.3,64.3,98.4,28c23.8,27.4,75.7,9.3,75.7-61.2l4.1-61.2c74.6-6.2,128.5-220.8,43.5-276.8
	C365,94.7,265.9,92.2,170.1,163.1z"/>
<path id="XMLID_203_" class="st1" d="M153.5,341.4c6.7,32.3,9.7,68.1,7.3,108.8c-11.6-12.3-22.7-25.4-29.6-44.4
	C130.3,382.3,129,358.6,153.5,341.4z"/>
<path id="XMLID_202_" class="st1" d="M232.4,534.2V367.3c3,82.6,5.2,168.9,20.9,198.9C243.9,556.8,234.7,548.2,232.4,534.2z"/>
<path id="XMLID_201_" class="st1" d="M410.6,439.9V336.2l12.5,77.7c16.6-2.1,33-11.1,48.9-32.1C461.4,403.9,453.2,426.5,410.6,439.9
	z"/>
<path id="XMLID_200_" class="st1" d="M330.8,562.2c-9.8-69.2-12.3-138.6,0-208.4c-0.7,89.3,0.5,173.8,16.7,219.1
	C341.7,571.4,336.2,568.6,330.8,562.2z"/>
<path id="XMLID_199_" class="st2" d="M213,514.1c-8.2-1.6-16-5.9-21.7-12.1c-1.6-1.8-3.1-3.7-5.1-5.1s-4.5-2.3-6.8-1.6
	c-2.2,0.7-3.8,2.6-4.5,4.8c-0.7,2.2-0.5,4.5,0,6.8c0.9,4,2.8,7.8,5,11.2c3.3,5.1,7.7,9.9,13.4,11.9c3.9,1.3,8.1,1.3,12.2,0.7
	c3.4-0.5,7-1.6,8.9-4.5c1.4-2.2,1.5-5.1,0.6-7.5c-0.9-2.5-2.6-4.5-4.4-6.3"/>
<path id="XMLID_198_" class="st2" d="M267,534.7c2.6,2.4,6.4,2.6,9.9,2.8c4,0.1,7.9,0.3,11.9,0.4c4.4,0.2,9,0.4,12.5,3.1
	c4.3,3.3,5.3,10.2,2.1,14.5c-1.4,1.9-3.4,3.3-5.5,4.2c-9.3,4.3-20.1,0.8-29.7-2.7c-3.1-1.1-6.3-2.3-9.4-3.4
	c-1.7-0.6-3.4-1.3-4.6-2.6c-0.9-1-1.3-2.4-1.5-3.7c-0.4-3.6,1.1-7.4,3.9-9.7c2.8-2.3,6.8-3,10.3-1.9"/>
<path id="XMLID_197_" class="st2" d="M382.5,533.7c-2.8,3.2-6.3,5.8-10.2,7.5c-3,1.3-6.2,2.1-9.1,3.4c-2.9,1.4-5.7,3.6-6.7,6.7
	c-1,3.1,0.3,7,3.3,8.1c2-1.1,4.4-0.7,6.6-0.7c6.1,0.1,12.2-3.1,15.7-8.1c1.8-2.6,2.8-5.5,3.9-8.4c0.5-1.4,0.9-2.8,0.5-4.2
	s-2-2.5-3.3-1.8"/>
<path id="XMLID_196_" class="st2" d="M436,379.2c0.1,0.3,0.5,0.2,0.8,0.1c3.9-1.4,5.1-6.2,5.9-10.3c1.4-6.6,3.3-13,5.8-19.2
	c1.2-2.9,3.3-6.3,6.5-6c1.6,0.2,2.8,1.3,3.8,2.5c5.7,6.8,5.9,16.6,4.7,25.4c-0.2,1.2-0.3,2.4-1,3.4c-0.7,1.1-1.8,1.7-2.9,2.3
	c-3.3,1.8-6.6,3.7-9.9,5.5c-2.3,1.3-4.7,2.6-7.3,2.3s-5-3-4-5.4"/>
<path id="XMLID_195_" class="st2" d="M153.8,195.4c1.1,0.3,2-1,2.6-2c1.7-3.3,3.4-6.6,5-10c0.5-1,1.1-2.1,1.8-3c0.9-1,2-1.8,3.1-2.5
	c3.6-2.4,7.2-4.8,11.1-6.7c1.4-0.7,2.8-1.3,4.2-1.9c1.3-0.5,2.9-1,4.1-0.4c2.1,1,2,4.1,0.6,6c-1.4,1.8-3.6,2.8-5.5,4.1
	c-3.2,2.3-5.5,5.7-7.6,9.1c-2.4,3.7-4.7,7.3-7.1,11c-1.3,2.1-2.7,4.2-4.7,5.7c-2,1.5-4.8,2.2-7,1.1c0-4.1,0.8-8.2,2.5-12"/>
<path id="XMLID_194_" class="st1" d="M221.5,352.5c4.7,1.6,9.7,2.3,14.7,2.2c0.8,0.9,0.5,2.4-0.3,3.2c-0.8,0.9-2,1.3-3.2,1.5
	c-5,0.9-10.8-1.3-12.5-6.1c0.7-0.3,1.3-0.9,1.6-1.6"/>
<path id="XMLID_193_" class="st1" d="M322,349.9c4.8-0.4,9.7-0.8,14.5-1.2c-1.7,2.2-3.9,3.9-6.3,5.2c-1.3,0.7-2.7,1.2-4.2,1.3
	c-2.9,0.3-5.8-1-8.5-2.3c-0.6-0.3-1.2-0.6-1.5-1.2c-0.3-0.8,0.3-1.7,1.1-2s1.7-0.2,2.5-0.1"/>
<path id="XMLID_192_" class="st2" d="M272.2,72.9c28.8-6.7,53.4-5.8,75.3,0c10,6.9,6.3,16.6,0,17.1c-26.7-6.4-52.1-7.4-75.3,0
	C262.9,92.6,257.1,79.6,272.2,72.9z"/>
</svg>
