<?xml version="1.0" encoding="utf-8"?>
<!-- Generator: Adobe Illustrator 19.0.0, SVG Export Plug-In . SVG Version: 6.00 Build 0)  -->
<svg version="1.1" id="Letra_F" xmlns="http://www.w3.org/2000/svg" xmlns:xlink="http://www.w3.org/1999/xlink" x="0px" y="0px"
	 viewBox="0 0 600 600" style="enable-background:new 0 0 600 600;" xml:space="preserve">
<style type="text/css">
	.st0{fill:#F9C29E;}
	.st1{fill:#E6A784;}
	.st2{fill:#F9CCB5;}
</style>
<path id="XMLID_93_" class="st0" d="M190.9,501.9c-12.3,16.2-14.4,41,0,54.4c44,29.6,142.6,34.4,230.8,0c24.4-15.2,15-43.9,0-54.4
	c-87.2,15.7-169.4,25.1-224.2,0"/>
<path id="XMLID_92_" class="st1" d="M197.5,501.9c54.7,25.1,136.9,15.7,224.2,0c4,2.8,7.6,6.9,10.3,11.7
	c-68.3,54.1-190.1,70.4-245.9-3.6L197.5,501.9z"/>
<path id="XMLID_91_" class="st1" d="M190.9,501.9c-3.7,4.8-6.4,10.4-8.1,16.2"/>
<path id="XMLID_90_" class="st0" d="M253.8,545.8c-59.6-22-106.9-61.1-101.5-128.9c-0.4-61.1,14.4-131.2,4.5-189
	c-3.4-52.9-4.9-125.1,29.7-132.7c11.8-3.4,23.5-10.1,35.9,14.3c3.5-51.1,12.6-76.5,48.5-73.5c24.3-0.2,41.3,20,41.3,64.9
	c8.9-21.7,11.7-45.8,39.5-44.9c29.1,0.2,50.8,20.3,50.3,100.2l0,153.7c36.7,74.7,55.7,142.2,20.7,182.3
	C371.6,551.2,296.6,561.1,253.8,545.8z"/>
<path id="XMLID_89_" class="st1" d="M248.7,288.2c-16.8,38.6-0.3,63.6,27.6,83.8l58.4,24.9c-6.6,18.4-4.7,32.2-4.5,46.8l23.2-43
	l27.2-27.7l-1.3-44.8L248.7,288.2z"/>
<path id="XMLID_88_" class="st0" d="M286.6,264.8c45.6,2.2,93.9-0.4,144.2-6.7c50.4-3,91.7,41,52,97.7
	c-71.4,20.1-141.7,27.1-208.4-4.2C235.9,328.8,233.2,266.7,286.6,264.8z"/>
<path id="XMLID_87_" class="st1" d="M454.1,260.2c-7.3-1.8-15.1-2.5-23.2-2c-24.1,3-47.8,5.2-71,6.4c-11.9,40-5.9,74.3,5.3,108.4
	c38.6,1.2,77.9-5.9,117.7-17.1c2.8-3.9,5.1-7.8,7.1-11.6C472.2,319.1,456.1,293.1,454.1,260.2z"/>
<path id="XMLID_86_" class="st0" d="M330.2,443.7c10.4-30.9,22.9-59.3,50.3-70.6c-8.5-51.4-33.3-102.2,34.1-156.6
	c21.6-11.9,34.3,3.1,34.3,58.2c2.5,24.8,11.5,46.8,27.3,65.9c34.5,58.2-27.3,171.8-102.1,190.8C339.9,507.8,316.5,481.1,330.2,443.7
	z"/>
<path id="XMLID_85_" class="st1" d="M380.5,373.1c-27.4,11.3-39.9,39.8-50.3,70.6c-2.7,7.4-4,14.4-4,21
	C340.7,432.2,353.7,399,380.5,373.1"/>
<path id="XMLID_84_" class="st2" d="M414.7,216.5c-67.5,54.4-42.6,105.1-34.1,156.6C376.8,314.6,378.7,258.4,414.7,216.5z"/>
<path id="XMLID_83_" class="st1" d="M219.3,104.3c5.6,56.5,6.7,111.1,0,162.4h8.7l-2.9-183.2l-2.7,26.2L219.3,104.3z"/>
<polygon id="XMLID_82_" class="st1" points="311.2,83.4 311.2,254.5 316.3,261.6 316.3,237.3 318.8,83.4 315,97.7 "/>
<path id="XMLID_81_" class="st1" d="M207.8,270.2c35.4-15.3,75.7-15.7,118.5-8.6C282.9,261.2,241,261.9,207.8,270.2z"/>
<path id="XMLID_80_" class="st2" d="M355.8,264.7c-23.7,1.1-46.7,1.2-69.1,0.1c-35.2,1.3-46.1,28.6-38.3,53.6
	c8.6-16.5,15.2-33.2,48.3-42.5L355.8,264.7z"/>
<path id="XMLID_79_" class="st2" d="M299.8,75.4c-1.6-11.2-10.6-19.2-19-26.2c-1-0.8-2-1.6-3.1-2c-1-0.4-2.1-0.4-3.2-0.4
	c-8.8-0.2-17.7,0.7-26.3,2.7c-0.9,0.2-1.9,0.5-2.5,1.1c-0.6,0.6-0.9,1.4-1.1,2.2c-1,3.1-1.5,6.7,0.2,9.4c2.1,3.4,6.6,3.9,10.4,3.2
	c3.8-0.7,7.5-2.3,11.3-1.9c5.8,0.7,10.1,5.9,13.7,10.9s7.4,10.4,13.1,11.8c1.1,0.3,2.3,0.3,3.1-0.4c0.7-0.6,0.9-1.5,1.2-2.4
	c0.7-2.8,1.4-5.7,2.1-8.5"/>
<path id="XMLID_78_" class="st2" d="M374.4,82.6c0.4-2.7-1-5.5-3.1-7.2c-2.1-1.7-4.7-2.4-7.2-2.9c-8.2-1.5-17.4-0.3-23.8,5.4
	c-1.9,1.7-3.6,4.6-2.2,6.8c0.7,1.2,2.1,1.7,3.4,2.1c11.2,3.7,23.3,8.8,28.9,19.7c1.5,2.9,2.5,6.3,4.9,8.5c2.4,2.2,6.9,2.2,8-0.9
	c0.3-0.9,0.4-1.9,0.4-2.9c0-3.7,0-7.4,0-11.2c0-2.8,0-5.6-0.6-8.3c-0.9-4-3.3-7.6-6.6-9.9"/>
<path id="XMLID_77_" class="st2" d="M210.4,103.9c-1.2,0.9-2.9,0.3-4-0.7c-1.1-1-2-2.4-3.2-3.2c-2.4-1.7-5.6-1-8.3,0.1
	c-4.5,1.8-8.6,4.5-12.1,8c-0.7,0.7-1.5,1.6-1.6,2.6c-0.3,1.9,1.6,3.4,3.3,3.7c1.8,0.3,3.5-0.3,5.3-0.4c3.9-0.2,7.8,2.2,9.5,5.9
	c1.2,2.5,1.5,5.3,2.6,7.9c1.1,2.5,3.4,4.9,6,4.3c2.6-0.5,3.9-3.7,4.7-6.4c0.9-3.4,1.7-7,1.4-10.5c-0.3-3.5-1.8-7.1-4.6-9.1"/>
<path id="XMLID_76_" class="st2" d="M382.4,402.3c-2.9,0-5.1,2.6-7,4.9c-2.4,3.1-4.9,6.2-6.7,9.8c-2.8,5.6-3.9,11.9-4.7,18.2
	c-0.6,4-0.4,9.4,3.3,10.7c2.9,1,5.9-1.6,7.2-4.5c1.3-2.9,1.5-6.3,2.7-9.2c2-4.7,6.2-7.8,9-12c3-4.5,4.2-10.4,3.3-15.8
	c-2.8-1.5-6-2.1-9.1-1.6"/>
<path id="XMLID_75_" class="st2" d="M475.4,285.9c1.9,3.6,3.8,7.2,5.6,10.7c0.6,1.2,1.3,2.4,2.3,3.2c1,0.8,2.6,1,3.5,0.2
	c0.7-2.8,0.2-5.9-0.9-8.5c-1.4-3.3-4-6.2-7.3-7.4c-1.8-0.7-4.6,0.1-4.2,2"/>
<path id="XMLID_74_" class="st2" d="M256.1,564.5c27.1,3.5,58.5,3.7,97.3-1.9c7.4,0,6.9,5.4,0,8.1c-33.6,3.7-67,6.9-97.3,0
	C247.2,565.4,250.6,564.6,256.1,564.5z"/>
</svg>
