<?xml version="1.0" encoding="utf-8"?>
<!-- Generator: Adobe Illustrator 19.0.0, SVG Export Plug-In . SVG Version: 6.00 Build 0)  -->
<svg version="1.1" id="Letra_Q" xmlns="http://www.w3.org/2000/svg" xmlns:xlink="http://www.w3.org/1999/xlink" x="0px" y="0px"
	 viewBox="0 0 600 600" style="enable-background:new 0 0 600 600;" xml:space="preserve">
<style type="text/css">
	.st0{fill:#F9C29E;}
	.st1{fill:#E6A784;}
	.st2{fill:#F9CCB5;}
</style>
<ellipse id="XMLID_242_" class="st0" cx="310.5" cy="153.1" rx="148.3" ry="87.1"/>
<path id="XMLID_241_" class="st1" d="M458.8,153.1c0,48.1-66.4,87.1-148.3,87.1s-148.3-39-148.3-87.1c0-2.3,0.2-4.6,0.5-6.9
	C242,108.5,343.4,93.8,458.8,153.1z"/>
<path id="XMLID_240_" class="st0" d="M166.2,156.8c-48.4,28.7-88,104.8-43.2,158.3c3.1,59.3,20.1,85.6,49.4,82.5
	c13.4,28.5,30,50.6,59.7,45.7c18.3,22.5,38.4,39.8,71,20.1l-6.5,65.9c-1.7,59.6,89.9,69.2,96,0l6.2-85.9
	c67.7-9.5,97.4-67.3,97.8-162.5c-5.2-59.1-14.7-115.5-79.3-136.5C343.6,117.2,262,102.1,166.2,156.8z"/>
<polygon id="XMLID_239_" class="st1" points="314.5,360.5 303.1,463.4 289.4,469.7 "/>
<path id="XMLID_238_" class="st1" d="M227.3,389.3c-1.6,27.5,0.4,44.3,4.7,54c-7.6,0.7-15.2,1.4-23.8-2.5
	C207.3,423.6,212.9,406.4,227.3,389.3z"/>
<path id="XMLID_237_" class="st1" d="M176.2,343.6c-5.1,25.7-5.5,43.5-3.8,54c-11.1,1.2-21.9-1.4-31.7-13.7
	C144.1,370.3,152.8,356.8,176.2,343.6z"/>
<path id="XMLID_236_" class="st1" d="M123,315.1c-2.7-22.4-0.5-43.9,8.2-64.3c-5.4-1.1-11.7,0.7-26.3,26.4
	C106.7,291.6,111.2,304.9,123,315.1z"/>
<path id="XMLID_235_" class="st1" d="M398.8,443.3v-90c18.6,30.6,34.7,59.6,36.2,78.5C423.4,437.8,411.3,441.7,398.8,443.3z"/>
<path id="XMLID_234_" class="st1" d="M370,329.5c-6.9-2.3-15.4-3.9-20.6,1.1c-1.4,1.4-2.5,3.3-2.2,5.3c0.6,3.6,5.4,4.7,9,4.2
	s7.5-2,10.8-0.5c0.9,0.4,1.7,1,2.6,1.1c2.3,0.5,4.4-1.7,4.9-4c0.4-2.3-0.3-4.6-1.1-6.8"/>
<path id="XMLID_233_" class="st1" d="M281.1,349.8c-3.6-1.2-7.3-2.4-11-2c-3.7,0.4-7.5,2.9-8.2,6.5c4,2.7,8.8,4.3,13.6,4.6
	c2.7,0.2,5.8-0.2,7.4-2.3c1.6-2.1,0.2-6.2-2.5-5.8"/>
<path id="XMLID_232_" class="st1" d="M214.6,342.9c-1.6-2.9-3.9-5.8-7.2-6.4s-7.1,2.5-6,5.6c0.3,0.9,1,1.7,1.7,2.4
	c1.8,1.9,4,3.7,6.6,4.3c2.6,0.6,5.6-0.1,7.1-2.4c1.4-2.2,0.4-5.8-2.2-6.4"/>
<path id="XMLID_231_" class="st1" d="M158.8,315.9c-3.9,2.7-9.6-5.1-13.3-2.1c-2.5,2-0.4,6.1,2.2,8c2.2,1.7,4.9,2.9,7.7,2.4
	c2.7-0.5,5-3.5,4-6"/>
<path id="XMLID_230_" class="st2" d="M312.1,538.3c-0.3,2.9,2.8,4.8,5.4,6.1c2.4,1.1,4.8,2.2,7.2,3.3c6.6,3,13.5,6.1,20.8,6.3
	c14.1,0.4,27.5-11.8,28.3-25.9c0.1-2.2-0.1-4.6-1.3-6.5c-2.2-3.4-6.8-4-10.9-4.3c-13.9-1-27.8-1.9-41.7-2.9
	c-1.6-0.1-3.3-0.2-4.8,0.5c-1.4,0.6-2.3,1.8-3.3,3c-2.5,3.1-4.9,6.4-5.7,10.3c-0.8,3.9,0.7,8.5,4.3,10.1"/>
<path id="XMLID_229_" class="st2" d="M280.1,438.3c-8.4-4.3-16.8-8.7-25.2-13c-2.8-1.4-6.1-2.9-9-1.7c-3.1,1.2-4.4,5.1-3.8,8.4
	c0.6,3.3,2.6,6,4.6,8.7c2.8,3.7,5.8,7.3,9.7,9.7c4,2.4,9.1,3.2,13.2,1c4.1-2.2,6.1-6.9,7.8-11.3"/>
<path id="XMLID_228_" class="st2" d="M200.3,404.7c-1.5-2.8-3.1-5.5-4.6-8.3c-1.1-1.9-2.2-3.9-3.9-5.1c-1.8-1.3-4.4-1.7-6.1-0.3
	c-1.6,1.3-1.9,3.6-1.9,5.6c-0.1,4.6,0.7,9.3,2.9,13.2c2.3,4,6.3,7.1,10.9,7.4c3.5-5.2,5.3-11.4,5.3-17.6"/>
<path id="XMLID_227_" class="st2" d="M145.7,344.3c2.2-2.7,0.7-7.2-2.4-8.6c-3.1-1.4-7.1,0.1-9,3s-1.8,6.8-0.3,9.9
	c2.4,1.1,5,2.2,7.5,1.6c2.5-0.6,4.5-3.9,2.8-5.9"/>
<path id="XMLID_226_" class="st2" d="M332,440.4c5,0.4,9.9,0.7,14.9,1.1c2.4,0.2,5.5-0.2,5.9-2.6c0.3-1.8-1.6-3.3-3.3-4
	c-5.5-2.4-12.2-2-17.5,0.9c-0.2,2.4,0.2,4.8,1,7"/>
<path id="XMLID_225_" class="st2" d="M443.9,350.3c2.4,6.5,4.7,13,7.1,19.6c1.6,4.5,3.3,9.1,6.5,12.6c5.6-1.8,9.7-6.6,12.2-11.9
	c2.4-5.3,3.4-11.2,4.3-16.9c1-6.3,1.9-13.3-1.6-18.8c-2.3-3.6-6.2-5.9-9.9-8c-2.1-1.2-4.3-2.5-6.8-2.7c-5.3-0.5-10.1,3.9-11.7,8.9
	c-1.7,5-1,10.5-0.3,15.8"/>
<path id="XMLID_224_" class="st2" d="M240.5,175.7c8.6-2.5,17.1-4.9,25.7-7.4c5.4-1.6,10.9-3.1,16.6-3.3c5.9-0.2,11.6,1.1,17.3,2.5
	c13.8,3.2,27.7,6.4,41.5,9.6c4.2,1,8.5,1.9,12.7,1.1c4.2-0.8,8.3-3.8,8.9-8c0.9-6.2-5.3-10.8-10.7-13.9c-12.4-7-25.2-14.2-39.3-16
	c-5.1-0.7-10.4-0.6-15.5-0.2c-19.6,1.4-38.9,7.2-56,16.7c-3.5,2-7.2,4.4-8.5,8.2s1.3,9,5.3,8.6"/>
<path id="XMLID_223_" class="st2" d="M325.2,74c-25.6,0.5-52.4,1.4-74.4,14.4c-5.2,3.1-10.6,8.4-9,14.2c1,3.4,4.3,5.7,7.7,6.6
	c3.5,0.8,7.1,0.4,10.6,0c30.3-3.6,61.6-7.4,90.8,1.3c3.3,1,6.8,2.1,10.1,1.2c4.6-1.4,7.1-6.6,6.6-11.4c-0.6-5.5-4.4-10.2-9-13.1
	c-4.6-3-10-4.5-15.3-5.9c-7.1-2-14.3-4-21.4-5.9"/>
</svg>
