<?xml version="1.0" encoding="utf-8"?>
<!-- Generator: Adobe Illustrator 19.0.0, SVG Export Plug-In . SVG Version: 6.00 Build 0)  -->
<svg version="1.1" id="Letra_D" xmlns="http://www.w3.org/2000/svg" xmlns:xlink="http://www.w3.org/1999/xlink" x="0px" y="0px"
	 viewBox="0 0 600 600" style="enable-background:new 0 0 600 600;" xml:space="preserve">
<style type="text/css">
	.st0{fill:#F9C29E;}
	.st1{fill:#E6A784;}
	.st2{fill:#F2B999;}
	.st3{fill:#F9CCB5;}
</style>
<path id="XMLID_56_" class="st0" d="M190.8,486c-16.7,25.4-38.5,50.3,16.4,83.3c41.5,18.2,122.8,31.7,216.1-41.7
	c49.2-42.4,20-59.6,9.5-73.4L190.8,486z"/>
<path id="XMLID_55_" class="st1" d="M442.7,465.6c-3.4-4.2-7.2-7.9-9.9-11.3l-242,31.7c-5.4,8.2-11.3,16.3-15,24.7
	C231.9,589.2,418.3,550.3,442.7,465.6z"/>
<path id="XMLID_54_" class="st2" d="M323.5,184.9c-32.9-35-81.3-35.6-142-8.7c-36.9,15.2-64.8,41.4-86.9,75
	c-25.6,43.4-1.4,48.9,20.5,48.4l189.8-77.4l17.9-14.7L323.5,184.9z"/>
<path id="XMLID_53_" class="st0" d="M162.9,329.8l41.9-39.1c47.2-33.5,90.4-28.6,131.7-6.8l-8.7-76.4
	c-34.1-16.2-70.4-21.4-109.5-11.9c-54.7,12.5-82.7,41.9-105.7,74.4C83.7,301.4,114.9,370.7,162.9,329.8z"/>
<path id="XMLID_52_" class="st1" d="M317.2,275.1c6.5,2.5,13,5.5,19.4,8.9l-8.7-76.4c-6-2.8-12.1-5.4-18.2-7.5
	C307.2,222.5,310.6,247.9,317.2,275.1z"/>
<path id="XMLID_51_" class="st1" d="M107,278.1c23.1,17.6,45.3,35.4,47.2,58.1c-38.3,23.2-62.9-24.4-48.4-55.8"/>
<path id="XMLID_50_" class="st0" d="M189.5,510.4c-45.9-38.1-78.7-82.7-105.8-130.1c-77.2-109,18-125.9,59.2-48.7l34.9,54
	c21.4,37.8,130.2,42.1,144.9-47.6c2-38.9,1.4-75.7-6.3-106.9c-4.6-56.5-2-112.3,29.6-165c21.2-45.5,92-44.4,83.6,26.4
	c-10.6,73.7-12,142.8,0,205.2c28.9,86.2,38.9,165.5-39.1,212.6C328.7,547.5,248.3,568.2,189.5,510.4z"/>
<path id="XMLID_49_" class="st1" d="M322.8,337.9c-14.7,89.7-123.5,85.4-144.9,47.6C211.2,452.7,333.4,461.4,322.8,337.9z"/>
<path id="XMLID_48_" class="st3" d="M429.7,92.5c8.5-70.9-62.4-71.9-83.6-26.4c-16.6,27.7-25.2,56.2-29,85.2
	c22.8-40,44.4-87.2,73.4-87.3C407.7,68.5,421.2,77.5,429.7,92.5z"/>
<path id="XMLID_47_" class="st3" d="M162.9,362.4l-20-30.8c-37.5-70.2-119.5-62.6-76.3,21.1c-2.3-25.2-1.5-46.6,10.4-53.9
	C98.6,293.3,129.2,321.8,162.9,362.4z"/>
<path id="XMLID_46_" class="st3" d="M304.8,198.4c-27.3-8.7-56-10.2-86.5-2.8c-52.7,12.1-80.7,39.8-103.3,71
	C173.7,212.7,236.9,189.9,304.8,198.4z"/>
<path id="XMLID_45_" class="st3" d="M304.7,170c-31.5-19-73.2-15.6-123.3,6.6c-36.9,15.2-64.8,41.4-86.9,75
	c-6.4,10.8-9.7,19.3-10.7,25.9C130.3,222.6,167.4,158.1,304.7,170z"/>
<path id="XMLID_44_" class="st3" d="M255.3,561.4c13.6,3.8,33.1,2.5,54,0c8.7,0,10.3,10.7,0,13.5c-22.4,3.3-41.4,4.1-54,0
	C244.9,571.7,244.5,561.4,255.3,561.4z"/>
</svg>
