<?xml version="1.0" encoding="utf-8"?>
<!-- Generator: Adobe Illustrator 19.0.0, SVG Export Plug-In . SVG Version: 6.00 Build 0)  -->
<svg version="1.1" id="Letra_I" xmlns="http://www.w3.org/2000/svg" xmlns:xlink="http://www.w3.org/1999/xlink" x="0px" y="0px"
	 viewBox="0 0 600 600" style="enable-background:new 0 0 600 600;" xml:space="preserve">
<style type="text/css">
	.st0{fill:#F9C29E;}
	.st1{fill:#E6A784;}
	.st2{fill:#F9CCB5;}
</style>
<path id="XMLID_144_" class="st0" d="M195.5,505.2c-14.5,21.4-12.6,47.3,14.7,60.4c43.3,19.5,157.8,32,200.1-11.8
	c11.9-20.3,12.1-37.1,1.1-50.6L195.5,505.2z"/>
<path id="XMLID_143_" class="st1" d="M418.6,517.6c-1.2-5.1-3.6-9.9-7.2-14.3l-215.9,2c-3.3,4.8-5.7,9.9-7.2,15
	C282.2,592,353.3,567,418.6,517.6z"/>
<path id="XMLID_142_" class="st0" d="M314.6,556.3c-113.4-1.7-196.1-78.8-198-235.7L109,175.7c-5.1-35.4,0.8-65.2,48.8-74.1
	c28.3-3.7,53.2,9.3,60.8,105.2c18.9-36.9,47.2-32.6,79.6-10.1c28.7-18.6,56.6-41.9,99.1,15.4c56.3-17.7,82.4,7.6,86.1,65
	c1.8,34.4-10,60.4-27.5,82.9C432.7,450.2,388,518.1,314.6,556.3z"/>
<path id="XMLID_141_" class="st1" d="M296.5,367.1c-55.8,0.6-78.9-84.3-77.9-160.3l6-9.8c-10.4,62.1,20.6,167.8,70.3,161.8
	c46.8-0.9,46.7-74.8,3.3-162.1l8.1-5.3C339.1,277,358.8,352.8,296.5,367.1z"/>
<path id="XMLID_140_" class="st1" d="M397.3,212.1c21.3,104.1-1.9,150.1-80.5,146.4l-4.5,2.8c83.1,8.2,114.1-37.8,89.6-150.5
	L397.3,212.1z"/>
<path id="XMLID_139_" class="st1" d="M249,334.5c9.2,17.5,29.4,26.1,48.6,30.7c2.9,0.7,6.4,1.8,7.3,4.6c0.5,1.5,0.2,3.1,0.3,4.7
	c0.4,4.5,4.1,7.8,5.6,12.1c1.5,4.5,0.2,9.5-2.4,13.4c-2.5,4-6.2,7-9.8,10.1c-2.3,1.9-4.8,3.9-7.8,4c-3.7,0-6.6-3-9.1-5.7
	c-5.7-6.4-11.3-12.9-17-19.3c-4.3-4.9-8.7-9.9-12.1-15.5c-9.4-15.2-11.1-33.8-12.7-51.6c2.8,4.6,5.6,9.1,8.4,13.7"/>
<path id="XMLID_138_" class="st1" d="M480.4,254.4c-4.1,87-25.5,139.8-100.3,95.2l-3,1.9c24.3,15.8,54.7,29.5,78.9,8.5
	C478,327.5,491.1,293.2,480.4,254.4z"/>
<path id="XMLID_137_" class="st0" d="M285.1,390.2c7.6-39.3,20.1-75.8,102.5-70.2c77,8.7,127,48.4,69,141.5
	c-33.2,56.2-89.6,88.9-141.9,94.8c-7.9-46.3-7.5-88.7,32.2-113.2C308.8,444.4,280.1,422.7,285.1,390.2z"/>
<path id="XMLID_136_" class="st2" d="M474.1,361.4c-14.2-24.1-46.8-36.9-86.5-41.4c-73.9-5-91.6,23.9-99.9,58.3
	C313.2,322.2,434.3,314.1,474.1,361.4z"/>
<path id="XMLID_135_" class="st1" d="M312.1,539.1c-1.3-11.4-1.9-22.4-1.2-32.8c1.7-25.8,11.2-48,35.9-63.2
	c-35.3,1.2-62.6-17.5-62.2-46.2c12.3,34.2,45.7,52.8,136.3,29.1C347.5,441,311.6,480.1,312.1,539.1z"/>
<path id="XMLID_134_" class="st1" d="M324.2,471.5l19.5-19l13.3-11.2l-38.8-5.9l-21.4-14l-12-19.4c1.3,18.4,2.5,36.9,16.4,48.1
	c-2.2,24.2-2,47.6,8.8,67.7l3.5,1.2l-1.4-19.6L324.2,471.5z"/>
<path id="XMLID_129_" class="st2" d="M285.1,210.3c-2.9-5.1-8.9-7.3-14.4-9.2c-2.5-0.8-4.9-1.7-7.5-2.1c-2.7-0.4-5.4-0.3-8.1,0.1
	c-2.1,0.4-4.2,1.1-6.1,2.1c-4.9,2.8-7.9,8.2-9.3,13.7c-0.2,1-0.4,2.2,0,3.1c0.5,0.9,1.5,1.5,2.5,1.8c7.9,2.7,16.6-2.9,24.8-1.4
	c2.1,0.4,4,1.1,6.1,1.8c1.7,0.5,3.3,0.9,5,1.2c3,0.5,6.8,0.4,8.4-2.1c1.6-2.4-0.1-6.2-3-6.7"/>
<path id="XMLID_128_" class="st2" d="M380.2,207.6c-4.7-1.9-4.9-8.3-7.9-12.4c-1.7-2.4-4.5-4-7.2-5.2c-9.6-4-20.9-3.9-30.3,0.5
	c-3.4,1.5-6.6,3.6-8.7,6.6c-2,2.8-3,6.1-3.7,9.5c-0.2,1.1-0.4,2.3,0.1,3.3c0.4,0.8,1.1,1.4,1.8,1.9c4.6,3.5,10.7,6.1,16.1,4
	c1.2-0.5,2.4-1.2,3.6-1.7c5.1-2.4,11.1-2,16.5-0.6c5.4,1.5,10.5,3.9,15.9,5.8c1.3,0.5,2.7,0.9,4.1,0.7c3-0.5,4.8-3.9,4.4-6.9
	c-0.5-3-2.7-5.4-5.2-7.1"/>
<path id="XMLID_127_" class="st2" d="M456.9,228.3c-2-1.7-4.1-3.4-6.1-5c-2-1.6-3.9-3.2-6.2-4.3c-5.8-2.7-12.8-1.4-18.5,1.4
	c-1.7,0.9-3.5,2.1-3.9,4c-0.3,1.5,0.5,3,1.4,4.1c3.6,4.1,9.8,4.3,15.1,5.5c6.1,1.4,11.8,4.7,16,9.3c1.8,2,3.5,4.2,5.9,5.4
	s5.9,0.7,7-1.8c0.9-2.1-0.3-4.4-1.5-6.3c-2.7-4.1-5.8-7.9-9.4-11.2"/>
<path id="XMLID_126_" class="st2" d="M387,449.2c-4.4,0.1-7.7,3.9-10.6,7.1c-7.7,8.4-17.3,14.6-25.6,22.4c-2.4,2.3-4.9,5.8-3.1,8.6
	c0.7,1.2,2.1,1.9,3.4,2.3c5.7,1.7,11.8-1,16-5.2c4.2-4.2,6.8-9.6,9.6-14.8c0.8-1.5,1.7-3.1,2.7-4.4c2.8-3.6,6.9-5.9,10.7-8.4
	c1-0.7,2.1-1.4,2.4-2.6c0.4-1.4-0.6-2.9-1.9-3.6c-1.3-0.7-2.8-0.8-4.2-0.9"/>
<path id="XMLID_125_" class="st2" d="M122.2,150.5c1.4-5.8,0.3-12.1,2.2-17.8c2.6-7.6,10-12.6,17.6-15.2c11.4-3.9,24.2-3.5,35.4,1.2
	c5.3,2.2,10.6,5.9,12,11.5c1.1,4.7-0.7,9.8,0.9,14.4c-5.2,1.8-10.8,0.8-16.1-0.6c-5.3-1.4-10.5-3.3-16-3.2c-5.5,0-11.3,2.5-13.6,7.5
	c-1,2.2-1.2,4.8-2.2,7c-1.9,4.2-6.9,6.8-11.5,5.9c-4.5-0.9-8.1-5.3-8.2-9.9"/>
<path id="XMLID_124_" class="st2" d="M313.5,569.5c-1.6-1.8-4.5-1.5-6.7-0.7c-2.2,0.9-4.3,2.3-6.7,2.5c-1.3,0.1-2.6-0.1-3.9-0.3
	c-8.5-1.3-17.3-0.3-25.3,2.8c4.2,1,7.8,4.2,12,4.3c2.2,0,4.3-0.8,6.5-1.3c3.5-0.9,7.1-1,10.6-0.4c2.3,0.4,4.6,1.1,7,1.4
	c4.3,0.5,8.6-0.4,12.8-1.4c1.6-0.4,3.3-0.7,4.7-1.7c1.4-0.9,2.5-2.5,2.3-4.2c-0.2-2-2.1-3.4-4.1-3.7c-1.9-0.3-3.9,0.2-5.8,0.7
	c-1.2,0.3-2.4,0.7-3.6,1"/>
</svg>
