<?xml version="1.0" encoding="utf-8"?>
<!-- Generator: Adobe Illustrator 19.0.0, SVG Export Plug-In . SVG Version: 6.00 Build 0)  -->
<svg version="1.1" id="Auron" xmlns="http://www.w3.org/2000/svg" xmlns:xlink="http://www.w3.org/1999/xlink" x="0px" y="0px"
	 viewBox="0 0 378 257.5" style="enable-background:new 0 0 378 257.5;" xml:space="preserve">
<style type="text/css">
	.st0{fill:#77461C;}
	.st1{fill:#844E25;}
	.st2{fill:#633513;}
	.st3{fill:#263C83;}
	.st4{fill:#19355E;}
</style>
<g id="Perna_Esquerda">
	<path class="st0" d="M109.1,205.1c3,4.8-1.3,13.5-7.2,23.1c-1.4,1.6-3.2,2.7-8.5,0.2L86,223c-4.8-4-1.1-10.3,8.2-10.2
		c1.5-6,3.4-11,7.4-12L109.1,205.1"/>
	<line class="st1" x1="101.6" y1="200.8" x2="109.1" y2="205.1"/>
	<path class="st1" d="M101.6,200.8c-4,1-6,6-7.4,12c-6.7-0.1-10.4,3.1-10.3,6.4c4.1-5.8,9.7-6.4,16.4-3c-1.3-1.5-2.7-2.9-4.8-3.1
		C96.4,207.7,98,203.1,101.6,200.8"/>
	<path class="st2" d="M109.1,205.1c0.2,0.4,0.4,0.7,0.5,1.1c0.1,6.7-7.1,22.5-13.2,23.4c3,0.8,4.3-0.2,5.4-1.4
		c5.5-8.8,9.6-17,7.8-21.9"/>
	<path class="st2" d="M108.3,206.6c-2.3,4.8-8.7,2.5-6.9-3.7L108.3,206.6"/>
	<path class="st3" d="M120.7,187.2c-4.6,3.3-8.6,9-11.8,18.4c-2.3,4.8-9.4,2.4-7.4-4.4c2.4-7,4.8-13.6,7.9-17.3l10.7,1.8
		L120.7,187.2z"/>
	<path class="st4" d="M118.1,189.5c0.9-0.8,1.7-1.6,2.6-2.2l-0.5-1.5l-10.7-1.8c-0.6,0.7-1.1,1.5-1.7,2.4c1.3,1.5,2.7,2.8,4.4,3.8
		l0.2-2.2C114.6,188.7,116.6,189.3,118.1,189.5z"/>
</g>
</svg>
