<?xml version="1.0" encoding="utf-8"?>
<!-- Generator: Adobe Illustrator 19.0.0, SVG Export Plug-In . SVG Version: 6.00 Build 0)  -->
<svg version="1.1" id="Leta_V" xmlns="http://www.w3.org/2000/svg" xmlns:xlink="http://www.w3.org/1999/xlink" x="0px" y="0px"
	 viewBox="0 0 600 600" style="enable-background:new 0 0 600 600;" xml:space="preserve">
<style type="text/css">
	.st0{fill:#F9C29E;}
	.st1{fill:#E6A784;}
	.st2{fill:#F9CCB5;}
</style>
<ellipse id="XMLID_363_" class="st0" cx="314.5" cy="510" rx="118" ry="60"/>
<path id="XMLID_362_" class="st1" d="M432.5,510c0-33.1-52.8-60-118-60s-118,26.9-118,60C270.9,549.1,349,554.7,432.5,510z"/>
<path id="XMLID_361_" class="st0" d="M217.2,506.4c-104.5-46.6-154.7-261.8-19.1-304.2c9.7-3.4,19.5-3.7,29.7,0
	c9.4-16.1,20.7-27.7,39.2-21.2l-52.5-85.3c-31.3-52.5,27.6-92.2,62-37.1l82.1,134.1l24.9-113.9c11.1-66.2,99.1-70.5,80.5,21.7
	l-40.8,180.7L345.4,491L217.2,506.4z"/>
<path id="XMLID_360_" class="st1" d="M207.6,305.6c9.8,26.3,19.1,38.7,36,30.2c38.6-22.1,43.9-61.2-15.9-133.5l2.9-4.6
	c48.8,52.3,74.5,116.4,14.1,146.1C223.5,351.7,206.4,335.2,207.6,305.6z"/>
<path id="XMLID_359_" class="st1" d="M267,181c60.9,70.5,72.1,147.3-9,154.7l-4.9,3.3c15.6-0.9,27.6,4.3,56.3-18.6
	c26-21.7,11.9-97-46.9-146.7"/>
<path id="XMLID_358_" class="st0" d="M466.7,325.2c-25.9-43.5-108.5-56.7-159.9,18c-10.2,19.1,0.4,34.9,30.7,47.7
	c-17.6,7.5-30,23.7-34.5,53c38.1,26.9-11.7,45.7-85.8,62.5c45.4,28.6,100.2,36.2,163.2,15.9C450.9,494.2,503.9,416.3,466.7,325.2z"
	/>
<path id="XMLID_357_" class="st1" d="M302.9,443.9c0.1-0.7,0.2-1.4,0.3-2.1c4.8-28,17-43.6,34.2-50.9c-20-8.4-31.5-18.2-34-29.4
	c21.6,26.2,59.3,33.3,117.2,16.2c-20,7.2-34.2,17.5-72.6,14.8C327,401.9,312.4,419.5,302.9,443.9z"/>
<path id="XMLID_356_" class="st1" d="M336.4,386c-6.6,0.2-12.1-4.4-17-8.8c-4.1-3.7-8.2-7.4-12.3-11.1c-0.8-0.7-1.7-1.5-2.8-1.6
	c-1.6-0.1-2.9,1.3-3.3,2.8c-0.4,1.5,0,3.1,0.4,4.7c1.1,4.3,2.1,8.5,3.2,12.8c0.4,1.5,0.7,3.2,0.2,4.6c-0.4,1.2-1.4,2.1-2.4,3
	c-6.7,6.3-12.3,14-14.8,22.9c-2.4,8.9-1.4,18.9,4.2,26.3c0.6,0.8,1.3,1.6,2.2,2.1c2.3,1.4,5.5,0.3,7.4-1.6c1.9-2,2.8-4.6,3.7-7.2
	c3.6-9.9,8-19.8,15-27.7c4.6-5.1,10.1-9.1,15.6-13.1c2.3-1.6,4.5-3.3,6.8-4.9c-1.9-1.8-4.2-3-6.7-3.6"/>
<path id="XMLID_355_" class="st1" d="M222.1,338.2c7.9,3.7,17.4,3.6,25.2-0.2c1.4-0.7,2.7-1.5,4.2-1.8c2-0.5,4.1-0.3,6.1-0.2
	c20.9,1.1,42.1-8.3,55.2-24.6c2-2.5,3.9-5.2,4.9-8.3c0.9-2.8,1.1-5.7,1.2-8.7c0.4-12.7-1-25.4-4-37.7c13.8,17.3,15.3,43.4,3.6,62.1
	c-2.6,4.1-5.7,7.9-9.1,11.5c-9.8,10.6-22,20-36.3,22.2c-4.7,0.7-9.5,0.7-14.2,0.6c-5.5-0.1-11-0.1-16.5-0.2
	c-5.7-0.1-11.7-0.2-16.7-2.9c-6-3.2-9.6-9.4-12.9-15.3c-1.1-1.9-2.1-4.2-1-6c3.9,3.4,7.7,6.9,11.6,10.3"/>
<path id="XMLID_354_" class="st2" d="M466.7,325.2c-25.9-43.5-108.5-56.7-159.9,18c-1.8,3.4-3,6.7-3.5,9.9
	C364.3,283.9,417.4,286.7,466.7,325.2z"/>
<path id="XMLID_353_" class="st2" d="M362.1,407c-1.4,0.2-2.7,0.6-4.1,1.1c-7,2.3-14,4.7-20,8.9s-11,10.5-11.7,17.8
	c-0.4,3.3,0.3,6.9,2.5,9.3c2.3,2.4,6.5,3.1,8.9,0.8c1.7-1.6,2.1-4.2,3.2-6.3c2-3.8,6.1-6,10.1-7.6c4.6-1.8,9.4-3.2,14.2-4.1
	c2.9-0.5,6-1,8-3.2c2.6-3,1.7-7.9-1-10.8c-2.7-2.9-6.6-4.4-10.3-5.7"/>
<path id="XMLID_352_" class="st2" d="M245,204.4c9.1,6.2,11.6,19.6,21.1,25.1c0.8,0.4,1.7,0.8,2.5,0.5c0.5-0.2,0.9-0.6,1.2-1
	c1.7-2.1,3.1-4.4,4-6.9c1.1-2.9,1.7-6.1,1-9.1c-0.7-2.9-2.4-5.4-4.2-7.7c-1.1-1.4-2.2-2.7-3.4-4c-2.4-2.4-5.4-4.5-8.8-4.7
	c-3.9-0.3-7.6,2-10.6,4.6c-0.6,0.5-1.2,1.1-1.1,1.9"/>
<path id="XMLID_351_" class="st2" d="M183.5,239.1c6.3,2.9,12.3,6.3,18,10.2c4.4,3.1,8.6,6.5,13.6,8.4c5,1.9,11,2.2,15.3-1
	c5.3-3.8,6.4-11.2,6.5-17.8c0.1-5-0.2-10.4-2.9-14.6c-3.1-4.8-8.7-7.3-14.1-9c-8-2.4-16.5-3.5-24.7-2.1s-16.1,5.4-21.4,11.9
	c-1.9,2.3-3.4,5.3-2.8,8.2c5,2.5,10.1,5,15.1,7.5"/>
<path id="XMLID_350_" class="st2" d="M254.4,52.1c-3-4.6-8.3-7.1-13.3-9.3c-2.9-1.3-5.9-2.6-9.1-2.5c-5.9,0.3-10.1,5.6-12.9,10.8
	c-3.4,6.4-5.8,13.3-6.9,20.5c-0.2,1.4-0.4,2.8-0.2,4.2c0.9,5.2,7,7.6,12.2,7.7c0.9,0,1.8,0,2.6-0.4c2.2-1.1,2.2-4.1,2.9-6.4
	c1.3-4.7,6.2-7.8,11-8.7c4.8-0.9,9.8-0.1,14.7,0.3c1,0.1,2.1,0.1,2.6-0.8c0.3-0.4,0.2-1,0.2-1.5c-0.4-4.8-1.6-9.4-3.7-13.7"/>
<path id="XMLID_349_" class="st2" d="M447,50.1c-4.6-6.4-12.8-9.8-20.6-8.7c-5.5,0.8-10.5,3.7-15.1,6.8c-5.1,3.5-10.4,8.1-10.7,14.2
	c-0.2,5.4,4.2,10.6,9.6,11.2c4.5,0.5,8.9-1.9,13.5-1.7c4.3,0.2,8.1,2.8,11.9,4.9c3.8,2.2,8.1,4.1,12.3,2.9c2.1-6,4.2-12.2,3.2-18.4
	c-0.7-4.4-2.9-8.4-5.2-12.2"/>
</svg>
