<?xml version="1.0" encoding="utf-8"?>
<!-- Generator: Adobe Illustrator 19.0.0, SVG Export Plug-In . SVG Version: 6.00 Build 0)  -->
<svg version="1.1" id="Letra_U" xmlns="http://www.w3.org/2000/svg" xmlns:xlink="http://www.w3.org/1999/xlink" x="0px" y="0px"
	 viewBox="0 0 600 600" style="enable-background:new 0 0 600 600;" xml:space="preserve">
<style type="text/css">
	.st0{fill:#F9C29E;}
	.st1{fill:#E6A784;}
	.st2{fill:#F9CCB5;}
</style>
<ellipse id="XMLID_348_" class="st0" cx="297.2" cy="500.6" rx="125.3" ry="70.2"/>
<path id="XMLID_347_" class="st1" d="M422.3,496.2c-4.1-36.7-58.5-65.7-125-65.7c-66.8,0-121.5,29.3-125.1,66.3
	C258.4,556,342.1,561.4,422.3,496.2z"/>
<path id="XMLID_346_" class="st0" d="M189.5,492.3c-58.9-55.2-110.2-143.1-11.6-264.3c28.4-30.2,50.3-37.4,65.8-21.5
	c12.3-14.6,24.7-29.1,55.1-16.2L292,91.6c-9.7-47.2,43.2-73.5,57.8-27.8c6-27.3,45.6-48.6,59.2-9.4l34.8,311.8L189.5,492.3z"/>
<path id="XMLID_345_" class="st1" d="M181.8,315.9c18.4,53.2,70.6,43.7,73.5-10.8c3.8-30.5-1-63.7-11.6-98.7l6.2-7.1
	c21,82.4,28.2,152-30.7,160.2C194.3,359.6,184.2,338.3,181.8,315.9z"/>
<path id="XMLID_344_" class="st1" d="M298.8,190.2c45.7,101.8,15.5,169.4-53.6,158.9c35.4,13.8,78.8,0,83.6-69.7
	c-8-69.3-20.9-77.9-30.8-100.7L298.8,190.2z"/>
<polygon id="XMLID_343_" class="st1" points="349.8,63.8 361.6,266.4 369.4,263.4 353.3,54.4 "/>
<path id="XMLID_342_" class="st0" d="M189.5,492.3c22.4,22.1,53.4,39,110.7,39.5l40.2-43.1L330,420.5l-95.4,2.1l-61.1,53.5
	L189.5,492.3z"/>
<path id="XMLID_341_" class="st1" d="M191.9,339.8c1.5,4.5,5.4,7.8,9.7,9.8c4.3,1.9,9.1,2.7,13.7,3.4c2.8,0.4,5.7,0.8,8.5,0.5
	c5.4-0.6,10.3-3.9,15.8-4.5c5.8-0.6,11.5,2.1,17.3,3c3.5,0.6,7.1,0.5,10.6-0.3c2.9-0.6,5.7-1.7,8.6-2.1c2.3-0.3,4.6-0.2,6.9-0.6
	c4.7-0.8,8.8-3.6,12.7-6.4c3-2.1,6-4.2,8.9-6.3c2.4-1.7,5.7-0.6,7.6,1.6c1.8,2.2,2.6,5.1,3.1,8c1.5,8.6,0.3,17.5,1.6,26.2
	c1.2,8.1-1,20.2,6.4,23.7c12.8,6,8.9,15.5-0.3,24.1c-2.7,2.5-3.8,6.4-5.1,9.9c-1.9,5-1.9,11.2-6.3,14.2c-2.3,1.6-5.3,1.7-8.1,1.9
	c-3.6,0.1-7.2,0.2-10.7,0.3c-4.4,0.1-9.7-0.3-11.7-4.2c-0.5-1.1-0.7-2.3-1-3.5c-2.1-8.6-9-15.1-13.6-22.7c-3.6-6.1-5.8-13-6.2-20
	c-0.3-4.3-0.3-9.4-3.8-11.9c-1.5-1-3.4-1.4-5.2-1.7c-11.3-1.9-22.5-3.9-33.8-5.8c-2.3-0.4-4.7-0.8-6.8-1.8c-1.8-0.9-3.3-2.1-4.8-3.4
	c-7.3-6-14.3-12.3-21.1-18.8c-1.5-1.4-3-2.9-4-4.8c-1.5-3-1.1-6.6-0.8-10c0.2-1.4,0.3-2.8,1.2-3.9c1.6-1.9,4.7-1.6,6.6-0.1
	c1.9,1.5,2.9,3.9,3.8,6.2"/>
<path id="XMLID_340_" class="st0" d="M438.6,319.6c-32.1-7.9-64.8-12.4-98.5-9.4c-75,15.2-84.5,70-11.4,93.9
	c-9.5,12-15.9,27.5-20.9,44.6l-7.6,83C375,532.6,451,474.3,459.4,398C464.7,361.4,456.5,324.7,438.6,319.6z"/>
<path id="XMLID_339_" class="st1" d="M307.1,456.7l0.7-8c5-17.1,11.4-32.6,20.9-44.6c-73.1-23.9-63.6-78.7,11.4-93.9
	c33.7-3,66.4,1.4,98.5,9.4c-76.6-9.5-134.2-4.6-149.3,32.3c-2.7,36.2,40.4,52.1,115.3,53.7c-23,1.7-46.2,4.3-67.8,0
	C326.6,416.3,316.7,433.8,307.1,456.7z"/>
<path id="XMLID_338_" class="st2" d="M295,200.7c-1.9-4.6-7.5-6.9-12.5-6.5c-5,0.4-9.6,2.8-14,5.2c-3.9,2.1-8,4.4-9.8,8.4
	c-0.9,2.1-1.1,4.4-1.3,6.6c-0.1,2.5,0,5.5,1.9,7.1c1.5,1.2,3.6,1.3,5.4,0.7c1.8-0.5,3.5-1.6,5.1-2.5c5.4-2.8,11.7-3.9,17.8-3
	c1.9,0.3,4.2,0.6,5.5-0.9c0.8-0.9,0.8-2.3,0.8-3.5c0-4-0.1-7.9-0.1-11.9"/>
<path id="XMLID_337_" class="st2" d="M226.6,211.7c-5.1-1.4-10.7-0.5-15.1,2.3c-1.6,1.1-3.1,2.4-4.5,3.7c-2.5,2.3-4.9,4.7-6.4,7.8
	c-1.2,2.4-1.6,5.4-0.3,7.7c1.7,2.8,5.5,3.5,8.6,2.6c3.1-1,5.5-3.3,7.8-5.5c0.8-0.8,1.5-1.6,2.6-1.9c1-0.4,2.2-0.2,3.3-0.2
	c2.6,0,5.1-0.6,7.4-1.9c0.6-0.3,1.2-0.7,1.5-1.3c0.3-0.5,0.3-1.2,0.4-1.8c0-1.6,0-3.2-0.2-4.8c-0.1-1.3-0.5-2.8-1.6-3.6
	c-0.6-0.4-1.3-0.5-2-0.8c-1.2-0.5-2.2-1.6-2.7-2.8"/>
<path id="XMLID_336_" class="st2" d="M397.4,327.5c-24.7-5.4-50.9-3.4-74.5,5.5c-2.1,0.8-4.2,1.7-5.8,3.2c-1.6,1.6-2.5,3.9-1.8,6
	c1.1,3.1,5.1,4,8.4,4c7.8,0,15.4-2.1,23.1-3.6c15.3-2.9,31-3.3,46.4-1.1c2.6,0.4,5.2,0.8,7.8,0.2s5-2.5,5.2-5.1
	c0.4-4.1-4.3-6.7-8.2-8.1"/>
<path id="XMLID_335_" class="st2" d="M344.7,420.7c-6.3,3.1-10.5,9.1-14.5,14.9c-3.6,5.2-7.2,10.5-8.3,16.7
	c-0.5,2.8-0.4,5.7-0.9,8.5c-0.4,2.4-1,4.9,0.1,7c1.5,2.9,5.9,3.3,8.7,1.6c2.9-1.7,4.5-4.8,6-7.7c1.4-2.9,2.8-5.8,4.5-8.5
	c0.9-1.5,1.9-3,3.2-4.2c0.9-0.8,2-1.5,3-2.2c3.8-2.9,6.2-7.3,8.5-11.6c1.4-2.7,2.9-5.9,1.6-8.7c-1.1-2.2-3.6-3.3-6-3.8
	c-2.4-0.4-4.9-0.4-7.3-1.2"/>
<path id="XMLID_334_" class="st2" d="M306.2,76.7c3-1.4,5.9-2.8,8.9-4.1c1.4-0.6,2.7-1.3,4.2-1.7c3.8-1,7.8-0.1,11.5,1.2
	c1.1,0.4,2.2,0.9,3.4,0.7c2.1-0.2,3.6-2.5,3.5-4.7s-1.4-4.1-3-5.6c-3.7-3.6-8.9-5.3-14.1-5.3c-5.1,0-10.2,1.6-14.8,3.9
	c-1,0.5-2.1,1.1-2.9,2c-2.1,2.3-1.9,5.8-1.5,8.9c0,0.2,0.1,0.5,0.3,0.6c0.2,0.1,0.5,0,0.7,0c0.8-0.1,1.4,0.7,1.6,1.5
	c0.2,0.8,0.2,1.6,0.6,2.3s1.4,1.1,1.9,0.6"/>
<path id="XMLID_333_" class="st2" d="M397.7,53.4c-0.9-2.3-2.3-4.4-4-6.1c-0.4-0.4-0.9-0.8-1.4-1.1c-1-0.5-2.2-0.5-3.3-0.5
	c-4.9,0-10,0.1-14.7,1.5s-9.2,4.5-11.1,9.1c-0.7,1.7-1.1,3.6-1.3,5.5c-0.1,1.4-0.1,2.9,0.7,4.1c1.4,2.1,4.5,2.1,6.9,1.2
	c2.4-0.9,4.5-2.5,7-2.9c2.3-0.4,4.7,0.2,7,0.9c2.8,0.8,5.6,1.6,8.4,2.4c2,0.6,4.6,1,5.9-0.7c0.5-0.6,0.6-1.4,0.8-2.1
	c0.6-3.6,0.5-7.4-0.5-11"/>
<path id="XMLID_332_" class="st1" d="M337.2,270.7c19-7.3,38.9-11.8,62.4-4.3C380.7,264.9,359.6,266.8,337.2,270.7z"/>
<path id="XMLID_331_" class="st2" d="M248.5,543.2c32.9,6.8,66.5,8.7,101,2.9c7.6-0.5,7.6,7.3,0,13.1c-31.9,6-64.9,7.9-101-1.9
	C242.2,553.6,242.2,543.2,248.5,543.2z"/>
</svg>
