<?xml version="1.0" encoding="utf-8"?>
<!-- Generator: Adobe Illustrator 19.0.0, SVG Export Plug-In . SVG Version: 6.00 Build 0)  -->
<svg version="1.1" id="Letra_S" xmlns="http://www.w3.org/2000/svg" xmlns:xlink="http://www.w3.org/1999/xlink" x="0px" y="0px"
	 viewBox="0 0 600 600" style="enable-background:new 0 0 600 600;" xml:space="preserve">
<style type="text/css">
	.st0{fill:#F9C29E;}
	.st1{fill:#E6A784;}
	.st2{fill:#F9CCB5;}
</style>
<ellipse id="XMLID_310_" class="st0" cx="293.4" cy="534.1" rx="110.8" ry="48.7"/>
<path id="XMLID_309_" class="st1" d="M403.5,528.6c-6.2-24.3-53.1-43.2-110.1-43.2c-61.2,0-110.8,21.8-110.8,48.7
	C273.4,567.5,350,571.7,403.5,528.6z"/>
<path id="XMLID_308_" class="st0" d="M244.7,541.8C107.1,551,54.3,195.2,208.1,235.3c16.4-23.2,36.5-40.4,80.6-19.9
	c16.8-19.5,38.1-25.9,69-4.2c25.9-17.1,57.5-13.6,65.9,34.5C438.4,444.1,359.2,529.5,244.7,541.8z"/>
<path id="XMLID_307_" class="st1" d="M184,340.4c16.7,52.7,74.7,43.4,60.7-22.5c-2.6-25.8-15.9-53.6-36.6-82.6l7.4-9.5
	c34.4,66.5,62.9,129.9,16.7,153.9C205.1,382,188.3,370,184,340.4z"/>
<path id="XMLID_306_" class="st1" d="M288.7,215.4c38.8,68.3,45.4,121-23.5,137l16.2,5.2c55.9-11,61.4-61.4,16.5-151.1L288.7,215.4z
	"/>
<path id="XMLID_305_" class="st1" d="M366.2,206.6c26.2,56.4,36.7,105.6,1.6,133.9l-14.4-5.8c43.3-21,31.7-68.4,4.2-123.4"/>
<path id="XMLID_304_" class="st0" d="M296.5,339.5"/>
<path id="XMLID_303_" class="st1" d="M251.7,375.9c-3.4-20.6-4.5-40.5,27.6-50.3c54.4-14.8,91.2-5.4,120.3,14.8L251.7,375.9z"/>
<path id="XMLID_302_" class="st1" d="M256.3,357.7l49.8,55.4l-12.7,31.4l-33.9,33.9c-6.3-14.6-16.7-27.8-3.2-49.6
	C246.5,410,249.5,384.8,256.3,357.7z"/>
<path id="XMLID_301_" class="st0" d="M297,422.5c-59.6-18.8-68-96.2,15.7-96.2c87.3-5.8,128.8,27.7,124.5,100.4
	c-26.9,134.8-107.7,130.1-192.5,115.1C252.9,495.3,261.8,449.4,297,422.5z"/>
<path id="XMLID_300_" class="st1" d="M265.1,464.1c7.4-16.2,17.4-30.5,31.9-41.6c-13.2-4.2-23.9-11.2-31.7-19.7
	c28.6,9.8,63,16,110.1,14.4c-11.3,5.5-16.9,12.4-69,8.4L265.1,464.1z"/>
<path id="XMLID_299_" class="st2" d="M437.5,413.1c-1.5-63.3-43.1-92.2-124.7-86.8c-58.4,0-72,37.7-54.6,66.9
	c1.2-23.4,3.3-52.7,51.4-49.8C369.5,345.9,418.9,360.9,437.5,413.1z"/>
<path id="XMLID_298_" class="st2" d="M321.2,451.3c-5.5,0.2-9.6,4.9-12.9,9.2c-6.3,8-12.7,16.4-14.7,26.4c-0.1,0.7-0.3,1.5,0,2.2
	c0.4,1,1.4,1.5,2.3,1.9c4.4,2,9.6,4,13.8,1.7c5-2.8,5.5-9.7,8.6-14.5c3.9-6,11.5-8.2,16.6-13.2c1.6-1.6,3-3.6,3.1-5.9
	c0.1-3.1-2.5-5.8-5.4-6.8c-2.9-1.1-6.1-0.9-9.2-0.6"/>
<path id="XMLID_297_" class="st2" d="M195.2,248.6c-9.2-4-19.7-5.6-29.3-2.9s-18.2,10-21,19.6c-0.2,0.7-0.4,1.4-0.3,2.1
	c0.2,1.7,1.9,2.8,3.5,3.3c5.9,1.7,11.7-2.2,17.4-4.4c10.3-3.9,21.8-2.3,32.7-0.5c4.7-5.1,1.8-14.8-4.9-16.5"/>
<path id="XMLID_296_" class="st2" d="M279.5,225.5c-10.1-10.3-28-11.8-39.7-3.2c-2.4,1.8-4.6,4-5.7,6.9c-1.5,4-0.3,8.9,3,11.7
	c3.3,2.8,8.3,3.3,12.1,1.3c1.9-1.1,3.5-2.7,5.4-3.8c2.7-1.5,5.9-1.6,9-1.2c3.8,0.5,7.5,2,10.7,4.2c2.4,1.6,4.9,3.8,7.7,3.3
	c3.8-0.7,4.9-5.9,3.6-9.6c-1.3-3.7-4.1-6.7-5.2-10.4"/>
<path id="XMLID_295_" class="st2" d="M347.7,219.1c-4.3-3.1-8.6-6.3-13.6-8c-5-1.7-10.9-1.6-15.2,1.4c-4.2,2.9-5.7,10.3-1.3,12.8
	c2.6,1.4,5.7,0.6,8.7,0.3c4.9-0.4,9.8,1.2,13.6,4.4c1.5,1.3,2.9,2.8,4.8,3.2c2.9,0.6,5.7-2,6.4-4.8c0.8-2.8,0.1-5.9-0.6-8.7"/>
<path id="XMLID_294_" class="st2" d="M402.9,223.5c-2.4-5.5-8.2-9.3-14.2-9.2c-2.4,0-4.9,0.7-6.5,2.3s-2.3,4.5-0.9,6.5
	c2.1,3.1,7,2.1,10.2,4.1c2.7,1.6,3.7,5,5.5,7.6c1.8,2.6,5.9,4.4,7.9,2.1c2.3-2.6-0.7-6.5-1-10"/>
<path id="XMLID_293_" class="st2" d="M311.7,567.6c-16,0.7-31.7-4.2-47.7-4.9c-1.2-0.1-2.4-0.1-3.4,0.6s-1.5,2.2-0.6,3
	c15.2,6.6,32,9.2,48.5,7.6c1.1-0.1,2.4-0.3,3.1-1.2c0.7-0.9,0.2-2.6-1-2.5"/>
</svg>
