<?xml version="1.0" encoding="utf-8"?>
<!-- Generator: Adobe Illustrator 19.0.0, SVG Export Plug-In . SVG Version: 6.00 Build 0)  -->
<svg version="1.1" id="Auron" xmlns="http://www.w3.org/2000/svg" xmlns:xlink="http://www.w3.org/1999/xlink" x="0px" y="0px"
	 viewBox="0 0 378 257.5" style="enable-background:new 0 0 378 257.5;" xml:space="preserve">
<style type="text/css">
	.st0{fill:#77461C;}
	.st1{fill:#844E25;}
	.st2{fill:#633513;}
	.st3{fill:#263C83;}
	.st4{fill:#19355E;}
</style>
<g id="Perna_Direita">
	<g id="Bota">
		<path class="st0" d="M130.1,206.3c-3.5,4.5-0.2,13.6,4.7,23.7c1.3,1.7,2.9,3.1,8.4,1.2l7.9-4.6c5.2-3.4,2.2-10.1-7.1-11
			c-0.8-6.2-2.2-11.4-6.1-12.8L130.1,206.3"/>
		<line class="st1" x1="137.9" y1="202.8" x2="130.1" y2="206.3"/>
		<path class="st1" d="M137.9,202.8c3.9,1.4,5.3,6.6,6.1,12.8c6.6,0.7,10,4.2,9.6,7.5c-3.4-6.2-8.9-7.4-16-4.7
			c1.5-1.4,3-2.6,5.1-2.6C142.4,210.3,141.4,205.5,137.9,202.8"/>
		<path class="st2" d="M130.1,206.3c-0.3,0.3-0.5,0.7-0.7,1.1c-0.8,6.7,4.6,23.2,10.6,24.6c-3.1,0.4-4.3-0.7-5.2-2
			c-4.5-9.4-7.7-17.9-5.3-22.7"/>
		<path class="st2" d="M130.7,207.9c1.8,5,8.4,3.4,7.3-2.9L130.7,207.9"/>
	</g>
	<g id="Calça">
		<path class="st3" d="M120.5,187.3c4.2,3.8,7.5,9.9,9.7,19.6c1.8,5,9.1,3.4,7.8-3.6c-1.6-7.2-3.3-14-6-18.1l-10.9,0.6L120.5,187.3z
			"/>
		<path class="st4" d="M122.8,189.8c-0.8-0.9-1.5-1.8-2.4-2.5l0.6-1.5l10.9-0.6c0.5,0.8,1,1.6,1.4,2.6c-1.4,1.4-3,2.5-4.7,3.3v-2.2
			C126.3,189.4,124.3,189.7,122.8,189.8z"/>
	</g>
</g>
</svg>
