<?xml version="1.0" encoding="utf-8"?>
<!-- Generator: Adobe Illustrator 19.0.0, SVG Export Plug-In . SVG Version: 6.00 Build 0)  -->
<svg version="1.1" id="Letra_Z" xmlns="http://www.w3.org/2000/svg" xmlns:xlink="http://www.w3.org/1999/xlink" x="0px" y="0px"
	 viewBox="0 0 600 600" style="enable-background:new 0 0 600 600;" xml:space="preserve">
<style type="text/css">
	.st0{fill:#F9C29E;}
	.st1{fill:#E6A784;}
	.st2{fill:#F9CCB5;}
	.st3{fill:none;stroke:#090909;stroke-miterlimit:10;}
	.st4{fill:#090909;stroke:#090909;stroke-miterlimit:10;}
</style>
<path id="XMLID_434_" class="st0" d="M324.4,542.8c-2.1,29,9.5,46,50.4,37.3c56.1-14.2,106.8-68.4,113.3-119.2
	c3.7-32-16.5-36.9-27.3-21.3L324.4,542.8z"/>
<path id="XMLID_433_" class="st1" d="M475.2,431c-4.9-0.3-10.3,2.7-14.4,8.6L324.4,542.8c-0.7,9,0,16.9,2.5,23.2
	C441.1,555.1,461,485.1,475.2,431z"/>
<path id="XMLID_432_" class="st0" d="M337.6,555.5c-94.9-28.3-181.7-108.9-135-207.2c3.4-10.6,11.5-12.6,18.3-15.7
	c4.4-26.6,15.3-47,50.8-44c-0.2-20.5,11.9-38.6,41.3-38c-14.1-21.6-27.3-42-38.7-59.3c-21.4-31.6-21.7-49.6-10.7-60.1
	c13.3-8.7,29.2-15.7,61.9,31c49.5,74.5,87.7,144.6,109.1,207.9C458.2,491.6,389.5,559.4,337.6,555.5z"/>
<path id="XMLID_431_" class="st1" d="M268.1,422.9c3.6,0.5,7.2,0.3,11-0.8c7.7-2.4,21.1-7.2,13.4-30.9
	c-11.7-43.7-36.6-61.6-71.7-58.6c-11.8,5.2-18.3,10.4-18.3,15.7c19.3-13.7,67.6-15,79.5,39.7c5.9,21.6-0.9,29.2-13.5,30.4
	c-16.7-5.5-31.7-15.9-44.6-32.8c8.2,10.9,16.9,22.2,28.1,30.2c4.5,3.2,9.3,5.7,14.8,6.5c6.5,0.9,11.8,4,18.2,5.5
	c5.8,1.4,12.6,0.8,17-3.2c1.5-1.4,2.7-3.1,4.3-4.4c2.5-2,5.8-2.6,8.8-3.5c8.1-2.4,15.8-7.2,20-14.5c1.4-2.5,2.4-5.1,4-7.5
	c5.2-7.5,15.5-9.3,22.5-15.1c6.5-5.4,9.8-13.7,14.2-20.9c1.3-2.2,2.8-4.3,3.6-6.7c0.8-2.5,1-5.2,0.9-7.8
	c-0.2-14.2-4.7-28.3-12.8-39.9c-1.2-1.8-3.7-3.6-5.2-2c4.9,11,9.8,22.4,9.4,34.4c-0.4,12.3-6.6,24.3-16.4,31.6
	c-6.8,5.1-15.1,8-21.2,13.9c-2.6,2.5-4.6,5.4-7.2,7.9c-6.2,6.1-14.7,9.4-22.8,12.4c-2,0.8-4.1,1.5-6.2,1.6c-2.5,0.1-5.3-0.6-7.4,0.8
	c-1,0.7-1.6,1.8-2.3,2.8c-4.2,6.4-10.9,11.1-18.3,13"/>
<path id="XMLID_430_" class="st1" d="M271.6,288.5c63.9,33.3,82.9,88.4,45,108c-11.3,6-19.6,7.3-25.7,5.1l0.4,5.5
	c60.6-10,84-58.4-19.3-126L271.6,288.5z"/>
<path id="XMLID_429_" class="st1" d="M312.9,250.5c74.2,57.9,68.4,107.7,28,126.4l-4.1,3.5c22.3-7.4,42.1-17.9,34.5-62.3
	c-10.8-32.6-34.5-56.5-61.6-72.4L312.9,250.5z"/>
<path id="XMLID_428_" class="st0" d="M470.1,396.8c-19.9-67.3-70.3-101.3-130.2-24.9c-31.7,39.2-35.5,59.3-8.4,69.9
	c7.7,2.3,13.9,5.9,33.6-1.1c-2.4,37.9,2,71.9,21,97.5C446.2,509.7,475.2,463.1,470.1,396.8z"/>
<path id="XMLID_427_" class="st0" d="M342.8,555.6c29.9,6.3,90-36.1,109-71L342.8,555.6z"/>
<path id="XMLID_426_" class="st2" d="M313.9,415.9c2.2-11,10.9-25.3,26-43.9c40.2-51.3,76.1-52.9,101.4-28
	C398,321,355.7,355.9,313.9,415.9c-0.4,2-0.6,3.8-0.5,5.6"/>
<path id="XMLID_425_" class="st1" d="M313.4,421.4c0.2,9.2,6.1,15.7,18.1,20.4c7.7,2.3,13.9,5.9,33.6-1.1
	c-0.1,33.4,2.3,61.5,13.7,86c-12.3-21.7-28.6-44.6-28.3-62.4C312,455.2,314.1,438,313.4,421.4z"/>
<path id="XMLID_424_" class="st2" d="M237.3,350.6c-1.8-0.1-3.6-0.1-5.4-0.2c-1.8-0.1-3.6-0.1-5.3,0.4c-1.7,0.5-3.3,1.6-3.9,3.3
	c-0.5,2,1.3,4,3.2,4.8c1.9,0.8,4.1,1,6,1.8c3.3,1.5,5.4,4.8,7.9,7.4c2.5,2.7,6.3,4.9,9.6,3.3c1.5-0.7,2.6-2.1,3.5-3.5
	c0.5-0.9,1-1.8,1.3-2.9c0.7-3.2-1.5-6.3-3.7-8.9c-1.7-2-3.5-4-5.8-5.2s-5.3-1.5-7.4,0"/>
<path id="XMLID_423_" class="st2" d="M244.3,321.3c7.1-2.8,15.6-1.7,21.8,2.8c5.6,4,9.3,10.6,15.5,13.5c1.1,0.5,2.3,0.9,3.5,1
	c3.6,0.1,6.7-3,7.5-6.5c1.5-6.2-2.8-12.2-6.8-17.2c-1.4-1.8-2.9-3.5-4.3-5.3c-2.4-3-5-6.1-8.5-7.7c-6.9-3.1-14.9,0.5-21.3,4.6
	c-3.4,2.2-7,4.9-8.2,8.8c-0.7,2.3-0.1,5.3,2.2,6.1"/>
<path id="XMLID_422_" class="st2" d="M290.4,282c6.3-0.3,12.4,2.7,17.4,6.7c5,3.9,9.1,8.8,13.8,13.1c2.5,2.3,5.6,4.6,8.9,4.2
	c2.9-0.4,5.2-2.8,6.2-5.6s0.8-5.8,0.2-8.7c-2.7-13.5-14-25.3-27.7-27.3c-2.4-0.4-4.8-0.4-7.1,0.1c-5,1.2-9,5.2-11.5,9.7
	c-1.3,2.3-1.9,6.1,0.6,7.1"/>
<path id="XMLID_421_" class="st2" d="M383.8,443.4c-2.1,3.5-4.2,7-6.3,10.6c-0.9,1.5-1.8,3-2.4,4.6c-2.8,7.1-0.4,15,2,22.3
	c1.6,4.8,4,10.3,8.9,11.2c3.9,0.7,7.8-2.1,9.5-5.8s1.5-7.8,0.9-11.7s-1.5-7.9-1.4-11.8c0.1-2.7,0.7-5.4,1-8.1
	c0.4-4.6-0.4-9.3-2.3-13.5c-0.2-0.5-0.6-1.1-1.2-1.3c-0.5-0.1-0.9,0.2-1.4,0.5c-2,1.3-4.1,2.6-6.1,3.9"/>
<path id="XMLID_420_" class="st1" d="M405.9,411.1l-40.8,29.7l-5,12.1l5.2,2.7C382.6,441,400.2,426.5,405.9,411.1z"/>
<path id="XMLID_419_" class="st2" d="M278.4,132c-1.6,1.7-3.1,3.3-4.7,5c-2.3,2.4-4.8,5.8-3.4,8.8c0.6,1.4,2.1,2.9,1.4,4.3
	c4.4-0.2,8.7-0.4,13.1-0.6c1.6-0.1,3.2-0.1,4.7,0.2c5.1,1.2,7.8,6.7,11.2,10.7c1.6,1.9,3.6,3.5,6,4.1c2.4,0.6,5.2-0.1,6.6-2.1
	c1.2-1.8,1-4.1,0.2-6.1s-2.3-3.5-3.7-5.1c-3.8-4.2-7.6-8.3-11.3-12.5c-2.1-2.3-4.3-4.7-7.3-5.6c-1.5-0.5-3.1-0.5-4.7-0.6
	c-3.4-0.1-6.9-0.3-10.3-0.4"/>
<polyline id="XMLID_418_" class="st3" points="62.8,23.9 224.3,23.9 62.8,151.3 224.3,151.3 "/>
<polygon id="XMLID_417_" class="st4" points="224.3,130.2 224.3,171.3 243.4,151.3 "/>
</svg>
