<?xml version="1.0" encoding="utf-8"?>
<!-- Generator: Adobe Illustrator 19.0.0, SVG Export Plug-In . SVG Version: 6.00 Build 0)  -->
<svg version="1.1" id="Letra_T" xmlns="http://www.w3.org/2000/svg" xmlns:xlink="http://www.w3.org/1999/xlink" x="0px" y="0px"
	 viewBox="0 0 600 600" style="enable-background:new 0 0 600 600;" xml:space="preserve">
<style type="text/css">
	.st0{fill:#F9C29E;}
	.st1{fill:#E6A784;}
	.st2{fill:#F9CCB5;}
</style>
<path id="XMLID_330_" class="st0" d="M191.4,494c-12.1,15.9-14.1,40.2,0,53.3c43.1,29,139.7,33.7,226.1,0c23.9-14.9,14.7-43,0-53.3
	c-85.5,15.4-166,24.6-219.6,0"/>
<path id="XMLID_329_" class="st1" d="M197.9,494c53.6,24.6,134.1,15.4,219.6,0c3.9,2.8,7.5,6.8,10.1,11.5
	c-66.9,53-186.2,68.9-240.9-3.6L197.9,494z"/>
<path id="XMLID_328_" class="st1" d="M191.4,494c-3.6,4.7-6.3,10.2-7.9,15.9"/>
<path id="XMLID_327_" class="st0" d="M253,537c-58.4-21.5-104.8-59.8-99.5-126.2c-0.4-59.8,14.1-128.5,4.4-185.1
	c-3.3-51.8-4.8-122.5,29-130c11.6-3.3,23-9.9,35.2,14c3.4-50,12.3-74.9,47.5-72c23.8-0.2,40.5,19.6,40.5,63.6
	C319,80,321.7,56.4,349,57.3c28.5,0.2,49.7,19.9,49.3,98.2l0,150.5c36,73.2,54.6,139.3,20.2,178.6C368.3,542.2,294.9,552,253,537z"
	/>
<path id="XMLID_326_" class="st1" d="M248,284.6c-16.4,37.8-0.3,62.3,27,82.1l57.2,24.4c-6.5,18-4.6,31.5-4.4,45.8l22.7-42.1
	l26.6-27.1l-1.2-43.9L248,284.6z"/>
<path id="XMLID_325_" class="st0" d="M327.8,436.9c10.2-30.2,22.4-58.1,49.3-69.2c-8.3-50.4-32.7-100.1,33.4-153.3
	c21.1-11.7,33.6,3,33.6,57c2.5,24.3,11.3,45.9,26.7,64.5c33.8,57-26.7,168.3-100,186.9C337.3,499.8,314.4,473.6,327.8,436.9z"/>
<path id="XMLID_324_" class="st1" d="M377.1,367.8c-26.9,11.1-39.1,39-49.3,69.2c-2.7,7.3-3.9,14.1-3.9,20.6
	C338.1,425.7,350.9,393.2,377.1,367.8"/>
<path id="XMLID_323_" class="st1" d="M369.8,371.4c2.3-1.4,4.8-2.6,7.3-3.6c-8.1-49.1-31.4-97.5,28.6-149.3
	c-8.4,12-17.2,24.1-14.3,31.5c14.9-3.7,32.8-2.9,52.1,0c0.5,6.3,0.8,13.5,0.8,21.5c2.5,24.3,11.3,45.9,26.7,64.5
	c7.8,13.1,10.6,29,9.4,46C476.9,368.5,431.8,367.4,369.8,371.4z"/>
<path id="XMLID_322_" class="st0" d="M285.1,261.7c44.6,2.2,92-0.4,141.3-6.5c49.3-2.9,89.8,40.2,51,95.7
	c-70,19.7-138.8,26.6-204.1-4.1C235.4,324.4,232.8,263.6,285.1,261.7z"/>
<path id="XMLID_321_" class="st1" d="M219.2,104.4c5.5,55.4,6.5,108.8,0,159h8.5L224.9,84l-2.7,25.6L219.2,104.4z"/>
<polygon id="XMLID_320_" class="st1" points="309.2,84 309.2,251.6 314.2,258.6 314.2,234.7 316.6,84 312.9,98 "/>
<path id="XMLID_319_" class="st1" d="M207.9,267c34.7-15,74.2-15.3,116-8.4C281.5,258.2,240.4,258.9,207.9,267z"/>
<path id="XMLID_318_" class="st2" d="M352.9,261.6c-23.2,1.1-45.8,1.2-67.7,0.1c-34.5,1.2-45.1,28-37.6,52.5
	c8.5-16.2,14.9-32.5,47.3-41.6L352.9,261.6z"/>
<path id="XMLID_317_" class="st2" d="M298.1,76.2c-1.5-11-10.4-18.9-18.6-25.7c-1-0.8-1.9-1.6-3.1-2c-1-0.4-2.1-0.4-3.1-0.4
	c-8.7-0.2-17.3,0.7-25.8,2.7c-0.9,0.2-1.8,0.5-2.5,1.1c-0.6,0.6-0.9,1.4-1.1,2.1c-1,3-1.4,6.5,0.2,9.2c2.1,3.3,6.5,3.8,10.2,3.1
	c3.7-0.7,7.3-2.3,11-1.9c5.7,0.7,9.9,5.8,13.4,10.7c3.5,4.9,7.3,10.2,12.9,11.6c1,0.3,2.2,0.3,3.1-0.4c0.7-0.6,0.9-1.5,1.1-2.4
	c0.7-2.8,1.4-5.5,2.1-8.3"/>
<path id="XMLID_316_" class="st2" d="M371.1,83.2c0.4-2.7-1-5.4-3.1-7c-2-1.6-4.6-2.3-7.1-2.8c-8.1-1.5-17-0.3-23.3,5.3
	c-1.9,1.6-3.5,4.5-2.2,6.6c0.7,1.2,2.1,1.6,3.3,2c11,3.6,22.8,8.6,28.3,19.3c1.5,2.9,2.5,6.2,4.8,8.3c2.3,2.1,6.7,2.2,7.9-0.9
	c0.3-0.9,0.4-1.9,0.4-2.8c0-3.6,0-7.3,0-10.9c0-2.7,0-5.5-0.6-8.1c-0.9-3.9-3.3-7.4-6.4-9.7"/>
<path id="XMLID_315_" class="st2" d="M210.4,104.1c-1.2,0.9-2.9,0.3-4-0.7c-1.1-1-1.9-2.3-3.1-3.2c-2.4-1.6-5.5-1-8.1,0.1
	c-4.4,1.8-8.4,4.4-11.8,7.8c-0.7,0.7-1.4,1.5-1.6,2.5c-0.2,1.8,1.5,3.3,3.2,3.6c1.7,0.3,3.5-0.3,5.2-0.4c3.8-0.2,7.6,2.2,9.3,5.8
	c1.2,2.4,1.5,5.2,2.5,7.7s3.4,4.8,5.9,4.3c2.6-0.5,3.8-3.6,4.6-6.3c0.9-3.3,1.7-6.8,1.4-10.3c-0.3-3.5-1.8-7-4.5-8.9"/>
<path id="XMLID_314_" class="st2" d="M378.9,396.4c-2.8,0-5,2.5-6.8,4.8c-2.4,3-4.8,6.1-6.6,9.6c-2.8,5.5-3.8,11.7-4.6,17.8
	c-0.5,4-0.3,9.2,3.2,10.5c2.8,1,5.8-1.5,7-4.4c1.3-2.9,1.5-6.1,2.7-9c1.9-4.6,6.1-7.7,8.8-11.8c2.9-4.4,4.1-10.1,3.3-15.5
	c-2.7-1.5-5.9-2.1-8.9-1.5"/>
<path id="XMLID_313_" class="st2" d="M470,282.4c1.8,3.5,3.7,7,5.5,10.5c0.6,1.2,1.2,2.4,2.3,3.1c1,0.8,2.5,1,3.5,0.2
	c0.6-2.8,0.2-5.7-0.9-8.3c-1.4-3.3-3.9-6-7.1-7.3c-1.7-0.7-4.5,0.1-4.1,2"/>
<path id="XMLID_312_" class="st2" d="M255.2,555.2c26.6,3.5,57.3,3.6,95.3-1.9c7.2,0,6.7,5.3,0,7.9c-32.9,3.6-65.6,6.7-95.3,0
	C246.5,556.2,249.8,555.3,255.2,555.2z"/>
<path id="XMLID_311_" class="st2" d="M426,221.5c-1.8-0.2-3.8-0.4-5.4,0.5c-1.6,0.9-2.5,3.3-1.3,4.6c0.5,0.5,1.1,0.7,1.8,0.9
	c1.8,0.4,3.8,0,4.9-1.4c1.2-1.4,1.1-3.8-0.4-4.8"/>
</svg>
