<?xml version="1.0" encoding="utf-8"?>
<!-- Generator: Adobe Illustrator 19.0.0, SVG Export Plug-In . SVG Version: 6.00 Build 0)  -->
<svg version="1.1" id="Letra_G" xmlns="http://www.w3.org/2000/svg" xmlns:xlink="http://www.w3.org/1999/xlink" x="0px" y="0px"
	 viewBox="0 0 600 600" style="enable-background:new 0 0 600 600;" xml:space="preserve">
<style type="text/css">
	.st0{fill:#F9C29E;}
	.st1{fill:#E6A784;}
	.st2{fill:#F9CCB5;}
</style>
<path id="XMLID_108_" class="st0" d="M207.6,507.9c-20.5,27-20,50.9,25.5,68.5c63.8,21.8,147.7,1.2,186.4-44.2
	c24-28.9,7.4-46.5-13.1-38.2L207.6,507.9z"/>
<path id="XMLID_107_" class="st1" d="M425.9,494.8c-4.7-3.4-11.8-3.9-19.5-0.8l-198.8,13.9c-6.4,8.4-10.7,16.5-12.3,24.3
	C313.6,594.2,377.6,538.5,425.9,494.8z"/>
<path id="XMLID_106_" class="st0" d="M212.4,528.6c-74.7-88-108-221.9,0-288.1c10-8.2,19.2-5,27.8-3.7
	c21.2-23.1,44.8-36.1,77.6-10.6c12.9-20.1,36.2-30.1,64.5-10.8c0-30,0-58.3,0-82.5c-0.8-44.5,10.4-62.2,27.8-65.5
	c18.6,0,38.4,3.2,40.7,69.6c0.9,104.2-6.4,196.9-25.8,272.3C370.7,543.1,260.6,565.5,212.4,528.6z"/>
<path id="XMLID_105_" class="st1" d="M228.9,355.1c3.2,2.8,6.9,4.9,11.2,6.2c9,2.6,25.1,6.4,32.8-21.7
	c16.5-50.1,3.4-83.5-32.7-102.8c-14.8-2.4-24.5-1.4-27.8,3.7c27.6-1,75.5,28.4,52.3,89.3c-8,24.8-19.4,28-32.5,21.1
	c-12.8-16-20.9-35.7-22.7-60.3c1.1,15.8,2.3,32.4,8.2,47.3c2.4,6,5.4,11.5,10.3,15.8c5.7,5,9,11.5,14.3,17
	c4.8,5.1,11.7,8.8,18.6,7.7c2.4-0.4,4.6-1.3,7-1.5c3.7-0.3,7.3,1.1,10.8,2.2c9.4,2.9,20,3.1,28.8-1.4c2.9-1.5,5.6-3.5,8.7-4.7
	c9.9-4,21,0.8,31.6-0.4c9.8-1.1,18.2-7.1,27.1-11.4c2.7-1.3,5.5-2.4,7.8-4.3c2.4-1.9,4.2-4.4,5.9-7c8.9-13.9,13.4-30.6,12.9-47.1
	c-0.1-2.5-1.4-5.9-3.8-5.3c-2.2,13.8-4.7,28.1-12.7,39.6c-8.2,11.8-21.8,19.5-36.1,20.4c-9.9,0.6-19.9-1.8-29.6,0.1
	c-4.1,0.8-8,2.3-12,3.1c-10,2-20.3-0.2-30.2-2.4c-2.5-0.5-5-1.1-7.1-2.4c-2.5-1.5-4.8-4-7.7-3.9c-1.4,0-2.7,0.7-4,1.2
	c-8.2,3.5-17.7,3.9-26.1,1.1"/>
<path id="XMLID_104_" class="st1" d="M317.8,226.2c41.3,73.1,24.7,139.1-24.8,134.1c-14.8-1.3-23.7-5.3-28.4-11.3l-3.1,5.7
	c65.5,28.8,119.1-3.6,61.3-135.2L317.8,226.2z"/>
<path id="XMLID_103_" class="st1" d="M382.3,215.4c35.6,103.6-1.8,148.6-53,141.2l-6.3,0.8c26.5,6.9,52.5,9.3,73.3-38.9
	c10.2-38.7,2.3-77.1-14-109.8V215.4z"/>
<path id="XMLID_102_" class="st0" d="M217.4,532.1c25.2,25.1,110.7,22,151.6,0H217.4z"/>
<path id="XMLID_101_" class="st2" d="M244.8,264.9c-1.7-1.2-3.4-2.4-5.1-3.6c-1.7-1.2-3.4-2.4-5.4-3s-4.3-0.5-5.9,0.7
	c-1.8,1.7-1.3,4.7,0.1,6.7c1.4,2,3.4,3.6,4.7,5.6c2.3,3.5,2.2,8.1,3,12.2c0.7,4.2,3.1,8.8,7.3,9.4c1.9,0.3,3.9-0.4,5.7-1.2
	c1.1-0.5,2.2-1.1,3.1-2c2.7-2.7,2.5-7.2,2-11c-0.4-3-0.9-6.1-2.3-8.7s-4.2-4.8-7.2-4.8"/>
<path id="XMLID_100_" class="st2" d="M270.3,240.8c8.7,1.8,16.3,8.3,19.5,16.6c2.9,7.5,2.4,16.2,6.6,23.1c0.8,1.2,1.7,2.4,2.8,3.2
	c3.4,2.4,8.4,1.3,11.5-1.5c5.4-5.1,5.1-13.7,4.3-21.1c-0.3-2.6-0.5-5.3-0.8-7.9c-0.5-4.5-1-9.1-3.4-12.9c-4.7-7.5-14.9-9-23.7-9
	c-4.8,0-9.9,0.3-13.6,3.3c-2.1,1.8-3.5,5.1-1.7,7.3"/>
<path id="XMLID_99_" class="st2" d="M340.3,231.7c6.4,3.8,10.4,10.6,12.7,17.6s3.3,14.4,5.1,21.6c1,3.8,2.5,8,6.1,9.7
	c3.1,1.5,6.9,0.6,9.6-1.5s4.4-5.2,5.7-8.4c6-14.9,2.4-33.6-9.6-44.3c-2.1-1.9-4.4-3.5-7-4.4c-5.7-2-12.1-0.6-17.4,2.1
	c-2.8,1.4-5.7,4.8-3.9,7.3"/>
<path id="XMLID_98_" class="st2" d="M424,77.7c-2.6,0.6-5.2,1.2-7.8,1.9c-3.8,0.9-8.3,2.6-8.9,6.4c-0.3,1.8,0.2,4.1-1.3,5.1
	c4.4,2.6,8.8,5.2,13.1,7.8c1.6,0.9,3.2,1.9,4.4,3.2c4.2,4.5,3.3,11.5,4.2,17.6c0.4,2.8,1.3,5.7,3.2,7.8c1.9,2.1,5.1,3.2,7.8,2.1
	c2.3-1,3.7-3.4,4.1-5.8c0.4-2.4,0-4.9-0.4-7.3c-1-6.5-2.1-12.9-3.1-19.4c-0.6-3.6-1.2-7.3-3.5-10.2c-1.2-1.4-2.7-2.5-4.2-3.6
	c-3.3-2.3-6.5-4.6-9.8-7"/>
<path id="XMLID_97_" class="st0" d="M334.3,476.3c6.7-58.9,22.5-111.5,74.3-139.2c4.5-46.5,9.8-105.9,40.6-105.9
	c24.8,1.2,28.5,30.6,16.7,97.7c-9.8,101.8-37.2,176.8-96.8,203.3C312.2,547.8,292,535.7,334.3,476.3z"/>
<path id="XMLID_96_" class="st2" d="M409.1,331.9c4.5-45.6,10.4-100.7,40.1-100.7c13.6,0.7,20.9,9.8,22.7,29
	C455,219.4,419.4,240.6,409.1,331.9c-0.2,1.7-0.3,3.5-0.5,5.2"/>
<path id="XMLID_95_" class="st1" d="M408.6,337c-51,27.3-67.1,78.8-74,136.6C351.3,420.9,371.9,371.7,408.6,337z"/>
<path id="XMLID_94_" class="st2" d="M396.7,369.6c-2.8,0.3-4.9,2.6-6.6,4.9c-10.3,13.4-18.1,28.7-22.9,45c-0.8,2.6-1.3,5.9,0.6,7.8
	c0.3,0.3,0.8,0.6,1.3,0.6c0.6,0,1.1-0.6,1.5-1.1c3.8-5.2,7.6-10.5,11.4-15.7c1.5-2.1,3.3-4.3,5.8-4.7c2-9.1,5.7-17.9,11-25.6
	c1.9-2.8,4.2-6.2,3-9.4c-2.4-1.6-6-1.3-8.1,0.8"/>
</svg>
