<?xml version="1.0" encoding="utf-8"?>
<!-- Generator: Adobe Illustrator 19.0.0, SVG Export Plug-In . SVG Version: 6.00 Build 0)  -->
<svg version="1.1" id="Letra_N" xmlns="http://www.w3.org/2000/svg" xmlns:xlink="http://www.w3.org/1999/xlink" x="0px" y="0px"
	 viewBox="0 0 600 600" style="enable-background:new 0 0 600 600;" xml:space="preserve">
<style type="text/css">
	.st0{fill:#F9C29E;}
	.st1{fill:#E6A784;}
	.st2{fill:#F9CCB5;}
</style>
<ellipse id="XMLID_222_" class="st0" cx="304.5" cy="159.2" rx="146.6" ry="99"/>
<path id="XMLID_221_" class="st1" d="M451.1,159.2c0,54.7-65.7,99-146.6,99s-146.6-44.3-146.6-99C266.2,89.8,362.7,97.9,451.1,159.2
	z"/>
<path id="XMLID_220_" class="st0" d="M483.1,302.3c1.9,63-22.4,102.6-72.9,118.6V501c1.6,91.3-75.3,91.3-81.7,58.5
	c-16,28-74.5,23.2-74.5-12v-85.7c-28.9,0.1-50.7-14.4-65.7-42.5c-58.7-5.7-76.2-56.5-70.5-132.6c12.4-92.5,58.4-156.8,177.1-160.7
	c97-6.7,188.3,42.5,188.3,172.9"/>
<path id="XMLID_219_" class="st1" d="M424.7,323.1c-12.8,27.5-19.2,59.1-14.4,97.8c8.3-1.9,19-6.8,35.3-18.3
	C445.1,373.2,438.3,346.6,424.7,323.1z"/>
<path id="XMLID_218_" class="st1" d="M337.3,402.4c-4.5,38.9-6.9,96.1-8.8,157.1c-6.4,5.9-10.4,9.5-15.3,13.5L337.3,402.4z"/>
<path id="XMLID_217_" class="st1" d="M254,461.7l4.8-101.8c-18.3,28.9-32.7,59.4-38.5,93.6C226,457.7,236.1,460.7,254,461.7z"/>
<path id="XMLID_216_" class="st1" d="M188.3,419.3c-3.2-22.6-6.2-45.1-4.8-66.5c-13.6,21.9-23,43.1-17.5,61.5
	C172.9,419.5,180.3,420.9,188.3,419.3z"/>
<path id="XMLID_215_" class="st2" d="M225.9,150.8c9.6-16.5,128-21.5,146.6,0c9.8,10.4,9.8,21.6,0,16.8c-53.8-5.7-103.3-7.3-143.4,0
	C220.3,173.3,217.2,161.7,225.9,150.8z"/>
<path id="XMLID_214_" class="st2" d="M300.6,547.7c-6,4.1-14.1,5.1-21,2.4c-3.8-1.5-8.1-4-11.6-1.9c-3.2,1.9-3.3,6.8-1.1,9.8
	s6,4.3,9.6,5c7.3,1.3,15,0.5,21.9-2.4c2.2-0.9,4.4-2.1,5.9-4c1.5-1.9,2.1-4.6,1.1-6.7c-1.1-2.2-4.1-3.3-6-1.8"/>
<path id="XMLID_213_" class="st2" d="M385.9,529.4c-2.7,1.6-3.8,4.7-5.8,7.1c-4,4.6-10.7,5.4-16.7,5.9c-8,0.7-16.1,1.3-24.1,2
	c-1.4,5.6,1.4,11.9,6.5,14.7c1.5,0.8,3.1,1.3,4.8,1.7c8.9,2.1,18.5,1,26.6-3.2c4.7-2.4,9.1-6,11.3-10.9c2.2-4.8,1.9-11.1-1.7-15"/>
<path id="XMLID_212_" class="st2" d="M435.4,308.6c1.4,4.1,3.6,7.9,6.4,11.2c3.7-1.6,8.7,3.7,11.6,0.8c0.5-0.6,0.8-1.3,1-2
	c1-4.2-0.7-8.9-3.9-11.8c-3.3-2.9-7.8-4.1-12.2-3.7c-1.4,0.1-3.1,1.4-2.3,2.4"/>
<path id="XMLID_211_" class="st2" d="M214.1,387.7c2.8-5.1,4.3-10.9,4.5-16.8c-3.5-3.3-9.6-1.5-12.4,2.4s-2.9,9-2.7,13.8
	c0,1,0.1,2.1,0.6,3.1c1,1.9,3.7,2.6,5.7,1.8s3.5-2.7,4.2-4.8"/>
<path id="XMLID_210_" class="st2" d="M153.4,388c1.1-7.1,1.2-14.3,0.3-21.3c-0.4-3.4-1.7-7.5-5-8.2c-3.1-0.7-5.8,2-7.5,4.6
	c-2.3,3.6-3.9,8.1-2.7,12.2c1.9,6.1,9,8.6,15.3,9.9"/>
<path id="XMLID_209_" class="st1" d="M283,379.4c4.1-2,8.9-2.5,13.4-1.6c3.6,0.7,7.4,2.4,10.7,0.8c3.8-1.9,4.5-7.6,2-11.1
	c-2.5-3.5-7-4.9-11.3-5c-5.7-0.1-11.5,2-15.8,5.8c-1.4,1.2-2.7,2.8-2.5,4.6c0.2,2.6,3.2,3.9,5.7,4.6"/>
<path id="XMLID_208_" class="st1" d="M391.8,368.3c-2.8-0.4-5.4-2-8-3c-7.6-2.9-16.9-1.2-22.9,4.2c-1,0.9-1.9,1.9-2.4,3.2
	c-1.1,3.1,1.4,6.6,4.5,7.7c3.1,1.1,6.5,0.4,9.7-0.4s6.5-1.8,9.7-1.4c2.1,0.3,4.1,1.1,6.1,1.1c2.8-0.1,5.5-2.1,6.3-4.8
	c0.9-2.7-0.2-5.9-2.4-7.6"/>
<path id="XMLID_207_" class="st2" d="M321.2,68.7c-19.3-2.2-39.1-0.2-57.5,5.8c-9.3,3-18.7,7.4-24.5,15.3c-2.5,3.4-3.9,8.8-0.6,11.3
	c1.8,1.4,4.3,1.3,6.5,1.1c8.2-1,16-4,23.9-6.4c23.5-6.9,48.9-7.2,72.6-0.9c3.2,0.9,6.8,1.8,9.8,0.4c4.9-2.4,5-10,1.5-14.2
	c-3.5-4.2-9.2-5.8-14.4-7.2c-6-1.6-12-3.2-18-4.9"/>
</svg>
