<?xml version="1.0" encoding="utf-8"?>
<!-- Generator: Adobe Illustrator 19.0.0, SVG Export Plug-In . SVG Version: 6.00 Build 0)  -->
<svg version="1.1" id="Letra_B" xmlns="http://www.w3.org/2000/svg" xmlns:xlink="http://www.w3.org/1999/xlink" x="0px" y="0px"
	 viewBox="0 0 600 600" style="enable-background:new 0 0 600 600;" xml:space="preserve">
<style type="text/css">
	.st0{fill:#F9C29E;}
	.st1{fill:#E6A784;}
	.st2{fill:#F9CCB5;}
</style>
<path id="XMLID_16_" class="st0" d="M187.6,482.5c-26.3,26.1-25.2,51.3,13.3,74.9c60.3,32.8,141.5,32.7,208.8-8.9
	c34.8-26.1,36.4-57.7,7.6-68.2L187.6,482.5z"/>
<path id="XMLID_15_" class="st1" d="M435.6,496.3c-2.8-7-9-12.6-18.4-16.1l-229.7,2.2c-4.7,4.7-8.5,9.3-11.4,13.9
	C245.7,561.1,330,569.2,435.6,496.3z"/>
<path id="XMLID_14_" class="st0" d="M265.5,536.3c-68.2-8.3-128.2-77.4-118.2-146.5c7.5-54.4,11.1-108.1,8.3-160.6
	c-9.4-90.7,31.6-169,74.9-124.8c15.8-106.9,91.7-107,91.6-31.6c10.8-34.1,76.6-50.8,73.2,40.8c19.1-39.9,76.2-35,65.8,64.1
	c-3.7,58.3-18,122.7-15.8,194.8c7.4,75.3-21.9,108.4-74.1,144C346,536.6,310.5,543,265.5,536.3z"/>
<path id="XMLID_13_" class="st1" d="M321.4,416.9l-38.9-70.3c-21.8,25.6-18.3,58.6,12.1,64L321.4,416.9z"/>
<path id="XMLID_12_" class="st0" d="M476.1,420.2c19.1-42-10.8-98.2-99-98.1c-70.2-2.7-101,3.7-102.4,46.1
	c0.9,14.3,10.2,26,34.1,33.3c-20,13.5-35.8,32-44.9,58.3c-7,34.8,5,69.1,69.3,75C387.9,518.3,448.6,496.3,476.1,420.2z"/>
<path id="XMLID_11_" class="st1" d="M296.6,396.8c3.6,1.7,7.6,3.3,12.2,4.7c-20,13.5-35.8,32-44.9,58.3
	c15.2-17.1,29.8-38.3,49.1-31.6c27.9,4.4,55.1,6,76.6-15l11.7-3.3L296.6,396.8z"/>
<path id="XMLID_10_" class="st1" d="M409.7,95.5c-21.2,32.3-29.4,98.7-32.6,177l8.3-164.1l3.3-41c4.7,12.9,7.9,27.4,6.7,46.1
	C399.5,105.1,404.4,99.6,409.7,95.5z"/>
<path id="XMLID_9_" class="st1" d="M309.2,253.3c5.7-78.3,10-164.3,24.5-197.8c-4.1,3-8,8.5-11.6,17.2c-0.5-10.7-1.4-21-4.9-28.6
	C319.9,83.2,314.5,168.4,309.2,253.3z"/>
<path id="XMLID_8_" class="st1" d="M230.6,104.3l9.4-37c-14,42.3-10.7,126.6-12.3,209.3c0.4-71,4.7-154.9-8.3-181.1L230.6,104.3z"/>
<path id="XMLID_7_" class="st2" d="M477.6,373.7c-10.7-28-43.4-51.6-100.6-51.5c-70.2-2.7-101,3.7-102.4,46.1
	c0.7,10.2,5.6,19.1,17.1,26C272.2,372.2,278,342,321.4,337C384,331.5,438,340.4,477.6,373.7z"/>
<path id="XMLID_6_" class="st2" d="M313.9,36.4c-19.2-29.8-49.2-19-67.6,16.3C265.7,29.9,287.7,21.7,313.9,36.4z"/>
<path id="XMLID_5_" class="st2" d="M333.7,55.5c21.9-16.7,43.4-13.6,54.9,11.8C375.7,54.9,359.7,47.3,333.7,55.5z"/>
<path id="XMLID_4_" class="st2" d="M409.7,95.5c41.4-21.9,62.7,24.3,49.1,108.9C460.3,132.7,451.6,81.2,409.7,95.5z"/>
<path id="XMLID_3_" class="st2" d="M219.3,95.6c-33.2-16-57,20.4-64.3,88.2C170.1,128.1,188.7,87.1,219.3,95.6z"/>
<path id="XMLID_2_" class="st1" d="M211.4,289.9c52.5-15.7,112.6-17.4,177.2-10.7L211.4,289.9z"/>
<path id="XMLID_1_" class="st2" d="M233.8,555.2c36.7,7.7,73.3,15.5,121.6,2.7c4.3,0.5,9,3.1,0,8.9c-33.7,7.6-69.2,13.2-121.6,0
	C229.6,563.3,226.9,555.2,233.8,555.2z"/>
</svg>
