<?xml version="1.0" encoding="utf-8"?>
<!-- Generator: Adobe Illustrator 19.0.0, SVG Export Plug-In . SVG Version: 6.00 Build 0)  -->
<svg version="1.1" xmlns="http://www.w3.org/2000/svg" xmlns:xlink="http://www.w3.org/1999/xlink" x="0px" y="0px"
	 viewBox="0 0 24 24" style="enable-background:new 0 0 24 24;" xml:space="preserve">
<style type="text/css">
	.st0{fill:url(#XMLID_10_);}
	.st1{opacity:0.4;fill:#99D0E1;}
	.st2{display:none;}
	.st3{display:inline;fill:#CFCECE;}
	.st4{fill:#CFCECE;}
	.st5{fill:#942F2F;}
</style>
<g id="Camada_1">
	<linearGradient id="XMLID_10_" gradientUnits="userSpaceOnUse" x1="12" y1="-3.865352e-010" x2="12" y2="24">
		<stop  offset="0" style="stop-color:#65CBE4"/>
		<stop  offset="0.9796" style="stop-color:#1A1751"/>
	</linearGradient>
	<path id="XMLID_1_" class="st0" d="M22.5,24h-21C0.7,24,0,23.3,0,22.5l0-21C0,0.7,0.7,0,1.5,0l21,0C23.3,0,24,0.7,24,1.5v21
		C24,23.3,23.3,24,22.5,24z"/>
	<path id="XMLID_2_" class="st1" d="M17.3,3.5c-1.9,0-1.8-3.2,0-3.2C20,0.4,23-0.3,23.2,6.8c0,1.5-2.8,1.4-3,0
		C20,5,19.4,3.5,17.3,3.5z"/>
</g>
<g id="seta" class="st2">
	<path id="XMLID_3_" class="st3" d="M10.4,1.7L2.5,9.9l7.9,9.3V14c4.2,0,8.1,1.5,10.5,8.7c0-11.3-2.7-16.5-10.6-16.3L10.4,1.7z"/>
	<path id="XMLID_4_" class="st3" d="M25.7,6.2"/>
</g>
<g id="colcheia">
	<ellipse id="XMLID_5_" class="st4" cx="14.1" cy="19.5" rx="5.4" ry="3.8"/>
	<path id="XMLID_6_" class="st4" d="M9.5,19.6L9.5,19.6c-0.5,0-0.8-0.4-0.8-0.8V1.6c0-0.5,0.4-0.8,0.8-0.8h0c0.5,0,0.8,0.4,0.8,0.8
		v17.2C10.3,19.2,9.9,19.6,9.5,19.6z"/>
	<path id="XMLID_8_" class="st4" d="M4,10.2C3.1,6,4.2,1,9.2,0.8v6c-1.7,1-2.4,2.5-2.1,4.2c0.6,3.8-0.2,6.4-3.2,7
		C4.9,16.4,4.9,13.8,4,10.2z"/>
	<path id="XMLID_13_" class="st5" d="M12.4,1.8C6.6,1.8,2,6.3,2,11.9C2,17.4,6.6,22,12.4,22s10.4-4.5,10.4-10.1
		C22.8,6.3,18.2,1.8,12.4,1.8z M12.4,20.1c-4.7,0-8.6-3.7-8.6-8.3s3.8-8.3,8.6-8.3S21,7.3,21,11.9S17.1,20.1,12.4,20.1z"/>
	<polygon id="XMLID_7_" class="st5" points="16.3,3.9 5.6,18 8.1,20.1 19.1,5.3 	"/>
</g>
</svg>
