<?xml version="1.0" encoding="utf-8"?>
<!-- Generator: Adobe Illustrator 19.0.0, SVG Export Plug-In . SVG Version: 6.00 Build 0)  -->
<svg version="1.1" id="Auron" xmlns="http://www.w3.org/2000/svg" xmlns:xlink="http://www.w3.org/1999/xlink" x="0px" y="0px"
	 viewBox="0 0 378 257.5" style="enable-background:new 0 0 378 257.5;" xml:space="preserve">
<style type="text/css">
	.st0{fill:#D09818;}
	.st1{fill:#BF8716;}
	.st2{fill:#E0A632;}
	.st3{fill:#F9C19D;}
	.st4{fill:#595959;}
	.st5{fill:#D3D3D3;}
	.st6{fill:#A5413C;}
	.st7{fill:#D8D8D7;}
	.st8{fill:#C1C1C1;}
	.st9{fill:#114B81;}
	.st10{fill:#153D68;}
	.st11{fill:#1E6093;}
	.st12{fill:#2D709E;}
	.st13{fill:#1D1D1D;}
	.st14{fill:#B37B0E;}
</style>
<g id="Cabeça">
	<g id="CabeloTras">
		<path class="st0" d="M113.3,90.9c-8.3-1.1-19,3.7-17.9,23.5c1.2,8.2,1.1,15.9-1.5,22.5c1.8-0.1,3.2-0.7,4.3-1.9
			c0.9,3.6,2.9,6.3,6.2,8c-1.3-1.3-0.7-3.1,0-4.9l35.6,2.9c0.4,1.3,0.8,2.6,0,3.8c3.5-0.5,6.2-3.4,8.4-7.8c1.3,1.7,2.7,3.5,4.1,5.3
			c-1-5.4-1.5-10.9,0-16.8c4.1-16,0.1-30.5-14.6-36.3C128.4,85.3,119.9,84.7,113.3,90.9z"/>
		<path class="st1" d="M152.6,124.8c-0.1,0.2-0.1,0.5-0.2,0.7c-1.5,5.9-1,11.4,0,16.8c-1.4-1.8-2.8-3.6-4.1-5.3
			c-2.2,4.4-4.9,7.2-8.4,7.8c0.8-1.3,0.4-2.5,0-3.8l-35.6-2.9c-0.7,1.8-1.3,3.6,0,4.9c-3.3-1.7-5.2-4.4-6.2-8
			c-1,1.2-2.4,1.9-4.3,1.9c1.4-3.6,2.1-7.5,2.2-11.6c0.9,1.7,1.6,3.4,1,4.9c1.5-0.7,2.9-1.4,3-2.8l1.9,3.3l44.9-0.6l2-3.4l0.6,0.7
			C150.6,126,151.5,124.8,152.6,124.8z"/>
		<path class="st2" d="M128.8,91c9.3,1,14.8,5.4,17.6,12.1l-0.5-2.5l1.3,2l-0.5-2l2,1.5c-3.8-9.2-10.1-12-17.9-13l0.8,0.7H129
			l1.4,0.6L128.8,91z"/>
		<path class="st2" d="M109,93.5c-6,3.8-8.6,9.2-9.5,15.4l-0.3-0.9l0.3,9.5l-0.3-0.2c0.3,2.4,0.2,4.6-0.7,6.4c0.1-1.4-0.4-2.3-1.3-3
			v1.4c-1.2-12.6-1.8-24.8,11.3-29.8l-0.5,0.7l2.4-0.7l-0.9,0.7l0.9-0.3L109,93.5z"/>
		<path class="st2" d="M147.9,106.4c1.5,5.2,2.7,10.4,2.1,15l0.9-1.9l0.3,1.6c1.4-5.5,1.9-10.9-1.6-15.7l-0.4,1.2l-1.2-0.8V106.4z"
			/>
	</g>
	<path id="Rosto" class="st3" d="M142.8,109c2.2,10.4,1.8,20.4,0,30.3c-1.5,8.3-37.7,8.4-38.9,0c-0.9-8.5-1.1-17.8-0.8-27.8l4.9-8.4
		l28-3.3L142.8,109z"/>
	<g id="Boca">
		<path class="st4" d="M116.8,138.4c-0.3,2.7-0.5,5.4,1.1,7c4.8,0.3,9.5,0.5,12.9-0.3c0.9-2.1,1.6-4.3,1.3-6.7
			c-0.6-1.8-1.5-3.2-4.4-3.1l-7.6,0C118.3,135.4,117.2,136.3,116.8,138.4z"/>
		<path class="st5" d="M131.5,137c-0.7-1.1-1.7-1.8-3.8-1.7l-7.6,0c-1.1,0-2,0.4-2.6,1.2C118.7,137.5,127.1,137.2,131.5,137z"/>
		<path class="st6" d="M132,141.5c-0.2,1.2-0.7,2.4-1.2,3.6c-3.4,0.8-8.1,0.5-12.9,0.3c-1-1-1.3-2.3-1.3-3.9
			C119.2,138.4,127.8,137.8,132,141.5z"/>
	</g>
	<g id="Olho_1">
		<path id="XMLID_2_" class="st7" d="M132,119l7.3,0l1.2,0.9l0.7,0.7c-0.2,4.1-0.6,7.9-1.7,10.7c-3.5,0.8-7.1,1.3-11.3-0.3
			c-2.3-2.4-3.2-6-2.4-11.2C128,119.2,130.6,118,132,119z"/>
		<path id="XMLID_1_" class="st8" d="M141.1,121.6c0-0.4,0-0.7,0.1-1.1l-0.7-0.7l-1.2-0.9l-7.3,0c-1.4-0.9-3.9,0.2-6.2,0.7
			c-0.1,0.6-0.2,1.1-0.2,1.6C131,120.8,136.1,121.1,141.1,121.6z"/>
		<ellipse id="XMLID_90_" class="st9" cx="133" cy="125.3" rx="4.2" ry="6.4"/>
		<ellipse id="XMLID_93_" class="st10" cx="133" cy="125" rx="1.7" ry="4.2"/>
		<path id="XMLID_95_" class="st10" d="M128.8,125.3c2.4-4.2,6.3-4.2,8.5,0c0-3.8-1.8-6.4-4.2-6.4
			C130.3,119,128.8,121.8,128.8,125.3z"/>
		<path id="XMLID_96_" class="st11" d="M130.9,126.6c0.9,3.2,2.5,4.7,4.3,0c0.4-0.6,1.4,0.2,1.1,1.7c-0.5,1.6-1.6,3-3.6,2.9
			c-1.6,0-2.7-1.9-3.3-4.2C129.3,126.2,130.8,125.8,130.9,126.6z"/>
		<path id="XMLID_97_" class="st12" d="M130.8,128.4c1.7,2.3,3,2.1,4.1,0c0.3-0.5,0.9,0.4,0.5,1.3c-1.1,1.6-3.5,1.7-4.6,0.1
			C130.2,129,130.4,128.3,130.8,128.4z"/>
		<path id="XMLID_94_" class="st7" d="M132.9,120.9c0.4-0.9-0.4-1.9-1.5-1.1c-1.2,0.8-1.8,1.8-1.5,2.7c0.3,0.7,0.8,0.8,1.4,0.6
			C131.8,122.8,132.3,122.1,132.9,120.9z"/>
		<path id="XMLID_98_" class="st7" d="M133.3,121.9c-0.4-0.2-0.9,0.4-0.9,0.8C132.4,123.4,133.7,122.5,133.3,121.9z"/>
		<path id="XMLID_111_" class="st13" d="M139.9,120.3c0.5,1.1,0.6,2.3,0.5,3.6c0,1.2,0.2,1.5,0.5,0.6l0.9-4.8L139.9,120.3z"/>
		<path class="st13" d="M125.8,119.7c4.7-1,9.4-0.4,14.1,0.6l1.2,0.2l0.6-0.8C138.9,117.6,131.9,116.1,125.8,119.7z"/>
	</g>
	<g id="Olho_2">
		<path id="XMLID_12_" class="st7" d="M116.1,118.7l-7.3,0l-1.2,0.9l-0.7,0.7c0.2,4.1,0.6,7.9,1.7,10.7c3.5,0.8,7.1,1.3,11.3-0.3
			c2.3-2.4,3.2-6,2.4-11.2C120,118.9,117.4,117.8,116.1,118.7z"/>
		<path id="XMLID_11_" class="st8" d="M106.9,121.4c0-0.4,0-0.7-0.1-1.1l0.7-0.7l1.2-0.9l7.3,0c1.4-0.9,3.9,0.2,6.2,0.7
			c0.1,0.6,0.2,1.1,0.2,1.6C117,120.6,111.9,120.9,106.9,121.4z"/>
		<ellipse id="XMLID_10_" class="st9" cx="115" cy="125.1" rx="4.2" ry="6.4"/>
		<ellipse id="XMLID_9_" class="st10" cx="115" cy="124.8" rx="1.7" ry="4.2"/>
		<path id="XMLID_8_" class="st10" d="M119.3,125.1c-2.4-4.2-6.3-4.2-8.5,0c0-3.8,1.8-6.4,4.2-6.4
			C117.7,118.7,119.3,121.6,119.3,125.1z"/>
		<path id="XMLID_7_" class="st11" d="M117.1,126.4c-0.9,3.2-2.5,4.7-4.3,0c-0.4-0.6-1.4,0.2-1.1,1.7c0.5,1.6,1.6,3,3.6,2.9
			c1.6,0,2.7-1.9,3.3-4.2C118.7,126,117.2,125.6,117.1,126.4z"/>
		<path id="XMLID_6_" class="st12" d="M117.2,128.2c-1.7,2.3-3,2.1-4.1,0c-0.3-0.5-0.9,0.4-0.5,1.3c1.1,1.6,3.5,1.7,4.6,0.1
			C117.8,128.8,117.7,128.1,117.2,128.2z"/>
		<path id="XMLID_5_" class="st7" d="M115.2,120.7c-0.4-0.9,0.4-1.9,1.5-1.1c1.2,0.8,1.8,1.8,1.5,2.7c-0.3,0.7-0.8,0.8-1.4,0.6
			C116.2,122.6,115.7,121.9,115.2,120.7z"/>
		<path id="XMLID_4_" class="st7" d="M114.7,121.7c0.4-0.2,0.9,0.4,0.9,0.8C115.6,123.1,114.3,122.2,114.7,121.7z"/>
		<path id="XMLID_3_" class="st13" d="M108.1,120.1c-0.5,1.1-0.6,2.3-0.5,3.6c0,1.2-0.2,1.5-0.5,0.6l-0.9-4.8L108.1,120.1z"/>
		<path class="st13" d="M122.2,119.5c-4.7-1-9.4-0.4-14.1,0.6l-1.2,0.2l-0.6-0.8C109.2,117.4,116.1,115.9,122.2,119.5z"/>
	</g>
	<g id="Sombrancelhas">
		<path class="st0" d="M126.2,116.5c5-0.9,10-1.7,13.7,0.4c-0.9-2.3-2.1-4.1-4.4-4.2C129.5,112.5,127.2,114.2,126.2,116.5z"/>
		<path class="st0" d="M110.8,114.8c2.8-0.3,5.8-0.1,9.3,1c-2-3.6-4.5-5-7.6-4.2L110.8,114.8z"/>
	</g>
	<g id="Cabelo_Frente">
		<path class="st0" d="M141.1,142.3c1.8-8,2.9-15.6,2.2-22.2l-0.7,1.3c-1.1-4.3-2.4-8.3-4.5-10.9c-2,3.9-3.5,7.9-4.4,12
			c-4.2-4.8-7.2-10.2-9-16.1c-1.4,3.3-2.2,7-2.3,11.2c-2.3-3-3.8-6.5-3.8-11c-3.5,5.7-7.7,10.7-12.9,14.8c-0.8,7.7-1.1,14.8-0.3,21
			c-2.7-2.2-5.6-11.4-4-29.3l4.8-13.2l28.1-1.8l10.7,7.8l4,12.1v4.4C148.7,131.8,145.6,137.9,141.1,142.3z"/>
		<path class="st14" d="M149,122.4c-0.4,9.4-3.5,15.5-7.9,20c1.8-8,2.9-15.6,2.2-22.2l-0.7,1.3c-1.1-4.3-2.4-8.3-4.5-10.9
			c-2,3.9-3.5,7.9-4.4,12c-4.2-4.8-7.2-10.2-9-16.1c-1.4,3.3-2.2,7-2.3,11.2c-2.3-3-3.8-6.5-3.8-11c-3.5,5.7-7.7,10.7-12.9,14.8
			c-0.8,7.7-1.1,14.8-0.3,21c-2.4-1.9-4.8-9.1-4.4-22.6c0.3,3.2,0.6,6.2,1.5,8c0.1-3.4,0.3-6.6,1.1-9c3.2-3.3,5.7-6.7,7.1-10.3v2.2
			c3.1-3.3,5.9-6.4,7.9-8.4l2-1.6c-0.5,3.3-0.4,6,0.7,8c0.6-2.7,1.6-5,3.7-6.4c2.4,4.3,4.9,8.6,7,10.8l3.2-4.8l0.4,0.8l1.7-2.4
			c2.4,3.2,4.8,6.3,6,9.7l0.3-1.8c1.1,5,2.3,9.9,1.3,17.2C146.6,128.9,148.1,126,149,122.4z"/>
		<path class="st14" d="M118.7,92.3c-5.7-1.3-10.4,1.4-14.2,7.3C109.3,96.1,114,92.3,118.7,92.3z"/>
		<path class="st14" d="M124.3,92c10.3-0.4,18.1,2.9,20.7,13.8C141.4,98.7,136.3,92.7,124.3,92z"/>
		<path class="st14" d="M103,105.1c-1.8,2.4-2.1,5.7-1.9,9.3C101.5,110.9,102,107.6,103,105.1z"/>
		<path class="st2" d="M119.5,93.7c-3.6,0-7.7,1.8-12.4,6.1h1.2c-3.9,2.7-5.1,7.7-5.4,13.4l0.9-2.2l-0.9,5.5l0.5-0.8
			c3.2-3.4,6.1-7,7.6-11l0.2,2.3c2.6-2.2,4.7-4.5,5.8-6.8l-0.1,1.2c1.9-1.8,3.7-3.5,5.8-2.9c-1,1.4-1.4,2.7-1.2,4
			c1.2-1.3,2.4-2.4,4-1.9l4.9,7.2l1.6-1.6l0.4,0.7l2.3-2.1l0.1,0.6l1.6-1.8c2.8,2.7,5.5,5.3,6.4,7.7l0.4-1.1c1.7,4.9,3.2,9.7,3,13.4
			c0.7-8.1,1.5-16.3-8.4-25.4l1,0.1c-4.5-3.1-9-6-15.5-4.7l1.1-0.7l-2.5,0.8l-2.2-0.8L119.5,93.7z"/>
	</g>
</g>
</svg>
