<?xml version="1.0" encoding="utf-8"?>
<!-- Generator: Adobe Illustrator 19.0.0, SVG Export Plug-In . SVG Version: 6.00 Build 0)  -->
<svg version="1.1" id="Auron" xmlns="http://www.w3.org/2000/svg" xmlns:xlink="http://www.w3.org/1999/xlink" x="0px" y="0px"
	 viewBox="0 0 378 257.5" style="enable-background:new 0 0 378 257.5;" xml:space="preserve">
<style type="text/css">
	.st0{fill:#BABABA;}
	.st1{fill:#A8A8A8;}
	.st2{fill:#77461C;}
	.st3{fill:#F9C19D;}
	.st4{fill:#212121;}
	.st5{fill:#0F0F0F;}
	.st6{fill:#888333;}
	.st7{fill:#776F28;}
	.st8{fill:#263C83;}
	.st9{fill:#324C93;}
	.st10{fill:#19355E;}
</style>
<g id="Corpo">
	<g id="Camisa">
		<path class="st0" d="M114.7,146.9c2.9-4.9,14.1-4.9,20.1,0l-2.7,38.3l-19.5-1.8L114.7,146.9z"/>
		<path class="st1" d="M118.4,150.8"/>
		<path class="st1" d="M116.6,151.2l-2.8,32.3l2.8,0.3c3.6-10,3.4-21.3,1.8-33c-0.4-2.8-0.9-5.2-1.6-6.6l-0.7,1.2L116.6,151.2z"/>
		<path class="st1" d="M130.2,149.8l1.3,10.3l0.5,23.7l-2.5,1.4c1.2-10.1,0.4-22.1-1.1-35v-6.1l2,2.8L130.2,149.8z"/>
		<path class="st2" d="M131,151.7c-5.6,6.9-10.8,13.1-15.1,17.7v5.4c6.8-5.4,12.5-11.5,16.9-18.4L131,151.7z"/>
		<ellipse class="st3" cx="123.3" cy="145.3" rx="4.3" ry="3.2"/>
		<path class="st1" d="M126.4,148.6c-2.5,1.5-4.8,1.1-7,0C122.6,149.6,124.5,149.1,126.4,148.6z"/>
	</g>
	<g id="Cinto">
		<path class="st4" d="M111.7,182.2c6.5,1.3,13.2,1.7,20.3,0.6l-0.5,3.6c-6.7,2.6-13.6,2.4-20.6-0.3L111.7,182.2z"/>
		<path class="st5" d="M114.7,187.2c-1.2-0.3-2.5-0.7-3.8-1.2l0.7-3.8c1.6,0.3,3.2,0.6,4.9,0.8L114.7,187.2z"/>
		<path class="st5" d="M129.4,187c0.7-0.2,1.4-0.4,2.1-0.7l0.5-3.6c-0.8,0.1-1.6,0.2-2.3,0.3L129.4,187z"/>
		<path class="st6" d="M124.9,183.1h-4.7c-0.5,0-1,0.4-1,0.9v3.3c0,0.5,0.4,0.9,1,0.9h4.7c0.5,0,1-0.4,1-0.9V184
			C125.8,183.5,125.4,183.1,124.9,183.1z M125.2,187.1c0,0.4-0.3,0.7-0.7,0.7h-3.9c-0.4,0-0.7-0.3-0.7-0.7v-3c0-0.4,0.3-0.7,0.7-0.7
			h3.9c0.4,0,0.7,0.3,0.7,0.7V187.1z"/>
		<rect x="119.8" y="185.2" class="st6" width="1.3" height="0.6"/>
		<rect x="119.8" y="185.2" class="st7" width="0.2" height="0.6"/>
	</g>
	<g id="Jaqueta">
		<path class="st8" d="M128.8,148.6c2.6,13,2.9,26.8,0.6,41.4c4.9-4.8,9.2-9.4,11.2-13.3c0.2-4.2,0.3-8.2-0.6-10.5
			c1.1-3,0.8-6-0.2-9.1c1.5-4.7,1-9.7-0.7-14.9l-10.3,1.4L128.8,148.6z"/>
		<path class="st8" d="M117.6,146.6c2,14.6,2.3,29-4.3,42.3c-1.5-0.5-3-1-2.7-2.1c-3.4,0.1-6.1-0.5-7.6-2.2c0.8-2.4,1.6-4.7,2.1-6.1
			c-0.1-1.5,0-2.9,1.2-3.8c-1.2-3.1-1.6-6.2,0.9-9.3c-0.9-6.2-1.3-12-0.3-16.7l4.8-6.2l5.1,0.4L117.6,146.6z"/>
		<path class="st9" d="M129.1,150.1c2.6,13.1,2,25.2,0.7,37.2c2.8-10.3,5.4-20,7.1-23.8l-3.5-3.5l2.2-3.7l-5.1-7.1l-1.6-2.3l0,1.7
			L129.1,150.1z"/>
		<path class="st9" d="M114.3,186.7c0.6-8-0.3-14.7-2.3-20.6l4.1-3.2c-0.4-2.7-2.3-4.5-4.4-6.3c2.9-2.6,4.8-5.3,6.2-8
			C120.1,163.7,119.1,176.6,114.3,186.7z"/>
		<path class="st10" d="M107.2,165.5l0.9,5.9l-2.7-2.2C105.7,167.8,106.3,166.5,107.2,165.5z"/>
		<path class="st10" d="M140.6,175.2c0-3.1-0.9-5.3-2.6-6.7l1.9-2.2C140.7,168.7,140.7,171.9,140.6,175.2z"/>
		<path class="st10" d="M139.8,157.2l-1.1-3.7v-0.5c-0.7-2.3-0.7-4.8,1.2-7.6C140.9,148.9,140.9,152.8,139.8,157.2z"/>
		<path class="st10" d="M106.3,174.8l2.8,2.8c-1.2,1.4-2.5,1.7-4,0.9C104.9,177.2,105.1,175.9,106.3,174.8z"/>
	</g>
	<g id="Cachecol">
	</g>
</g>
</svg>
