<?xml version="1.0" encoding="utf-8"?>
<!-- Generator: Adobe Illustrator 19.0.0, SVG Export Plug-In . SVG Version: 6.00 Build 0)  -->
<svg version="1.1" xmlns="http://www.w3.org/2000/svg" xmlns:xlink="http://www.w3.org/1999/xlink" x="0px" y="0px"
	 viewBox="0 0 378 257.5" style="enable-background:new 0 0 378 257.5;" xml:space="preserve">
<style type="text/css">
	.st0{fill:url(#SVGID_1_);}
	.st1{opacity:0.56;fill:url(#SVGID_2_);}
	.st2{opacity:0.9;fill:url(#SVGID_3_);}
	.st3{opacity:0.56;fill:url(#SVGID_4_);}
	.st4{opacity:0.24;fill:url(#SVGID_5_);}
	.st5{fill:#3E739E;}
	.st6{fill:#2F6193;}
	.st7{fill:#168442;}
	.st8{fill:#1E9D49;}
	.st9{fill:#666666;}
	.st10{fill:#494949;}
	.st11{fill:#727272;}
	.st12{fill:#916D26;}
	.st13{fill:#9E7B2D;}
	.st14{fill:none;}
	.st15{fill:#80481D;}
	.st16{fill:#935724;}
	.st17{fill:#A0602F;}
	.st18{fill:#753D17;}
	.st19{fill:#9BDBEF;stroke:#77C6D8;stroke-miterlimit:10;}
	.st20{fill:#77C6D8;}
	.st21{fill:#BDE6F2;}
	.st22{fill:#991C1F;}
	.st23{fill:#8D8633;}
	.st24{fill:#A29634;}
	.st25{fill:#7C742E;}
	.st26{fill:#938A38;}
	.st27{fill:#938A39;}
	.st28{fill:#AB2834;}
	.st29{fill:#1B9999;}
	.st30{fill:#29AAAA;}
	.st31{fill:#239947;}
	.st32{fill:#37AD50;}
	.st33{fill:#989937;}
	.st34{fill:#A7A440;}
</style>
<g id="Cenario">
	<g id="Camada_58">
		<linearGradient id="SVGID_1_" gradientUnits="userSpaceOnUse" x1="254.4905" y1="200.9934" x2="254.4905" y2="-55">
			<stop  offset="0" style="stop-color:#FFFFFF"/>
			<stop  offset="0.9898" style="stop-color:#008BE9"/>
		</linearGradient>
		<rect x="-1689.7" y="-55" class="st0" width="3888.4" height="256"/>
	</g>
	<g id="Nuvens">
		<g id="Nuvem_1">
			<linearGradient id="SVGID_2_" gradientUnits="userSpaceOnUse" x1="187.0416" y1="112.1769" x2="277.1535" y2="112.1769">
				<stop  offset="0" style="stop-color:#FFFFFF"/>
				<stop  offset="0.9898" style="stop-color:#E5E5E5"/>
			</linearGradient>
			<path class="st1" d="M193.3,124.2l79.9,1.1c6.8,0.3,5.2-9.3-7.3-10.4c-2.5-3.5-5.5-6.7-13.2-5.6c-3.3-4.4-7.2-7.9-13.7-6.4
				c-5.5-4.2-10.6-5.5-15-1.6c-6.1-1.8-9.6-0.7-11.1,2.6c-4.2-1.8-7.4-0.5-9.6,4.1c-2.5,0.1-4.7,1-5.8,5.3
				C184.8,116.7,184,123.7,193.3,124.2z"/>
		</g>
		<g id="Nuvem_2">
			<linearGradient id="SVGID_3_" gradientUnits="userSpaceOnUse" x1="148.7056" y1="77.2327" x2="224.2089" y2="77.2327">
				<stop  offset="0" style="stop-color:#FFFFFF"/>
				<stop  offset="0.9898" style="stop-color:#E5E5E5"/>
			</linearGradient>
			<path class="st2" d="M156.4,89.9l61-0.7c9.3,0.7,9-13.2,0-13.8c-1.8-3.2-4.2-5.6-9.3-4.7c-3.2-4.8-7.3-7.4-14.6-3.7
				c-4.6-3.2-9.5-3.5-14.7,1c-4-0.6-8.1,0-12.2,5.5c-5.6,0.9-11.3,1.8-10.1,7C145.6,81.6,146.7,89.7,156.4,89.9z"/>
		</g>
		<g id="Nuvem_3">
			<linearGradient id="SVGID_4_" gradientUnits="userSpaceOnUse" x1="9.7798" y1="124.689" x2="82.0738" y2="124.689">
				<stop  offset="0" style="stop-color:#FFFFFF"/>
				<stop  offset="0.9898" style="stop-color:#E5E5E5"/>
			</linearGradient>
			<path class="st3" d="M71,137.3L12.6,138c-4.7-1.4-4-9.8,5.7-10.8c0.3-4.9,1.4-9,9.3-6.9c2.4-8.7,7.6-10.7,15-7.4
				c4.3-3,9-1.7,13.9,2.7c-0.2,0.9-0.3,1.8-0.3,2.7c0,0.2,0,0.4,0.1,0.6c0.1,0.2,0.4,0.2,0.5,0.1c0.4-0.8,0.4-1.8,0-2.6
				c5.7-0.6,11.5-1.3,14.4,4.3c4.5,1.6,6.1,4.6,5.4,8.6C86.9,135.7,81.3,137.2,71,137.3z"/>
		</g>
		<g id="Nuvem_4">
			<linearGradient id="SVGID_5_" gradientUnits="userSpaceOnUse" x1="274.9839" y1="55.3333" x2="274.9839" y2="21.1012">
				<stop  offset="0" style="stop-color:#FFFFFF"/>
				<stop  offset="0.9898" style="stop-color:#E5E5E5"/>
			</linearGradient>
			<path class="st4" d="M255.4,55.3l75.3,0c9,0,6.7-8.4-1.4-12.7c-1.2-4.6-3.8-8.2-11.3-8.7c-3.7-7.6-8.8-12.7-18.7-9.7
				c-4.9-2.1-8.8-5.4-19-0.9c-7.9-2.9-14.9-3.8-19.7,1.2c-8.5-1-13.3,1.4-14.6,7c-13.1-3.1-11.9,3.3-13.1,8c-5.5,0.6-10.5,1.4-8.2,7
				c-9,0.5-17,8.7-5.7,8.7L255.4,55.3z"/>
		</g>
	</g>
	<g id="Montanha">
		<path class="st5" d="M79.5,195.7l-621.9,8.2l-1147.3,19v-59c6.3-40.5,30.3-39,39.8-0.5c10.5,40.5,46.3,31.2,54.5-2
			c18.9-49,37.7-34.9,56.5-3c22.8,31,45.6,28.4,68.5-6.5c13.7-29,32.4-36.4,60.5-2.7c31,38.5,58.2,32.7,83,0
			c24.5-36.3,48.4-34.5,72-2.3c25.2,42,51.3,27.8,77.5-3.5c27.5-36,63-31.5,105.5,17c27.5,5.7,52.8-1,74.5-28.5
			c24-31.7,49-26.9,74.5-0.5c40,32.3,82,25.5,104-1.5c19.9-23.7,40.6-24.8,63,0c39.6,28.3,77.7,15.7,115-16.1
			c31-26.8,62.5-24.8,74,0.5c5.6,12.1,12.3,22.4,24.5,24.1l21.2-1.2c8.8,9.2,15.6,2,22.5-3.4c10.7-11.5,22.7-11.5,35.8,0
			c20.7,13.8,46.7,19.2,74,22.3c5.7-3.4,11.2-7,15-11.9c14.8-17.4,28.1-9.6,41.2,0c18,12.1,38,17.6,60.8,13.9l13.3-9
			c14.2-10,29.4-8.2,45.2-0.3c10.6,5.7,23.6,8.9,37.7,11l24.5-14.4c18.2-12.1,34-8.4,48.9,0.8c11.6,9.3,30.6,11.3,53.2,9.7
			c7.9-1,14.8-2.9,18.8-7.3c11.5-13.4,22.9-10.2,34.2,0.5c10.7,6.4,23.7,10,39,10.3l27-15c20.3-15.3,42-15.3,65,0
			c27.4,16.6,53,24.5,71.5,0c12.5-20.3,40-16.5,54.5,0c14.9,17.5,32,23.5,55,0c13.8-18,49-27.8,79.5,0c24.3,17.7,44.9,19.6,60.5,0
			c19.6-17.6,37.6-20.7,56,0c24.1,18.4,45.7,19.9,64-0.5c16.2-25.4,35.4-20,56,0c20.4,14.1,40.1,17.5,58.5-2
			c10-11.5,22.8-16.2,44-0.5c14.4,10.7,28.6,22.6,49-1c11.7-15.4,25.7-18.8,44-1c18.5,15.3,34.4,39.4,67,5
			c11.5-11.1,27.3-12.4,48.5-1.5c15.8,8.6,30.3,23,53.5-2.5c8.4-6.3,13.2-17,39.5-0.5c22.9,12.2,37.2,12.8,42.5,1
			c7.3-14.5,18.2-15.9,34-0.5c17.7,16.2,34.7,18.9,50.5,2c7.4-11.2,15.8-20.3,38-1c17.8,17.6,34.2,15.8,49.5-0.5
			c6.7-7.3,22-25.5,44-1c10.3,13.4,21.5,24.2,43,0c10.1-13.3,21.7-18.7,39,4.5c9.1,11.9,17.3,26.6,39.5,0.5
			c11.2-17.7,23.8-27.4,42.5-0.5c14.7,21.8,30.1,28.6,47-2c8.1-13.4,31.5-30.5,60.5-1.5c14.9,10.6,25.9,29,61.5-0.5
			c16.7-16.4,30.5-17.9,41-1c14.2,20.8,40.5,33,57.5-1c6.3-12,28-18,55.5,3c12.8,9.1,23.6,26.8,44.5,1c8.4-11.4,17.2-22,38.5-2
			c19.5,17.9,35,20.6,44.5,0.5c5.9-12.9,16.5-19.9,48-1c19.3,13.5,38.7,27.5,55,1c6.9-11.8,30.5-19,47-0.5
			c14.4,18.7,29.4,30.2,47.5,0c7.9-15.2,18.9-24.5,49,1.5c14,9.1,27.6,22.6,43.6,1.5v58L79.5,195.7z"/>
		<path class="st6" d="M-542.4,200.1l612,0.1l2129.1,1.3v-44.6c-16.3-27.7-33.6-37.4-53.1-3c-13,14.6-26.7,18.7-42,1.5
			c-17-28.5-40.5-21.7-58,3.3c-10,8.8-19.3,12.3-26.5,0c-21-26.6-43.1-32.8-67.5,0c-11.7,6-23,7.9-33,0c-18.4-18.8-37.5-32.9-65,0
			c-6.3,9.4-13,11.8-20.5,0c-19.1-22.9-38.8-35.4-61.5,0c-7.7,12.9-18.9,18.5-41,2.2c-27.5-30-50.7-32.4-68,2.5
			c-9.9,6.5-20.6,7.9-32.5,0.5c-24.7-23.7-48.9-36.3-71-1.5c-5.5,8.5-28,17.5-46,1.5c-26-28.2-45.3-26.3-59.5-0.5
			c-5.3,7.5-22,13.5-29.5,3.2c-21.8-29.6-39.5-33.3-53.5-14.7c-5.8,7.7-14.1,15.4-28,0.5c-22.3-29-43-25.5-62.5,0.5
			c-4.7,4.7-13.5,11.5-23.5,1c-24.8-22.3-45.8-24.8-61.5,1c-5.1,9-12.1,14.1-27,3.8c-19.5-22.1-38.5-33.5-56,0
			c-5.5,12.7-15.6,12.1-25.3-3.3c-15.2-27.5-39.3-38.1-64.7-2.5c-6.5,7.1-12.7,8.1-18.5,0.5c-10-18-42-32.9-69.5,2.5
			c-6.7,7.8-12.7,16.8-32.5,2.8c-27.6-20.8-54.1-33.2-73.5,3.7c-9.3,12.6-20.2,16.1-35-3.7c-21.8-28.2-42.9-47.9-58,0
			c-3,15.7-19.2,13.7-35-4.3c-21-32-52.8-34.9-81-0.5c-9.8,13.2-20.5,17-33,0.5c-5.1-17.8-55.8-38.5-82,1c-9.7,15.5-19,21.1-37,0
			c-26-31.5-56.5-34.6-88.5,3.3c-11.5,16.2-30.4,23.4-50.5-0.4c-17-29.1-56.4-42.6-83,1.5c-9,12.3-18.9,12-29.5,0
			c-24.6-23.4-49.6-35-76.5,0c-7.4,16.2-59.2,14.9-74.3-3.2c-1.7-1.3-3.2-2.8-4.7-4.3c-12.9-14.6-27.3-21.6-47,0
			c-22.7,15.8-39.5,12.7-53.3,0c-16.3-12.8-33.2-15.5-50.9,0.2c-31.2,26.3-52.5,19.1-69.9-1.6c-14.3-19-29.7-22.7-46.6-0.2
			c-22.9,24.8-43.2,22.3-57.3-1c-7-16.3-33.2-26.7-63.3-1.4c-11.4,10.8-22.9,9.7-34.4,9.9c-12.5-2.7-22.9-10-31.3-22.1
			c-20.1-22.2-40.1-23.5-60-0.9c-21,17.8-40,19.1-56.3-0.3c-10.6-16.7-21.3-26.2-32.3-9.7c-25.2,24.6-53.7,28-86,8.3
			c-47.8-29.7-92.4-34.3-130.5,13.5c-16.7,22-34.7,19.8-53.5,4c-34.5-37.5-79.6-37.1-114.5,0c-11,14-29.3,25.6-56.5,2
			c-43.7-36.1-84.2-43.9-115.5,8c-9.4,17.1-31.7,19.4-67.5,6.5c-46.9-25.9-80.3-23.9-102.5,1.5c-10.4,11.2-24.7,14.5-46.5,2
			c-33.6-24.6-67.2-47.8-97-0.5c-7.6,13.9-21.5,18.2-50,0c-29.5-31.1-59.1-40.4-88.5,4c-8,13.1-20.7,9.8-35.5-1
			c-34.8-39.2-64.9-34.3-93-1.5l-10.3,7v18.5v4L-542.4,200.1z"/>
	</g>
	<g id="Grama">
		<path class="st7" d="M4.3,194.9l69.7,0c-1.7-4.2-1.9-7.1,5.6-3.4c4.9-4.5,7.2-3.8,6.1,3.4h62.3c-0.7-3.6,0.7-4.5,4.3-2.9
			c1.2-3.1,2.7-2.5,4.2,0c2.9-1.1,5.3-1.4,4.1,2.9h26.1c-0.1-2.6,1.1-4.3,7.6-2.4c2.1-1.5,4.1-3.4,6.5,0.1c3.7-1.8,5.5-1.2,4.9,2.3
			h121.8c-0.8-3.6,0.4-5.4,6.6-3.7c3.8-4.3,7.2-3.2,10.3,2.3c3.5-2.3,6.7-3.2,9.3,1.4h28.5v62.6H4.3V194.9z"/>
		<path class="st8" d="M74.1,194.9c-2.4-5.1-0.9-6.5,5.6-3.4c3.3-2.8,7.3-6.1,6.1,3.4h3.3l-5.2,1.1c2.1-5.2,0.3-8.2-4.4-2.2
			c-3.4-3.8-7.3-4.6-4,1.4l-4.5-0.4H74.1z"/>
		<path class="st8" d="M148.2,194.9c-0.5-3.4,0.7-4.7,4.3-2.9c1.1-2.9,2.5-2.7,4.2,0c4-1.6,5-0.3,4.1,2.9h2.7l-4.8,0.9
			c2.1-2.4,1.6-4.6-2.4-2.9c-1.5-3-2.6-1.8-3.6,0.6c-2.3-1.9-3.8-2-3.6,1.9l-4.5-0.4H148.2z"/>
		<path class="st8" d="M186.9,194.9c-0.3-3.9,3.2-3.8,7.6-2.4c2.3-2.6,4.8-3,6.5,0.1c4-1.9,5.5-1,4.9,2.3h7l-9.3,1.4
			c2.4-3.2,0.7-4.9-4.1-1.7c-0.8-2.2-2.1-2.4-4.3-0.1c-4-1.9-7-2.1-7.4,1.3l-5.6-0.9H186.9z"/>
		<path class="st8" d="M327.6,194.9c0-0.1,0-0.2-0.1-0.3c-0.8-3.6,1-5.2,6.7-3.4c3.7-4.1,7.2-3.7,10.3,2.3c3.6-2.5,6.8-2.9,9.3,1.4
			h5l-6.4,1c-1.3-2.1-3.2-3.4-8.6,0c-2.5-4.8-5.2-7.9-9.8-1.8c-3.2-1.6-5.1-1.4-4.6,1.8l-8.8-1"/>
		<path class="st8" d="M306.7,226.1c-1.1-4,0.2-5.6,5.8-3.1c2.7-3.7,5.5-4.2,8.2,0c4.5-2.3,7.6-2.7,5.8,3.7c-0.2-2.6-0.9-4.8-6.8-2
			c-1.8-1.8-3.6-3.3-6.3,0.8C309.8,222.8,307.2,222.4,306.7,226.1z"/>
		<path class="st8" d="M346.7,245.4c-1.2-5.2,1-6.3,6.6-3.5c5.1-2.1,10.1-4,9.5,2.6c-1-1.8-3-3-10.3-0.3
			C349.7,241.9,347.6,241.9,346.7,245.4z"/>
		<path class="st8" d="M278.4,248.6c0.5-4.4,2.4-5.5,5.9-3.3c3.2-4.2,5.7-3.4,7.8,1.1c4.7-1.1,7.9-0.6,6.8,4.3
			c-1.7-1.7-3.5-3.2-8.1-1.6c-2.1-3.1-4.2-3.2-6.4-0.5C281.9,245.8,280,246.2,278.4,248.6z"/>
		<path class="st8" d="M172,244.9c-1.9-4.2,0-5.2,5.8-2.9c2.5-2.8,5.3-3.2,8.7,0.1c4.3-1.4,7.5-1.3,6.8,3.5c-1-1.6-1.5-3.4-7.9-1.6
			c-1.9-1.9-4.2-1.7-6.8,0.3C175,243.1,172.1,242.7,172,244.9z"/>
		<path class="st9" d="M350.8,219.4c-0.4-0.1-0.8-0.2-1.2-0.1c-0.4,0-0.8,0.2-1,0.6c-0.2,0.2-0.2,0.5-0.2,0.8
			c-0.1,0.8,0,1.6,0.5,2.1c0.5,0.5,1.2,0.5,1.9,0.6c0.2,0,0.5,0,0.7,0c0.2-0.1,0.4-0.2,0.5-0.3c0.3-0.2,0.5-0.3,0.8-0.5
			c0.3-0.2,0.5-0.3,0.7-0.6c0.2-0.3,0.2-0.6,0.2-0.9c0-0.1,0-0.3,0-0.4c-0.1-0.3-0.3-0.4-0.6-0.5c-0.1-0.1-0.2-0.1-0.3-0.2
			c-0.5-0.3-1.1-0.6-1.7-0.5"/>
		<path class="st10" d="M353.6,221.4c0,0.2-0.1,0.4-0.2,0.6c-0.2,0.3-0.4,0.4-0.7,0.6c-0.3,0.2-0.5,0.3-0.8,0.5
			c-0.2,0.1-0.3,0.2-0.5,0.3c-0.2,0.1-0.5,0.1-0.7,0c-0.5,0-1.1-0.1-1.5-0.3C350.7,223,352.1,222.5,353.6,221.4z"/>
		<path class="st11" d="M350.8,219.4c-0.4-0.1-0.8-0.2-1.2-0.1c-0.4,0-0.8,0.2-1,0.6c-0.2,0.2-0.2,0.5-0.2,0.8c0,0.2,0,0.3,0,0.5
			C348.8,220.2,349.4,219.3,350.8,219.4z"/>
		<rect x="-1689.8" y="194.9" class="st7" width="1707.1" height="62.6"/>
		<rect x="378" y="194.9" class="st7" width="1821" height="62.6"/>
	</g>
	<g id="Corda">
		<path class="st12" d="M125.4,96.1c-11.9,0-21.6,10.4-21.6,23.2s9.7,23.2,21.6,23.2s21.6-10.4,21.6-23.2S137.4,96.1,125.4,96.1z
			 M125.3,139.7c-10.2,0-18.4-8.9-18.4-19.8c0-11,8.2-19.8,18.4-19.8c10.2,0,18.4,8.9,18.4,19.8
			C143.7,130.8,135.5,139.7,125.3,139.7z"/>
		<path class="st13" d="M146.5,117.8c0-0.1-0.1-0.2-0.1-0.3c0-0.1,0-0.3,0.1-0.4c0-0.3-0.1-0.6-0.2-0.8c-0.3-0.8-0.4-1.9-0.5-2.8
			c-0.1-0.3-0.1-0.6-0.2-0.9c-0.1-0.3-0.3-0.6-0.3-0.9c-0.1-0.4-0.2-0.9-0.3-1.3c-0.1-0.2-0.2-0.5-0.3-0.7c-0.3-0.5-0.6-1.1-0.9-1.6
			c-0.1-0.2-0.2-0.4-0.3-0.7c-0.1-0.2-0.1-0.3-0.2-0.5c-0.1-0.2-0.2-0.4-0.3-0.5c-0.5-0.7-0.9-1.4-1.4-2.2l0-0.1
			c-0.4-1-1.6-1.4-2.4-2.2c-0.2-0.2-0.3-0.4-0.5-0.5c-0.3-0.3-0.7-0.4-1-0.6c-0.9-0.5-1.7-1.4-2.7-1.9c-0.2-0.1-0.5-0.2-0.7-0.3
			c-0.3-0.2-0.6-0.5-0.9-0.7c-0.2-0.1-0.5-0.2-0.8-0.3c-2-0.6-4-1.4-6.1-1.4c-1.5,0-3,0.2-4.5,0.5c-1.6,0.4-3.2,0.9-4.7,1.6
			c-1.1,0.5-2.2,1.1-3.3,1.6c-0.7,0.4-1.3,0.8-1.8,1.4c-0.2,0.3-0.4,0.6-0.7,0.9c-0.5,0.7-1.4,1.1-1.9,1.8c-0.3,0.4-0.5,1-0.8,1.4
			c-0.3,0.5-0.7,0.8-1.1,1.2c-0.7,0.7-0.9,1.8-1.2,2.7c0,0.1-0.1,0.2-0.2,0.3c-0.1,0.1-0.1,0.1-0.2,0.2c-0.1,0.1-0.1,0.2-0.1,0.3
			c-0.2,0.6-0.3,1.2-0.4,1.7c0,0-0.1-0.1-0.1-0.1c0,0.6-0.2,1.1-0.3,1.7c-0.2,0.9-0.4,1.7-0.5,2.6c-0.1,1.2-0.1,2.3,0,3.5
			c0.1,1.6,0.1,3.2,0.4,4.8c0.1,0.6,0.2,1.2,0.3,1.8c0.1,0.4,0.2,0.7,0.3,1c0.2,0.7,0.6,1.4,1,2.1c0.4,0.7,0.8,1.4,1.2,2.1
			c0.6,1.1,1.2,2.2,2,3.2c0.3,0.4,0.7,0.8,1.1,1.2c0.6,0.6,1.2,1.1,1.8,1.5c1.5,1.1,3,2.1,4.6,3c1,0.5,2.1,0.7,3.1,0.9
			c0.2,0,0.4,0.1,0.5,0.1c0.1,0.1,0.2,0.1,0.4,0.2c0.5,0.3,1.1,0.3,1.7,0.3c1.1,0,2.2,0.1,3.3,0.1c1,0,2,0,3-0.2
			c0.6-0.1,1.3-0.3,1.9-0.5c0.6-0.2,1.2-0.4,1.8-0.6c0.6-0.2,1.2-0.4,1.7-0.8c0.4-0.3,0.7-0.7,1.1-1.1c0.4-0.3,0.9-0.5,1.4-0.7
			c1-0.3,1.6-1.2,2.4-1.8c0.3-0.3,0.6-0.5,0.9-0.8c0.3-0.3,0.5-0.6,0.8-1c0.4-0.6,0.9-1.2,1.3-1.7c0.5-0.6,0.9-1.3,1.1-2
			c0.2-0.8,0.7-1.4,1-2.1c0.1-0.3,0.2-0.7,0.3-1.1c0.1-0.3,0.3-0.6,0.5-0.8c0.1-0.3,0.3-0.6,0.2-0.9c0.4-0.6,0.5-1.4,0.6-2.1
			c0.1-0.6,0.2-1.2,0.3-1.8c0-0.3,0.1-0.6,0.1-0.9c0-0.3,0-0.7,0-1c0-0.2,0.1-0.5,0.1-0.7C146.8,118.9,146.7,118.3,146.5,117.8z
			 M144.1,120c0,0.5-0.1,1.1-0.1,1.6l0,0.1c-0.1,0.4-0.1,0.9,0,1.4c0,0.2,0.1,0.3,0.1,0.5c0,0.3-0.2,0.6-0.3,0.9
			c-0.1,0.3-0.2,0.5-0.2,0.8c-0.1,0.5-0.2,0.9-0.3,1.4c-0.1,0.4-0.2,0.7-0.3,1.1c-0.1,0.2-0.2,0.5-0.3,0.7c-0.3,0.6-0.7,1.2-1,1.8
			c-0.1,0.2-0.2,0.3-0.3,0.5c-0.2,0.3-0.5,0.7-0.9,0.9c-0.3,1.2-1.4,2-2,3.1c-0.1,0.1-0.1,0.2-0.2,0.3c-0.1,0.1-0.2,0.2-0.3,0.2
			c-0.6,0.4-1.2,0.8-1.7,1.4c-0.1,0.1-0.2,0.2-0.3,0.3c-0.2,0.1-0.3,0.2-0.5,0.3c-0.7,0.3-1.3,0.8-2,1.2c-1,0.5-2.2,0.8-3.3,1
			c-0.9,0.2-1.8,0.4-2.7,0.4c-0.4,0-0.8,0-1.2,0c-0.4,0-0.7,0.2-1.1,0.1c-0.5-0.1-1,0.1-1.5,0.1c-0.4,0-0.9-0.1-1.3-0.2
			c-0.4-0.1-0.7-0.2-1.1-0.2c-0.2,0-0.4-0.1-0.6-0.2c-0.2-0.1-0.4-0.1-0.6-0.2c-0.2-0.1-0.4-0.1-0.5-0.2c-0.7-0.3-1.5-0.6-2.2-0.9
			c-0.3-0.1-0.6-0.2-0.9-0.4c-0.4-0.2-0.7-0.5-1.1-0.8c-0.3-0.2-0.5-0.3-0.8-0.4c-0.4-0.2-0.7-0.5-1-0.8c-0.2-0.2-0.5-0.4-0.7-0.6
			c-0.2-0.2-0.4-0.4-0.6-0.6c-0.3-0.4-0.4-0.9-0.9-1c-0.8-0.8-1.4-1.7-1.9-2.8c-0.2-0.4-0.3-0.9-0.6-1.3c-0.2-0.3-0.5-0.5-0.7-0.8
			c-0.1-0.3-0.2-0.5-0.2-0.8c-0.1-0.8-0.3-1.6-0.4-2.4c0,0,0-0.1-0.1-0.1c0,0-0.1,0-0.1,0.1c-0.1-0.6,0.1-1.3-0.2-1.8
			c-0.3-0.7-0.3-1.5-0.4-2.3c-0.1-2.7-0.2-5.4,0.8-7.9c0.4-1,0.8-2,1.2-3c0.3-0.7,0.7-1.3,1.2-1.9c0.1-0.2,0.2-0.4,0.4-0.5
			c0.2-0.3,0.5-0.7,0.7-1c0.2-0.3,0.4-0.8,0.8-1c0.5-0.3,0.9-0.7,1.2-1.1c0.3-0.4,0.5-1,1-1.2c0.3-0.2,0.7-0.2,1-0.4
			c0.4-0.2,0.8-0.5,1.2-0.8c1-0.8,2.2-1.4,3.5-1.6c0.2,0,0.3-0.1,0.5-0.1c0.1-0.1,0.2-0.1,0.3-0.2c0.3-0.1,0.6-0.2,0.9-0.2
			c0.9-0.2,1.9-0.3,2.8-0.3c1,0,2.1,0.1,3.1-0.2c1.4,0.3,2.7,0.6,4.1,1.1c0.8,0.3,1.5,0.6,2.2,1c0.7,0.3,1.3,0.7,1.9,1.1
			c1,0.7,1.8,1.4,2.6,2.3c0.2,0.2,0.4,0.4,0.6,0.6c0.2,0.2,0.4,0.5,0.6,0.7c1.2,1.3,2.4,2.7,3,4.4c0.1,0.3,0.2,0.6,0.3,0.9
			c0.3,0.9,0.6,1.8,0.9,2.7c0.1,0.3,0.2,0.6,0.3,0.9c0.1,0.3,0.1,0.6,0.2,0.9c0.1,0.6,0.3,1.3,0.3,1.9
			C144.1,118.7,144.1,119.3,144.1,120z"/>
		<rect x="124.3" y="73" class="st12" width="3.7" height="23.3"/>
		<path class="st13" d="M124.9,76.9c0.6,0.4,1.3,0.5,2,0.3c0.1,0,0.2-0.1,0.3,0c0.1,0,0.1,0.1,0.2,0.2c0.4,1.1,0.4,2.3,0.4,3.4
			c0,1.4,0,2.7-0.1,4.1c0,0.3,0,0.7,0,1c0,2.4-0.1,4.9-0.1,7.3c0,0.6,0,1.2-0.1,1.8c0,0.2,0,0.3-0.2,0.4c-0.1,0.1-0.3,0.1-0.4,0.1
			c-0.5,0-1,0-1.4,0c-0.1,0-0.2,0-0.3,0c-0.2-0.1-0.2-0.4-0.2-0.6c0.2-5.9,0.2-11.8,0-17.8"/>
		<path class="st12" d="M122.4,97.7c0,0.1-0.1,0.3-0.1,0.4c0,0,0,0.2,0,0.2c0.1,0.3,0.2,0.5,0.4,0.7c-0.2-0.5-0.1-1.1,0.1-1.6
			c0,0.1-0.2,0-0.3,0"/>
		<path class="st12" d="M118.7,98.6c-0.1,0.5,0,1.1,0.2,1.6c-0.3-0.4-0.5-1-0.3-1.5"/>
		<path class="st12" d="M120.2,98c-0.1,0.5,0,1.1,0.3,1.5c-0.1-0.5-0.1-1-0.2-1.6"/>
		<path class="st12" d="M116.9,99.1c0,0.5,0.2,1.1,0.4,1.6c-0.2-0.4-0.4-0.9-0.4-1.3"/>
		<path class="st12" d="M115.6,99.9c0,0.6,0.7,1.1,0.5,1.6c-0.1-0.2-0.3-0.4-0.5-0.5c-0.2-0.2-0.3-0.4-0.3-0.6
			C115.3,100.1,115.4,99.9,115.6,99.9c0.1,0,0.1,0.1,0.1,0.1"/>
		<path class="st12" d="M114.4,100.7c0,0.2,0.1,0.4,0.2,0.6c0.1,0.3,0.3,0.5,0.4,0.8c-0.4,0-0.7-0.1-0.9-0.4c-0.2-0.3-0.2-0.7,0-1"
			/>
		<path class="st12" d="M112.7,101.7c-0.1,0.3,0.2,0.5,0.4,0.7c0.2,0.2,0.5,0.4,0.5,0.7c-0.2,0.1-0.4-0.1-0.5-0.2
			c-0.3-0.3-0.5-0.6-0.5-1"/>
		<path class="st12" d="M111.5,102.9c0.5,0.3,0.9,0.7,1.1,1.3c-0.5-0.1-0.9-0.4-1.2-0.7c-0.1-0.1-0.1-0.2-0.1-0.3
			c0-0.1,0.2-0.2,0.2-0.1"/>
		<path class="st12" d="M109.9,105c0.2,0.4,0.6,0.7,1,0.9c-0.5,0.1-1.1-0.2-1.2-0.7c0.1,0,0.2,0,0.2,0"/>
		<path class="st12" d="M129.6,97.9c0,0.5,0.1,0.9,0.1,1.4c0,0,0,0.1,0.1,0.1c0,0,0.1-0.1,0.1-0.1c0.1-0.4,0.1-0.9-0.2-1.3"/>
		<path class="st12" d="M128.7,98.3c-0.2,0.3-0.3,0.7-0.3,1.1C128.8,99.1,128.9,98.7,128.7,98.3"/>
		<path class="st12" d="M131.4,98.2c0,0.3,0,0.5,0,0.8c0,0.2,0,0.3,0,0.5c-0.1,0.1-0.2,0.3-0.3,0.3c0.1,0.2,0.4,0.1,0.5,0
			s0.2-0.3,0.2-0.5C131.8,98.8,131.7,98.4,131.4,98.2"/>
		<path class="st12" d="M133,99c-0.1,0.3,0,0.6-0.1,0.9c-0.1,0.3-0.4,0.5-0.7,0.5c0.6,0,1-0.7,0.8-1.2"/>
		<path class="st12" d="M134.4,100c0,0.5-0.2,1-0.6,1.2c0.3,0,0.7-0.2,0.9-0.5c0.2-0.3,0.1-0.7-0.1-1
			C134.5,99.9,134.5,100,134.4,100"/>
		<path class="st12" d="M136,100.8c0.1,0.3-0.1,0.7-0.4,0.8c-0.1,0-0.3,0.1-0.3,0.2c0.3,0,0.6-0.1,0.8-0.3c0.2-0.2,0.3-0.5,0.2-0.8
			C136.1,100.6,135.9,100.7,136,100.8"/>
		<path class="st12" d="M137.5,101.9c-0.2,0.1-0.2,0.3-0.3,0.5c-0.1,0.2-0.3,0.4-0.5,0.5c0.2,0.1,0.5,0,0.7-0.2
			C137.5,102.5,137.5,102.2,137.5,101.9"/>
		<path class="st12" d="M138.7,102.6c-0.1,0.5-0.5,1-1,1.3c0.3,0.1,0.7-0.1,0.9-0.5C138.7,103.2,138.6,102.8,138.7,102.6"/>
		<path class="st12" d="M140,103.8c-0.1,0.3-0.1,0.6-0.3,0.9c-0.1,0.3-0.4,0.5-0.7,0.6c0.3,0.1,0.7-0.1,0.8-0.3
			c0.2-0.3,0.2-0.6,0.1-1"/>
		<path class="st12" d="M141.6,105.6c-0.3,0.4-0.7,0.8-1.2,1c0.3,0.1,0.7,0.2,0.9,0c0.2-0.2,0.2-0.5,0.2-0.8"/>
		<path class="st12" d="M142.6,107.5c-0.5,0.3-1,0.5-1.5,0.8c0.3,0,0.6,0,0.8-0.1c0.3-0.1,0.5-0.3,0.5-0.6"/>
		<path class="st12" d="M143.8,109.3c-0.5,0.1-0.9,0.4-1.3,0.6c0.5,0.1,1-0.1,1.3-0.5"/>
		<path class="st12" d="M144.6,111.3c0-0.1,0-0.1-0.1-0.1s-0.1,0-0.2,0.1c-0.3,0.2-0.6,0.3-0.8,0.5c0.3,0.1,0.6,0.1,0.8-0.1
			C144.3,111.5,144.4,111.3,144.6,111.3"/>
		<path class="st12" d="M109.2,106c-0.1,0.1,0,0.3,0.1,0.4c0.2,0.2,0.4,0.5,0.4,0.8c-0.4-0.2-0.7-0.6-0.7-1.1"/>
		<path class="st12" d="M111.1,104.1c0.2,0.3,0.5,0.5,0.8,0.7c-0.5-0.1-1-0.4-1.3-0.8c0.2,0,0.4,0.1,0.5,0.3"/>
		<path class="st12" d="M108.1,107.1c0.4,0.2,0.5,0.8,1,0.9c-0.2,0-0.5-0.1-0.7-0.3C108.3,107.6,108.1,107.4,108.1,107.1"/>
		<path class="st12" d="M107.3,108.5c0.3,0.3,0.6,0.6,1,0.7c-0.5,0-0.9-0.2-1.2-0.7"/>
		<path class="st12" d="M106.7,109.9c0.4,0.3,0.9,0.6,1.4,0.6c-0.5,0.1-1-0.1-1.3-0.5"/>
		<path class="st12" d="M106.4,111.1c0.4-0.2,0.8,0.6,1.2,0.3c-0.2,0-0.5,0.1-0.7,0.1S106.5,111.3,106.4,111.1"/>
		<path class="st12" d="M105.7,112.3c0.4,0.2,0.9,0.3,1.4,0.4c-0.2-0.1-0.5,0-0.7,0C106.1,112.7,105.8,112.6,105.7,112.3"/>
		<path class="st12" d="M105.7,113.4c0.3-0.2,0.7,0.5,1,0.3c-0.3,0.3-0.8,0.2-1-0.2"/>
		<path class="st12" d="M106.4,114.9c-0.4,0-0.8,0-1.2,0c0.2,0.2,0.4,0.3,0.6,0.4c0.1,0.1,0.3,0.1,0.4,0
			C106.3,115.3,106.4,115.1,106.4,114.9"/>
		<path class="st12" d="M106,116.4c-0.4,0-0.9,0-1.3,0.1c0.4,0.5,1.3,0.4,1.6-0.1C106.3,116.4,106.1,116.4,106,116.4"/>
		<path class="st12" d="M143.6,112.9c0.5-0.1,1-0.3,1.4-0.6c-0.4,0.5-1.1,0.7-1.7,0.8C143.4,113,143.5,113,143.6,112.9"/>
		<path class="st12" d="M143.9,114.8c0.6,0,1.1-0.1,1.6-0.4c-0.3,0.5-1,0.7-1.5,0.4"/>
		<path class="st12" d="M144.2,116.5c0.5,0.2,1.1-0.1,1.4-0.6c-0.4,0.2-0.8,0.4-1.2,0.6"/>
		<path class="st12" d="M144.5,118.1c0.5,0.1,1,0.1,1.5,0c0.1,0,0.3-0.1,0.2-0.2C145.6,117.8,145.1,117.9,144.5,118.1"/>
		<path class="st12" d="M144.6,119.5c0.4,0.3,1,0.4,1.5,0.2c-0.4,0-0.9,0-1.3-0.2"/>
		<path class="st12" d="M144.5,121c0.4,0.2,0.8,0.4,1.3,0.4c-0.1,0.2-0.4,0.4-0.7,0.3s-0.5-0.3-0.6-0.5"/>
		<path class="st12" d="M144.5,123c0.4,0.2,0.8,0.3,1.3,0.3C145.4,123,145,123,144.5,123"/>
		<path class="st12" d="M144.1,124.2c0.4,0.2,0.8,0.3,1.3,0.3c-0.1,0.2-0.4,0.2-0.7,0.1S144.3,124.4,144.1,124.2"/>
		<path class="st14" d="M104.9,118.7c0.4,0.1,0.9,0,1.1-0.3C105.6,118.5,105.2,118.6,104.9,118.7"/>
		<path class="st12" d="M104.8,120.3c0.4,0.1,0.9,0,1.2-0.4c-0.3,0-0.6,0-0.9,0.1c-0.1,0-0.2,0.1-0.2,0.1c0,0.1,0,0.2,0.1,0.2"/>
		<path class="st12" d="M105,121.6c0.5,0,1-0.3,1.4-0.7c-0.2-0.1-0.5,0.1-0.6,0.3c-0.2,0.2-0.4,0.4-0.6,0.4"/>
		<path class="st12" d="M105.9,118.9c-0.5,0.1-1,0.1-1.4-0.1c0.4-0.2,0.9-0.1,1.3,0.1"/>
		<path class="st12" d="M106,118.3c-0.4,0.1-0.8,0-1.2-0.2c0.5,0,0.9,0,1.4,0c0,0-0.1,0.1-0.1,0.1"/>
		<path class="st12" d="M106.3,122.6c-0.3,0.5-0.8,0.8-1.3,1c0.3,0.2,0.7,0.2,1,0c0.3-0.2,0.5-0.6,0.5-0.9c-0.1,0-0.2,0.1-0.3,0.2"
			/>
		<path class="st12" d="M106.8,124.2c-0.2,0.5-0.7,0.9-1.3,0.8c0,0.1,0.1,0.1,0.1,0.2c0.3,0.1,0.6,0.2,0.9,0
			c0.3-0.2,0.4-0.5,0.3-0.8"/>
		<path class="st12" d="M106.8,126.2c-0.2,0.3-0.5,0.4-0.8,0.5c-0.2,0.1-0.3,0.1-0.5,0.2c0,0.2,0,0.3,0.1,0.5
			c0.1,0.1,0.2,0.3,0.3,0.2c0.1,0,0.1,0,0.2-0.1c0.4-0.2,0.7-0.6,0.8-1c0.1,0,0.2,0,0.3,0c-0.2,0-0.4,0-0.5-0.1"/>
		<path class="st12" d="M107.4,127.6c-0.2,0.4-0.6,0.7-1,0.7c0.5,0.2,1.1-0.1,1.2-0.5c-0.1,0-0.2,0-0.3,0"/>
		<path class="st12" d="M108,128.9c-0.1,0.4-0.4,0.7-0.8,0.7c0.2,0,0.5,0.1,0.7,0c0.2-0.1,0.3-0.4,0.2-0.6"/>
		<path class="st12" d="M108.7,130.2c-0.1,0-0.2,0.2-0.2,0.3c-0.1,0.3-0.4,0.4-0.6,0.5c0,0-0.1,0-0.1,0c-0.1,0-0.1-0.1-0.1-0.2
			s0.1-0.1,0.2-0.2c0.3-0.1,0.5-0.2,0.8-0.3"/>
		<path class="st12" d="M109.4,131.4c-0.2,0.2-0.3,0.4-0.5,0.6c-0.2,0.1-0.4,0.3-0.6,0.1c-0.1-0.1,0-0.3,0.1-0.4
			c0.1-0.1,0.3-0.1,0.5-0.1c0.2,0,0.3-0.2,0.4-0.3C109.3,131.3,109.4,131.4,109.4,131.4"/>
		<path class="st12" d="M143.9,125.3c0.3,0.1,0.5,0.3,0.7,0.5c0.2,0.2,0.7,0.2,0.8-0.1c-0.4-0.1-0.8-0.2-1.2-0.3"/>
		<path class="st12" d="M143.4,126.6c0.4,0.3,0.9,0.4,1.3,0.5c-0.5,0.2-1,0-1.3-0.4C143.4,126.7,143.4,126.6,143.4,126.6"/>
		<path class="st12" d="M142.9,127.9c0.4,0.2,0.8,0.4,1.2,0.5c-0.1,0.2-0.4,0.3-0.6,0.2c-0.2-0.1-0.4-0.2-0.6-0.4
			c-0.1-0.1-0.2-0.2-0.2-0.3s0.2-0.1,0.2,0"/>
		<path class="st12" d="M142.2,129.6c0.4,0.2,0.8,0.4,1.2,0.6c-0.4,0.3-1.1,0-1.2-0.5c0.1,0,0.2,0,0.2-0.1"/>
		<path class="st12" d="M142.8,131.9c-0.3-0.3-0.6-0.6-0.9-0.9c0.2,0,0.3,0,0.5,0c-0.3,0-0.6,0-0.9-0.1c0.4,0.3,0.7,0.6,1.1,0.9"/>
		<path class="st12" d="M142.2,132.8c-0.5-0.1-1.1-0.3-1.4-0.7c0,0.3,0.3,0.6,0.5,0.8s0.6,0.3,0.9,0.4c0-0.1-0.1-0.3-0.2-0.4"/>
		<path class="st12" d="M141,134.2c-0.5-0.2-1-0.7-1-1.2c0.3,0.4,0.7,0.7,1,1.1"/>
		<path class="st12" d="M139,133.9c0.3,0.5,0.7,1,1.2,1.3c-0.1,0.1-0.3,0-0.4-0.1c-0.4-0.3-0.8-0.7-0.8-1.1"/>
		<path class="st12" d="M138,135.2c0.3,0.4,0.7,0.8,1,1.1c-0.2,0-0.4-0.1-0.6-0.2c-0.4-0.2-0.6-0.7-0.7-1.1c0-0.1,0-0.3,0.1-0.3
			c0,0,0.1,0.1,0.1,0.1c0.1,0.2,0.2,0.3,0.2,0.5"/>
		<path class="st12" d="M138.4,137.8c-0.3,0-0.6-0.3-0.8-0.6s-0.2-0.7-0.4-0.9c0.2,0.1,0.5,0.2,0.7,0.3c0,0.3,0.1,0.6,0.3,0.8
			c0.1,0.1,0.2,0.1,0.2,0.2C138.5,137.8,138.4,137.9,138.4,137.8"/>
		<path class="st12" d="M136.8,137.9c-0.3-0.2-0.5-0.5-0.6-0.9c-0.2,0.1-0.2,0.5-0.1,0.7s0.4,0.4,0.6,0.5c0.1-0.2,0-0.4-0.1-0.6"/>
		<path class="st12" d="M135.8,138.9c-0.3-0.4-0.5-0.7-0.7-1.2c-0.1,0-0.1,0.1-0.1,0.2c0.1,0.5,0.3,0.9,0.8,1.2
			C135.8,139.1,135.8,139,135.8,138.9"/>
		<path class="st12" d="M108.9,133.1c0.3-0.2,0.6-0.3,0.9-0.5c0,0.1,0.1,0.1,0,0.2c-0.2-0.3-0.4-0.6-0.6-0.9c0.1,0.2,0,0.4-0.2,0.6
			C108.9,132.6,108.7,132.8,108.9,133.1c0-0.1,0.1,0,0.2,0"/>
		<path class="st12" d="M109.5,134.5c0.2-0.3,0.6-0.3,0.9-0.4c0.2-0.1,0.4-0.2,0.5-0.4c0,0.2,0,0.3,0,0.5c0,0.2,0,0.4-0.2,0.5
			c-0.1,0.1-0.2,0.1-0.3,0.1C110.2,134.6,109.9,134.6,109.5,134.5"/>
		<path class="st12" d="M112,134.8c-0.1,0.5-0.4,1-0.9,1.1c0.2,0,0.5-0.1,0.6-0.3s0.2-0.4,0.2-0.7"/>
		<path class="st12" d="M112.9,135.8c-0.2,0.4-0.3,0.9-0.5,1.3c0.2-0.2,0.6,0,0.9-0.2c0.1-0.1,0.1-0.3,0.1-0.4
			c0-0.2-0.1-0.4-0.1-0.6c-0.2-0.2-0.5-0.1-0.6,0.2"/>
		<path class="st12" d="M114.4,137c0.1,0.4-0.2,0.9-0.6,1.1c0.2,0,0.4,0,0.5,0c0.1,0,0.1,0,0.2-0.1c0,0,0-0.1,0.1-0.1
			c0.1-0.2,0.1-0.5-0.1-0.7"/>
		<path class="st14" d="M115.8,137.9c0.1,0.5-0.1,1-0.6,1.2c0.3,0.1,0.7,0,0.8-0.3S116.1,138.1,115.8,137.9"/>
		<path class="st12" d="M124.3,140.3c0,0.3,0.1,0.6,0.1,0.9c0,0.2,0.1,0.5,0.3,0.5c0.1-0.5,0-1.1-0.1-1.6c-0.3,0-0.5,0.3-0.4,0.5"/>
		<path class="st12" d="M125.8,140.3c0.2,0.5,0.2,1-0.1,1.5C125.7,141.3,125.7,140.8,125.8,140.3"/>
		<path class="st12" d="M127.1,140.3c0.2,0.3,0.4,0.7,0.5,1c0.1,0.1,0.1,0.3,0,0.3C127.8,141.2,127.6,140.5,127.1,140.3"/>
		<path class="st12" d="M128.2,140.2c0.2,0.1,0.5,0.3,0.7,0.5s0.3,0.5,0.2,0.8c0.3,0,0.4-0.5,0.2-0.7s-0.5-0.3-0.8-0.4"/>
		<path class="st12" d="M129.9,139.7c0,0.3,0,0.6,0,0.9c0.1,0.3,0.3,0.6,0.6,0.7c0-0.5-0.2-0.9-0.5-1.3"/>
		<path class="st12" d="M131.1,139.6c0,0.5,0.4,0.9,0.8,1.1C131.9,140.2,131.6,139.7,131.1,139.6"/>
		<path class="st12" d="M132.7,139.1c0,0.3,0,0.5,0.1,0.8c0.1,0.2,0.4,0.4,0.6,0.4c-0.2-0.4-0.4-0.7-0.7-1"/>
		<path class="st12" d="M133.4,138.6c0.2,0.4,0.5,0.8,0.8,1.1c0.1-0.5-0.2-1.1-0.7-1.2C133.5,138.4,133.4,138.4,133.4,138.6
			C133.2,138.5,133.3,138.7,133.4,138.6"/>
		<path class="st12" d="M115.8,138.1c0.2,0.4,0,0.8-0.4,1c0.4-0.1,0.7-0.6,0.6-1C115.9,138,115.7,138.1,115.8,138.1"/>
		<path class="st12" d="M117.3,138.4c0,0.6-0.2,1.1-0.6,1.5c0.2,0.1,0.5-0.1,0.6-0.3c0.1-0.2,0.1-0.5,0.1-0.8c0-0.2,0-0.4-0.1-0.5"
			/>
		<path class="st12" d="M119.1,139.2c0,0.3,0,0.6-0.1,0.8c-0.1,0.3-0.3,0.5-0.6,0.6c0.3,0.1,0.6-0.1,0.7-0.3
			c0.1-0.2,0.2-0.5,0.2-0.8c0-0.1,0-0.2,0-0.3C119.2,139.1,119.1,139.1,119.1,139.2"/>
		<path class="st12" d="M120.4,139.7c0.1,0.3,0,0.7-0.3,1c-0.1,0.1-0.2,0.2-0.1,0.4c0.1,0.1,0.4,0.1,0.5-0.1
			c0.1-0.2,0.1-0.4,0.1-0.6c0-0.2-0.1-0.4,0-0.6"/>
		<path class="st12" d="M121.8,140.1c-0.2,0.4-0.3,0.8-0.1,1.2c0.2-0.5,0.2-0.9,0.2-1.4"/>
		<path class="st12" d="M122.8,140.2c-0.1,0.3-0.1,0.5-0.2,0.8c0,0.2,0,0.4,0.2,0.5c0.2,0,0.2-0.2,0.2-0.4c0-0.3,0-0.5,0.1-0.8
			c-0.1,0-0.1,0-0.2,0"/>
		<path class="st12" d="M128.2,140.8c0,0.2,0,0.3,0,0.5c0.1-0.1,0.2-0.3,0.1-0.5"/>
		<path class="st12" d="M125.3,78.7c0.5,0.1,1.1,0.2,1.6,0.2c-0.4,0.2-0.8,0.3-1.2,0.3c-0.2,0-0.5-0.2-0.4-0.3"/>
		<path class="st12" d="M125.1,81c0.5,0.1,1,0.2,1.5,0.2c-0.2,0-0.3,0.1-0.4,0.2c-0.3,0.3-0.9,0.2-1.1-0.2c0.1,0,0.1-0.1,0.2-0.1"/>
		<path class="st12" d="M126.9,82.7c-0.4,0-0.8,0-1.3,0.1c0,0-0.1,0-0.1,0c-0.1,0.1,0,0.2,0.1,0.2c0.4,0.4,1.1,0.4,1.5,0.1
			c0.1-0.1,0.1-0.1,0.1-0.2c0-0.1-0.1-0.1-0.1-0.2c-0.1-0.1-0.3-0.2-0.4-0.2"/>
		<path class="st12" d="M125.5,84.6c0.4,0,0.9,0,1.3,0c0,0.3-0.4,0.4-0.6,0.4C125.9,84.9,125.7,84.8,125.5,84.6c0.1,0,0.2,0,0.4,0"
			/>
		<path class="st12" d="M126.9,86.4c-0.4,0-0.8,0-1.2,0.1c0.3-0.2,0.7-0.3,1-0.1"/>
		<path class="st12" d="M126.8,87.8c-0.4,0.2-0.9,0.2-1.3,0.1c0,0.3,0.3,0.6,0.6,0.6c0.3,0,0.6-0.1,0.8-0.4c0-0.1,0.1-0.1,0.1-0.2
			c-0.1,0-0.2,0-0.3,0"/>
		<path class="st12" d="M126.7,90c-0.4,0.1-0.9,0.1-1.3,0c0.1-0.2,0.4-0.2,0.6-0.2s0.4,0.1,0.6,0.1"/>
		<path class="st12" d="M127,91.1c-0.4,0.3-0.9,0.4-1.3,0.1c0.4-0.1,0.8-0.1,1.2,0"/>
		<path class="st12" d="M126.9,92.5c-0.3,0.1-0.6,0.2-0.8,0.2s-0.6-0.3-0.6-0.5C125.9,92.3,126.4,92.5,126.9,92.5"/>
		<path class="st12" d="M126.9,93.9c-0.5,0.2-1,0.3-1.5,0.2c-0.1,0-0.3,0-0.4-0.1s-0.2-0.2-0.1-0.4c0.4,0,0.7,0,1.1,0.1
			c0.1,0,0.2,0,0.3,0.1c0.2,0.1,0.3,0.4,0.5,0.3"/>
		<path class="st12" d="M128.1,100.7h-3.7c-0.4,0-0.8-0.3-0.8-0.8v-4.1c0-0.4,0.3-0.8,0.8-0.8h3.7c0.4,0,0.8,0.3,0.8,0.8v4.1
			C128.8,100.3,128.5,100.7,128.1,100.7z"/>
		<path class="st13" d="M127.8,95.8c-0.8-0.1-1.6-0.2-2.4-0.2c-0.2,0-0.3,0-0.5,0.1c-0.3,0.2-0.5,0.6-0.5,0.9c0,0.4,0.1,0.8,0,1.1
			c-0.1,0.4-0.2,0.7-0.2,1.1c0,0.5,0.4,1,0.9,1.1c0.5,0.1,1.1-0.2,1.6-0.1c0.3,0,0.5,0.1,0.8,0.1c0.3,0,0.7-0.1,1-0.3
			c0.2-0.8-0.1-1.6-0.1-2.5c0-0.3,0-0.5,0-0.8C128.2,96.2,128,95.9,127.8,95.8"/>
		<path class="st12" d="M125.2,96.9c0.8,0,1.6,0,2.4,0c-0.7,0.3-1.6,0.4-2.3,0"/>
		<path class="st12" d="M127.5,98.3c-0.8,0.1-1.7,0.2-2.5,0.2c0.1,0,0.2,0,0.3,0c0.7,0.3,1.6,0.2,2.3-0.1"/>
		<path class="st12" d="M126.8,99.1c-0.2,0-0.3,0-0.5,0.1c0.2,0.1,0.5,0.1,0.7,0C127,99.1,126.9,99.1,126.8,99.1"/>
		<path class="st12" d="M126.2,97.6c-0.2,0-0.4,0-0.5,0c0.2,0.1,0.4,0.2,0.6,0.1c0-0.1-0.1-0.1-0.2-0.1"/>
		<path class="st12" d="M126.8,95.9c-0.4,0-0.8,0-1.2,0.2c0.5,0.1,1,0.1,1.5,0c-0.1-0.1-0.3-0.2-0.5-0.2"/>
	</g>
	<g id="Forca">
		<polygon class="st15" points="47.8,58.8 63,75.8 167.5,75.8 167.5,58.8 		"/>
		<path class="st16" d="M59.1,66.7c-2.6-1.7-5-3.8-7-6.1c1.7-0.8,3.7-0.2,5.5,0.1c2.8,0.4,5.5-0.3,8.3-0.5c3.1-0.2,6.2,0.2,9.3,0.4
			c4.3,0.3,8.6,0.3,12.8,0.2c10.9-0.1,21.8-0.1,32.8-0.2c5.3,0,10.6-0.1,16-0.1c4.4,0,8.7,0,13.1-0.1c3.3,0,6.7-0.1,10-0.2
			c2.1,0,4.2-0.1,6.3-0.1c-0.8,2.3-0.6,4.9-0.3,7.4c0.2,2,0.4,3.9,0.6,5.9c-2,1.7-5.1,0.9-7.7,0.5c-2.9-0.3-5.9,0.1-8.9,0.4
			C134.3,76,118.5,73.2,103,75c-2.4,0.3-4.8,0.7-7.2,0.5c-2.3-0.2-4.5-0.9-6.7-1c-2.4-0.1-4.8,0.4-7.2,0.5
			c-4.6,0.1-9.4-1.7-13.8-0.4c-1.1,0.3-2.3,0.7-3.2,0c-0.4-0.3-0.6-0.8-0.8-1.3c-1.2-2.8-3.1-5.2-5.5-7.1"/>
		<path class="st15" d="M71.7,68.1c2.3-0.2,4.5-0.4,6.8-0.5c1.5-0.1,3-0.2,4.5-0.1c1.7,0.1,3.4,0.5,5.1,0.3
			c-1.1,0.1-2.2,0.2-3.2,0.3c-0.2,0-0.5,0-0.7,0.1c-3.6,0.3-7.3,0.6-10.9,0.6c-0.8,0-1.6,0-2.3-0.5c0.2-0.1,0.5-0.3,0.7-0.4"/>
		<path class="st15" d="M96.3,72c0.5,0.1,1-0.3,1.5-0.5c0.5-0.2,1.2-0.1,1.3,0.4c0.1,0.4-0.3,0.8-0.8,1c-0.5,0.2-1.1,0.3-1.5,0
			c-0.4-0.3-0.7-0.9-0.3-1.3"/>
		<path class="st15" d="M122.8,65.7c6.1,0,12.3,0.1,18.4,0.5c-7.8,2.3-16.3-0.8-24.3,0.6c2.4-0.8,4.9-1.5,7.3-2.1
			c-0.2,0.5-0.6,0.9-1.1,1.1"/>
		<path class="st15" d="M132.2,71.5c2.8-0.1,5.7-0.1,8.5-0.2c-2.8,1.5-6.1,1.9-9.2,1c0.5-0.2,1.1-0.4,1.7-0.5"/>
		<path class="st15" d="M159.7,64.8c-2.2-0.2-4.4-0.2-6.7-0.1c0.4,0.6,1.1,0.7,1.8,0.7c1.4,0.1,2.7,0.1,4.1,0c0.4,0,0.7-0.1,1.1-0.1
			c0.1,0,0.2,0,0.2-0.1c0-0.1-0.1-0.1-0.1,0"/>
		<path class="st15" d="M102.7,64.3c-0.4,0.1-0.8,0.1-1.2,0.2c0,0.5,0.7,0.7,1.2,0.7c0.1,0,0.2,0,0.3-0.1c0.3-0.2-0.1-0.7-0.4-0.5"
			/>
		<path class="st15" d="M61,62.9c-0.4-0.1-0.6,0.7-0.3,0.9c0.3,0.3,0.8,0.2,1.3,0.1c0-0.2,0-0.4,0-0.6c-0.5,0.1-1.1,0-1.5-0.3"/>
		<path class="st15" d="M113.5,69.5c-0.2-0.3-0.7-0.1-0.7,0.2C113,70,113.5,69.8,113.5,69.5"/>
		<path class="st15" d="M156.2,70.6c-1.2,0-2.3,0.1-3.5,0.1c1.1,0.5,2.4,0.7,3.7,0.6c0.1-0.2,0-0.4-0.1-0.5"/>
		<path class="st17" d="M79.2,64.1c1.9,0,3.8,0,5.7,0c0.9,0,1.7,0,2.6,0c2.4,0,4.8,0,7.2,0c0,0.2-0.3,0.4-0.5,0.4
			c-5.9,1-11.9,1.1-17.8,0.4c0.9-0.6,1.9-0.9,3-1"/>
		<path class="st17" d="M77.8,70.5C76,70.2,74,71.9,72.3,71c2.8,0,5.6,0.1,8.5,0.1c-0.9-0.5-2-0.6-3-0.4"/>
		<path class="st17" d="M125.2,69.1c-2,0-4.1,0.1-6.1,0.1c2.4,0.1,4.8,0.3,7.2,0.4c0.2,0,0.5,0,0.7-0.1c0.2-0.1,0.3-0.4,0.2-0.6
			c-0.8,0-1.6,0-2.4-0.1"/>
		<path class="st17" d="M147.7,62.4c-1.9,0.1-3.9,0.1-5.8,0.2c2.1,0.1,4.2,0.2,6.3,0.3c0.2,0,0.4,0,0.5-0.2c0.1-0.2-0.1-0.4-0.3-0.6
			c-0.4-0.2-0.8-0.4-1.2-0.2c-0.4,0.2-0.3,0.9,0.1,0.9"/>
		<path class="st17" d="M109.6,65.5c-3.4,1.6-7.2,2.2-10.9,2c2.5-0.7,5.1-0.1,7.7-0.2c2.1-0.1,4.1-0.7,6-1.3
			c-0.9-0.2-1.9-0.3-2.9-0.3"/>
		<path class="st17" d="M161,68.4c-4.2-0.2-8.3-0.2-12.5-0.2c-1,0-2.3,0-2.9-0.9c5-1.6,10.4-0.1,15.6-0.8c-0.6,0.2-1.2,0.4-1.7,0.6
			c1-0.2,2,0.2,2.7,0.9c-0.4,0-0.9,0-1.3,0"/>
		<path class="st17" d="M113.8,71.4c-2.7-0.1-5.4,0.1-8,0.5c3.2,0.9,6.6,0.9,9.7,0.1c-0.6-0.7-1.6-1.1-2.5-1.1"/>
		<path class="st17" d="M68.3,63.1c-1.7,0.4-3.3,0.8-5,1.2c2.4,0,4.8-0.3,7.2-0.8c-0.8-0.3-1.8-0.4-2.6-0.3"/>
		<path class="st17" d="M67.2,68c-0.5-0.1-0.9,0-1.4,0.1c0.6,0.2,1.2,0.2,1.8,0.2c0.2,0,0.3,0,0.4-0.1c0.2-0.2,0-0.5-0.2-0.6
			c-0.2-0.1-0.5-0.1-0.7,0c-0.1,0-0.2,0.1-0.3,0.1c-0.1,0.1-0.1,0.3,0,0.3s0.2-0.2,0.1-0.2"/>
		<path class="st17" d="M91.5,70.5c-0.2-0.1-0.6,0.2-0.5,0.4c0.9,0.1,1.8-0.1,2.6-0.5c-0.9,0-1.8,0.2-2.6,0.6
			c-0.1-0.3,0-0.7,0.3-0.8"/>
		<path class="st17" d="M92.2,67c-0.3,0-0.6,0.4-0.5,0.7c0.4,0,0.8,0,1.1,0c-0.2-0.2-0.4-0.4-0.5-0.6"/>
		<path class="st17" d="M129.1,61.8c-1.7-0.6-3.6-0.8-5.3-0.4c-1.3,0.3-2.6,0.8-3.9,0.6c1.9-0.1,3.9-0.2,5.8,0.2
			c1.3,0.3,2.6,0.8,3.9,0.6c0.2,0,0.4-0.1,0.4-0.3c-0.7-0.4-1.4-0.6-2.2-0.8c-0.1,0-0.4,0-0.5,0"/>
		<path class="st17" d="M161.2,61c-1.3,0-2.7,0.2-4,0.5c1.4,0.3,2.8,0.5,4.2,0.4c0.1,0,0.2,0,0.2-0.1c0.2-0.1,0.1-0.4,0-0.5
			c-0.2-0.1-0.4-0.1-0.6-0.2"/>
		<path class="st17" d="M137.5,64.3c-0.3,0.1-0.5,0.2-0.8,0.1c-0.2-0.1-0.4-0.5-0.2-0.6c0.1-0.1,0.2-0.1,0.3-0.1c0.4,0,0.9,0,1.3,0
			c0,0.2-0.1,0.5-0.3,0.6"/>
		<path class="st17" d="M145.2,69.8c-0.4,0.2-0.9,0-1.4,0c-0.5,0-1,0.4-0.8,0.8c0.4,0.2,0.9,0.3,1.4,0.2c0.4-0.1,0.8-0.7,0.5-1.1"/>
		<polygon class="st15" points="47.8,64 47.8,58.8 63,75.8 63,115.5 63,178.1 63,230.8 47.8,230.8 		"/>
		<polygon class="st18" points="49.2,59.5 63,75.8 47.8,60.2 47.8,58.8 		"/>
		<path class="st16" d="M61.6,189.7c-0.9-2.8,0.5-5.9,0.4-8.9c-0.1-1.8-0.7-3.5-0.8-5.3c0-1.5,0.3-3,0.5-4.4
			c1.1-7.1-0.9-14.4,0.2-21.4c0.4-2.4,2-5.6,0.3-7.4c-1.2-1.2-1.5-3.1-1.4-4.8c0.1-1.7,0.6-3.4,0.7-5.1c0.2-3.2-0.8-6.4-0.8-9.7
			c0-2.6,0.7-5.1,0.5-7.7c-0.2-2.7-1.4-5.4-0.8-8c0.2-1,0.7-1.9,0.9-2.9c0.4-2.7-1.6-5.4-0.9-8.1c0.2-0.8,0.7-1.6,0.8-2.5
			c0.1-0.9-0.1-1.7-0.3-2.5c-0.4-1.9-0.4-3.8-0.3-5.8c0-2.5,0-4.9,0-7.4c-1.2-0.5-1.3-2.3-2.1-3.3c-0.5-0.6-1.1-0.9-1.7-1.4
			c-2.1-1.6-3-4.2-4.8-6c-0.3-0.3-0.7-0.6-1.1-0.7c-1.1-0.2-1.9,1-1.9,2.1c0,1.1,0.6,2.1,0.8,3.1c0.4,1.7-0.1,3.4-0.3,5.1
			c-0.3,1.9-0.3,3.8-0.3,5.7c0,4.8,0,9.7,0,14.5c0,5.2,0,10.4,0,15.6c0,4.4,0,8.8,0,13.3c0,1.9,0,3.7,0.4,5.6
			c0.1,0.4,0.2,0.9,0.1,1.3c-0.1,0.3-0.2,0.6-0.4,0.9c-0.4,0.9-0.4,1.9,0,2.8c1.7,3.9,0.6,8.3,0.1,12.6c-0.1,1.1-0.3,2.2-0.4,3.4
			c0,0.5,0,1,0,1.5c0,7.7,0,15.4,0.1,23.1c0,0.7,0,1.4,0.2,2c0.2,0.5,0.5,0.9,0.6,1.4c0.2,0.8,0.1,1.6-0.1,2.5
			c-0.3,1.8-0.6,3.5-1,5.3c-0.5,2.5,0.5,4.9,0.8,7.5c0.3,2.3,0.1,4.7-0.3,7c-0.2,1.1-0.4,2.2-0.5,3.4c-0.1,1.1,0,2.2,0.1,3.3
			c0.3,4.4,0.4,8.7,0.3,13.1c0,1.1,0,2.3,0.3,3.4c0.3,1.1,1.1,2.1,2.2,2.4c1.4,0.4,2.9-0.5,4.3-0.4c0.6,0.1,1.2,0.3,1.9,0.4
			c0.6,0.1,1.4-0.1,1.7-0.7c0.2-0.3,0.2-0.6,0.2-1c0.2-2.8,0.5-5.6,0.7-8.4c0.1-1.4,0.2-2.7,0.2-4.1c0-2.5-0.5-5-0.5-7.6
			c0-5.4,2.3-10.9,0.9-16.2"/>
		<path class="st15" d="M58.1,79.5c-1.9,5-1.6,10.4-1.4,15.7c1-2.5,0.6-5.3,1.1-8c0.1-0.6,0.2-1.2,0.4-1.7c0.4-2,0.6-4,0.2-6"/>
		<path class="st15" d="M52.4,74.1c-0.1,0.5-0.2,1-0.3,1.6c-0.1,0.4-0.1,1,0.3,1.1c0.2,0.1,0.5-0.1,0.6-0.3c0.1-0.2,0.1-0.5,0-0.7
			c-0.1-0.5-0.4-1-0.8-1.3"/>
		<path class="st15" d="M51.1,92.6c0.5,6.4,1,12.9,1.5,19.3c0.7-4,0.7-8.2,0-12.2c-0.1-0.8-0.3-1.5-0.4-2.3c-0.2-1.5-0.1-3-0.1-4.5
			c-0.1,0.3-0.2,0.5-0.4,0.8c-0.3-0.3-0.4-0.8-0.4-1.2"/>
		<path class="st15" d="M57.4,110.3c0,6.8,0.1,13.6,0.1,20.5c0.4-1.4,0.5-3,0.6-4.4c0.3-5.4,0.6-10.8-0.5-16.1"/>
		<path class="st15" d="M54.1,121.8c0.2,6.6,0.2,13.2,0.1,19.8c-0.8-6.3-0.8-12.7,0-19"/>
		<path class="st15" d="M57.4,139.9c-0.3,1.1,1,1.8,1.4,2.9c0.4,1.1-0.3,2.4-0.6,3.5c-0.2,0.9-0.2,1.9-0.2,2.8
			c0.1,1.7,0.1,3.3,0.2,5c0.4-0.8,0.7-1.8,0.8-2.7c0.1-0.9,0-1.8,0-2.7c0.1-1.7,0.6-3.3,1.1-4.8c0.1-0.2,0.1-0.4,0.1-0.6
			c0-0.2-0.1-0.4-0.1-0.6c-0.4-1.3-1.3-2.4-2.5-3.2c0.3,0.4,0.2,1-0.2,1.2"/>
		<path class="st15" d="M61.4,144.1c0,0.5-0.1,0.9-0.1,1.4c-0.1-0.1-0.3-0.2-0.4-0.2c0,0.2,0,0.4,0,0.5c0.5-0.2,0.7-0.9,0.4-1.4"/>
		<path class="st15" d="M55,160.4c0,0.8,0,1.6-0.1,2.4c-0.1,0.6-0.3,1.2-0.5,1.9c-0.3,1-0.6,1.9-0.9,2.9c-0.1-3.7-0.3-7.3-0.4-11
			c-0.1-1.7-0.1-3.4-0.6-5.1c0.1,1.1,0.6,2.1,1.4,2.9c0-0.4,0-0.9,0-1.3c0-1.1,0.2-2.1,0.8-3.1C55.6,153.1,55,157,55,160.4z"/>
		<path class="st15" d="M57.6,164.3c-0.7,1.3-1.4,2.5-1.7,3.9c-0.2,1-0.2,1.9-0.2,2.9c0,2.4-0.1,4.7-0.1,7.1
			c0.3-0.6,0.5-1.2,0.6-1.9c0.2-1,0.2-2,0.3-3c0.3-2.5,1.3-4.8,1.7-7.3c0.1-0.7,0.1-1.6-0.4-2.1"/>
		<path class="st15" d="M59.2,157.1c-0.3,0.7-0.6,1.4-0.7,2.2c0,0.2-0.1,0.4,0.1,0.5c0.1,0.1,0.3,0,0.4-0.1c0.1-0.1,0.1-0.3,0.1-0.5
			c0-0.6,0-1.2,0-1.8"/>
		<path class="st15" d="M53.1,176c0.5,1.2,0.8,2.5,0.8,3.7c0.1,1.4-0.1,2.8-0.2,4.2c-0.2,3-0.1,6,0.3,9c-1.2-1.2-1.7-2.9-1.9-4.6
			s0.1-3.4,0.2-5.1c0.1-2.3,0-4.7-0.7-6.9c-0.1-0.2-0.2-0.5-0.2-0.7c0.5,0.4,0.9,0.9,1.1,1.5c0.1-0.4,0.1-0.8,0.2-1.2
			c0.3,0.1,0.5,0.4,0.5,0.6"/>
		<path class="st15" d="M58.6,186.1c-0.1,0-0.2,0.2-0.3,0.3c-0.8,4.8,0.3,9.7-0.3,14.6c0.2-2.3,1.6-4.4,1.8-6.7
			c0.2-1.8-0.3-3.6,0-5.4c-0.3,0-0.5,0-0.8,0c-0.2-1.2-0.2-2.4,0.1-3.6c-0.4,0-0.7,0.5-0.6,0.9"/>
		<path class="st15" d="M51.7,204c-0.2,1.4-0.4,2.8-0.4,4.2c0.1,1.9,0.6,3.7,0.6,5.6c0,1.8-0.5,3.6-0.3,5.4c1.1-2.7,1.5-5.6,1.2-8.4
			c-0.2-2.4-0.9-4.8,0.1-7c-0.3,0.1-0.6,0.3-0.6,0.6c0-0.3-0.4-0.5-0.7-0.5c0,0.2,0,0.4,0,0.6"/>
		<path class="st15" d="M58.4,207.4c-0.1,2.4-0.3,4.8-0.4,7.2c-0.2,3.2-0.3,6.5,0.6,9.6c0.3-3.1,0.5-6.3,0.8-9.4
			c0.1-1.2,0.2-2.5,0.1-3.7c-0.1-1.4-0.4-2.8-0.9-4.2c-0.1,0.1-0.1,0.3-0.1,0.5"/>
		<path class="st15" d="M54.9,219.9c-0.5,1.3-0.8,2.7-0.7,4.1c0,0.3,0.1,0.7,0.4,0.8c0.2-0.7,0.3-1.5,0.5-2.2c0.2-1,0.4-2.1-0.1-3"
			/>
		<path class="st15" d="M54.7,198.1c-0.3,1-0.3,2-0.2,3c0.4-0.3,0.6-0.9,0.6-1.4C55,199.1,54.8,198.7,54.7,198.1"/>
		<path class="st15" d="M52,115c-0.4,0.7-0.4,1.6-0.3,2.5c0,0.1,0,0.3,0.1,0.4c0.2,0.2,0.5,0.1,0.6-0.1c0.1-0.2,0.1-0.5,0.1-0.7
			c0-0.7,0-1.4-0.5-1.9"/>
		<path class="st15" d="M57,100.3c0,0.4,0,0.8,0.1,1.2c0.2,0.4,0.5,0.7,0.9,0.6c0.3-0.6-0.3-1.4-1-1.4"/>
		<path class="st17" d="M50.9,81.5c-0.1,1.1-0.2,2.2-0.1,3.3c0,1,0.2,2,0.9,2.7c0-1.4,0-2.9,0-4.3c0-0.2,0-0.4-0.1-0.6
			s-0.3-0.3-0.5-0.2c0-0.2,0-0.3,0-0.5"/>
		<path class="st17" d="M54.5,94c0.1,1.3,0.1,2.5,0.2,3.8c0,0.1,0,0.3,0.1,0.3c0.2,0.1,0.4-0.1,0.5-0.3c0.5-1.2,0-2.6-0.5-3.8"/>
		<path class="st17" d="M55.8,76.6c-0.4,0-0.6,0.5-0.8,0.9c-0.4,1.4-0.6,2.9-0.7,4.4c0.7-0.8,1.4-1.7,1.4-2.8c0-0.4,0-0.8,0.2-1
			c0.2-0.2,0.4-0.2,0.6-0.4c0.2-0.1,0.3-0.4,0.1-0.6c-0.1-0.1-0.3,0-0.4,0c-0.1,0-0.3-0.1-0.3-0.3"/>
		<path class="st17" d="M54.3,86.4c-0.2,0.5,0.3,1.1,0.8,1C55.4,86.9,55,86.2,54.3,86.4"/>
		<path class="st17" d="M50.8,69.9c0,0.3,0.2,0.5,0.5,0.6c0.3,0.1,0.5,0,0.8,0c-0.2-0.5-0.7-0.9-1.2-0.9
			C50.8,69.6,50.8,69.8,50.8,69.9"/>
		<path class="st17" d="M56,105.2c-0.4,0.1-0.6,0.6-0.7,1c-0.2,1.1-0.4,2.2-0.6,3.3c-0.3,3.5,0.4,7-0.2,10.4
			c0.7-0.9,0.7-2.2,0.7-3.3c0-0.9,0-1.9-0.1-2.8c0-0.6-0.1-1.1,0-1.7c0.1-0.5,0.3-1.1,0.5-1.6c0.5-1.3,1-2.6,1.8-3.7
			c-0.6-0.1-1.3,0.3-1.6,0.8c0.7-0.8,1.2-1.6,1.6-2.6c-0.5-0.1-1.1-0.1-1.6,0.2"/>
		<path class="st17" d="M58,96.3c-0.1,0.7-0.1,1.4-0.1,2.1c0,0.4,0,0.8,0.3,1c0.1,0.2,0.3,0.3,0.4,0.4c0.2,0.3,0.2,0.8,0.2,1.2
			c0,0.1,0,0.2,0,0.3c0.1,0.3,0.5,0.2,0.7-0.1s0-0.5-0.1-0.8c-0.3-0.7-0.5-1.5-0.8-2.2c-0.1-0.3-0.2-0.6,0-0.9
			c0.1-0.2,0.3-0.3,0.4-0.4c0.2-0.3,0.2-0.7,0-0.9c-0.2-0.3-0.7-0.3-0.9,0"/>
		<path class="st17" d="M59,90c-0.3,0.8-0.3,1.7-0.3,2.5c0,0.1,0,0.3,0.1,0.4c0.1,0.1,0.3,0.1,0.4,0c0.1-0.1,0.1-0.1,0.1-0.2
			c0.1-0.9,0-1.8-0.1-2.7"/>
		<path class="st17" d="M51.1,133.4c-0.2,1.7,0.1,3.4,0.4,5.1c0,0.3,0.1,0.6,0.4,0.7c0.5-0.4,0.4-1.1,0.4-1.7
			c-0.2-1.4-0.4-2.8-0.6-4.2c-0.2,0-0.4,0.2-0.4,0.4"/>
		<path class="st17" d="M51.6,121.2c0,2.3-0.1,4.7-0.1,7c0.2,0.1,0.3-0.2,0.4-0.4c0.3-1.7,0.5-3.4,0.5-5.2c0-0.3-0.1-0.7-0.4-0.8"/>
		<path class="st17" d="M56.1,130.8c0.3,1.8,0.4,3.6,0.2,5.4c-0.1,0.8-0.2,1.6,0.3,2.3c0.4-2.5,0.5-5,0.2-7.5c0-0.2-0.1-0.5-0.3-0.6
			C56.3,130.2,56,130.5,56.1,130.8"/>
		<path class="st17" d="M59.7,129.5c0,1.8-0.1,3.6-0.1,5.4c0.2,0,0.3-0.4,0.2-0.6c-0.1-1.4,0-2.9,0.3-4.3"/>
		<path class="st17" d="M52.2,145.4c0,1.4,0,2.8,0,4.1c0,0.2,0,0.4,0.1,0.5c0.1,0.1,0.3,0.2,0.4,0.1c0.1-0.1,0.1-0.2,0.1-0.2
			c0.2-1.5,0.3-3.1,0.4-4.6c0-0.1,0-0.2-0.1-0.3c-0.2-0.2-0.5,0.1-0.5,0.4c0,0.3,0,0.6-0.2,0.7"/>
		<path class="st17" d="M51.8,169.1c0,1.7,0.1,3.3,0.3,5c0-0.4,0-0.8,0.1-1.2c0.2-0.4,0.5-0.7,0.9-0.6c-0.1,0.2,0,0.4,0.1,0.6
			c0.4-0.9-0.1-1.9-0.5-2.7s-1-1.8-0.7-2.7c0,0.7,0,1.5,0,2.2"/>
		<path class="st17" d="M57.6,174.6c0.1,1.1,0,2.2-0.2,3.3c-0.1,0.7-0.2,1.4-0.3,2.1c-0.1,0.6-0.2,1.1-0.3,1.7
			c-0.3,1.6-0.9,3.1-0.7,4.7c-0.2-0.5-0.1-1.1,0.3-1.6c0.1-0.1,0.2-0.3,0.3-0.4c0.1-0.2,0.1-0.4,0.1-0.6c0.1-0.8,0.8-1.4,1-2.2
			c0.3-1.1-0.2-2.4,0.3-3.4c0.2,0.8,0.5,1.7,0.9,2.4c-0.2-1.8,0.3-3.8-0.3-5.5c-0.1-0.2-0.2-0.5-0.5-0.6c-0.2-0.1-0.6,0.2-0.4,0.4"
			/>
		<path class="st17" d="M59.7,165.1c0.1,2.4-0.1,4.8-0.6,7.1c0.3,0.2,0.6-0.1,0.8-0.4c0.4-0.6,0.5-1.3,0.5-2c0-0.6,0.1-1.2,0.1-1.8
			c0.1-0.7,0.1-1.3,0-2c-0.2-1-0.7-1.9-0.9-2.9c0,0.9-0.1,1.9-0.1,2.8"/>
		<path class="st14" d="M59.5,184.4c-0.2,0.8-0.2,1.6,0,2.4c0.3-0.8,0.4-1.7,0.2-2.6"/>
		<path class="st17" d="M51.4,194.3c-0.2,1.6,0,3.2,0.2,4.8c0.1,0.8,0.2,1.6,0.3,2.3c0.2-0.1,0.3-0.3,0.3-0.6c0-2.2,0-4.4,0-6.6
			c0-0.3-0.1-0.6-0.4-0.6c0-0.3-0.4-0.7-0.4-1c0.2,0.2,0.3,0.4,0.5,0.6"/>
		<path class="st17" d="M56.5,195.6c0.4,2.2,0.4,4.5,0.1,6.7c0.3-1.8,0.4-3.6,0.1-5.4c-0.1-0.3-0.1-0.7-0.4-0.9"/>
		<path class="st17" d="M55,206.7c-0.1,2.5-0.2,5-0.3,7.6c0-1.2,0.1-2.4,0.4-3.6c0.3-1.1,0.6-2.3,0.2-3.4"/>
		<path class="st17" d="M58.8,201.2c-0.4,1.1-0.5,2.2-0.5,3.4c0,0.4,0.2,0.9,0.6,0.8c0.3-1.3,0.4-2.6,0.4-3.9"/>
		<path class="st17" d="M52.5,220.5c-0.7,0.5-1.1,1.4-0.9,2.3c0.5,0.2,0.9-0.4,0.9-0.9C52.5,221.4,52.3,220.8,52.5,220.5"/>
		<path class="st17" d="M56.4,224.5c-0.1,0.2-0.1,0.5,0,0.7c0.1,0.2,0.4,0.4,0.6,0.3c0.1-0.5,0-1-0.4-1.3c-0.1,0.1-0.1,0.2-0.1,0.4"
			/>
		<path class="st17" d="M56.1,214.5c-0.1,1.5,0,3.1,0.2,4.6c0.4-1.5,0.5-3.2,0.1-4.8"/>
		<path class="st17" d="M59.8,182.8c-0.1,0.3-0.2,0.7-0.2,1c0,0.3,0.3,0.6,0.5,0.4c0.1-0.1,0.1-0.1,0.1-0.2c0-0.4,0-0.9-0.1-1.3"/>
		<polygon class="st15" points="82.8,75.8 63,101.4 63,109.8 88.9,75.8 		"/>
		<polygon class="st18" points="82.7,77.3 87.8,77.3 88.9,75.8 82.8,75.8 81.6,77.3 		"/>
		<polygon class="st18" points="63.8,100.3 63.8,108.7 63,109.8 63,101.4 		"/>
		<path class="st16" d="M65.8,105.1c-0.8-0.3-0.9-1.3-0.9-2.1c0-0.6-0.1-1.3,0.2-1.9c0.1-0.4,0.4-0.7,0.6-1c0.9-1.4,1.9-2.8,2.8-4.1
			c0.6-0.9,1.3-1.9,2.2-2.5c1.5-1.1,2.5-3.1,3.7-4.6c0.3-0.3,0.5-0.7,0.8-1c0.3-0.4,0.6-0.8,1-1.2c1.3-1.7,2.7-3.4,4-5.1
			c0.9-1.2,2.1-2.5,3.6-2.6c0.3,0,0.6,0,0.8,0.2c0.3,0.3,0.3,0.8,0.1,1.1c-0.2,0.4-0.5,0.6-0.8,0.9c-1.6,1.5-2.3,3.6-3.8,5.2
			c-0.8,0.9-1.7,1.5-2.5,2.3c-1.1,1.1-2,2.3-2.9,3.6c-2.2,3.1-4.3,6.3-6.4,9.6c-0.7,1.1-1.4,2.3-2.4,3.2"/>
		<path class="st15" d="M67.6,98.5c-0.2,0.3-0.4,0.7-0.7,1c-0.5,0.7-1,1.5-0.8,2.4c0.7-0.9,1.3-1.9,1.8-2.9c-0.2,0-0.3-0.2-0.2-0.4"
			/>
		<path class="st15" d="M82.3,80.4c-0.3,0.3-0.6,0.6-0.8,0.9c0.2,0.2,0.5-0.1,0.6-0.3s0.2-0.5,0.4-0.6"/>
		<path class="st15" d="M80,84c-0.7,0.4-0.8,1.3-1.4,1.7c0.4,0.1,0.8-0.1,1.1-0.4s0.4-0.7,0.5-1.1"/>
		<path class="st15" d="M71.8,93.6c-0.2,0.2-0.4,0.5-0.4,0.7c0.1,0.1,0.2,0.1,0.3,0c0.1-0.1,0.1-0.2,0.2-0.3
			c0.1-0.2,0.1-0.5,0.2-0.7c-0.1,0-0.2,0-0.4,0C71.7,93.4,71.7,93.5,71.8,93.6"/>
		<path class="st15" d="M66.2,71.7c1.8,0,3.6,0.2,5.3,0.7c-0.9,0.3-1.7,0.5-2.6,0.6s-1.8,0-2.6-0.4c-0.3-0.2-0.6-0.4-0.7-0.7
			C65.8,71.8,66,71.7,66.2,71.7"/>
		<path class="st15" d="M78.7,73c2,0.3,3.9-0.6,5.9-0.7c0.9,0,1.7,0.1,2.6,0.3c1.2,0.1,2.5,0.2,3.7,0.1c-1.3,0.3-2.6,0.5-3.9,0.6
			c-2.5,0.2-5.1,0.5-7.6-0.3"/>
		<path class="st15" d="M126.2,71.7c-3.1,0.4-6.3-0.7-9.5-0.1c-0.3,0-0.6,0.2-0.6,0.5c0.1,0.2,0.3,0.3,0.5,0.3
			c2.6,0.2,5.2-0.4,7.7-0.2c0.7,0,1.4,0.1,2-0.3c-0.1,0-0.2-0.1-0.3-0.1"/>
		<path class="st15" d="M114.7,63.3c-0.5,0-1,0.1-1.3,0.5c1.1,0.3,2.2,0.2,3.3-0.2c-0.7-0.1-1.4-0.2-2.1,0
			C114.6,63.5,114.7,63.4,114.7,63.3c0,0-0.1,0-0.2,0"/>
		<path class="st17" d="M76.9,86.8c-0.2,0-0.3,0.3-0.4,0.5c-0.3,0.6-1,0.9-1.2,1.5c0.1,0.1,0.3,0,0.4-0.1c0.6-0.5,1.1-1.2,1.3-2"/>
		<path class="st17" d="M70,95.6c-0.3,0.6-0.6,1.2-1,1.8c0.4,0.1,0.8-0.2,0.8-0.6c-0.1,0.2-0.2,0.4-0.1,0.7c0.4-0.6,0.6-1.3,0.6-2
			c-0.2-0.1-0.4,0-0.5,0.1"/>
		<path class="st17" d="M74.1,90.7c-0.1,0.1-0.3,0.2-0.3,0.4c-0.1,0.2,0,0.4,0.2,0.4c0.1,0,0.3-0.1,0.3-0.2c0-0.1,0-0.3,0-0.4"/>
		<path class="st17" d="M81,82.6c-0.2-0.1-0.4,0-0.5,0.2s0,0.4,0.1,0.6c0.3,0.2,0.7,0,0.9-0.3s0-0.8-0.4-0.9
			c-0.3-0.1-0.6,0.1-0.5,0.4C80.7,82.7,80.8,82.7,81,82.6"/>
		<path class="st17" d="M67.9,100.3c-0.4,0.7-0.8,1.5-1.3,2.2c-0.1,0.2-0.3,0.5-0.3,0.7c0.6-0.7,1.1-1.4,1.6-2.1"/>
		<path class="st8" d="M36.7,235.6c-2.9-6.4,0.8-11.5,6.4-4.9c2.9-4.2,5.9-4.1,7.1,0c0.9-2.2,3.9-5.6,5.3-0.9c1.1-3.2,4.1-4.7,4.7,0
			c3-2.4,4.8-2.2,4.7,2.2c3.6-2.4,6.6-1.6,3.3,2.9c-0.1-1.9-0.9-3.1-4.3-1.1c-0.8-2.6-1.8-3.8-3.7-1.3c-1.1-1.5-2.4-2.2-4.1,0
			c-2.4-2.2-4.4-2.3-5.5,1.6c-2-2.8-4.3-3-6.8,0.1C39.5,230.6,37.5,231.8,36.7,235.6z"/>
		<path class="st13" d="M120.6,75.8c-0.7,1.4-3,1.3-3.7,0v-17c0.5-1.2,3.4-1.2,3.7,0V75.8z"/>
		<path class="st12" d="M119.2,76.7c0.6-0.1,1.1-0.4,1.4-1v-17c-0.2-0.5-0.7-0.8-1.4-0.9c0.5,0.5,0.9,1.1,0.7,2.2l0,13.9
			C120.1,75.3,119.9,76.3,119.2,76.7z"/>
		<path class="st13" d="M124.3,75.8c-0.7,1.4-3,1.3-3.7,0v-17c0.5-1.2,3.4-1.2,3.7,0V75.8z"/>
		<path class="st12" d="M122.9,76.8c0.6-0.1,1.1-0.4,1.4-1v-17c-0.2-0.5-0.7-0.8-1.4-0.9c0.5,0.5,0.9,1.1,0.7,2.2l0,13.9
			C123.8,75.4,123.6,76.3,122.9,76.8z"/>
		<path class="st13" d="M128.1,75.8c-0.7,1.4-3,1.3-3.7,0v-17c0.5-1.2,3.4-1.2,3.7,0V75.8z"/>
		<path class="st12" d="M126.7,76.8c0.6-0.1,1.1-0.4,1.4-1v-17c-0.2-0.5-0.7-0.8-1.4-0.9c0.5,0.5,0.9,1.1,0.7,2.2l0,13.9
			C127.6,75.4,127.4,76.3,126.7,76.8z"/>
		<path class="st13" d="M131.8,75.8c-0.7,1.4-3,1.3-3.7,0v-17c0.5-1.2,3.4-1.2,3.7,0V75.8z"/>
		<path class="st12" d="M130.4,76.8c0.6-0.1,1.1-0.4,1.4-1v-17c-0.2-0.5-0.7-0.8-1.4-0.9c0.5,0.5,0.9,1.1,0.7,2.2l0,13.9
			C131.3,75.4,131.1,76.3,130.4,76.8z"/>
		<path class="st13" d="M135.5,75.8c-0.7,1.4-3,1.3-3.7,0v-17c0.5-1.2,3.4-1.2,3.7,0V75.8z"/>
		<path class="st12" d="M134.1,76.8c0.6-0.1,1.1-0.4,1.4-1v-17c-0.2-0.5-0.7-0.8-1.4-0.9c0.5,0.5,0.9,1.1,0.7,2.2l0,13.9
			C135,75.4,134.8,76.3,134.1,76.8z"/>
		<path class="st12" d="M119.3,61.4c-0.5,0.1-1,0.2-1.4,0.5c0.5-0.1,0.9-0.1,1.4-0.2c0,0,0,0,0,0c0,0,0-0.1,0-0.1
			S119.3,61.5,119.3,61.4"/>
		<path class="st12" d="M119.1,64c-0.4,0.1-0.8,0.1-1.2,0C118.3,64.2,118.7,64.2,119.1,64"/>
		<path class="st12" d="M118.9,65.1c-0.4,0.1-0.8,0.3-1.3,0.3c0.5,0.1,0.9,0.1,1.4,0.1c0.1,0,0.3,0,0.4-0.2
			C119.2,65.3,119,65.2,118.9,65.1"/>
		<path class="st12" d="M118.9,67.3c-0.2,0.1-0.5,0.1-0.7,0.2c0.3,0,0.6,0,0.9-0.1C119.1,67.3,119,67.3,118.9,67.3"/>
		<path class="st12" d="M118.9,69.1c-0.2,0-0.4,0-0.6,0c0.2,0.1,0.4,0.2,0.6,0.2c0.2,0,0.4-0.1,0.4-0.2c-0.1,0-0.3,0-0.4-0.1"/>
		<path class="st12" d="M118.5,71.6c-0.2,0-0.4,0.1-0.6,0.2c0.3,0.2,0.8,0.3,1.2,0C118.9,71.7,118.6,71.6,118.5,71.6"/>
		<path class="st12" d="M119.3,73.3c-0.4,0-0.7,0-1.1,0c0.2,0,0.4,0.2,0.6,0.3c0.2,0.1,0.4,0,0.6-0.1c0,0,0.1-0.1,0-0.1
			S119.4,73.3,119.3,73.3"/>
		<path class="st12" d="M119.2,74.7c-0.4,0-0.7,0-1.1,0c0.3,0.4,1,0.4,1.3,0.1C119.4,74.7,119.2,74.7,119.2,74.7"/>
		<path class="st12" d="M119.3,60.4c-0.4-0.2-1-0.2-1.4,0.1c0.1-0.3,0.3-0.4,0.6-0.4s0.5,0,0.8,0.1c0,0,0.1,0,0.1,0.1s0,0.1,0,0.1"
			/>
		<path class="st12" d="M119.2,59.2c-0.3-0.1-0.7-0.1-1,0.1c-0.1,0,0-0.1,0-0.2c0-0.1,0.1-0.1,0.2-0.1
			C118.6,58.9,118.9,59,119.2,59.2"/>
		<path class="st12" d="M119,62.6c-0.3,0-0.6,0-0.9,0c-0.1,0-0.3,0-0.3,0.1c0.2,0.1,0.5,0.2,0.8,0.2c0.3,0,0.5-0.1,0.7-0.3
			c-0.1,0-0.2-0.1-0.4-0.1"/>
		<path class="st12" d="M119,70.4c-0.5,0.1-1.1,0.1-1.6-0.1c0.6,0.3,1.3,0.4,1.9,0.3c0-0.1,0-0.1,0-0.2c-0.2,0-0.3-0.1-0.5-0.1"/>
		<path class="st12" d="M121.1,59.4c0.6-0.2,1.2-0.3,1.8-0.2c-0.4-0.2-0.8-0.2-1.3-0.2c-0.1,0-0.3,0-0.4,0.1
			C121.2,59.1,121.1,59.3,121.1,59.4"/>
		<path class="st12" d="M123.1,60.1c-0.6-0.1-1.3-0.1-1.9,0c0.5,0.1,1,0.2,1.5,0.2C122.9,60.3,123.1,60.3,123.1,60.1"/>
		<path class="st12" d="M123,61.3c-0.1,0-0.2,0-0.3,0c-0.3,0-0.6-0.2-0.9-0.2c-0.3-0.1-0.6-0.1-0.9,0.1
			C121.7,61.2,122.3,61.3,123,61.3"/>
		<path class="st12" d="M123,62.5c-0.2-0.1-0.5-0.1-0.7-0.2c-0.2,0-0.3-0.1-0.5-0.1c-0.2,0-0.4,0.1-0.4,0.3c0.2,0.1,0.5,0,0.7,0
			c0.4,0,0.7,0,1.1,0.1"/>
		<path class="st12" d="M122.9,63.7c-0.6-0.1-1.1-0.1-1.7-0.1c0.5,0.1,1,0.1,1.4,0"/>
		<path class="st12" d="M122.7,64.9c-0.6,0.1-1.2,0.2-1.8,0.2c0,0.2,0.2,0.3,0.3,0.4c0.2,0.1,0.4,0,0.6,0c0.4-0.1,0.8-0.2,1.2-0.4
			c-0.2,0-0.3-0.1-0.5-0.1"/>
		<path class="st12" d="M123,66.8c-0.3,0-0.6,0-0.9,0c-0.3,0-0.6,0-0.9,0.2c0.7,0.1,1.3,0.1,2-0.2C123.1,66.8,123,66.8,123,66.8"/>
		<path class="st12" d="M122.7,68.5c-0.5,0.2-1.1,0.2-1.6,0.3c0.6,0.1,1.2,0.1,1.7-0.1c0,0,0.1,0,0.1,0c0,0,0-0.1,0,0"/>
		<path class="st12" d="M122.8,69.9c-0.5,0.1-0.9,0.1-1.4,0.1c0.3,0.1,0.5,0.1,0.8,0.2c0.3,0,0.7,0,0.9-0.3
			C123,69.9,122.9,69.9,122.8,69.9"/>
		<path class="st12" d="M122.8,71.6c-0.5,0.2-1,0.2-1.5,0c0.1,0.2,0.3,0.2,0.6,0.2c0.4,0,0.8,0,1.2-0.2
			C123,71.6,122.9,71.6,122.8,71.6"/>
		<path class="st12" d="M122.9,72.9c0.1,0,0.1,0.1,0.2,0.1c-0.5,0-1,0-1.5,0.1c0.4,0.2,0.9,0.1,1.3,0c0.1,0,0.2,0,0.2-0.1
			c0.1-0.1,0.1-0.2,0-0.3c-0.1-0.1-0.2-0.1-0.2,0"/>
		<path class="st12" d="M123,74.1c-0.5,0.1-1,0.1-1.4,0.2c0.5,0.3,1.2,0.3,1.7-0.1C123.2,74.2,123.1,74.2,123,74.1"/>
		<path class="st12" d="M122.8,75.6c-0.4,0.1-0.8,0.2-1.2,0.1c0.4-0.3,1,0.1,1.4-0.1C122.9,75.5,122.8,75.5,122.8,75.6"/>
		<path class="st12" d="M126.5,59.5c-0.6-0.1-1.1,0-1.7,0.1c0.2-0.1,0.4-0.2,0.6-0.3c0.1,0,0.2-0.1,0.3-0.1c0.1,0,0.2,0.1,0.2,0.1
			c0.2,0.1,0.5,0.2,0.7,0.2"/>
		<path class="st12" d="M126.4,60.7c-0.5-0.2-1.1-0.2-1.6,0c0-0.1,0.1-0.2,0.2-0.3c0.2-0.1,0.4-0.3,0.6-0.3c0.2,0,0.5,0.1,0.7,0.2
			c0.1,0,0.1,0.1,0.2,0.1c0,0.1,0.1,0.1,0,0.2C126.5,60.7,126.4,60.7,126.4,60.7"/>
		<path class="st12" d="M126.7,61.7c-0.1,0.1-0.2,0.1-0.3,0.1c-0.5-0.1-1-0.1-1.5-0.2c0.4-0.4,1.2-0.4,1.6,0"/>
		<path class="st12" d="M126.7,63.1c-0.5,0-1.1,0-1.6,0c0.1-0.2,0.4-0.3,0.7-0.3C126,62.9,126.4,62.9,126.7,63.1"/>
		<path class="st12" d="M126.5,64.9c-0.3,0-0.7,0-1,0c0.2-0.1,0.3-0.3,0.5-0.3s0.4,0,0.6,0.1c-0.1,0-0.1,0.1-0.2,0.1"/>
		<path class="st12" d="M126.5,66.1c-0.5,0-1.1,0-1.6,0.1C125.4,66,126,66,126.5,66.1"/>
		<path class="st12" d="M126.6,67.3c-0.5,0.1-1.1,0.2-1.6,0.3c0.4-0.5,1.2-0.7,1.8-0.3C126.8,67.3,126.7,67.3,126.6,67.3"/>
		<path class="st12" d="M126.5,68.9c-0.4,0-0.9,0-1.3,0c0.1,0,0.3-0.2,0.4-0.2c0.1,0,0.1,0,0.2,0c0.3,0.1,0.6,0.1,0.9,0.2"/>
		<path class="st12" d="M126.7,70c-0.4,0.1-0.8,0.1-1.2,0.2c-0.1,0-0.2,0-0.2-0.1c0.4,0,0.8,0,1.3,0"/>
		<path class="st12" d="M126.7,71.3c-0.4,0.2-0.8,0.4-1.2,0.6c0-0.2,0.2-0.3,0.3-0.3s0.4,0,0.5-0.1"/>
		<path class="st12" d="M126.6,72.9c-0.3,0.1-0.6,0.1-0.9,0.1c0.2-0.2,0.5-0.2,0.8-0.1"/>
		<path class="st12" d="M126.4,74.3c-0.4,0.1-0.7,0.1-1.1,0.1c0-0.1,0.1-0.1,0.2-0.1C125.8,74.2,126.1,74.3,126.4,74.3"/>
		<path class="st12" d="M126.4,75.4c-0.2,0.1-0.4,0.1-0.6,0.2c-0.3,0.1-0.6,0.2-0.8,0.1c0.4-0.1,0.8-0.2,1.2-0.3
			c0.1,0,0.2,0,0.3-0.1"/>
		<path class="st12" d="M130.5,59.8c-0.6-0.1-1.2-0.2-1.8-0.1c0.6-0.3,1.2-0.3,1.8,0C130.5,59.7,130.6,59.7,130.5,59.8"/>
		<path class="st12" d="M130,58.6c-0.3,0-0.6-0.1-0.9-0.1c0.3-0.1,0.7-0.1,1.1-0.1c-0.1,0-0.1,0-0.2,0"/>
		<path class="st12" d="M130.3,61.5c-0.4,0-0.7-0.1-1.1-0.1c-0.1,0-0.2,0-0.3-0.1c0.2-0.2,0.5-0.2,0.8-0.1S130.1,61.5,130.3,61.5"/>
		<path class="st12" d="M130,60.6c-0.3,0-0.7,0-1-0.1c0.3-0.2,0.7-0.1,1,0C130.1,60.5,130,60.5,130,60.6"/>
		<path class="st12" d="M130.6,63.2c-0.6,0-1.1-0.1-1.7-0.1c0.5-0.3,1.2-0.3,1.7,0"/>
		<path class="st12" d="M130.1,65.1c-0.5-0.1-0.9-0.1-1.4-0.2c0.5-0.2,1-0.1,1.4,0.1"/>
		<path class="st12" d="M130.3,64.3c-0.4-0.1-0.7-0.1-1.1-0.2c0.4-0.2,0.8-0.2,1.2,0.1"/>
		<path class="st12" d="M130.2,66.5c-0.3-0.1-0.7,0.1-1,0.1c-0.1,0-0.2,0-0.3,0c-0.1,0-0.2-0.1-0.2-0.2c0-0.2,0.3-0.2,0.4-0.2
			c0.3,0,0.6,0.1,0.9,0.1c0,0,0.1,0,0.1,0c0,0,0,0.1,0,0.1"/>
		<path class="st12" d="M130.4,67.7c-0.6-0.1-1.1-0.1-1.7-0.1C129.3,67.5,129.9,67.5,130.4,67.7C130.5,67.7,130.4,67.7,130.4,67.7"
			/>
		<path class="st12" d="M130.2,69.4c-0.5,0.1-1,0.1-1.5-0.1c-0.1,0-0.1-0.1-0.1-0.1c0.3,0,0.6,0,0.9,0
			C129.8,69.3,130,69.3,130.2,69.4"/>
		<path class="st12" d="M130.3,70.4c-0.5,0.1-1,0.1-1.6,0.2c0,0-0.1,0-0.1,0c0,0,0,0,0-0.1c0-0.1,0.2-0.2,0.3-0.2
			C129.4,70.3,129.8,70.3,130.3,70.4"/>
		<path class="st12" d="M130,72.1c-0.4,0.1-0.9,0-1.3-0.1c0.6-0.1,1.2,0,1.7,0.1C130.3,72.1,130.2,72.2,130,72.1"/>
		<path class="st12" d="M130.3,73.2c0,0.1-0.1,0.1-0.1,0.1c-0.4,0-0.8,0-1.1,0c-0.1,0-0.1,0-0.2,0c-0.1,0-0.1-0.1,0-0.2
			C129.3,73,129.8,73,130.3,73.2c0,0-0.1,0-0.1,0.1"/>
		<path class="st12" d="M130.3,74.3c-0.3,0-0.6,0-0.9-0.1c-0.3-0.1-0.5-0.2-0.8-0.2c0.6,0.5,1.4,0.6,2.1,0.4
			C130.6,74.3,130.4,74.3,130.3,74.3"/>
		<path class="st12" d="M130.2,75.7c-0.5-0.1-1-0.3-1.5-0.4c0.3,0.5,0.9,0.7,1.4,0.6C130.2,75.9,130.4,75.8,130.2,75.7"/>
		<path class="st12" d="M134.2,75.5c-0.6,0.1-1.1,0.1-1.7,0c0,0.2,0.3,0.2,0.5,0.3c0.2,0,0.4,0,0.6,0.1c0.1,0,0.3,0,0.4,0
			C134.2,75.8,134.3,75.7,134.2,75.5"/>
		<path class="st12" d="M134.2,74.3c-0.5,0.1-0.9,0-1.4-0.1c-0.1,0-0.3,0-0.3,0.1C133,74.6,133.6,74.5,134.2,74.3"/>
		<path class="st12" d="M134,73.5c-0.6,0.1-1.1,0-1.7-0.3c0.5,0,1,0.1,1.5,0.3"/>
		<path class="st12" d="M134,72.2c-0.4,0-0.9,0-1.3,0c-0.2,0-0.4,0-0.5-0.2C132.8,72,133.4,72,134,72.2"/>
		<path class="st12" d="M133.8,71.1c-0.5,0-0.9-0.1-1.4-0.2c0.2-0.1,0.4-0.1,0.6-0.1c0.3,0.1,0.6,0.3,0.9,0.3"/>
		<path class="st12" d="M133.9,69.8c-0.4,0-0.8,0.1-1.2,0.1c0,0,0-0.1,0-0.1C133,69.6,133.4,69.7,133.9,69.8"/>
		<path class="st12" d="M133.8,68.5c-0.6,0-1.2-0.1-1.7-0.3C132.7,68.3,133.3,68.3,133.8,68.5"/>
		<path class="st12" d="M134.2,67.3c-0.5,0-0.9-0.1-1.3-0.2c0.4-0.1,0.9-0.1,1.3-0.1c0,0.1-0.1,0.1-0.1,0.2"/>
		<path class="st12" d="M133.5,66.7c-0.4,0-0.7-0.1-1.1-0.2c0.3-0.2,0.7-0.1,1,0c0.1,0,0.3,0.1,0.4,0.1
			C133.7,66.6,133.6,66.6,133.5,66.7"/>
		<path class="st12" d="M133.9,65.5c-0.3,0-0.7,0-1,0c-0.1,0-0.3,0-0.4-0.1c0.4,0,0.7-0.1,1.1,0c0.2,0,0.4,0,0.6,0.2
			c-0.1,0-0.1,0-0.2,0"/>
		<path class="st12" d="M134,64.4c-0.5,0-1.1-0.1-1.7,0c0.3-0.2,0.6-0.2,0.9-0.2c0.3,0,0.6,0.1,1,0.2C134.1,64.3,134,64.3,134,64.4"
			/>
		<path class="st12" d="M134,63.1c-0.5,0-1.1-0.1-1.6-0.3C133,62.7,133.6,62.9,134,63.1"/>
		<path class="st12" d="M134,61.7c-0.5,0-0.9,0-1.4,0c0.1-0.2,0.4-0.3,0.7-0.3c0.1,0,0.3,0,0.4,0C133.9,61.4,134,61.4,134,61.7
			C134.1,61.6,134,61.6,134,61.7"/>
		<path class="st12" d="M133.9,60.6c-0.6-0.1-1.2-0.1-1.8-0.2C132.7,60.2,133.3,60.3,133.9,60.6"/>
		<path class="st14" d="M133.9,59.3c-0.4-0.1-0.8-0.1-1.2-0.2c-0.1,0-0.2,0-0.3,0.1c0,0.1,0,0.2,0.1,0.2s0.2,0,0.3,0.1
			c0.3,0,0.5,0.1,0.8,0.1c0.3,0,0.5-0.2,0.6-0.4c-0.1,0-0.1,0-0.2-0.1"/>
		<path class="st12" d="M133.9,58.5c-0.4,0-0.7,0-1.1,0c0.3-0.2,0.6-0.2,0.9-0.1"/>
		<path class="st12" d="M134,59.5c-0.6-0.1-1.2-0.1-1.8-0.2c0.4-0.1,0.7-0.1,1.1,0C133.6,59.3,133.9,59.3,134,59.5"/>
	</g>
</g>
<g id="Espada">
	<g id="Espada_1_">
		<polygon id="XMLID_776_" class="st19" points="257.6,180.2 240.3,221.7 256.5,221.8 271.6,182.3 269.7,177.6 262.6,176 
			258.1,179.1 		"/>
		<polygon id="XMLID_777_" class="st20" points="258.5,180.3 260.7,188.2 259.1,180.3 		"/>
		<polygon id="XMLID_778_" class="st20" points="262,188.8 270.3,183.4 270.3,182.8 		"/>
		<polygon id="XMLID_779_" class="st20" points="260.3,190.3 248.3,220.9 260.7,190.3 		"/>
		<polygon id="XMLID_780_" class="st21" points="267.3,190.7 250.4,197.4 246.7,206.5 264.7,200.3 268.5,190.3 		"/>
		<polygon id="XMLID_781_" class="st21" points="243.1,216 260.7,210.7 258.2,217.2 243.1,221.6 240.3,221.7 242.6,216.4 		"/>
		<ellipse id="XMLID_782_" class="st20" cx="259.9" cy="191.9" rx="3.6" ry="3.9"/>
		<ellipse id="XMLID_783_" class="st20" cx="256.3" cy="200.9" rx="3.6" ry="3.9"/>
		<ellipse id="XMLID_784_" class="st20" cx="252.7" cy="209.6" rx="3.6" ry="3.9"/>
		<path id="XMLID_785_" class="st20" d="M247.5,221.8c-1.2-0.6-2-1.9-2-3.5c0-2.1,1.6-3.9,3.6-3.9c2,0,3.6,1.7,3.6,3.9
			c0,1.5-0.8,2.8-1.9,3.4"/>
		<ellipse id="XMLID_786_" class="st22" cx="259.9" cy="191.9" rx="3.1" ry="3.4"/>
		<path id="XMLID_787_" class="st23" d="M252.8,174.5l25.4,7.2c1.2,0.7,1.3,1.9-0.1,3.8c2.6-1.7,6.6-5.1,1.9-7.2l-25.9-7.3
			c-3.6-0.8-5.3,2-5.2,6C250,175.6,251.1,173.8,252.8,174.5z"/>
		<polygon id="XMLID_788_" class="st23" points="270.6,161.1 273.4,162.3 267.6,176.3 264.8,175.1 		"/>
		<path id="XMLID_789_" class="st24" d="M249.5,174.7c1.1-1.6,2.3-2.9,4.9-2c0.4,0.1,0.5-0.8,0.4-1.3c-4.3-1.4-5.1,1.2-5.7,3.1
			l-0.2,0.8L249.5,174.7z"/>
		<polygon id="XMLID_790_" class="st24" points="265.9,173.8 266.8,173.9 271.6,162.3 270.6,161.9 		"/>
		<path id="XMLID_791_" class="st25" d="M275.6,177.1c0.4,0.4,0.2,0.8-0.5,1.2c3.1,0.9,4.5,2.5,4,4.8c-0.1,0.8-0.4,1.7-1,2.4
			c3.9-2.4,6.1-5.5,1.9-7.2L275.6,177.1z"/>
		<polygon id="XMLID_792_" class="st26" points="264.1,172.5 271.3,174.7 264.3,181.4 		"/>
		<path id="XMLID_793_" class="st22" d="M265.8,178.7c0.7-1.3,1.5-2.5,3.1-2.6L265.8,178.7z"/>
		<path id="XMLID_794_" class="st22" d="M264.5,175.1c0.9,1.1,0.6,2.2,0.2,3.4L264.5,175.1z"/>
		<path id="XMLID_795_" class="st27" d="M272.2,162.7c-1.4-0.1-2.5-1.3-2.4-2.6c0.1-1.3,1.3-2.3,2.8-2.2c1.4,0.1,2.5,1.3,2.4,2.6
			C274.9,161.8,273.6,162.8,272.2,162.7z"/>
		<path id="XMLID_796_" class="st24" d="M266.4,173.5c-1.2,0-1.9,0.6-2.2,2.1l-0.1-3l3.6,1.1L266.4,173.5z"/>
		<path id="XMLID_797_" class="st24" d="M272.5,159.5c-0.4,0-0.6-0.3-0.6-0.6s0.3-0.5,0.7-0.5c0.4,0,0.6,0.3,0.6,0.6
			C273.1,159.3,272.8,159.5,272.5,159.5z"/>
		<path id="XMLID_798_" class="st24" d="M271.7,161.6c-0.3-0.5-0.3-1.1,0.1-1.6c0.5-0.3-0.2-1-0.7-0.6c-0.6,0.5-0.7,1.4-0.2,2.1
			C271.3,162,271.8,161.9,271.7,161.6z"/>
		<ellipse id="XMLID_799_" class="st28" cx="259.6" cy="190" rx="0.8" ry="0.7"/>
		<path id="XMLID_800_" class="st28" d="M258.8,193.3c-0.5-0.7-0.5-1.3,0-1.9c0.6-0.4-0.4-1.2-0.9-0.7c-0.7,0.6-0.7,1.8,0,2.6
			C258.4,193.8,259,193.7,258.8,193.3z"/>
		<ellipse id="XMLID_801_" class="st29" cx="256.3" cy="200.9" rx="3.1" ry="3.4"/>
		<ellipse id="XMLID_802_" class="st30" cx="256" cy="198.9" rx="0.8" ry="0.7"/>
		<path id="XMLID_803_" class="st30" d="M255.2,202.2c-0.5-0.7-0.5-1.3,0-1.9c0.6-0.4-0.4-1.2-0.9-0.7c-0.7,0.6-0.7,1.8,0,2.6
			C254.8,202.7,255.4,202.6,255.2,202.2z"/>
		<ellipse id="XMLID_804_" class="st31" cx="252.7" cy="209.7" rx="3.1" ry="3.4"/>
		<ellipse id="XMLID_805_" class="st32" cx="252.4" cy="207.7" rx="0.8" ry="0.7"/>
		<path id="XMLID_806_" class="st32" d="M251.6,211c-0.5-0.7-0.5-1.3,0-1.9c0.6-0.4-0.4-1.2-0.9-0.7c-0.7,0.6-0.7,1.8,0,2.6
			C251.2,211.6,251.8,211.4,251.6,211z"/>
		<ellipse id="XMLID_807_" class="st33" cx="249.1" cy="218.3" rx="3.1" ry="3.4"/>
		<ellipse id="XMLID_808_" class="st34" cx="248.9" cy="216.4" rx="0.8" ry="0.7"/>
		<path id="XMLID_809_" class="st34" d="M248.1,219.7c-0.5-0.7-0.5-1.3,0-1.9c0.6-0.4-0.4-1.2-0.9-0.7c-0.7,0.6-0.7,1.8,0,2.6
			C247.6,220.2,248.2,220.1,248.1,219.7z"/>
		<polygon id="XMLID_810_" class="st25" points="268.1,178.6 271.2,175.5 270.6,175.4 267.8,178.5 		"/>
	</g>
	<path class="st8" d="M237.4,225.1c-1.1-4.7,0.8-5.9,5.6-3.5c3.6-3.3,6.2-2.2,8.4,0.8c3.8-2.7,5.2-1.6,5.9,0.6
		c2.8-1.3,3.8-0.5,3.1,2.2c-0.9-0.7-1.5-2.1-3.4,0c-1.1-0.9-2.1-1.9-5.5-1c-1.4-1.2-4.7-2.5-7.7,0
		C240.9,222.7,238.5,222.5,237.4,225.1z"/>
</g>
</svg>
