<?xml version="1.0" encoding="utf-8"?>
<!-- Generator: Adobe Illustrator 19.0.0, SVG Export Plug-In . SVG Version: 6.00 Build 0)  -->
<svg version="1.1" id="Letra_L" xmlns="http://www.w3.org/2000/svg" xmlns:xlink="http://www.w3.org/1999/xlink" x="0px" y="0px"
	 viewBox="0 0 600 600" style="enable-background:new 0 0 600 600;" xml:space="preserve">
<style type="text/css">
	.st0{fill:#F9C29E;}
	.st1{fill:#E6A784;}
	.st2{fill:#F9CCB5;}
</style>
<ellipse id="XMLID_191_" class="st0" cx="302" cy="527.6" rx="118.9" ry="46.7"/>
<path id="XMLID_190_" class="st1" d="M419.3,519.9c-9.3-22.1-58.3-39-117.3-39c-57.5,0-105.4,16-116.5,37.3
	C267.2,556.7,345.1,557.3,419.3,519.9z"/>
<path id="XMLID_189_" class="st0" d="M198.4,511C131,474.2,60.6,284.4,188.2,227c23.5-8.2,35.8-0.2,53.1,5.1
	c19.7-28.1,58.1-20.3,68.4-1c11.5-13,31.7-17.4,43.9-4.1l6.1-125.6c0-52.2,85.8-76.6,80.7,0c-11.2,90.3-13.7,173.1-11.2,251.5
	c35.1-13.8,70.3-21.4,106.2,6.9c19.8,20.3,16.5,36.9-16.3,49c-28.2,12.4-47.2,29.7-58.2,51.1c-28.5,42.9-63,81.5-151.2,80.7
	C257.7,538.5,219.9,529,198.4,511z"/>
<path id="XMLID_188_" class="st1" d="M212.8,355.5c11.5,13.5,27.8,10,48.9-10.7c18.4-22,15-57.9-19.1-113.6l7.3-8.1
	c33.5,51.2,49.7,121.6,1.6,140.4c-27.6,14.4-57.6,8.3-54.1-49.7c2.7,15.1,8.4,51.8,28.3,51.8c6.1,0,12-2,18-3
	c12.6-2.1,25.5,0.4,38.1-1.1c17.1-1.9,36.4-10.4,50.2,0c0.5-2-0.1-4.2-1.5-5.7c8.1,1.4,16.5-1.6,22.8-6.8c2.7-2.3,5.1-4.9,7.5-7.6
	c7.7-8.8,15.3-18.7,16.3-30.4c1.4-15.5-8.8-32.4-1-45.8c4.2,7.9,8.3,15.7,12.5,23.6c1.5,2.9,3.1,5.8,3.9,9c1.5,6,0.3,12.3-0.9,18.4
	c-3.1,14.6-6.7,29.8-16.6,41.1c-12.3,14.1-32,19.3-50.7,19.9c-3.2,0.1-6.5,0.1-9.4,1.3c-3.1,1.3-5.5,3.8-8.3,5.5
	c-4.7,2.7-10.3,3-15.6,3c-26.1,0-52.1-5.8-75.8-16.7c-2.6-1.2-5.3-2.6-6.7-5c-1.4-2.5-0.9-6.3,1.8-7.3"/>
<path id="XMLID_187_" class="st1" d="M315,226c30.4,122.6-5.1,151.5-70.2,138.2l8.9-4.6c57.3,8.6,81.9-26.4,56.2-128.9L315,226z"/>
<path id="XMLID_186_" class="st1" d="M354,226c37.5,99,11.8,133.3-48.5,127.9l-5,4.1c100.1-2,111.2-24.4,54.3-147.6L354,226z"/>
<path id="XMLID_185_" class="st1" d="M429.3,352.9c-30.9,18.8-59.7,42-81.7,78.4c15.7-29.1,31.6-67.3,81.7-93V352.9z"/>
<path id="XMLID_184_" class="st2" d="M422.2,76.6c-1.2-5.5-6.7-9.2-12.2-10.1c-5.5-1-11.2,0.3-16.7,1.5c-6,1.3-12.3,2.9-16.4,7.4
	c-4.1,4.5-4.3,13,1.1,15.8c6,3.1,12.7-2.6,19.4-3.8c9.2-1.6,17.9,5.7,27.2,5.4c2.5-5.1,2.2-11.5-0.7-16.4"/>
<path id="XMLID_183_" class="st2" d="M410.9,390.7c-5.2-0.9-10.5,1-14.8,4c-4.3,3-7.7,7.1-11.1,11.1c-2.9,3.5-5.9,7-8.8,10.5
	c-5.5,6.5-11.3,14-10.6,22.5c0.1,1.5,0.5,3,1.4,4.3c1.6,2.3,4.6,3,7.3,3.6c3.2,0.7,6.4,1.4,9.6,1c6.1-0.7,11.2-5.2,15.2-9.9
	c4-4.7,7.4-10.1,12.3-13.8c2.2-1.6,4.7-2.9,6.9-4.6c3.6-2.7,6.4-6.6,7.1-11.1c0.7-4.4-0.9-9.3-4.6-11.9c-4-2.8-10.4-3-12.2-7.5"/>
<path id="XMLID_182_" class="st2" d="M472.2,356.6c7.7,0,14.8,3.7,21.2,7.9c2.1,1.4,4.2,2.9,6.7,3.4s5.4-0.1,6.7-2.3
	c1.3-2.1,0.6-4.9-1-6.8c-1.6-1.9-3.8-3-6-4c-6.4-3-13.7-5.7-20.5-3.9c-1.3,0.4-2.7,0.9-3.5,2.1c-0.8,1.2-0.6,3,0.6,3.6"/>
<path id="XMLID_181_" class="st2" d="M325.1,245.8c5.4-0.5,10.8-1,16.2-1.4c1-0.1,2.2-0.2,3-0.9c1.7-1.4,1.1-4.2-0.2-6
	c-4.8-6.9-17-6.5-21.3,0.7c-0.6,0.9-1,2-0.9,3.1c0.2,2.8,3.6,4,6.4,4.6"/>
<path id="XMLID_180_" class="st2" d="M269.9,236.3c5.9-0.9,12,0.2,17.2,3.1c1.6,0.9,3.3,2.1,5.2,1.9c1.6-0.1,3.1-1.3,3.8-2.8
	c2.2-4.1-0.6-9.5-4.7-11.8c-4.1-2.2-9-2.2-13.7-1.9c-3.5,0.2-7.3,0.6-9.7,3.2s-1.7,7.9,1.7,8.4"/>
<path id="XMLID_179_" class="st2" d="M198.5,260.7c4.1-4.7,10.4-7.5,16.7-7.5c3.9,0,8.8,0.6,10.8-2.8c1.2-2.2,0.3-5.1-1.5-6.8
	s-4.3-2.6-6.7-3.2c-4.1-1-8.3-1.5-12.5-1.6c-6.1,0-12.5,1.1-17.1,5c-4.6,3.9-6.8,11.2-3.4,16.3c3.4,5.1,12.6,5,14.7-0.7"/>
<path id="XMLID_178_" class="st2" d="M270.1,550c19.2,6.7,40.1,3.7,60.4,4.4c0.6,0,1.1,0,1.6,0.3c1.1,0.5,1.7,1.7,1.8,2.9
	c0.3,3.2-2.2,6.2-5.1,7.5c-2.9,1.3-6.3,1.4-9.5,1.5c-15.3,0.3-30.8,0.6-45.6-3.3c-2.1-0.6-4.3-1.3-6-2.7c-1.7-1.4-2.8-3.7-2.2-5.9
	c0.6-2.1,3.3-3.6,5.2-2.5"/>
<polygon id="XMLID_177_" class="st1" points="321.9,367.2 347.6,362.1 334.7,356.1 318.2,354.4 318.2,360.8 "/>
</svg>
