<?xml version="1.0" encoding="utf-8"?>
<!-- Generator: Adobe Illustrator 19.0.0, SVG Export Plug-In . SVG Version: 6.00 Build 0)  -->
<svg version="1.1" xmlns="http://www.w3.org/2000/svg" xmlns:xlink="http://www.w3.org/1999/xlink" x="0px" y="0px"
	 viewBox="-5 7 600 600" style="enable-background:new -5 7 600 600;" xml:space="preserve">
<style type="text/css">
	.st0{fill:#F9C29E;}
	.st1{fill:#E6A784;}
	.st2{fill:#F2B999;}
	.st3{fill:#D39271;}
	.st4{fill:#F9CCB5;}
	.st5{fill:none;stroke:#000000;stroke-miterlimit:10;}
	.st6{stroke:#000000;stroke-miterlimit:10;}
</style>
<g id="Letra_C">
	<path id="XMLID_43_" class="st0" d="M221.4,524.5c-28.1,15-32.1,38.3,13.2,55c52.3,16.1,149.6,21.1,185.3-20.5
		c25.1-29.2,10.7-79.8-16.8-79.8L221.4,524.5z"/>
	<path id="XMLID_42_" class="st1" d="M403.1,479.3l-181.7,45.2c-5.3,2.8-9.8,6-13.2,9.3c62.1,40.1,171.2,60.9,217.9-39
		C418.9,483.8,411.2,479.6,403.1,479.3z"/>
	<path id="XMLID_41_" class="st2" d="M169.5,328.9c-1.1,22.2-4,42.9-12.1,59c-17.7,33.2-10.2,54,0,73.5l176.9,53.4l27.2-64.1
		l-4.4-105.4l-51.3-59.7l-87.6-5l-48.3,34.2L169.5,328.9z"/>
	<path id="XMLID_40_" class="st1" d="M359.9,411.3l-2.7-66l-51.3-59.7l-87.6-5L170,314.8l-0.3,14.2c-0.5,9.6-1.3,19-2.7,27.8
		c18.3,3.9,36.2,8.6,63.2-7.6c3.7-4.1,8-6,15.7,2.4c12.5,11.7,26.9,21.3,54.1,16.4C320.3,357.9,340.6,355.7,359.9,411.3z"/>
	<path id="XMLID_39_" class="st3" d="M200.4,303.7c5.7,13.4,10.7,26.8,10.4,40.6c2.5-14.9,2.9-29.1,0-42.1L200.4,303.7z"/>
	<path id="XMLID_38_" class="st3" d="M249.7,289.6c10.5,24.6,17.9,47.6,18.8,67.1c2.4-25,5.8-50.2-9.4-71.1L249.7,289.6z"/>
	<path id="XMLID_37_" class="st0" d="M108.1,317.1c-19.3-7.4-39.3-20.1-25.8-52.2c12.6-30.5,35.9-62.6,90.9-65.9
		c34.8-3.4,73.1-2.1,112.4,0.5L108.1,317.1z"/>
	<path id="XMLID_36_" class="st0" d="M311.5,200.1c-83.9,0.2-169.9-3.7-205.8,87.3c-9.6,33.8,5.6,51.6,43.4,55l130.4-78.3l66.1-32.2
		L311.5,200.1z"/>
	<path id="XMLID_35_" class="st4" d="M249.7,200.9c-61.6,3.2-117,17.9-144.1,86.5c-5.3,18.6-3.1,32.4,6.3,41.6
		C112.8,317.4,94.5,233.2,249.7,200.9z"/>
	<path id="XMLID_34_" class="st0" d="M241.2,545.6C304.8,573.6,431,567,431,438.2c-2.9-119.5-29.5-219.8-116.3-238.1
		c-49.1-5.6-101.3,10.5-162,82.7c-42.3,44.9-3.6,91,32.2,57c60.9-68,128.9-66.2,144.1,25.7c14.4,85.1-26,121-83.2,83.5
		c-51.9-39.4-97.9-47.2-101.1-1.8C141.6,472.9,163.9,503.7,241.2,545.6z"/>
	<path id="XMLID_33_" class="st1" d="M328.9,365.5c14.4,85.1-26,121-83.2,83.5C297.6,516.5,371,463.7,328.9,365.5z"/>
	<path id="XMLID_32_" class="st4" d="M330.8,204.6c-5.1-1.9-10.5-3.4-16.2-4.6c-49.1-5.6-101.3,10.5-162,82.7
		c-37,39.3-12,79.5,18.8,66.1c-22.6-11.1-30.4-31,0.9-66.1C234.1,226.4,287.7,197.7,330.8,204.6z"/>
	<path id="XMLID_31_" class="st4" d="M240.4,445c-49.7-35.9-92.7-41.7-95.8,2.1c-0.3,2.7-0.3,5.5-0.1,8.3
		C160.1,426.3,194.8,427.3,240.4,445z"/>
	<path id="XMLID_30_" class="st4" d="M224.2,197c-17.6-0.1-34.7,0.4-51,2c-55,3.3-78.3,35.4-90.9,65.9c-7.3,17.3-4.8,29,2.1,37.3
		C77.2,249.6,143,196.7,224.2,197z"/>
	<path id="XMLID_29_" class="st4" d="M386.7,565.8c-25,12.7-57.8,11.8-90.7,10.7c-4.4,0-2.7,5.6,0,6.7c24.7,2.9,67.8,3.7,91.6-11.2
		C391.2,569.2,389.2,564.5,386.7,565.8z"/>
</g>
<g id="Setas">
	<path class="st5" d="M127.4,155.4c40.9-23.4,83.4-27.7,121.6-22"/>
	<polygon class="st6" points="249,109.4 249,155.4 282.8,132.4 	"/>
	<polygon class="st6" points="120.3,132.4 136.4,176.4 92.4,176.4 	"/>
	<path class="st5" d="M437.1,270.9c27.5,38.3,36.1,80.1,34.3,118.7"/>
	<polygon class="st6" points="495.4,387.2 449.6,391.9 475.9,423.1 	"/>
	<polygon class="st6" points="459.3,261.5 417.2,282 412.7,238.3 	"/>
	<path class="st5" d="M66.6,506.1c-26-39.4-33-81.5-29.8-119.9"/>
	<polygon class="st6" points="12.9,387.7 58.8,384.8 33.7,352.5 	"/>
	<polygon class="st6" points="44.1,514.7 87,495.8 89.8,539.7 	"/>
</g>
</svg>
