<?xml version="1.0" encoding="utf-8"?>
<!-- Generator: Adobe Illustrator 19.0.0, SVG Export Plug-In . SVG Version: 6.00 Build 0)  -->
<svg version="1.1" id="Letra_W" xmlns="http://www.w3.org/2000/svg" xmlns:xlink="http://www.w3.org/1999/xlink" x="0px" y="0px"
	 viewBox="0 0 600 600" style="enable-background:new 0 0 600 600;" xml:space="preserve">
<style type="text/css">
	.st0{fill:#F9C29E;}
	.st1{fill:#E6A784;}
	.st2{fill:#F9CCB5;}
</style>
<ellipse id="XMLID_380_" class="st0" cx="308.4" cy="517.2" rx="125.6" ry="48.9"/>
<path id="XMLID_379_" class="st1" d="M433.2,511.5c-7.3-24.3-60.4-43.1-124.8-43.1c-62.3,0-114,17.7-123.9,40.8
	c59.6,45.5,127.2,62.1,211.8,18.5L433.2,511.5z"/>
<path id="XMLID_378_" class="st0" d="M208.9,519.7c95.9-16.8,300.4,73,249.3-212.3l50.3-179.9c17.1-94.7-58-85.9-75-23.9
	l-33.3,119.4c0.4,9.6-2.4,10.3-8.5,0.9L384,95.9c0-103.2-76.8-93-70.8,4.3l6,143.3c0,0,0,13.6-6.8,1.7c-6.8-11.9-41.8-133-41.8-133
	c-15.4-70.6-82.7-44.4-65.7,27.3l12.8,65.2l9.4,38.8C91.8,225.2,81.5,418.2,208.9,519.7z"/>
<path id="XMLID_377_" class="st1" d="M227.1,243.4c29.6,12.8,55.6,28,63.6,55c11.5,26.9-15.4,56.9-51.6,45.7
	c-26.9-3.6-46.4-12.4-56.3-28.1c21.2,11.7,42.6,24.6,60.5,14.5c3.4-13.6,13.6-33,27.3-39.2c16.3-7.5-37.7-39.4-69.1-47.8
	C206.6,241.3,214.4,240.9,227.1,243.4z"/>
<path id="XMLID_376_" class="st1" d="M261.8,346.6c8.7,11.8,24,17.1,34,27.8c3.1,3.3,5.7,7.1,8.7,10.5c4.8,5.4,10.8,9.7,17.4,12.5
	c1.5,0.6,3.1,1.2,4.2,2.4c1.8,2,1.9,5,1.3,7.7c-2.5,11.5-13.3,18.9-19.9,28.5c-4.2,6.1-6.8,13.1-9.4,20c-2,5.3-3.9,10.6-5.9,15.9
	c-4.1-3.8-3.4-10.3-4.2-15.8c-1.6-11.9-10.6-23.1-7.4-34.6c0.7-2.6,2-5.1,1.7-7.7c-0.4-3.9-4-6.5-7-9
	c-14.9-12.1-23.5-31.6-22.2-50.7c0.1-2.2,0.5-4.6,1.9-6.3c1.4-1.7,4.4-2.3,5.9-0.7"/>
<path id="XMLID_375_" class="st0" d="M396.5,519.7c26.9-8.6,50.7-20.7,66.9-40c12.8-15.3,20.8-35.2,21.7-61.6
	c-4.8-51.5-22.7-83.8-62.5-87.2c-39.6-3.2-77.6-12.4-113.7-28.4c-46.1-20.3-75.5,36.4-27.3,75l43,32.8c-20.4,17.4-28.6,42.3-34,68.8
	l-81.7,40.6C271.2,559,333.7,558.6,396.5,519.7z"/>
<path id="XMLID_374_" class="st1" d="M290.7,479.1c5.3-26.6,13.5-51.4,34-68.8L310,399.1c28.3,12.2,59.1,21.8,96.2,24.5
	c-18.9-0.1-37.2,0-76.8-9.1C313.9,427.2,301.2,449.4,290.7,479.1z"/>
<path id="XMLID_373_" class="st2" d="M467,356.5c-10-14.9-24.4-23.9-44.3-25.6c-39.6-3.2-77.6-12.4-113.7-28.4
	c-42.9-18.9-71.4,29-36.1,66.9c-11.1-24.5-12.5-44.4,3.7-56.1c12.7-7.1,22.9-5,32.4-0.6c38.5,11,77.3,22.4,110.9,27.3
	C437,341.6,453,346.4,467,356.5z"/>
<path id="XMLID_372_" class="st2" d="M233.4,313.4c0.4-4.9,1.2-10.3,4.9-13.6c2.7-2.5,6.5-3.5,9.4-5.8c3.5-2.9,5.2-7.9,4-12.4
	c-0.3-1.2-0.8-2.4-1.7-3.2c-1.5-1.5-3.8-1.7-5.9-1.9c-5.7-0.5-11.6-1-17.2,0.1c-1.7,0.4-3.4,0.9-4.8,1.8c-2.5,1.7-3.9,4.4-4.9,7.3
	c-1.6,4.8-2.1,10-2.2,15.1c-0.1,3.6-0.1,7.3,1.3,10.7c1.9,4.5,5.9,7.7,9.8,10.6c0.8,0.6,1.7,1.3,2.8,1.5c2,0.3,3.9-1.5,4.5-3.5
	s0.1-4.1-0.3-6.1"/>
<path id="XMLID_371_" class="st2" d="M251.2,91.3c-2.2-3.3-6.3-5.1-10.2-5.6s-8,0.2-12,0.9c-2.6,0.4-5.2,0.9-7.6,2
	c-7.2,3.3-10.6,11.7-11.9,19.6c-1.1,6.8-0.4,14.9,5.4,18.7c1,0.7,2.2,1.2,3.5,1c1.8-0.3,3-1.8,4-3.3c2-2.9,3.7-6.1,6.2-8.6
	s5.7-4.5,9.3-4.5c2.5,0,4.9,1.1,7.3,1.8c2.4,0.7,5.2,0.9,7.3-0.6c1.6-1.2,2.4-3.2,2.8-5.2c1.3-6.2,0-12.9-3.7-18"/>
<path id="XMLID_370_" class="st2" d="M371.7,55.7c-1.1-8-4.1-16.7-11.2-20.5c-4.7-2.5-10.4-2.4-15.5-0.9c-5.1,1.5-9.7,4.3-14.2,7
	c-2.3,1.4-4.7,2.9-6.2,5.1c-1.2,1.7-1.8,3.7-2.2,5.7c-0.8,3.3-1.4,6.7-1.7,10c-0.4,3.4,0.1,7.8,3.4,8.7c1.8,0.6,3.7-0.3,5.4-1.1
	c4.8-2.4,9.3-5.3,14.4-7.1s10.8-2.3,15.6,0.1c1.4,0.7,2.7,1.6,4.2,2.1c2.3,0.6,4.9,0,6.6-1.7c1.7-1.7,2.4-4.3,1.8-6.6"/>
<path id="XMLID_369_" class="st2" d="M489.3,70.8c-12.2-1.5-24.9,4.1-32,14.1c-0.8,1.2-1.6,2.4-1.6,3.9c0,1.4,0.7,2.8,1.5,4
	c1.2,2,2.5,4.1,4.7,4.8c1.7,0.5,3.5,0.1,5.2-0.1c4.8-0.6,9.9,0.3,14.2,2.6c3.4,1.8,6.5,4.5,10.3,5c1.3,0.2,2.6,0.1,3.8-0.5
	c2.1-0.9,3.5-3.1,4.1-5.3s0.5-4.6,0.4-6.9c-0.2-4.3-0.4-8.7-2.4-12.5c-1.7-3.4-4.7-6-7.6-8.5"/>
<path id="XMLID_368_" class="st1" d="M318.2,219l1,24.4c0,0,0,13.6-6.8,1.7c-1.5-2.6-4.4-10.5-7.9-21.2
	C308.4,283.8,340.8,275.8,318.2,219z"/>
<path id="XMLID_367_" class="st1" d="M404.2,208.5l-4,14.4c0.4,9.6-2.4,10.3-8.5,0.9l-0.9-15.7C379.2,255.6,407.6,268.4,404.2,208.5
	z"/>
<polygon id="XMLID_366_" class="st1" points="208.9,349.1 211.7,333.8 203.2,333.8 "/>
<path id="XMLID_365_" class="st2" d="M344.2,435.7c-2.6-0.8-5.4,0.5-7.7,1.9c-3.3,1.9-6.3,4.2-9.2,6.7c-6.2,5.5-11.5,12.8-11.5,21.1
	c3.8,2,8.5,2.1,12.3,0.3c2.8-1.3,5.1-3.6,7.4-5.7c6.7-6,14.4-10.8,22.7-14.3c1.9-0.8,4-1.6,5.5-3.1c1.5-1.5,2.4-3.9,1.4-5.7
	c-1-1.9-3.4-2.6-5.5-3c-2.8-0.6-5.6-1.2-8.5-0.9c-3,0.2-5.9,1.4-8.3,3.2"/>
<path id="XMLID_364_" class="st2" d="M283.4,554.5c-0.2,0.8,1,1.2,1.8,1.3c6.7,0.3,13.3,0.6,20,0.9c3.7,0.1,7.4,0.3,11-0.6
	c1.8-0.4,3.7-1.1,5.4-0.4s2.5,3.5,0.8,4.2c-0.3,0.1-0.7,0.2-1,0.2c-12.5,1.4-25.2,1.5-37.7,0.4c-3.4-0.3-7.1-0.9-9.3-3.4
	c-0.4-0.4-0.7-1-0.5-1.5c0.2-0.4,0.7-0.6,1.1-0.7c2.5-0.7,5.2-0.6,7.7,0.1"/>
</svg>
